<?xml version="1.0" encoding="utf-8"?>
<!-- Generator: Adobe Illustrator 16.0.0, SVG Export Plug-In . SVG Version: 6.00 Build 0)  -->
<!DOCTYPE svg PUBLIC "-//W3C//DTD SVG 1.1//EN" "http://www.w3.org/Graphics/SVG/1.1/DTD/svg11.dtd">
<svg version="1.1" id="Layer_1" xmlns="http://www.w3.org/2000/svg" xmlns:xlink="http://www.w3.org/1999/xlink" x="0px" y="0px"
	 width="1798.912px" height="886.89px" viewBox="0 0 1798.912 886.89" enable-background="new 0 0 1798.912 886.89"
	 xml:space="preserve">
<g>
	<g>
		<g>
			<g id="XMLID_1_">
				<g>
					<path d="M662.464-683.007c-1.974,0.17-3.956,0.322-5.93,0.456c-1.295,0.089-2.295-0.294-3-0.956c0-0.536,0-1.072,0-1.607
						c0-5.761,8.931-5.761,8.931,0C662.464-684.409,662.464-683.712,662.464-683.007z"/>
					<path d="M656.534-682.551c1.974-0.134,3.957-0.286,5.93-0.456c-0.036,73.52-0.812,147.039-1.724,220.55
						c-1.464,118.737-3.206,237.483-2.509,356.229c0.036,5.76-8.896,5.76-8.931,0c-0.438-74.217,0.071-148.433,0.884-222.649
						c1.295-118.201,3.304-236.411,3.349-354.63C654.239-682.846,655.239-682.462,656.534-682.551z"/>
					<path d="M656.534-691.482c25.561-1.769,50.844-5.788,76.44-7.136c25.989-1.358,52.005-1.938,78.021-2.054
						c51.639-0.224,103.277,1.161,154.917,0.848c5.76-0.036,5.76,8.896,0,8.931c-52.229,0.321-104.457-1.143-156.685-0.839
						c-26.025,0.152-52.05,0.706-78.03,2.143c-23.006,1.277-45.78,4.707-68.733,6.582c0-0.705,0-1.402,0-2.107
						c0-5.761-8.931-5.761-8.931,0c0,0.536,0,1.072,0,1.607C651.086-685.739,652.113-691.178,656.534-691.482z"/>
				</g>
				<g>
				</g>
			</g>
		</g>
		<g>
			<path d="M962.919-695.36c6.064,58.388,6.229,116.903,6.833,175.527c0.611,59.281-1.615,118.543-2.602,177.807
				c-1.284,77.116-0.127,154.232-1.286,231.345c-0.086,5.762,8.845,5.753,8.931,0c0.884-58.878-0.05-117.763,0.429-176.643
				c0.481-59.14,2.539-118.254,3.315-177.389c0.501-38.31,0.309-76.663-0.326-114.969c-0.642-38.623-2.372-77.246-6.364-115.678
				C971.261-701.029,962.324-701.087,962.919-695.36L962.919-695.36z"/>
		</g>
		<g>
			<path d="M650.914-94.358c105.271-2.133,210.437-7.456,315.642-11.525c5.741-0.222,5.762-9.153,0-8.931
				c-105.205,4.068-210.371,9.393-315.642,11.524C645.162-103.173,645.151-94.242,650.914-94.358L650.914-94.358z"/>
		</g>
		<g>
			<path d="M1165.724-764.183c-5.346,0.78-10.691,1.553-16.099,1.495c-13.386,3.055-26.796,6.002-40.145,9.224
				c-17.023,4.108-33.711,9.4-50.432,14.586c-31.446,9.751-62.762,21.049-90.08,39.819c-4.714,3.239-0.254,10.983,4.507,7.712
				c27.184-18.679,58.186-29.69,89.463-39.39c16.22-5.031,32.411-10.098,48.916-14.116c17.284-4.208,34.698-7.861,52.01-11.953
				C1167.67-757.704,1167.791-761.957,1165.724-764.183z"/>
		</g>
		<g>
			<path d="M1189.438-559.292c2.668,59.191,6.054,118.428,6.442,177.689c0.739,113.205-4.644,226.343-4.559,339.543
				c2.976-0.011,5.954-0.01,8.93,0.003c-0.087-117.921,5.693-235.777,4.438-353.706c-0.605-56.896-4.096-113.808-6.64-170.641
				c-1.264-28.215-2.417-56.409-2.563-84.657c-0.145-28.083,0.38-56.166,0.792-84.245c0.084-5.762-8.846-5.754-8.931,0
				c-0.429,29.245-0.952,58.491-0.772,87.741C1186.755-618.113,1188.112-588.708,1189.438-559.292z"/>
		</g>
		<g>
			<path d="M1198.633-42.062c2.271-2.172,2.268-6.652-1.663-7.548c-77.535-17.685-150.06-52.693-228.398-67.349
				c-5.628-1.053-8.031,7.554-2.374,8.611c76.826,14.373,148.064,48.307,223.917,66.291
				C1192.954-42.07,1195.794-42.069,1198.633-42.062z"/>
		</g>
		<g>
			<path d="M1215.945-390.915c0.696,59.164,0.568,118.34-0.475,177.499c-1.007,57.145-3.483,114.275-3.644,171.431
				c2.98,0.021,5.959,0.035,8.938,0.042c0.146-55.983,2.534-111.947,3.572-167.918c1.1-59.161,1.228-118.339,0.58-177.507
				c-1.296-118.375-5.843-236.696-12.322-354.895c-0.064-1.186-0.13-2.371-0.195-3.556c-0.316-5.727-9.249-5.757-8.931,0
				C1209.986-627.616,1214.553-509.296,1215.945-390.915z"/>
		</g>
		<g>
			<path d="M1185.1-767.536c-4.621,0.752-9.241,1.448-13.87,1.969c-0.512,0.45-1.204,0.774-2.107,0.898
				c-5.641,0.778-11.264,1.752-16.945,1.95c-0.823,2.611,0.527,5.978,4.075,5.939c9.273-0.101,18.413-1.568,27.541-3.087
				C1187.971-760.561,1187.751-765.404,1185.1-767.536z"/>
		</g>
		<g>
			<path d="M1189.268-765.742c-0.945-0.604-1.849-1.276-2.71-2.033c-1.264,0.208-2.528,0.415-3.793,0.614
				c-1.455,0.91-2.371,2.578-1.719,4.732c3.096,10.242,5.945,20.644,6.092,31.411c0.078,5.754,9.009,5.762,8.931,0
				c-0.157-11.559-3.086-22.787-6.411-33.785C1189.553-765.146,1189.422-765.459,1189.268-765.742z"/>
		</g>
		<g>
			<path d="M1210.352-767.943c-2.315-0.11-4.629-0.276-6.948-0.414c-0.105,1.796-0.228,3.591-0.381,5.385
				c1.802-0.249,3.602-0.508,5.396-0.804c1.424-0.234,2.46-1.362,2.946-2.69C1211.031-766.961,1210.693-767.453,1210.352-767.943z"
				/>
		</g>
		<g>
			<path d="M1186.569-767.777c-3.045,0.502-6.089,0.985-9.137,1.417c-0.071,0.305-0.119,0.623-0.119,0.958
				c0,2.336,2.033,4.596,4.465,4.465c1.556-0.083,3.11-0.179,4.665-0.288c2.05-0.144,3.809-1.411,4.309-3.343
				c-0.062-0.129-0.117-0.262-0.178-0.391C1189.151-765.75,1187.818-766.679,1186.569-767.777z"/>
		</g>
		<g>
			<path d="M1211.251-765.402c-0.107-1.034-0.495-1.879-1.048-2.539c-2.261-0.112-4.522-0.282-6.787-0.416
				c-0.146,2.409-0.337,4.815-0.553,7.222c0.117,0.569,0.099,1.119-0.04,1.631c0.43,6.072,0.656,12.158,1.283,18.216
				c0.587,5.669,9.524,5.727,8.931,0C1212.207-749.31,1212.082-757.38,1211.251-765.402z"/>
		</g>
		<g>
			<g>
				<path d="M1184.905-758.616c6.274-0.002,12.525-0.07,18.755-0.893c2.701-0.357,5-2.004,5-5c0-2.455-2.291-5.358-5-5
					c-6.229,0.823-12.481,0.891-18.755,0.893C1178.456-768.614,1178.456-758.614,1184.905-758.616L1184.905-758.616z"/>
			</g>
		</g>
		<g>
			<g>
				<path d="M992.109-466.744c2.599,11.628,5.439,23.2,8.038,34.828c0.71,3.177,5.206,2.231,5.402-0.731
					c0.31-4.687,3.603-8.404,5.261-12.664c-1.675,0.219-3.351,0.438-5.026,0.656c2.374,3.54,7.081,4.616,9.376,8.037
					c1.203,1.792,4.568,1.871,5.026-0.656c3.822-21.08-4.608-41.117-12.056-60.403c-1.264-3.271-6.583-1.852-5.304,1.463
					c7.007,18.145,15.662,37.592,12.056,57.478c1.676-0.219,3.351-0.438,5.026-0.656c-2.374-3.539-7.082-4.616-9.376-8.037
					c-1.399-2.087-4.157-1.578-5.026,0.656c-1.926,4.951-5.092,8.612-5.457,14.127c1.801-0.244,3.601-0.487,5.402-0.731
					c-2.599-11.628-5.439-23.2-8.038-34.828C996.64-471.667,991.337-470.199,992.109-466.744L992.109-466.744z"/>
			</g>
		</g>
		<g>
			<g>
				<path d="M1022.919-462.726c1.184,5.842,2.574,11.632,4.019,17.414c0.859,3.439,6.164,1.979,5.304-1.463
					c-1.445-5.782-2.835-11.571-4.019-17.414C1027.518-467.663,1022.217-466.188,1022.919-462.726L1022.919-462.726z"/>
			</g>
		</g>
		<g>
			<g>
				<path d="M1032.34-446.043c-1.198-10.83-2.345-22.013,9.355-27.096c3.246-1.411,0.442-6.147-2.776-4.75
					c-13.569,5.896-13.496,19.035-12.079,31.846C1027.225-442.558,1032.729-442.521,1032.34-446.043L1032.34-446.043z"/>
			</g>
		</g>
		<g>
			<g>
				<path d="M1026.302-451.429c5.17-1.387,9.634-4.032,14.054-6.975c2.936-1.956,0.186-6.722-2.776-4.75
					c-4.028,2.683-8.022,5.156-12.739,6.422C1021.417-455.813,1022.872-450.508,1026.302-451.429L1026.302-451.429z"/>
			</g>
		</g>
		<g>
			<g>
				<path d="M1029.59-443.293c6.445-0.322,12.468-4.716,17.464-8.412c2.817-2.085,0.079-6.862-2.776-4.75
					c-4.04,2.99-9.439,7.399-14.688,7.662C1026.061-448.616,1026.043-443.115,1029.59-443.293L1029.59-443.293z"/>
			</g>
		</g>
		<g>
			<g>
				<path d="M1046.934-482.211c-1.344,10.596,0.076,21.651,4.117,31.541c0.527,1.288,1.856,2.486,3.383,1.92
					c5.146-1.906,9.337-4.958,13.27-8.744c2.559-2.464-1.334-6.349-3.889-3.889c-3.218,3.098-6.622,5.766-10.843,7.33
					c1.127,0.64,2.255,1.28,3.383,1.92c-3.889-9.516-5.214-19.883-3.921-30.078C1052.879-485.723,1047.374-485.68,1046.934-482.211
					L1046.934-482.211z"/>
			</g>
		</g>
		<g>
			<g>
				<path d="M1071.068-488.605c-7.754,5.017-12.406,14.554-7.349,23.188c5.652,9.649,17.344,5.869,24.078-0.113
					c2.657-2.36-1.248-6.235-3.889-3.889c-4.255,3.779-11.431,7.244-15.44,1.226c-3.822-5.738,0.408-12.447,5.376-15.661
					C1076.811-485.774,1074.056-490.538,1071.068-488.605L1071.068-488.605z"/>
			</g>
		</g>
		<g>
			<g>
				<path d="M1086.157-494.316c-4.67,8.578-2.314,30.433,11.325,27.828c7.88-1.506,10.968-10.677,9.103-17.542
					c-2.107-7.761-10.099-13.504-18.053-12.987c-3.521,0.229-3.543,5.729,0,5.5c5.522-0.358,9.801,2.886,12.261,7.653
					c2.195,4.252,0.019,13.153-6.182,12.138c-6.364-1.043-5.902-15.777-3.705-19.814
					C1092.603-494.656,1087.854-497.433,1086.157-494.316L1086.157-494.316z"/>
			</g>
		</g>
		<g>
			<g>
				<path d="M1115.395-475.514c-1.354-10.256-3.851-20.435-4.019-30.811c-1.565,0.648-3.13,1.296-4.694,1.944
					c3.739,3.037,8.513,3.416,12.612,5.789c2.241,1.297,4.441-0.817,4.04-3.106c-0.766-4.366,1.236-7.972,2.68-11.933
					c-1.532,0.404-3.064,0.809-4.596,1.213c11.093,8.978,8.602,28.27,8.571,40.922c-0.009,3.547,5.491,3.546,5.5,0
					c0.035-14.162,2.245-34.754-10.182-44.811c-1.665-1.348-3.845-0.847-4.596,1.213c-1.877,5.152-3.656,9.292-2.68,14.858
					c1.347-1.035,2.693-2.071,4.04-3.106c-3.537-2.047-8.354-2.373-11.5-4.928c-1.756-1.427-4.736-0.655-4.694,1.944
					c0.168,10.392,2.665,20.546,4.019,30.811C1110.352-472.05,1115.857-472.005,1115.395-475.514L1115.395-475.514z"/>
			</g>
		</g>
		<g>
			<g>
				<path d="M1139.023-493.782c0.674,3.841,1.196,7.702,1.681,11.571c0.435,3.471,5.94,3.513,5.5,0
					c-0.546-4.356-1.119-8.709-1.877-13.034C1143.715-498.733,1138.416-497.25,1139.023-493.782L1139.023-493.782z"/>
			</g>
		</g>
		<g>
			<g>
				<path d="M1134.104-510.951c1.341,3.18,2.43,6.438,3.316,9.773c0.91,3.425,6.215,1.97,5.304-1.463
					c-0.886-3.335-1.975-6.593-3.316-9.773c-0.582-1.38-1.795-2.357-3.383-1.92C1134.722-513.976,1133.521-512.336,1134.104-510.951
					L1134.104-510.951z"/>
			</g>
		</g>
		<g>
			<g>
				<path d="M1138.068-509.611c2.365-6.564,7.941-9.899,14.763-10.037c3.542-0.071,3.549-5.571,0-5.5
					c-9.408,0.189-16.854,5.16-20.066,14.074C1131.559-507.729,1136.875-506.302,1138.068-509.611L1138.068-509.611z"/>
			</g>
		</g>
		<g>
			<g>
				<path d="M1142.875-494.683c3.548-0.682,6.959-1.95,10.004-3.908c2.971-1.912,0.216-6.675-2.776-4.75
					c-2.684,1.728-5.563,2.754-8.689,3.355C1137.933-499.316,1139.411-494.016,1142.875-494.683L1142.875-494.683z"/>
			</g>
		</g>
		<g>
			<g>
				<path d="M1146.738-478.928c2.667-2.667,5.021-5.457,7.127-8.594c1.984-2.953-2.783-5.703-4.749-2.775
					c-1.85,2.753-3.926,5.139-6.267,7.48C1140.339-480.307,1144.229-476.417,1146.738-478.928L1146.738-478.928z"/>
			</g>
		</g>
		<g>
			<g>
				<path d="M973.377-482.516c19.556-14.751,40.114-28.41,63.023-37.384c21.916-8.586,45.326-12.427,68.584-15.243
					c19.094-2.312,39.499-4.962,55.745-16.129c13.871-9.534,22.483-24.808,30.673-39.079c1.339-2.333,2.665-4.675,3.991-7.016
					c1.751-3.09-3-5.861-4.749-2.776c-8.602,15.175-17.028,32.289-31.243,43.076c-16.238,12.322-38.138,14.411-57.661,16.82
					c-22.719,2.805-45.357,6.812-66.802,15.043c-22.308,8.562-42.438,21.624-61.526,35.825c-0.939,0.701-1.876,1.405-2.811,2.112
					C967.807-485.158,970.542-480.379,973.377-482.516L973.377-482.516z"/>
			</g>
		</g>
		<g>
			<g>
				<path d="M978.381-383.035c17.121-38.978,63.395-40.983,100.195-43.768c18.778-1.42,37.156-3.311,55.075-9.399
					c21.149-7.186,40.051-19.731,53.17-37.973c4.864-6.764,8.553-14.281,11.528-22.04c1.271-3.317-4.047-4.739-5.304-1.463
					c-8.716,22.738-25.494,39.846-47.193,50.552c-18.207,8.981-37.897,12.354-57.92,14.08c-35.313,3.043-79.959,1.939-104.9,31.771
					c-3.896,4.661-6.962,9.914-9.4,15.465C972.22-382.596,976.958-379.794,978.381-383.035L978.381-383.035z"/>
			</g>
		</g>
		<g>
			<g>
				<path d="M1137.668-502.909c0.915,2.675,2.019,5.281,2.679,8.037c0.254,1.061,1.738,0.582,1.591-0.439
					c-0.356-2.476-1.12-4.842-2.083-7.145c-0.323-0.771-1.746-0.79-1.621,0.22c0.319,2.569,0.624,5.139,1.22,7.662
					c0.214,0.908,1.646,0.709,1.621-0.22c-0.076-2.829-0.887-5.518-1.518-8.258c-0.239-1.038-1.817-0.597-1.591,0.439
					c0.376,1.722,0.932,3.39,1.488,5.062c0.502-0.212,1.005-0.424,1.508-0.636c-0.547-1.101-1.062-2.192-1.405-3.376
					c-0.295-1.021-1.846-0.595-1.591,0.439c0.613,2.483,1.151,4.978,1.458,7.52c0.126,1.043,1.778,1.055,1.65,0
					c-0.325-2.69-0.869-5.329-1.518-7.959c-0.53,0.146-1.061,0.293-1.591,0.439c0.382,1.321,0.96,2.54,1.571,3.769
					c0.417,0.839,1.802,0.249,1.508-0.636c-0.556-1.671-1.111-3.339-1.488-5.062c-0.53,0.146-1.061,0.293-1.591,0.439
					c0.597,2.593,1.387,5.14,1.458,7.818c0.541-0.073,1.081-0.146,1.621-0.22c-0.562-2.38-0.86-4.798-1.161-7.223
					c-0.541,0.073-1.081,0.146-1.621,0.22c0.963,2.303,1.728,4.668,2.083,7.145c0.53-0.146,1.061-0.293,1.591-0.439
					c-0.661-2.755-1.765-5.361-2.679-8.037C1138.917-504.349,1137.323-503.919,1137.668-502.909L1137.668-502.909z"/>
			</g>
		</g>
		<g>
			<g>
				<path d="M1138.943-502.416c0.595,1.191,1.19,2.382,1.786,3.572c0.258,0.515,1.184,0.564,1.425,0
					c0.396-0.927,0.396-1.691,0-2.618c-0.417-0.976-1.838-0.135-1.425,0.832c0.14,0.327,0.14,0.627,0,0.954c0.475,0,0.95,0,1.425,0
					c-0.596-1.191-1.191-2.382-1.786-3.572C1139.892-504.2,1138.469-503.364,1138.943-502.416L1138.943-502.416z"/>
			</g>
		</g>
		<g>
			<g>
				<path d="M1139.538-502.416c0.52,1.075,0.819,2.222,1.108,3.376c0.502-0.212,1.005-0.424,1.508-0.636
					c-0.364-0.604-0.248-1.258-0.513-1.887c-0.404,0.311-0.808,0.621-1.212,0.932c0.592,0.297,1.136,0.604,1.619,1.062
					c0.772,0.731,1.941-0.434,1.167-1.166c-0.585-0.555-1.235-0.961-1.953-1.319c-0.565-0.283-1.521,0.199-1.212,0.932
					c0.123,0.291,0.138,0.57,0.179,0.881c0.068,0.513,0.232,0.956,0.5,1.398c0.488,0.808,1.736,0.274,1.508-0.636
					c-0.325-1.297-0.691-2.561-1.274-3.769C1140.5-504.206,1139.077-503.369,1139.538-502.416L1139.538-502.416z"/>
			</g>
		</g>
	</g>
	<g>
		<g>
			<path d="M1192.598-42.917c6.591,1.507,13.358,1.517,20.083,1.519c6.449,0.002,6.449-9.998,0-10
				c-5.813-0.002-11.727,0.142-17.425-1.161C1188.978-53.995,1186.312-44.354,1192.598-42.917L1192.598-42.917z"/>
		</g>
	</g>
</g>
<g>
	<g>
		<path d="M-2.498-81.43c127.12,13.394,255.04,1.884,382.17-5.169c89.49-4.965,179.176-6.815,268.797-6.831
			c6.449-0.001,6.449-10.001,0-10c-65.556,0.012-131.107,1.17-196.621,3.524c-63.481,2.28-126.841,6.752-190.263,10.217
			C173.672-84.886,85.228-82.187-2.498-91.43C-8.908-92.105-8.843-82.099-2.498-81.43L-2.498-81.43z"/>
	</g>
</g>
<g>
	<g>
		<path d="M1221.441-112.429c62.349,8.077,125.422,6.653,188.102,4.444c63.634-2.243,127.166-3.458,190.843-3.585
			c93.675-0.188,187.348,0.635,281.022,0.641c6.448,0,6.448-10,0-10c-66.067-0.004-132.134-0.404-198.2-0.585
			c-65.23-0.179-130.538-0.679-195.755,0.885c-88.592,2.124-177.737,9.636-266.012-1.8
			C1215.059-123.256,1215.139-113.245,1221.441-112.429L1221.441-112.429z"/>
	</g>
</g>
<g>
	<g>
		<path d="M674.29,847.185c-11.006-62.305-1.67-125.767,2.8-188.227c4.638-64.807-0.832-129.343-3.282-194.105
			c-0.515-13.6-0.824-27.207-0.839-40.817c-0.007-6.448-10.007-6.449-10,0c0.076,65.557,7.401,130.907,6,196.49
			c-1.334,62.448-12.392,124.463-9.14,187.039c0.736,14.173,2.35,28.304,4.819,42.278
			C665.767,856.186,675.403,853.489,674.29,847.185L674.29,847.185z"/>
	</g>
</g>
<g>
	<g>
		<path d="M667.968,424.535c11.958,1.417,23.972,1.499,35.998,1.5c6.449,0.001,6.449-9.999,0-10
			c-12.026-0.001-24.04-0.083-35.998-1.5C661.572,413.777,661.646,423.786,667.968,424.535L667.968,424.535z"/>
	</g>
</g>
<g>
	<g>
		<path d="M701.966,421.035c0,65.886-0.011,131.773-1.048,197.653c-0.508,32.281-0.953,64.618-2.533,96.868
			c-1.491,30.422-4.27,60.793-3.676,91.281c0.301,15.421,1.656,30.828,4.435,46.005c1.16,6.337,10.797,3.645,9.643-2.658
			c-5.5-30.033-4.583-60.811-2.942-91.16c1.675-30.991,3.356-61.9,4.124-92.934c1.629-65.916,1.92-131.856,1.983-197.789
			c0.015-15.756,0.015-31.511,0.015-47.267C711.966,414.587,701.966,414.587,701.966,421.035L701.966,421.035z"/>
	</g>
</g>
<g>
	<g>
		<path d="M686.967,382.037c1.309,10.972,1.498,21.962,1.5,32.998c0.001,6.448,10.001,6.448,10,0
			c-0.001-11.036-0.191-22.026-1.5-32.998C696.213,375.716,686.205,375.642,686.967,382.037L686.967,382.037z"/>
	</g>
</g>
<g>
	<g>
		<path d="M718.465,383.537c-0.014,70.496-1.534,141.088,3,211.489c0.412,6.402,10.415,6.442,10,0
			c-4.534-70.401-3.014-140.993-3-211.489C728.467,377.089,718.467,377.089,718.465,383.537L718.465,383.537z"/>
	</g>
</g>
<g>
	<g>
		<path d="M712.966,606.026c132.47,0.006,264.835,5.761,397.234,9.343c65.203,1.764,130.419,3.836,195.626,1.561
			c65.881-2.298,131.761-4.632,197.614-7.623c19.155-0.87,38.308-1.804,57.456-2.801c6.415-0.334,6.447-10.336,0-10
			c-65.855,3.43-131.75,6.026-197.651,8.397c-32.675,1.177-65.377,2.828-98.073,3.184c-32.432,0.353-64.856-0.656-97.278-1.327
			c-132.438-2.74-264.791-8.885-397.258-10.401c-19.223-0.22-38.446-0.331-57.67-0.332
			C706.517,596.026,706.517,606.026,712.966,606.026L712.966,606.026z"/>
	</g>
</g>
<g>
	<g>
		<path d="M1575.652,606.031c73.82-4.998,147.749-8.996,221.76-9.005c6.448-0.001,6.449-10.001,0-10
			c-74.011,0.009-147.939,4.007-221.76,9.005C1569.253,596.465,1569.211,606.468,1575.652,606.031L1575.652,606.031z"/>
	</g>
</g>
<g>
	<g>
		<path d="M1530.425,609.026c12.529-0.835,25.059-1.672,37.589-2.495c6.4-0.421,6.441-10.423,0-10
			c-12.53,0.823-25.06,1.66-37.589,2.495C1524.026,599.453,1523.984,609.456,1530.425,609.026L1530.425,609.026z"/>
	</g>
</g>
<g>
	<g>
		<path d="M1638.48,308.674c15.972-11.962,24.619-29.95,29.639-48.86c5.905-22.25,7.025-46.185,0.644-68.442
			c-5.562-19.399-18.592-35.619-34.423-47.713c-18.051-13.79-40.938-19.468-63.142-21.779c-6.412-0.667-6.348,9.339,0,10
			c19.614,2.042,38.846,7.254,55.313,18.408c14.841,10.053,26.521,25.238,32.146,42.245c6.568,19.857,5.21,41.653,0.535,61.743
			c-3.969,17.054-11.33,34.956-25.76,45.764C1628.337,303.855,1633.313,312.544,1638.48,308.674L1638.48,308.674z"/>
	</g>
</g>
<g>
	<g>
		<path d="M1495.763,149.038c-13.35,17.902-21.47,39.469-22.95,61.766c-1.567,23.611,6.802,45.482,22.901,62.615
			c17.282,18.39,41.466,31.31,64.996,39.729c24.383,8.725,53.421,11.322,76.087-3.3c5.397-3.482,0.39-12.142-5.047-8.635
			c-20.687,13.345-46.245,9.917-68.382,2.292c-21.622-7.447-43.208-19.774-59.439-35.979c-31.521-31.471-24.341-80.169,0.469-113.44
			C1508.257,148.909,1499.57,143.933,1495.763,149.038L1495.763,149.038z"/>
	</g>
</g>
<g>
	<g>
		<path d="M1631.55,308.831c11.185,12.754,16.62,28.918,20.104,45.254c4.188,19.643,5.389,39.832,5.812,59.865
			c0.791,37.501-0.562,75.961-14.658,111.215c-2.396,5.993,7.279,8.569,9.643,2.658c14.887-37.23,15.893-78.219,14.927-117.781
			c-0.493-20.191-2.205-40.444-6.423-60.223c-3.736-17.521-10.415-34.469-22.334-48.059
			C1634.361,296.903,1627.317,304.005,1631.55,308.831L1631.55,308.831z"/>
	</g>
</g>
<g>
	<g>
		<path d="M1450.994,414.03c30.446-9.618,62.031-15.612,93.972-16.733c5.144-0.181,5.161-8.181,0-8
			c-32.626,1.146-64.995,7.193-96.099,17.019C1443.966,407.864,1446.06,415.588,1450.994,414.03L1450.994,414.03z"/>
	</g>
</g>
<g>
	<g>
		<path d="M1447.643,407.833c2.738-23.01-7.506-45.539-15.924-66.346c-1.909-4.718-9.65-2.658-7.715,2.127
			c8.153,20.151,18.29,41.934,15.639,64.219C1439.035,412.949,1447.042,412.891,1447.643,407.833L1447.643,407.833z"/>
	</g>
</g>
<g>
	<g>
		<path d="M1427.834,343.812c9.22-5.161,17.198,15.271,19.583,20.962c4.715,11.254,8.351,23.23,10.72,35.205
			c1.001,5.059,8.712,2.911,7.715-2.127c-2.844-14.368-7.46-28.71-13.695-41.957c-4.827-10.253-14.908-26.521-28.359-18.991
			C1419.296,339.425,1423.329,346.335,1427.834,343.812L1427.834,343.812z"/>
	</g>
</g>
<g>
	<g>
		<path d="M1541.956,398.747c17.539,32.559,40.54,61.751,63.035,90.959c3.101,4.026,10.056,0.051,6.908-4.037
			c-22.495-29.209-45.496-58.401-63.035-90.959C1546.417,390.167,1539.509,394.206,1541.956,398.747L1541.956,398.747z"/>
	</g>
</g>
<g>
	<g>
		<path d="M1518.907,506.458c1.315,1.445,2.639,2.885,3.969,4.316c1.483,1.599,4.158,1.499,5.656,0c1.584-1.584,1.482-4.061,0-5.656
			c-1.329-1.433-2.652-2.871-3.969-4.316c-1.468-1.613-4.169-1.487-5.656,0C1517.312,502.396,1517.44,504.848,1518.907,506.458
			L1518.907,506.458z"/>
	</g>
</g>
<g>
	<g>
		<path d="M1441.378,414.072c25.812,29.972,49.711,61.551,76.212,90.935c3.462,3.839,9.102-1.837,5.656-5.656
			c-26.5-29.384-50.399-60.964-76.212-90.935C1443.663,404.5,1438.03,410.186,1441.378,414.072L1441.378,414.072z"/>
	</g>
</g>
<g>
	<g>
		<path d="M1539.021,517.075c22.408-6.473,45.26-11.277,67.613-17.949c4.931-1.472,2.829-9.193-2.127-7.715
			c-22.354,6.672-45.205,11.478-67.613,17.949C1531.948,510.789,1534.053,518.51,1539.021,517.075L1539.021,517.075z"/>
	</g>
</g>
<g>
	<g>
		<path d="M1653.663,595.328c11.614-64.088,19.635-128.883,35.068-192.233c2.385-9.79,4.489-19.659,7.067-29.4
			c1.294-4.89,3.088-11.23,5.941-14.721c2.66-3.253,6.047-4.43,10.667-4.965c8.032-0.933,16.315-0.161,24.345,0.392
			c20.739,1.426,41.43,4.303,62.09,6.599c6.404,0.712,6.336-9.296,0-10c-26.233-2.915-52.784-7.345-79.234-7.344
			c-11.65,0.001-22.708,2.498-28.501,13.537c-3.163,6.026-4.762,12.863-6.366,19.427c-2.857,11.692-5.627,23.419-8.343,35.146
			c-7.324,31.623-12.851,63.635-18.117,95.654c-4.677,28.43-9.122,56.898-14.26,85.251
			C1642.877,598.974,1652.514,601.667,1653.663,595.328L1653.663,595.328z"/>
	</g>
</g>
<g>
	<g>
		<path d="M1633.02,319.328c7.379,43.477,3.285,90.828-12.606,132.092c-6.196,16.09-15.9,31.528-30.961,40.562
			c-19.562,11.733-44.838,9.169-66.654,9.025c-6.45-0.043-6.446,9.957,0,10c23.689,0.156,48.965,1.895,70.541-9.729
			c16.901-9.106,27.979-26.149,35.181-43.418c8.188-19.631,12.828-40.899,15.517-61.936c3.373-26.391,3.08-53.009-1.374-79.254
			C1641.585,310.322,1631.95,313.022,1633.02,319.328L1633.02,319.328z"/>
	</g>
</g>
<g>
	<g>
		<path d="M1504.159,155.022c16.63-21.634,44.802-26.087,70.354-22.202c6.306,0.959,9.017-8.676,2.658-9.643
			c-30.565-4.647-61.939,1.16-81.646,26.798C1491.593,155.089,1500.287,160.06,1504.159,155.022L1504.159,155.022z"/>
	</g>
</g>
<g>
	<g>
		<path d="M1605.17,499.82c4.212-1.474,7.973-4.438,8.992-8.992c0.595-2.657-0.771-5.402-3.492-6.15
			c-2.529-0.696-5.556,0.832-6.15,3.492c-0.037,0.185-0.082,0.366-0.136,0.547c-0.271,0.995,0.535-1.084,0.09-0.154
			c-0.122,0.255-0.277,0.492-0.432,0.728c0.76-1.163,0.319-0.407,0.054-0.119c-0.202,0.219-0.43,0.413-0.655,0.606
			c1.062-0.91,0.289-0.249,0-0.066c-0.275,0.173-0.566,0.317-0.857,0.462c1.223-0.607,0.227-0.1-0.071,0.005
			c-2.57,0.899-4.252,3.388-3.492,6.15C1599.706,498.82,1602.596,500.722,1605.17,499.82L1605.17,499.82z"/>
	</g>
</g>
<g>
	<g>
		<path d="M1462.841,406.499c5.159,0,5.159-8,0-8S1457.682,406.499,1462.841,406.499L1462.841,406.499z"/>
	</g>
</g>
<g>
	<g>
		<path d="M1462.341,406.999c5.159,0,5.159-8,0-8S1457.182,406.999,1462.341,406.999L1462.341,406.999z"/>
	</g>
</g>
<g>
	<g>
		<path d="M1539.341,507.499c-4.162,0.391-8.266,0.627-11.172-2.828c-3.324-3.953-8.953,1.736-5.656,5.656
			c4.239,5.042,10.647,5.752,16.828,5.172C1544.432,515.021,1544.478,507.017,1539.341,507.499L1539.341,507.499z"/>
	</g>
</g>
<g>
	<g>
		<path d="M-21.825,871.337c59.048,8.775,118.699,6.895,178.033,2.352c61.03-4.674,121.879-10.568,183.001-14.129
			c124.323-7.243,248.809-8.569,373.174-2.049c125.559,6.582,251.419,12.496,377.096,5.472
			c62.328-3.484,124.531-8.185,186.687-13.978c61.804-5.759,123.568-13.125,185.721-12.785c35.891,0.195,71.749,2.1,107.618,3.151
			c35.656,1.044,71.364,0.829,107.033,1.034c69.448,0.401,139.583-0.559,207.699-15.566c6.297-1.387,3.626-11.027-2.658-9.643
			c-57.979,12.774-117.491,15.019-176.666,15.256c-59.94,0.24-119.887-0.421-179.786-2.61c-31.021-1.134-62.053-2.058-93.097-1.408
			c-31.052,0.649-61.979,3.816-92.887,6.666c-61.943,5.71-123.839,11.971-185.922,15.996c-62.563,4.057-125.054,7.141-187.766,7.101
			c-62.958-0.041-125.895-2.437-188.773-5.433c-62.305-2.968-124.479-7.143-186.877-7.453
			c-62.382-0.311-124.717,0.347-187.046,3.019c-70.278,3.014-140.381,8.02-210.434,14.31
			c-70.217,6.305-141.403,11.472-211.493,1.056C-25.472,860.757-28.185,870.392-21.825,871.337L-21.825,871.337z"/>
	</g>
</g>
<g>
	<g>
		<path d="M1098.277,608.85c25.546-10.175,41.574-33.712,54.688-56.754c15.176-26.666,26.444-55.466,38.916-83.441
			c12.483-28.002,25.558-55.989,41.779-82.058c15.129-24.312,36.961-44.037,66.621-46.564c27.11-2.311,52.033,11.943,70.772,30.337
			c20.11,19.739,33.349,44.866,46.718,69.34c14.75,27,30.408,53.547,49.633,77.647c15.828,19.843,35.156,38.016,59.259,47.052
			c20.476,7.677,42.495,5.034,61.771-4.632c9.07-4.548,17.488-10.768,24.954-17.61c6.274-5.751,14.724-15.686,24.284-13.401
			c6.269,1.498,8.929-8.145,2.658-9.643c-11.923-2.849-21.641,4.662-29.985,12.239c-9.606,8.724-19.437,16.449-31.336,21.876
			c-25.502,11.632-52.218,3.918-73.749-12.012c-22.599-16.721-39.503-41.022-54.388-64.467
			c-16.566-26.095-29.708-54.176-46.319-80.221c-13.526-21.206-30.75-40.706-52.585-53.58
			c-23.731-13.992-52.327-17.234-78.001-6.668c-26.143,10.76-42.57,33.722-56.166,57.43c-15.404,26.858-28.107,55.17-40.574,83.477
			c-10.617,24.108-20.751,48.511-33.801,71.44c-11.314,19.88-25.662,41.749-47.807,50.57
			C1089.704,601.563,1092.281,611.238,1098.277,608.85L1098.277,608.85z"/>
	</g>
</g>
<g>
	<g>
		<path d="M1657.846,530.713c1.14-5.092,1.967-10.238,2.816-15.385c0.443-2.687-0.66-5.372-3.492-6.15
			c-2.416-0.665-5.706,0.8-6.15,3.492c-0.85,5.146-1.677,10.293-2.816,15.385C1646.797,534.336,1656.438,537.005,1657.846,530.713
			L1657.846,530.713z"/>
	</g>
</g>
<g>
	<g>
		<path d="M1100.512,597.178c-7.941,1.983-15.879,3.909-24,5c-5.563,0.747-4.242,10.57,1.329,9.821
			c8.579-1.152,16.939-3.083,25.329-5.179C1109.424,605.259,1106.771,595.614,1100.512,597.178L1100.512,597.178z"/>
	</g>
</g>
<g>
	<g>
		<path d="M1568.841,605.999c6.449,0,6.449-10,0-10S1562.392,605.999,1568.841,605.999L1568.841,605.999z"/>
	</g>
</g>
<g>
	<g>
		<path d="M1573.365,606.316c-1.108,0.522-0.04,0.03,0.204-0.049c0.431-0.139,0.877-0.222,1.321-0.299
			c-1.552,0.269-0.283,0.062,0.092,0.043c0.286-0.014,0.573-0.013,0.859-0.013c2.726-0.003,5-2.272,5-5c0-2.724-2.274-5.003-5-5
			c-2.676,0.003-5.107,0.543-7.523,1.683c-2.465,1.162-3.079,4.647-1.794,6.841C1567.991,607.026,1570.9,607.479,1573.365,606.316
			L1573.365,606.316z"/>
	</g>
</g>
<g>
	<g>
		<path d="M1639.17,530.82c9.567-1.771,12.167,15.856,11.671,22.179c-0.505,6.434,9.499,6.385,10,0
			c1.11-14.149-7.084-35.013-24.329-31.821C1630.176,522.35,1632.868,531.986,1639.17,530.82L1639.17,530.82z"/>
	</g>
</g>
<g>
	<g>
		<path d="M1630.17,530.82c12.08-1.915,16.189,11.031,17.85,20.508c1.111,6.344,10.747,3.646,9.643-2.658
			c-2.798-15.974-12.097-30.354-30.15-27.492C1621.157,522.185,1623.864,531.82,1630.17,530.82L1630.17,530.82z"/>
	</g>
</g>
<g>
	<g>
		<path d="M1643.159,316.476c-2-4-4-8-6-12c-1.218-2.437-4.606-3.103-6.841-1.794c-2.464,1.443-3.013,4.403-1.794,6.841
			c2,4,4,8,6,12c1.218,2.437,4.606,3.103,6.841,1.794C1643.829,321.873,1644.377,318.913,1643.159,316.476L1643.159,316.476z"/>
	</g>
</g>
<g>
	<g>
		<path d="M692.841,386.999c9.676-0.064,19.323-0.942,29-1c6.447-0.039,6.45-10.039,0-10c-9.677,0.058-19.324,0.936-29,1
			C686.395,377.042,686.391,387.042,692.841,386.999L692.841,386.999z"/>
	</g>
</g>
</svg>
