<?xml version="1.0" encoding="utf-8"?>
<!-- Generator: Adobe Illustrator 16.0.0, SVG Export Plug-In . SVG Version: 6.00 Build 0)  -->
<!DOCTYPE svg PUBLIC "-//W3C//DTD SVG 1.1//EN" "http://www.w3.org/Graphics/SVG/1.1/DTD/svg11.dtd">
<svg version="1.1" id="Layer_1" xmlns="http://www.w3.org/2000/svg" xmlns:xlink="http://www.w3.org/1999/xlink" x="0px" y="0px"
	 width="1798.912px" height="886.89px" viewBox="0 0 1798.912 886.89" enable-background="new 0 0 1798.912 886.89"
	 xml:space="preserve">
<g>
	<g>
		<path d="M674.29,883.185c-11.006-62.305-1.67-125.767,2.8-188.227c4.638-64.807-0.832-129.343-3.282-194.105
			c-0.515-13.6-0.824-27.207-0.839-40.817c-0.007-6.448-10.007-6.449-10,0c0.076,65.557,7.401,130.907,6,196.49
			c-1.334,62.448-12.392,124.463-9.14,187.039c0.736,14.173,2.35,28.304,4.819,42.278
			C665.767,892.186,675.403,889.489,674.29,883.185L674.29,883.185z"/>
	</g>
</g>
<g>
	<g>
		<path d="M667.968,460.535c11.958,1.417,23.972,1.499,35.998,1.5c6.449,0.001,6.449-9.999,0-10
			c-12.026-0.001-24.04-0.083-35.998-1.5C661.572,449.777,661.646,459.786,667.968,460.535L667.968,460.535z"/>
	</g>
</g>
<g>
	<g>
		<path d="M701.966,457.035c0,65.886-0.011,131.773-1.048,197.653c-0.508,32.281-0.953,64.618-2.533,96.868
			c-1.491,30.422-4.27,60.793-3.676,91.281c0.301,15.421,1.656,30.828,4.435,46.005c1.16,6.337,10.797,3.645,9.643-2.658
			c-5.5-30.033-4.583-60.811-2.942-91.16c1.675-30.991,3.356-61.9,4.124-92.934c1.629-65.916,1.92-131.856,1.983-197.789
			c0.015-15.756,0.015-31.511,0.015-47.267C711.966,450.587,701.966,450.587,701.966,457.035L701.966,457.035z"/>
	</g>
</g>
<g>
	<g>
		<path d="M686.967,418.037c1.309,10.972,1.498,21.962,1.5,32.998c0.001,6.448,10.001,6.448,10,0
			c-0.001-11.036-0.191-22.026-1.5-32.998C696.213,411.716,686.205,411.642,686.967,418.037L686.967,418.037z"/>
	</g>
</g>
<g>
	<g>
		<path d="M693.638,421.358c9.423,1.727,18.716,1.462,28.157,0c6.357-0.984,3.648-10.619-2.658-9.643
			c-7.545,1.168-15.31,1.379-22.84,0C689.993,410.562,687.3,420.198,693.638,421.358L693.638,421.358z"/>
	</g>
</g>
<g>
	<g>
		<path d="M718.465,419.537c-0.014,70.496-1.534,141.088,3,211.489c0.412,6.402,10.415,6.442,10,0
			c-4.534-70.401-3.014-140.993-3-211.489C728.467,413.089,718.467,413.089,718.465,419.537L718.465,419.537z"/>
	</g>
</g>
<g>
	<g>
		<path d="M712.966,642.026c132.277,0.005,264.461,5.477,396.65,9.643c66.044,2.082,131.951,3.306,198.022,1.705
			c65.849-1.595,131.639-4.959,197.434-7.962c23.074-1.054,46.56-0.542,69.282-5.131c6.318-1.276,3.638-10.914-2.658-9.643
			c-16.135,3.259-32.392,3.244-48.765,3.97c-16.518,0.731-33.033,1.499-49.548,2.267c-32.896,1.529-65.792,3.058-98.699,4.338
			c-65.852,2.563-131.806,4.171-197.7,2.428c-132.245-3.498-264.424-9.497-396.715-11.181c-22.433-0.285-44.868-0.433-67.303-0.434
			C706.517,632.026,706.517,642.026,712.966,642.026L712.966,642.026z"/>
	</g>
</g>
<g>
	<g>
		<path d="M1530.425,645.026c88.891-5.927,177.855-11.956,266.986-12c6.448-0.003,6.449-10.003,0-10
			c-89.131,0.044-178.096,6.073-266.986,12C1524.026,635.453,1523.984,645.456,1530.425,645.026L1530.425,645.026z"/>
	</g>
</g>
<g>
	<g>
		<path d="M1538.918,159.547c-37.974,1.687-58.746,44.08-64.507,76.778c-2.907,16.502-2.653,33.428,4.327,48.87
			c7.792,17.238,23.172,30.818,38.31,41.529c17.41,12.316,37.523,21.536,58.312,26.337c18.447,4.261,38.452,4.682,55.858-3.582
			c17.034-8.087,27.403-26.602,33.604-43.575c7.089-19.406,9.277-41.066,6.933-61.546c-1.428-12.48-4.699-24.802-10.876-35.806
			c-7.165-12.764-18.238-23.782-30.299-31.902c-26.601-17.911-60.585-20.064-91.662-20.104c-6.449-0.008-6.448,9.992,0,10
			c23.839,0.03,48.031,1.379,70.45,10.201c19.935,7.845,38.334,24.259,46.525,44.307c7.545,18.465,8.199,39.795,5.133,59.29
			c-3.008,19.123-10.106,38.918-24.041,52.827c-13.06,13.035-33.201,14.416-50.527,11.853
			c-21.081-3.119-41.218-11.936-59.064-23.368c-15.829-10.14-31.174-23.524-39.606-40.631c-7.172-14.55-5.958-32.119-2.663-47.526
			c5.6-26.189,22.795-62.575,53.794-63.952C1545.34,169.262,1545.369,159.261,1538.918,159.547L1538.918,159.547z"/>
	</g>
</g>
<g>
	<g>
		<path d="M1630.384,343.575c12.775,13.574,18.245,32.669,21.822,50.508c4.31,21.49,5.312,43.626,5.267,65.495
			c-0.04,18.886-1.13,37.776-2.967,56.57c-2.571,26.291-12.177,50.78-26.688,72.742c-10.192,15.427-22.813,29.149-36.433,41.6
			c-4.77,4.359,2.322,11.411,7.07,7.07c18.821-17.203,35.407-36.952,47.476-59.493c11.662-21.781,17.138-44.973,19.268-69.426
			c3.584-41.142,4.502-84.121-4.943-124.571c-3.997-17.117-10.576-34.577-22.802-47.565
			C1633.027,331.8,1625.969,338.885,1630.384,343.575L1630.384,343.575z"/>
	</g>
</g>
<g>
	<g>
		<path d="M1595.092,623.205c-27.375,10.312-57.137,5.909-85.666,5.82c-6.449-0.021-6.447,9.979,0,10
			c29.41,0.091,60.1,4.454,88.324-6.178C1603.726,630.597,1601.138,620.927,1595.092,623.205L1595.092,623.205z"/>
	</g>
</g>
<g>
	<g>
		<path d="M1508.461,626.99c-71.718-58.556-116.557-141.827-182.99-205.489c-4.654-4.46-11.735,2.602-7.071,7.07
			c66.434,63.663,111.272,146.934,182.991,205.489C1506.34,638.103,1513.46,631.071,1508.461,626.99L1508.461,626.99z"/>
	</g>
</g>
<g>
	<g>
		<path d="M1316.9,422.001c-27.154,28.955-46.241,64.431-63.1,100.064c-17.358,36.689-32.066,74.6-50.176,110.937
			c-2.867,5.753,5.758,10.819,8.635,5.047c17.635-35.383,32.096-72.243,48.82-108.052c16.736-35.833,35.639-71.864,62.892-100.926
			C1328.377,424.374,1321.319,417.288,1316.9,422.001L1316.9,422.001z"/>
	</g>
</g>
<g>
	<g>
		<path d="M1205.418,632.708c-11.382,8.288-24.062,11.057-37.975,9.816c-6.425-0.573-6.37,9.432,0,10
			c15.441,1.377,30.397-1.988,43.021-11.182C1215.622,637.587,1210.641,628.905,1205.418,632.708L1205.418,632.708z"/>
	</g>
</g>
<g>
	<g>
		<path d="M1450.994,450.03c30.446-9.618,62.031-15.612,93.972-16.733c5.144-0.181,5.161-8.181,0-8
			c-32.626,1.146-64.995,7.193-96.099,17.019C1443.966,443.864,1446.06,451.588,1450.994,450.03L1450.994,450.03z"/>
	</g>
</g>
<g>
	<g>
		<path d="M1447.643,443.833c2.738-23.01-7.506-45.539-15.924-66.346c-1.909-4.718-9.65-2.658-7.715,2.127
			c8.153,20.151,18.29,41.934,15.639,64.219C1439.035,448.949,1447.042,448.891,1447.643,443.833L1447.643,443.833z"/>
	</g>
</g>
<g>
	<g>
		<path d="M1427.834,379.812c9.22-5.161,17.198,15.271,19.583,20.962c4.715,11.254,8.351,23.23,10.72,35.205
			c1.001,5.059,8.712,2.911,7.715-2.127c-2.844-14.368-7.46-28.71-13.695-41.957c-4.827-10.253-14.908-26.521-28.359-18.991
			C1419.296,375.425,1423.329,382.335,1427.834,379.812L1427.834,379.812z"/>
	</g>
</g>
<g>
	<g>
		<path d="M1541.956,434.747c17.539,32.559,40.54,61.751,63.035,90.959c3.101,4.026,10.056,0.051,6.908-4.037
			c-22.495-29.209-45.496-58.401-63.035-90.959C1546.417,426.167,1539.509,430.206,1541.956,434.747L1541.956,434.747z"/>
	</g>
</g>
<g>
	<g>
		<path d="M1441.378,450.072c28.219,32.764,54.144,67.493,83.72,99.083c3.532,3.773,9.178-1.896,5.656-5.656
			c-29.575-31.59-55.501-66.32-83.72-99.083C1443.663,440.5,1438.03,446.186,1441.378,450.072L1441.378,450.072z"/>
	</g>
</g>
<g>
	<g>
		<path d="M1531.958,555.202c24.644-7.611,49.969-12.7,74.677-20.076c4.931-1.473,2.829-9.194-2.127-7.715
			c-24.708,7.377-50.033,12.465-74.677,20.076C1524.917,549.005,1527.015,556.729,1531.958,555.202L1531.958,555.202z"/>
	</g>
</g>
<g>
	<g>
		<path d="M1656.663,631.328c11.614-64.088,19.635-128.883,35.068-192.233c2.385-9.79,4.489-19.659,7.067-29.4
			c1.294-4.89,3.088-11.23,5.941-14.721c2.66-3.253,6.047-4.43,10.667-4.965c8.032-0.933,16.315-0.161,24.345,0.392
			c20.739,1.426,41.43,4.303,62.09,6.599c6.404,0.712,6.336-9.296,0-10c-26.233-2.915-52.784-7.345-79.234-7.344
			c-11.65,0.001-22.708,2.498-28.501,13.537c-3.163,6.026-4.762,12.863-6.366,19.427c-2.857,11.692-5.627,23.419-8.343,35.146
			c-7.324,31.623-12.851,63.635-18.117,95.654c-4.677,28.43-9.122,56.898-14.26,85.251
			C1645.877,634.974,1655.514,637.667,1656.663,631.328L1656.663,631.328z"/>
	</g>
</g>
<g>
	<g>
		<path d="M1633.02,355.328c7.459,43.79,3.139,92.255-13.424,133.546c-7.836,19.536-19.771,36.857-40.477,43.749
			c-18.859,6.277-39.729,4.4-59.278,4.376c-6.449-0.008-6.448,9.992,0,10c20.992,0.026,42.879,1.61,63.113-5.125
			c22.279-7.416,35.69-25.663,44.669-46.475c9.659-22.39,14.623-46.518,17.102-70.692c2.454-23.929,1.979-48.308-2.062-72.037
			C1641.582,346.322,1631.946,349.022,1633.02,355.328L1633.02,355.328z"/>
	</g>
</g>
</svg>
