<svg id="Layer_1" data-name="Layer 1" xmlns="http://www.w3.org/2000/svg" viewBox="0 0 1798.91 886.89"><title>landing</title><path d="M153.81,164.19c52.06.39,104.12-.66,156.16-2.07s104-3.79,155.92-4.12c28.85-.19,57.77-.87,86.55,1.53,5.13.42,5.1-7.58,0-8-25.63-2.14-51.35-1.73-77-1.57-25.5.16-51,.91-76.46,1.62-52.08,1.44-104.15,3.18-156.24,4.08-29.63.52-59.26.75-88.89.53-5.14,0-5.15,8,0,8Z"/><path d="M140.42,189.1c4.6,79.76,12.52,159.37,12.86,239.33,0,5.14,8,5.15,8,0-.34-80-8.26-159.57-12.86-239.33-.3-5.12-8.3-5.16-8,0Z"/><path d="M555.11,167.83c8.19,66.85,7.22,134.3,6.09,201.52-.32,19.21-.64,38.43-.77,57.65,0,5.15,8,5.15,8,0,.46-67.38,3.43-134.83-.32-202.17-1.06-19.05-2.68-38.06-5-57-.62-5.05-8.63-5.11-8,0Z"/><path d="M155.86,433.86c31,4.06,62.35.39,93.5,0,16.41-.2,33,1.3,49.34,2.17,16.56.89,33.11,1.81,49.68,2.57,33.09,1.53,66.23,2.33,99.35,1,16.13-.67,32.19-1.85,48.34-2.19,15.9-.34,31.81-.71,47.62-2.58,5.39-.63,10.76-1.49,16.09-2.52,5.06-1,2.91-8.7-2.13-7.72-31.55,6.13-64.08,4.22-96,6.27-33.07,2.13-66.26,1.65-99.36.37s-66.22-3.46-99.35-4.94c-31.42-1.4-62.81,2.92-94.24.88-4.29-.27-8.57-.73-12.83-1.29-5.11-.67-5,7.34,0,8Z"/><path d="M303.52,289.81c1.4,30.72,2.73,61.44,2.76,92.19,0,2.58,4,2.58,4,0,0-30.75-1.36-61.47-2.76-92.19-.12-2.56-4.12-2.58-4,0Z"/><path d="M306.72,287.34c20,1.87,40.08-.4,60.13-.48,2.58,0,2.58-4,0-4-20.05.08-40.1,2.35-60.13.48-2.57-.24-2.55,3.77,0,4Z"/><path d="M364.67,286.19c.05,31.35,2.61,62.64,2.66,94,0,2.58,4,2.58,4,0-.05-31.36-2.61-62.65-2.66-94,0-2.58-4-2.58-4,0Z"/><path d="M365.87,288.12c13.89-3.55,26-11.19,38.43-18.05,2.25-1.24.23-4.7-2-3.45-12.14,6.7-23.91,14.18-37.48,17.64-2.49.64-1.43,4.49,1.07,3.86Z"/><path d="M408,269.73c1.92,1.46,2.23,5.54,2.52,7.67a92.81,92.81,0,0,1,.64,12.14c0,8.86-.55,17.71-1.09,26.56-.57,9.43-.26,18.76-.05,28.21.36,16.4.64,32.81.66,49.21,0,2.58,4,2.58,4,0,0-27.08-2-54.29-.37-81.32a271,271,0,0,0,.72-28.49c-.24-5.46-.19-13.75-5-17.44-2.05-1.56-4,1.91-2,3.46Z"/><path d="M411.09,390.65c-13.17-2.24-25.11-8.43-37.89-12.06-2.48-.7-3.54,3.16-1.07,3.86,12.78,3.63,24.72,9.82,37.9,12.06,2.52.43,3.6-3.42,1.06-3.86Z"/><path d="M171,387.57c64.81-6.86,130.07,2.72,194.86-4.28,2.53-.28,2.56-4.28,0-4-64.79,7-130-2.58-194.86,4.28-2.54.27-2.56,4.27,0,4Z"/><path d="M414.43,383.29c46.28-.25,92.51,2.67,138.79,2.84,2.58,0,2.58-4,0-4-46.28-.17-92.51-3.09-138.79-2.84-2.58,0-2.58,4,0,4Z"/><path d="M351.86,439.86v35.71c0,5.16,8,5.16,8,0V439.86c0-5.16-8-5.16-8,0Z"/><path d="M366.14,441.29c.06,11.55,1.35,23.27-1.28,34.65-1.17,5,6.55,7.15,7.71,2.12,2.81-12.13,1.64-24.45,1.57-36.77,0-5.16-8-5.16-8,0Z"/><path d="M329.31,494.73c2.1-4.65,7.33-7.07,11.85-8.79a74.41,74.41,0,0,1,21.34-4.34c9.36-.66,30.29-1,33.78,10.75,1.47,4.93,9.19,2.83,7.72-2.13-4.62-15.56-26.06-17.2-39.43-16.73a82.52,82.52,0,0,0-26.38,5.06c-6.06,2.31-13,5.92-15.79,12.14-2.1,4.67,4.79,8.74,6.91,4Z"/><path d="M325.86,496.14c23.78,2.65,47.59.08,71.42,0,5.16,0,5.16-8,0-8-23.83.08-47.64,2.65-71.42,0-5.13-.57-5.07,7.44,0,8Z"/><path d="M101.48,510.73c7.8,2.22,15.79,2,23.81,2.58a219.63,219.63,0,0,0,26.54,0c17.67-.79,35.29-1.71,53-2.08,36.53-.75,73.07-.37,109.59.29,36.17.66,72.37,2,108.55,2,36.53,0,73.05-.49,109.58-.93,41.06-.5,82.12-1,123.18-.93,5.79,0,5.8-9,0-9-72.31-.11-144.61,1.52-216.92,1.81S294,501.13,221.55,502c-19.73.23-39.43.69-59.12,1.8-9.91.56-19.83,1.07-29.75.9-9.36-.15-19.78-.05-28.81-2.62-5.58-1.59-8,7.09-2.39,8.68Z"/><path d="M650.71,480v21.43c0,6.45,10,6.45,10,0V480c0-6.45-10-6.45-10,0Z"/><path d="M651.71,508.57c10.92,81.5,8.44,163.9,13.7,245.81.33,5.11,8.33,5.15,8,0-5.26-81.91-2.78-164.31-13.7-245.81-.67-5-8.68-5.09-8,0Z"/><path d="M106.62,603.92c71.67,8.17,143.82,10.76,215.92,11.22,71.56.46,143.12-.72,214.67-1.79q60.67-.9,121.36-1.71c5.79-.07,5.8-9.07,0-9-71.79.94-143.58,2.37-215.37,3-71.56.64-143.16,1.34-214.68-1.59-40.73-1.66-81.4-4.53-121.9-9.15-5.75-.65-5.7,8.35,0,9Z"/><path d="M140.78,608.57c-2.1,45.37,4.24,90.49,5.87,135.77.16,4.49,7.16,4.51,7,0-1.63-45.28-8-90.4-5.87-135.77.21-4.5-6.79-4.49-7,0Z"/><path d="M100.52,605c.46,45,.49,90.08,1.55,135.11.15,6.42,10.15,6.44,10,0C111,695.08,111,650,110.52,605c-.07-6.43-10.07-6.45-10,0Z"/><path d="M93.53,522.71c1.82,21.43,3.29,42.89,4,64.4.2,6.42,10.2,6.45,10,0-.68-21.51-2.15-43-4-64.4-.54-6.37-10.55-6.43-10,0Z"/><path d="M616.5,608.57c3,48.51,7,97,12.4,145.28.5,4.42,7.51,4.47,7,0-5.43-48.31-9.38-96.77-12.4-145.28-.28-4.47-7.28-4.51-7,0Z"/><path d="M176,608.57c-3.21,29.38-18.27,55.92-28.43,83.22-1.8,4.85,5.93,6.92,7.71,2.13,10.48-28.14,25.42-55.07,28.72-85.35.56-5.12-7.45-5.07-8,0Z"/><path d="M152.86,699.86c32.82,4.29,65.41-.78,98.24-1.52q49.54-1.12,99.08-1c66.2.17,132.37,2.41,198.55,3.34q37.77.54,75.55.58c2.58,0,2.58-4,0-4-66.27,0-132.54-1.54-198.8-3q-49.53-1.08-99.08-.91c-32.95.1-66,0-98.9,2.21-24.87,1.67-49.81,3.51-74.64.27-2.56-.34-2.52,3.67,0,4Z"/><path d="M629.57,691.79c-9.14-31.24-27.55-58.51-43.26-86.67-2.51-4.5-9.42-.47-6.91,4,15.37,27.54,33.52,54.21,42.46,84.76,1.44,4.94,9.16,2.84,7.71-2.13Z"/><path d="M194.39,623.2c-4.19,16.36-8.66,32.65-12.86,49-1,3.74,4.83,5.34,5.79,1.6,4.19-16.36,8.66-32.65,12.86-49,1-3.74-4.83-5.34-5.79-1.6Z"/><path d="M197.28,624.86c95.28,0,190.45,5.67,285.72,5.71,3.87,0,3.87-6,0-6-95.27,0-190.44-5.67-285.72-5.71-3.86,0-3.86,6,0,6Z"/><path d="M480.86,627.57c-.06,17.08-1.56,34-5.61,50.63-.92,3.76,4.87,5.35,5.78,1.6,4.18-17.13,5.77-34.63,5.83-52.23,0-3.87-6-3.87-6,0Z"/><path d="M478,677.43c-75.67,0-151.24-4.32-226.87-6.24-21.75-.55-43.51-.89-65.27-.9-3.86,0-3.87,6,0,6,75.67,0,151.24,4.31,226.86,6.23,21.76.55,43.52.9,65.28.91,3.86,0,3.87-6,0-6Z"/><path d="M195.86,636.29c93.92,10,188.54,8.58,282.85,8.57,3.87,0,3.87-6,0-6-94.31,0-188.93,1.46-282.85-8.57-3.85-.42-3.81,5.59,0,6Z"/><path d="M193,650.57c94.8,2.91,189.4,11.37,284.28,11.43,3.87,0,3.87-6,0-6-94.88-.06-189.48-8.52-284.28-11.43-3.87-.12-3.86,5.88,0,6Z"/><path d="M190.14,662c37.11,3.78,74.42,3.81,111.68,4.24,18.7.21,37.48.31,56.14,1.54,18.24,1.21,36.45,3,54.68,4.3,21.09,1.55,42.21,2.74,63.36,2.78,3.86,0,3.87-6,0-6-36.91-.07-73.67-3.67-110.43-6.5-37.06-2.86-74.34-1.94-111.48-2.76-21.35-.48-42.69-1.44-64-3.6-3.84-.39-3.81,5.61,0,6Z"/><path d="M221.53,623.92c-3,16.28-10.56,31.06-18.26,45.57-1.81,3.4,3.36,6.44,5.18,3,7.92-14.92,15.75-30.24,18.87-47,.7-3.77-5.08-5.39-5.79-1.59Z"/><path d="M248.68,625.34c-4.11,15-7.06,30.38-12.86,44.86-1.44,3.59,4.37,5.14,5.79,1.6,5.8-14.49,8.75-29.86,12.85-44.86,1-3.73-4.76-5.32-5.78-1.6Z"/><path d="M277.14,624.71c-1.42,17-6.41,33.33-11.74,49.46-1.22,3.67,4.58,5.25,5.78,1.59,5.52-16.67,10.49-33.48,12-51,.32-3.84-5.68-3.82-6,0Z"/><path d="M301,627c1.88,16.08-2.7,32.49-8.89,47.2-1.5,3.57,4.3,5.11,5.78,1.6,6.38-15.14,11-32.26,9.11-48.8-.44-3.79-6.45-3.84-6,0Z"/><path d="M331.11,627.2c-5.1,15.45-9.06,31.23-13,47-.94,3.76,4.84,5.35,5.78,1.6,3.95-15.78,7.91-31.55,13-47,1.22-3.69-4.58-5.25-5.78-1.6Z"/><path d="M356,626c-.28,16.52-7.69,31.82-12.89,47.2-1.25,3.68,4.55,5.24,5.78,1.6,5.4-15.95,12.82-31.67,13.11-48.8.07-3.87-5.93-3.87-6,0Z"/><path d="M381,630c-.23,15.36-5.78,29.92-10.89,44.2-1.31,3.65,4.49,5.21,5.78,1.6C381.19,661,386.76,645.93,387,630c.06-3.87-5.94-3.87-6,0Z"/><path d="M403.11,627.2c-3,16.37-7.74,32.25-13,48-1.23,3.67,4.56,5.25,5.78,1.6,5.26-15.75,10.05-31.64,13-48,.68-3.78-5.1-5.4-5.78-1.6Z"/><path d="M422,630a247.41,247.41,0,0,1-7.89,45.2c-1,3.75,4.8,5.34,5.78,1.6A256.09,256.09,0,0,0,428,630c.28-3.86-5.72-3.84-6,0Z"/><path d="M446,632c-1.1,15.07-4.84,29.7-8.89,44.2-1,3.73,4.74,5.32,5.78,1.6,4.2-15,8-30.19,9.11-45.8.28-3.85-5.72-3.83-6,0Z"/><path d="M462.11,629.2c-3,16.75-5.2,33.64-10,50-1.09,3.71,4.7,5.3,5.78,1.6,4.8-16.37,7-33.25,10-50,.67-3.78-5.11-5.4-5.78-1.6Z"/><path d="M103.52,485.86c82.23.08,164.24-7.79,246.48-7.14,3.86,0,3.87-6,0-6-82.24-.65-164.25,7.22-246.48,7.14-3.86,0-3.87,6,0,6Z"/><path d="M372.86,477.29c93.82,0,187.6,4.26,281.43,2.86,3.86-.06,3.87-6.06,0-6-93.83,1.4-187.61-2.83-281.43-2.86-3.87,0-3.87,6,0,6Z"/><path d="M121.94,746.17c61,1.64,122,4.3,182.91,7q44.72,2,89.44,4c15.22.64,30.48,1.59,45.71,1.83s30.51-.18,45.74-.23c120.43-.38,240.88.85,361.29-1.64,67.38-1.4,134.75-2,202.09-4.87,6.41-.26,6.44-10.27,0-10-60.14,2.51-120.32,3.57-180.5,4.5s-120.3,1.83-180.47,2-120.37-.1-180.55,0c-30.5,0-61,.58-91.45-.65q-44.73-1.8-89.44-3.87c-68.24-3.07-136.48-6.2-204.77-8-6.43-.18-6.43,9.82,0,10Z"/><path d="M-4.29,745.25c32.78-.43,65.57-.26,98.35.32,6.43.11,6.43-9.89,0-10-32.78-.58-65.57-.75-98.35-.32-6.43.09-6.44,10.09,0,10Z"/><path d="M153.67,156.18c-14.29,2-13.45,20.1-14.67,30.82-.73,6.4,9.28,6.33,10,0,.68-6-.77-20,7.33-21.18,6.36-.9,3.65-10.54-2.66-9.64Z"/><path d="M552,156a35.22,35.22,0,0,0,2.18,10.33,5.08,5.08,0,0,0,6.15,3.49,5,5,0,0,0,3.49-6.15A27.18,27.18,0,0,1,562,156a5,5,0,0,0-10,0Z"/><path d="M92.57,521.78c.18,1.52.38,3,.61,4.55a5,5,0,0,0,2.3,3,5.12,5.12,0,0,0,3.85.5,5,5,0,0,0,3-2.3l.5-1.19a5,5,0,0,0,0-2.66c-.09-.58-.17-1.15-.25-1.73l.18,1.33c-.06-.5-.13-1-.18-1.49a5.4,5.4,0,0,0-1.47-3.53,5,5,0,0,0-7.07,0,4.8,4.8,0,0,0-1.46,3.53Z"/><path d="M92,484c0,11.3-.61,22.59.19,33.88.45,6.38,10.45,6.43,10,0-.8-11.29-.23-22.58-.19-33.88,0-6.44-10-6.44-10,0Z"/><path d="M98,582c1,9.65,1.93,19.3,2,29,0,6.45,10,6.45,10,0-.07-9.7-1-19.35-2-29-.63-6.35-10.64-6.42-10,0Z"/><path d="M307,289c2.58,0,2.58-4,0-4s-2.58,4,0,4Z"/><path d="M406,268c2.58,0,2.58-4,0-4s-2.58,4,0,4Z"/><path d="M668,595c30,3.09,60-.48,90-2.22,15.14-.88,30.28-.7,45.43-1s30.39-1,45.58-1.73c5.14-.23,5.16-8.23,0-8-30.32,1.38-60.72,1.09-91,2.78-30,1.67-60,5.31-90,2.22-5.13-.53-5.08,7.48,0,8Z"/><path d="M846,586c3.92,55.71,3,111.58,2.78,167.38,0,5.15,8,5.16,8,0C857,697.58,857.92,641.71,854,586c-.36-5.11-8.36-5.15-8,0Z"/><path d="M664,614c61,0,122,1,183,1,5.16,0,5.16-8,0-8-61,0-122-1-183-1-5.16,0-5.16,8,0,8Z"/><path d="M672,696c30.86.71,61.66-1.41,92.46-2.93,14.83-.74,29.71-1.49,44.56-1.18,13.74.28,27.51.8,41-2,5.05-1.06,2.91-8.77-2.12-7.72-13.36,2.8-27.11,2-40.67,1.71-14.26-.29-28.57.53-42.81,1.22-30.81,1.49-61.6,3.64-92.46,2.93-5.16-.12-5.15,7.88,0,8Z"/><path d="M152.86,713.86c32.82,4.29,65.41-.78,98.24-1.52q49.54-1.12,99.08-1c66.2.17,132.37,2.41,198.55,3.34q37.77.54,75.55.58c3.87,0,3.87-6,0-6-66.27,0-132.54-1.54-198.8-3q-49.53-1.08-99.08-.91c-32.95.1-66,0-98.9,2.21-24.87,1.67-49.81,3.51-74.64.27-3.83-.5-3.78,5.5,0,6Z"/><path d="M85,745c14.63,1.83,29.31,1,44,1,6.45,0,6.45-10,0-10-14.69,0-29.37.83-44-1-6.39-.8-6.31,9.21,0,10Z"/><path d="M1040,559c4.74,77.65,3.16,155.48,4.76,233.22.43,21,1.07,42.08,2.23,63,.35,6.4,10.35,6.44,10,0-4.23-76.73-2.35-153.65-4.25-230.44-.55-22-1.4-43.91-2.74-65.83-.39-6.39-10.39-6.44-10,0Z"/><path d="M1044.67,560.82c8.81,1.88,17.46.33,26.33.18,6.44-.11,6.45-10.11,0-10-7.86.13-15.89,1.84-23.67.18-6.29-1.35-9,8.29-2.66,9.64Z"/><path d="M1021,530c4.44,38.33,1.63,76.9,2.63,115.37.45,17,.44,34,.66,51,.22,16.76,1.24,33.78,5.89,50,1.78,6.19,11.43,3.55,9.64-2.66-4.58-15.95-5.34-32.57-5.55-49.07-.22-17.06-.24-34.1-.69-51.16-1-37.83,1.78-75.73-2.58-113.44-.73-6.33-10.74-6.4-10,0Z"/><path d="M1028,535c6.68.82,13.31.07,20,0,6.44-.07,6.45-10.07,0-10-6.69.07-13.32.82-20,0-6.39-.79-6.31,9.22,0,10Z"/><path d="M1045,530c.07,7.68.93,15.32,1,23,.06,6.45,10.06,6.45,10,0-.07-7.68-.93-15.32-1-23-.06-6.45-10.06-6.45-10,0Z"/><path d="M1068.33,560q-.39,113.55-.23,227.1,0,32.56.1,65.13c0,6.44,10,6.45,10,0q-.24-113.61,0-227.21.06-32.5.17-65c0-6.44-10-6.45-10,0Z"/><path d="M155,173.92c51.46.35,102.91-.59,154.35-1.85s102.77-3.43,154.15-3.68c28.5-.14,57-.77,85.5,1.36,1.28.1,1.28-1.9,0-2-25.26-1.89-50.59-1.54-75.9-1.4-25.55.15-51.11.83-76.65,1.47C345,169.12,293.5,170.66,242,171.46c-29,.45-58,.66-87,.46a1,1,0,0,0,0,2Z"/><path d="M154,173c4.11,80.25,11.19,160.38,11.49,240.78a1,1,0,0,0,2,0c-.3-80.4-7.38-160.53-11.49-240.78-.07-1.28-2.07-1.29-2,0Z"/><path d="M549,169c-1.87,14.58.09,29.22,1.84,43.71,1.86,15.39,2.49,30.77,2.86,46.26.8,33.32.32,66.65-.21,100-.3,18.93-.61,37.86-.74,56.79a1,1,0,0,0,2,0c.22-33.21,1-66.42,1.3-99.63.25-32.24,1.13-65.14-2.48-97.22-1.86-16.54-4.71-33.23-2.57-49.88.16-1.27-1.84-1.26-2,0Z"/><path d="M164.5,415.86c10.11,5.75,22.4,5.27,33.65,4.75,14.93-.68,29.87-1.19,44.81-1.72,32.89-1.16,66,1.92,98.81,3.45s65.87,2.53,98.82,1.55c16.18-.48,32.3-1.76,48.49-2.1,15.93-.34,31.86-.54,47.72-2.12,5.77-.57,11.51-1.41,17.22-2.44,1.27-.23.73-2.15-.53-1.93-31.87,5.77-64.86,4.2-97.09,5.94-32.91,1.77-65.91,1.1-98.82-.22-16.47-.65-32.94-1.51-49.41-2.33s-33-2.18-49.4-2.14-32.92,1.18-49.38,1.56c-12.6.29-25.54,2.21-37.88-1.33a28.22,28.22,0,0,1-6-2.64,1,1,0,0,0-1,1.72Z"/><path d="M169,387c2.58,0,2.58-4,0-4s-2.58,4,0,4Z"/><path d="M1096,859.21c109.91-2.74,220-3.65,329.9-3.71,54,0,108-.48,162,.29,53.85.77,107.62,4.08,161.46,4.89,58.59.89,117.82.77,175.13-13,5.63-1.35,3.24-10-2.39-8.68-51.24,12.32-104.13,13.46-156.57,12.9-53.3-.56-106.54-3.75-159.84-4.8-108.25-2.12-216.61-.39-324.87.44-61.63.47-123.25,1.14-184.86,2.68-5.78.14-5.8,9.14,0,9Z"/><path d="M1078.65,859.55q11.17,0,22.35,0c5.79,0,5.8-9,0-9q-11.18,0-22.35,0c-5.79,0-5.8,9,0,9Z"/><path d="M-30,869.5c143.12,0,286.12-7.24,429.23-8,35.59-.18,71.18,0,106.76.88s71.1,2.29,106.7,2.46c71.22.34,142.43-.43,213.64-1.52,79.92-1.22,159.83-2.84,239.75-3.77,5.79-.07,5.81-9.07,0-9-143.15,1.66-286.27,5.57-429.44,5.37-71.18-.11-142.26-3.45-213.44-3.48s-142.37,1.76-213.53,3.64C129.8,858.24,49.91,860.48-30,860.5c-5.79,0-5.8,9,0,9Z"/><path d="M1059,860.5c9.34-.06,18.66-.94,28-1,5.8,0,5.81-9,0-9-9.34.06-18.66.94-28,1-5.8,0-5.81,9,0,9Z"/><path d="M544.72,630.29c-5.94,1-12.28,7.84-14.13,13.38-1.4,4.2-.8,8.57-.29,12.86.5,4.09.69,8.29,1.56,12.32,1.31,6.08,5.68,13.65,11.49,16.54,6.33,3.16,12.37-.51,15.6-6,4.4-7.5,7.75-16.19,7.88-25,.09-6.12-.51-14.23-5.48-18.4s-14.15-8-20.41-5.28c-6.55,2.87-10.4,9.83-11.23,16.63-.39,3.19,4.61,3.16,5,0,.74-6.07,5.48-12.94,12.18-12.29,4.79.46,11.91,3.34,13.51,8.22,3.61,11.05.18,22.25-5,32.09-3.28,6.25-8.48,8-13.37,2.29-4-4.66-5.41-9.25-6.07-15.25-.54-4.93-2.09-10.81-1-15.75,1-4.61,6.17-10.74,11.09-11.56,3.17-.53,1.83-5.35-1.32-4.83Z"/><path d="M533.75,655.61q14.82,0,29.63-.83c1.6-.09,1.61-2.59,0-2.5q-14.8.81-29.63.83a1.25,1.25,0,0,0,0,2.5Z"/><path d="M545.64,633.33a103.51,103.51,0,0,1,1.66,20.79,1.25,1.25,0,0,0,2.5,0,106.38,106.38,0,0,0-1.75-21.45c-.29-1.58-2.7-.91-2.41.66Z"/><path d="M548.92,632.6c-.81-5.2-4.16-9-7.94-12.47-4.05-3.71-8.24-8.27-13.52-10.13-1.83-.65-2.61,2.25-.8,2.89,4.65,1.64,8.61,6.08,12.2,9.36,3.4,3.11,6.43,6.44,7.17,11.15.3,1.9,3.19,1.09,2.89-.8Z"/></svg>