<svg id="Layer_1" data-name="Layer 1" xmlns="http://www.w3.org/2000/svg" viewBox="0 0 1798.91 886.89"><title>landing-04</title><path d="M964.44,352.08c-33.39-20.65-77.05-32.39-112.78-10.3-38.54,23.83-53.7,75.47-40.75,117.79a93.75,93.75,0,0,0,35.29,49.05c17.9,12.71,40.32,19.44,62,21.47,20.67,1.92,42.08-.93,60.31-11.33s30.77-27.93,37-47.88c6.76-21.76,7-46.83-.43-68.47-7.22-21.09-21.88-38.45-40.6-50.33-4.36-2.77-8.38,4.15-4,6.91,15.11,9.58,27.48,23.12,34.64,39.62,7.55,17.39,9.06,37.65,6,56.25-3.12,18.91-11.34,37.2-26.17,49.78-14.53,12.33-33.69,17.67-52.48,18-39,.67-80.84-16.1-98.77-52.51-18.06-36.68-9.4-86,21.3-113.38,33.85-30.17,80.34-19.5,115.49,2.24C964.8,361.7,968.82,354.78,964.44,352.08Z"/><path d="M967,528.08c-6.86,71.1-41.25,135.71-53.82,205.59-1.13,6.29,8.5,9,9.64,2.66C935.57,665.51,970,600.18,977,528.08c.62-6.4-9.39-6.36-10,0Z"/><path d="M970.67,529.82c19.6,3.67,39.43,1.42,59.21,1.35,22.45-.07,44.95,1,67.4,1.59,44.57,1.2,89.15,2.44,133.74,2.46,6.45,0,6.45-10,0-10-43.93,0-87.84-1.22-131.75-2.41-22-.59-43.91-1.18-65.87-1.61-20-.38-40.25,2.69-60.07-1-6.3-1.18-9,8.46-2.66,9.64Z"/><path d="M1226.57,531.41c-3.94,35.21-14.19,69.29-25.41,102.77-5.66,16.89-11.6,33.7-17.21,50.61-5.26,15.84-10.27,31.67-17.16,46.91-2.62,5.82,6,10.91,8.64,5,7-15.45,12.24-31.4,17.55-47.47,5.79-17.53,12-34.94,17.83-52.44,11.52-34.39,21.71-69.27,25.76-105.43.71-6.39-9.29-6.33-10,0Z"/><path d="M914.39,739.46c83.82,4,167.74,1.07,251.61,2.11,5.79.07,5.79-8.93,0-9-83.87-1-167.79,1.88-251.61-2.11-5.79-.28-5.77,8.72,0,9Z"/><path d="M936,667.18c-38,2.28-75.83-1.94-113.78-2-4.5,0-4.51,7,0,7,37.95.07,75.83,4.29,113.78,2,4.48-.27,4.51-7.27,0-7Z"/><path d="M818.5,676.6c24.17,27.29,57.57,43,89.33,59.58,4.56,2.37,8.61-4.53,4-6.91-31.17-16.23-64-31.55-87.71-58.32-3.42-3.86-9.06,1.81-5.66,5.65Z"/><path d="M686.75,684C753.18,741.86,810.33,810.07,882,861.89c5.24,3.78,10.22-4.9,5.05-8.64-71-51.29-127.51-119-193.27-176.36-4.84-4.22-11.94,2.83-7.07,7.07Z"/><path d="M686.85,679.21c46.88,3.89,93.89,6.15,140.93,6.18,5.79,0,5.8-9,0-9-47,0-94-2.29-140.93-6.18-5.77-.48-5.74,8.53,0,9Z"/><path d="M680.67,674.66c3.57,63-10,125.28-10.17,188.19,0,5.8,9,5.8,9,0,.14-62.91,13.74-125.18,10.17-188.19-.33-5.75-9.33-5.79-9,0Z"/><path d="M798.2,460.16c10.13,10.31,24.16,12.77,35,2,8.69-8.62,14.12-21.92,14.64-34.07a43.81,43.81,0,0,0-43.12-46c-5.15-.08-5.15,7.92,0,8a35.49,35.49,0,0,1,35.12,34.26c.41,9.5-2.78,18.63-7.88,26.57-2.71,4.22-6.43,8.5-11.38,10-6.51,2-12.37-2.08-16.72-6.51-3.61-3.67-9.27,2-5.65,5.66Z"/><path d="M803.65,385.14A35.35,35.35,0,0,0,798,387.5a4,4,0,0,0-1.44,5.47A4.1,4.1,0,0,0,802,394.4c.4-.21.81-.41,1.22-.6.18-.08,1.12-.46.3-.14q1.11-.44,2.25-.81a4,4,0,1,0-2.12-7.71Z"/><path d="M792.08,436.9c4.7,6.59,11.73,10.93,20,10.64,5.73-.2,13-1.94,15.77-7.55,6.28-12.84-12.78-20.8-22.53-16.89-12.06,4.84-14.62,23.25-2.7,29.73,6.41,3.49,15.32,2.89,20.1-3,3.12-3.86,5.84-13.35-1.22-14.67-6.47-1.2-13.69,4.66-13.92,11.12-.25,7.11,5.57,12.8,11.75,15.16,4.81,1.83,6.9-5.9,2.13-7.72-2.54-1-6.08-3.92-5.87-7,.17-2.58,2.08-1.67,3.29-3.34.8-.1.71-.42-.27-1-.62-1.12-.94-1.11-1,0-.61.54-.74,2-1.4,2.69-3.23,3.43-10.21,2-12.5-1.86-1.78-3-1.09-6.89.83-9.62a8.53,8.53,0,0,1,8.6-3.58c2.59.33,7.19,1.75,7.61,4.87.48,3.57-5.36,4.35-8,4.56A15.29,15.29,0,0,1,799,432.86c-3-4.16-9.91-.17-6.91,4Z"/><path d="M799.42,406.51c-3.17,11.68.68,28.9,13.46,33.22,13.43,4.54,32.55-9.73,22-23.73-9.68-12.82-28.43-.81-25.26,13.39,1.53,6.87,9.14,12.63,16.26,11.48,8-1.3,8.8-9.77,6.38-16.11-3.06-8-11.29-14.76-20.18-11.54-8.28,3-8.77,12.46-5.09,19.22a4,4,0,0,0,6.28.81c8.28-7.43,10.32-20.29-1.24-25.58-3.68-1.68-7.93-1.76-10.1,2.15-1.78,3.19-2.77,8.68-1.64,12.2,1.38,4.33,5.72,4.65,9.27,2.69a12.81,12.81,0,0,0,7.05-11.43c0-5.22-2.85-10.76-7.51-13.3-5.66-3.08-11.58-.17-15.3,4.41-3.22,4,2.4,9.65,5.65,5.65,1.75-2.14,4.18-4.61,6.88-2.24a7.7,7.7,0,0,1,2.28,5.48c-.08,2.6-1.86,2.54-2.62,4.26l-.88.48,2.81,1.38a11.28,11.28,0,0,0,.17-2.46c.1-.65.39-1.34.44-2,.07-1.1,1.06-1.29-.31-.91s2,1.59,2.75,2.31c3.69,3.56-.5,8.68-3.35,11.25l6.28.81c-2.51-4.61-.18-10.49,5.88-7.16,2.63,1.45,9.51,12.8,3.13,11.57-11.71-2.26-2.42-20.05,5.12-12.59,8,7.9-9.07,15.67-15.64,10.17-5.86-4.92-7.13-14.77-5.23-21.77,1.35-5-6.37-7.1-7.72-2.12Z"/><path d="M795.14,431.49c1.21,6.78,1,12.75,6.74,17.48a4,4,0,0,0,6.69-3.89c-1.35-8.11-2.7-16.22-4.29-24.29l-6.68,3.89a7.8,7.8,0,0,1,1.82,3.95c.61,3.82,7.1,3.82,7.72,0a51.24,51.24,0,0,0,.17-11.28c-.23-3.82-1.16-9.34.82-12.83,4.4-7.76,18.42.6,19.87,7l3.85-5.06a21.46,21.46,0,0,1-22.26-12.31L807.2,400c3.07-1.2,7.28-2.82,10.08-.25,2.5,2.29,2.94,6.84,3.15,10,.58,8.48-.79,17-2.43,25.35-1,5,6.07,7,7.71,2.12L830,424.35c1.63-4.9-6.1-7-7.72-2.13q-2.14,6.43-4.28,12.86l7.71,2.12c2.11-10.65,4.1-22.13,2-32.94-2.25-11.83-11.69-16.27-22.68-12a4.09,4.09,0,0,0-2.4,5.88,29.08,29.08,0,0,0,29.17,16.27c2.64-.3,4.49-2.32,3.86-5.07-2.53-11.14-17.55-18.57-28-14.41-13.17,5.23-6.59,21.18-8.27,31.56h7.72a15.52,15.52,0,0,0-3.89-7.48c-2.79-3.32-7.38.34-6.68,3.89,1.59,8.06,2.93,16.17,4.28,24.28l6.69-3.89c-4.37-3.59-3.76-8.78-4.69-13.95s-8.61-2.91-7.71,2.13Z"/><path d="M826.42,416.14c1,13.79-1.13,34.14-18.85,34.57-3.68.09-5.05,4.21-2.83,6.83,3.55,4.2,8.73,8.47,14.6,6.57,5.5-1.79,8.19-7.84,10.13-12.78,2.52-6.41,3.87-13.3,5.27-20,.58-2.8,1.14-5.59,1.79-8.37.24-1,.51-2.07.82-3.09s.71-1.47.19-.88l-6.69-1.77c2.51,11-.41,22-6.74,31.21H831c-5.14-9.14-11-17.82-16-27-4.17-7.67-11.08-19.4-7.83-28.45,1.75-4.87-6-6.95-7.72-2.13C795.75,401,801.77,413,806.26,422c5.3,10.54,12.08,20.2,17.85,30.46,1.56,2.78,5.27,2.39,6.91,0a47.26,47.26,0,0,0,7.55-37.36c-.65-2.84-4.73-4-6.69-1.77-2.34,2.67-2.9,6.67-3.63,10-1.26,5.78-2.35,11.59-3.82,17.32-1.23,4.77-2.57,10.49-5.78,14.38-2.79,3.37-5.66-.08-8.25-3.15q-1.42,3.42-2.83,6.83c22.57-.55,28.26-23.86,26.85-42.57-.38-5.11-8.38-5.15-8,0Z"/><path d="M809,376.43a29,29,0,0,0-9,2.46c-2,.89-2.45,3.74-1.44,5.47A4.1,4.1,0,0,0,804,385.8a20.5,20.5,0,0,1,5-1.37c2.14-.25,4-1.67,4-4,0-2-1.84-4.25-4-4Z"/><path d="M807.42,385.3c7.64-18.83,17.92-37,33.74-50.15,16.08-13.36,36.91-17.67,57.37-16.81,45.36,1.9,93.12,30.57,104.32,76.58,1.22,5,8.94,2.88,7.72-2.13-11.27-46.27-56-75.27-101.13-81.42-21.08-2.87-42.93-.62-61.77,9.74-17.62,9.68-30.34,26.18-39.58,43.67a200.25,200.25,0,0,0-8.38,18.39c-1.94,4.79,5.8,6.85,7.71,2.13Z"/><path d="M796.46,402.82c10.27,4.75,14.59,15.47,17.25,25.81.88,3.43,5.53,3.81,7.31,1a36.88,36.88,0,0,1,7.51-9,25.08,25.08,0,0,1,4.43-3,15.27,15.27,0,0,1,3-1.27c1.37-.33,1.49-.41.36-.26L834,414.24c2.15,3,.78,9.1-.15,12.41a52.55,52.55,0,0,1-4.07,9.85c-3.13,6.14-6.58,12.05-8.9,18.58-1.4,3.95,4,6.46,6.69,3.89,14.36-13.54,9.12-37.69-4.29-49.94-3.79-3.47-9.46,2.17-5.65,5.65,10.2,9.34,15.52,28,4.28,38.63l6.69,3.89c5-14.21,17.38-27.28,13.68-43.45-1.56-6.82-6.73-6.19-12-3.69-6.91,3.27-12.12,9.1-16.11,15.49l7.31,1c-3.14-12.22-8.83-25-20.92-30.6-4.64-2.15-8.71,4.75-4,6.91Z"/><path d="M791.94,410.88c1.56,4.49,3.37,8.88,4.63,13.47,1.37,5,8.7,2.88,7.71-2.13a129.57,129.57,0,0,1-2.71-22.55c-.1-5.14-8.1-5.15-8,0a142.37,142.37,0,0,0,3,24.68l7.71-2.13c-1.26-4.59-3.06-9-4.63-13.47-1.68-4.83-9.41-2.75-7.71,2.13Z"/><path d="M804.49,382c9.84.66,19.39,4.7,25.41,12.78s8,18.3,8.1,28.2c.06,5.14,8.06,5.16,8,0-.14-12.21-2.93-24.68-10.8-34.33-7.61-9.34-18.91-13.86-30.71-14.65-5.14-.34-5.12,7.66,0,8Z"/><path d="M794.39,424.94c4.77.58,5,4.38,3.16,8l7.45,2c-.16-2.65-.69-5.29-.14-7.94l-7.72-2.12c-1.17,6.78-.72,13.34,3.41,19.08,2.14,3,5.94,2.28,7.31-1,.7-1.65,1.3-3.34,2-5h-7.72c.37,1.82.93,3.58,1.26,5.41l7.31-3.08-.26-.41a4,4,0,0,0-6.28-.81c-4.89,5.22-9,16.81,1.1,19.3,8.92,2.18,15.73-8.15,18.63-15,5.78-13.56,16.16-43.35-4.84-49.38-3.1-.89-5.49,2-4.92,4.92.42,2.11,1.59,3.91,2,6l6.69-3.89a12.53,12.53,0,0,1-3-4.23L816,402c1-.05,3.4-.72,4.21-.26s.72.83.93,2.32l4.92-4.92c-7.17-1.09-11.17-9.16-6.61-15.12,1.41-1.84.13-4.33-1.43-5.47-4.09-3-8.24-5.09-13.43-4.66s-5.14,8.43,0,8c3.8-.31,6.43,1.38,9.39,3.56L812.55,380c-7.53,9.82-.53,25,11.39,26.88,3.22.49,5.37-1.73,4.92-4.92-1.1-7.74-6.06-8.27-12.86-7.94-2.34.11-4.86,2.51-3.86,5.06a22.29,22.29,0,0,0,5,7.77c2.94,3,7.43-.16,6.69-3.89-.42-2.11-1.59-3.91-2-6l-4.92,4.92c11.41,3.27,5.57,21,3.16,28.56-1.55,4.87-3,10-5.76,14.33-1,1.66-3.42,5.32-5.72,5.55-3.79.38.09-4.28,1.21-5.47l-6.28-.81.26.4c2.51,3.94,8.12,1.34,7.31-3.08-.34-1.82-.9-3.58-1.26-5.4-.87-4.34-6.36-3.21-7.72,0-.7,1.65-1.3,3.34-2,5l7.31-1c-2.84-4-3.41-8.17-2.59-12.92.86-5-6.66-7.22-7.72-2.12-.71,3.45-.35,6.56-.14,10.06.22,3.68,5.55,5.81,7.45,2,4.82-9.58.87-18.74-10.06-20.08-5.09-.63-5,7.38,0,8Z"/><path d="M794.29,450.82A66.44,66.44,0,0,0,811,467.45c4.24,2.94,8.25-4,4-6.9a55.64,55.64,0,0,1-13.82-13.77c-2.94-4.17-9.88-.18-6.91,4Z"/><path d="M795.14,409.94c-3.19,10.4-2.31,23.09,6,30.89,3.77,3.52,9.43-2.13,5.66-5.66-6.3-5.88-6.35-15.37-4-23.11,1.52-4.94-6.21-7-7.72-2.12Z"/><path d="M800.55,419C804.38,427.15,814,433,823,432c2.5-.26,4.66-2.37,3.86-5.06-1.55-5.2-5.12-8.88-9.84-11.39-4.55-2.43-8.59,4.48-4,6.9,2.88,1.54,5.2,3.38,6.16,6.61,1.29-1.68,2.57-3.37,3.86-5.06a15.71,15.71,0,0,1-15.55-9c-2.19-4.66-9.09-.6-6.9,4Z"/><path d="M1192,692.25c65,5.65,130.16,7.64,195.33,9,65.49,1.39,131,3.14,196.52,3.46,66,.33,132.08-.68,198.1-2.64,32.17-1,64.31-2.11,96.5-2.62,31.86-.5,63.76-1.29,95.42-5.23,2.28-.28,4.55-.6,6.83-.91,5.72-.79,3.28-9.46-2.4-8.68-31.8,4.37-64,5.22-96,5.76s-64.23,1.57-96.36,2.56q-99,3-198.11,2.78c-65.53-.25-131-2-196.57-3.4-65.18-1.35-130.39-3.28-195.37-8.78l-3.87-.33c-5.78-.5-5.74,8.5,0,9Z"/><path d="M817.82,392.67a9.12,9.12,0,0,0-3.66-5.13c-1.82-1.33-4.4-1.33-6.49-.86a5,5,0,0,0,2.66,9.64l.44-.09-1.33.18a4.86,4.86,0,0,1,1,0l-1.33-.17a3.38,3.38,0,0,1,.71.19l-1.19-.5a3.28,3.28,0,0,1,.62.37l-1-.78a4.26,4.26,0,0,1,.52.52l-.78-1a5,5,0,0,1,.49.87c-.17-.39-.34-.79-.5-1.19.07.21.14.42.2.63a5,5,0,1,0,9.64-2.66Z"/><path d="M795.51,378.45c-8.79,28.51-1.92,56.49,10.51,82.74,2.76,5.83,11.38.75,8.63-5.05-11.29-23.85-17.48-49.15-9.49-75,1.9-6.18-7.75-8.8-9.65-2.66Z"/><path d="M810.21,457.25c-11.41-20.85-26.58-53-7.45-73.94,4.34-4.74-2.71-11.83-7.07-7.07-22.76,24.86-8,60.66,5.88,86.06,3.1,5.66,11.73.61,8.64-5.05Z"/><path d="M796.8,374c-24.64,20.32-26.64,70.1,4.34,85.63,5.75,2.88,10.82-5.74,5.05-8.63-25.5-12.78-22.12-53.6-2.32-69.93,5-4.11-2.14-11.14-7.07-7.07Z"/><path d="M783.11,414.22c-.07,19.75-1.68,47.32,23.67,51.49,6.31,1,9-8.6,2.66-9.64-19.78-3.26-16.38-26.81-16.33-41.85,0-6.45-10-6.44-10,0Z"/><path d="M801.65,454c-12.87-12.34-16.19-34.8-8.11-50.61,2.93-5.73-5.7-10.79-8.63-5-10.09,19.74-6.54,47.18,9.67,62.72,4.65,4.46,11.73-2.6,7.07-7.07Z"/><path d="M821.75,374.35c-9.48-5.17-20.85-6.66-28,2.9-3.84,5.19,4.84,10.17,8.64,5.05,3.36-4.53,10.44-1.41,14.27.68,5.66,3.1,10.71-5.54,5-8.63Z"/><path d="M993.72,381.41c31.47,4.56,24.11,46.89,12,66.35-2.73,4.4,4.2,8.41,6.91,4,14.66-23.67,20.3-72.72-16.84-78.1-5-.73-7.21,7-2.12,7.71Z"/><path d="M998,395.13c6.9,12.41,6.16,26.47,6.12,40.2,0,5.16,8,5.16,8,0,0-15.24.42-30.5-7.21-44.24-2.51-4.51-9.42-.47-6.91,4Z"/><path d="M1018.78,436.44c1-15.19-1.93-31.45-10.55-44.24-2.86-4.25-9.8-.25-6.9,4,7.9,11.73,10.36,26.28,9.45,40.2-.34,5.16,7.66,5.12,8,0Z"/><path d="M1016.56,403.11c.83-12.09-12.26-15.4-18.95-22.83-3.46-3.84-9.1,1.84-5.66,5.66,2.95,3.28,6.63,5.7,10.27,8.14,3.41,2.3,6.65,4.56,6.34,9-.36,5.15,7.64,5.12,8,0Z"/><path d="M899.7,530.94c-8.93,46.84-3.44,94.62,5.56,141,1,5.06,8.69,2.92,7.71-2.12-8.71-44.9-14.2-91.41-5.56-136.77,1-5-6.75-7.19-7.71-2.12Z"/><path d="M898.11,545.33c-2.26,23.27-15.36,42.83-22.11,64.76-1.15,3.71,4.65,5.28,5.78,1.6,7-22.57,20-42.39,22.33-66.36.38-3.85-5.63-3.81-6,0Z"/><path d="M874.78,613.11c-.93,31.07,8.07,61.06,27.54,85.46,2.42,3,6.64-1.25,4.25-4.25-18.46-23.12-26.67-51.84-25.79-81.21.11-3.87-5.89-3.86-6,0Z"/><path d="M895.89,560.89c2.52,31.93,17.93,61.18,40.88,83.23,2.79,2.68,7-1.56,4.24-4.24-21.75-20.91-36.73-48.66-39.12-79-.3-3.83-6.3-3.86-6,0Z"/><path d="M1012.5,410.5c5.15,0,5.16-8,0-8s-5.16,8,0,8Z"/><path d="M835.5,442.5c5.15,0,5.16-8,0-8s-5.16,8,0,8Z"/><path d="M829.88,436.33l-3.37,9.39c-.83,2.3,1.37,5.31,3.86,5.06a10.52,10.52,0,0,0,8.78-5.7,4.1,4.1,0,0,0-1.44-5.47c-1.75-1-4.53-.52-5.47,1.43-.38.8-1,1.66-1.87,1.74l3.85,5.07,3.37-9.39a4,4,0,0,0-2.79-4.92,4.08,4.08,0,0,0-4.92,2.79Z"/><path d="M-23.9,880c268.07-7.93,536.26-10.2,804.43-10.44s536.2,1.13,804.3,2L2036,873c6.43,0,6.44-10,0-10l-804-2.59c-268.18-.86-536.37-1.78-804.55.93Q201.78,863.66-23.9,870c-6.42.19-6.45,10.19,0,10Z"/></svg>