<svg id="Layer_1" data-name="Layer 1" xmlns="http://www.w3.org/2000/svg" viewBox="0 0 1798.91 886.89"><defs><style>.cls-1,.cls-2{stroke:#000;stroke-miterlimit:10;}.cls-1{stroke-width:0.8px;}.cls-2{stroke-width:0.25px;}</style></defs><title>landing</title><path d="M965.91,187.07c5.76,0,5.76,8.89,0,8.93-52.23.32-104.46-1.14-156.68-.84-26,.15-52.05.7-78,2.14-23,1.28-45.78,4.71-68.74,6.58v-2.1c0-5.76-8.93-5.76-8.93,0v1.6c-2.44-2.23-1.42-7.67,3-8,25.56-1.77,50.85-5.79,76.44-7.14,26-1.35,52-1.94,78-2.05C862.63,186,914.27,187.38,965.91,187.07Z"/><path d="M662.46,201.78v2.1c-2,.17-4,.33-5.93.46a3.82,3.82,0,0,1-3-1v-1.6C653.53,196,662.46,196,662.46,201.78Z"/><path d="M662.46,203.88c0,73.52-.81,147-1.72,220.55-1.46,118.74-3.21,237.49-2.51,356.23,0,5.76-8.9,5.76-8.93,0-.44-74.21.07-148.43.88-222.65,1.3-118.2,3.31-236.41,3.35-354.63a3.82,3.82,0,0,0,3,1C658.51,204.21,660.49,204.05,662.46,203.88Z"/><path d="M962.92,191.53c6.06,58.39,6.23,116.9,6.83,175.53.61,59.28-1.61,118.54-2.6,177.8C965.87,622,967,699.1,965.86,776.21c-.08,5.76,8.85,5.75,8.94,0,.88-58.88,0-117.76.43-176.64.48-59.14,2.53-118.26,3.31-177.39.5-38.31.31-76.66-.33-115-.64-38.62-2.37-77.25-6.36-115.68-.59-5.67-9.53-5.73-8.93,0Z"/><path d="M650.91,792.53c105.27-2.13,210.44-7.45,315.64-11.52,5.75-.22,5.77-9.16,0-8.93-105.2,4.06-210.37,9.39-315.64,11.52-5.75.12-5.76,9,0,8.93Z"/><path d="M1165.72,122.71a103.55,103.55,0,0,1-16.1,1.49c-13.38,3.06-26.79,6-40.14,9.23-17,4.11-33.71,9.4-50.43,14.58-31.45,9.76-62.76,21.05-90.08,39.82-4.72,3.24-.26,11,4.51,7.71,27.18-18.67,58.18-29.69,89.46-39.38,16.22-5,32.41-10.1,48.91-14.12,17.29-4.21,34.7-7.86,52-11.95C1167.67,129.19,1167.79,124.93,1165.72,122.71Z"/><path class="cls-1" d="M1189.44,327.6c2.66,59.19,6,118.43,6.44,177.69.74,113.2-4.64,226.34-4.56,339.54h8.93c-.09-117.92,5.69-235.77,4.44-353.7-.61-56.9-4.1-113.81-6.64-170.64-1.26-28.22-2.42-56.41-2.56-84.66-.15-28.08.38-56.16.79-84.24.08-5.77-8.85-5.76-8.93,0-.43,29.24-1,58.49-.78,87.74C1186.75,268.78,1188.11,298.18,1189.44,327.6Z"/><path d="M1198.63,844.83c2.27-2.17,2.27-6.65-1.66-7.55-77.54-17.68-150.06-52.69-228.4-67.35-5.63-1-8,7.56-2.37,8.61,76.82,14.38,148.06,48.31,223.91,66.3Q1194.37,844.81,1198.63,844.83Z"/><path class="cls-2" d="M1215.94,496q1.05,88.74-.47,177.5c-1,57.14-3.48,114.27-3.64,171.43l8.93,0c.15-56,2.54-112,3.58-167.92q1.65-88.74.58-177.51c-1.3-118.37-5.85-236.69-12.33-354.89-.06-1.19-.13-2.37-.19-3.56-.32-5.72-9.25-5.76-8.93,0C1210,259.28,1214.55,377.6,1215.94,496Z"/><path d="M1185.1,119.35c-4.62.76-9.24,1.45-13.87,2a3.87,3.87,0,0,1-2.11.9,164.19,164.19,0,0,1-16.94,2c-.83,2.61.52,6,4.07,5.94,9.27-.1,18.41-1.57,27.54-3.09C1188,126.33,1187.75,121.49,1185.1,119.35Z"/><path d="M1189.27,121.15a22,22,0,0,1-2.71-2l-3.8.61a4,4,0,0,0-1.72,4.73c3.1,10.24,6,20.65,6.1,31.41.08,5.76,9,5.77,8.93,0-.16-11.56-3.09-22.78-6.41-33.78A5.77,5.77,0,0,0,1189.27,121.15Z"/><path d="M1210.35,119c-2.31-.11-4.63-.28-6.95-.42-.1,1.8-.22,3.6-.38,5.39,1.8-.25,3.6-.51,5.4-.8a4,4,0,0,0,2.94-2.69C1211,119.93,1210.69,119.44,1210.35,119Z"/><path d="M1186.57,119.11c-3,.51-6.09,1-9.14,1.42a4.28,4.28,0,0,0-.12,1,4.49,4.49,0,0,0,4.47,4.46c1.55-.08,3.11-.17,4.66-.28a4.64,4.64,0,0,0,4.31-3.35c-.06-.13-.11-.26-.18-.39A22.79,22.79,0,0,1,1186.57,119.11Z"/><path d="M1211.25,121.49a4.58,4.58,0,0,0-1-2.54c-2.26-.11-4.52-.28-6.79-.42-.14,2.41-.33,4.82-.55,7.23a3.44,3.44,0,0,1,0,1.63c.43,6.07.66,12.15,1.29,18.21.58,5.67,9.52,5.73,8.93,0C1212.21,137.58,1212.08,129.51,1211.25,121.49Z"/><path d="M1184.9,128.28a143.29,143.29,0,0,0,18.76-.9c2.7-.35,5-2,5-5,0-2.45-2.29-5.36-5-5a143.29,143.29,0,0,1-18.76.9c-6.44,0-6.44,10,0,10Z"/><path d="M992.11,420.15c2.6,11.62,5.44,23.2,8,34.83.71,3.17,5.2,2.23,5.4-.74.31-4.68,3.6-8.4,5.26-12.66l-5,.66c2.38,3.54,7.08,4.61,9.38,8,1.2,1.79,4.57,1.87,5-.65,3.82-21.08-4.61-41.12-12.06-60.41-1.26-3.27-6.58-1.85-5.3,1.47,7,18.14,15.66,37.59,12,57.47l5-.65c-2.38-3.54-7.08-4.62-9.38-8a2.78,2.78,0,0,0-5,.66c-1.93,4.95-5.1,8.61-5.46,14.12l5.4-.73c-2.6-11.63-5.44-23.2-8-34.83-.77-3.46-6.07-2-5.3,1.47Z"/><path d="M1022.92,424.17c1.18,5.84,2.57,11.63,4,17.41.86,3.44,6.16,2,5.3-1.46-1.44-5.79-2.83-11.57-4-17.42-.7-3.47-6-2-5.3,1.47Z"/><path d="M1032.34,440.85c-1.2-10.83-2.35-22,9.35-27.1,3.25-1.41.45-6.15-2.77-4.75-13.57,5.9-13.5,19-12.08,31.85.38,3.48,5.89,3.52,5.5,0Z"/><path d="M1026.3,435.46c5.17-1.38,9.64-4,14-7,2.94-2,.19-6.72-2.77-4.75-4,2.68-8,5.15-12.74,6.42-3.42.92-2,6.22,1.46,5.3Z"/><path d="M1029.59,443.6c6.44-.32,12.47-4.72,17.46-8.41,2.82-2.09.08-6.87-2.77-4.75-4,3-9.44,7.4-14.69,7.66-3.53.17-3.55,5.68,0,5.5Z"/><path d="M1046.93,404.68a63.16,63.16,0,0,0,4.12,31.54c.53,1.29,1.86,2.49,3.38,1.92a38.11,38.11,0,0,0,13.27-8.74c2.56-2.47-1.33-6.35-3.89-3.89a31.48,31.48,0,0,1-10.84,7.33l3.38,1.92a59.69,59.69,0,0,1-3.92-30.08c.45-3.51-5.06-3.47-5.5,0Z"/><path d="M1071.07,398.29c-7.76,5-12.41,14.55-7.35,23.18,5.65,9.65,17.34,5.87,24.08-.11,2.65-2.36-1.25-6.24-3.89-3.89-4.26,3.78-11.43,7.25-15.44,1.23-3.82-5.74.41-12.45,5.37-15.66,3-1.92.22-6.69-2.77-4.75Z"/><path d="M1086.16,392.57c-4.67,8.58-2.32,30.44,11.32,27.83,7.88-1.5,11-10.67,9.1-17.54a18.16,18.16,0,0,0-18-13c-3.52.23-3.54,5.73,0,5.5,5.52-.35,9.8,2.89,12.26,7.66,2.2,4.25,0,13.15-6.18,12.13-6.36-1-5.9-15.77-3.7-19.81,1.69-3.12-3.06-5.89-4.75-2.78Z"/><path d="M1115.39,411.38c-1.35-10.26-3.85-20.44-4-30.81l-4.69,1.94c3.74,3,8.51,3.42,12.61,5.79,2.24,1.3,4.44-.82,4-3.11-.76-4.36,1.24-8,2.68-11.93l-4.59,1.21c11.09,9,8.6,28.27,8.57,40.93,0,3.54,5.49,3.54,5.5,0,0-14.17,2.24-34.76-10.19-44.81a2.79,2.79,0,0,0-4.59,1.21c-1.88,5.15-3.66,9.29-2.68,14.86l4-3.11c-3.54-2.05-8.35-2.37-11.5-4.93-1.76-1.42-4.74-.65-4.7,1.95.17,10.39,2.67,20.54,4,30.81.46,3.46,6,3.51,5.5,0Z"/><path d="M1139,393.11c.68,3.84,1.2,7.7,1.68,11.57.44,3.47,5.94,3.51,5.5,0-.54-4.36-1.11-8.71-1.87-13-.61-3.48-5.92-2-5.31,1.46Z"/><path d="M1134.1,375.94a73.45,73.45,0,0,1,3.32,9.77c.91,3.42,6.21,2,5.3-1.46a73.4,73.4,0,0,0-3.31-9.77,2.84,2.84,0,0,0-3.39-1.92c-1.29.34-2.49,2-1.92,3.38Z"/><path d="M1138.07,377.28c2.36-6.56,7.94-9.9,14.76-10,3.54-.07,3.55-5.57,0-5.5-9.41.19-16.85,5.16-20.07,14.08-1.2,3.34,4.11,4.77,5.31,1.46Z"/><path d="M1142.88,392.21a28.22,28.22,0,0,0,10-3.91c3-1.91.21-6.67-2.78-4.75a24.2,24.2,0,0,1-8.69,3.36c-3.47.66-2,6,1.47,5.3Z"/><path d="M1146.74,408a56.47,56.47,0,0,0,7.13-8.59c2-2.95-2.79-5.7-4.75-2.78a49.33,49.33,0,0,1-6.27,7.48c-2.51,2.51,1.38,6.4,3.89,3.89Z"/><path d="M973.38,404.38c19.55-14.76,40.11-28.41,63-37.39,21.92-8.58,45.33-12.43,68.58-15.24,19.1-2.31,39.5-5,55.75-16.13,13.87-9.53,22.48-24.81,30.67-39.08q2-3.5,4-7c1.75-3.09-3-5.86-4.75-2.77-8.6,15.17-17,32.29-31.24,43.07-16.24,12.33-38.14,14.42-57.66,16.82-22.72,2.81-45.36,6.82-66.8,15.05-22.31,8.56-42.44,21.62-61.53,35.82l-2.81,2.12c-2.79,2.1-.06,6.88,2.78,4.75Z"/><path d="M978.38,503.86c17.12-39,63.4-41,100.2-43.77,18.77-1.42,37.15-3.31,55.07-9.4,21.15-7.19,40-19.73,53.17-38a97.46,97.46,0,0,0,11.53-22c1.27-3.32-4-4.74-5.3-1.47-8.72,22.74-25.5,39.85-47.2,50.56-18.2,9-37.89,12.35-57.92,14.08-35.31,3-80,1.93-104.9,31.77a64.46,64.46,0,0,0-9.4,15.46c-1.41,3.22,3.33,6,4.75,2.78Z"/><path d="M1137.67,384c.91,2.68,2,5.28,2.68,8,.25,1.06,1.73.58,1.59-.44a29.13,29.13,0,0,0-2.09-7.14c-.32-.78-1.74-.8-1.62.21a73.72,73.72,0,0,0,1.22,7.67.83.83,0,0,0,1.62-.22,41.55,41.55,0,0,0-1.51-8.26c-.24-1-1.82-.6-1.59.44a49.63,49.63,0,0,0,1.48,5.06l1.51-.64a19.8,19.8,0,0,1-1.4-3.37.83.83,0,0,0-1.59.44,62,62,0,0,1,1.45,7.52c.13,1,1.78,1,1.65,0a65.3,65.3,0,0,0-1.51-8l-1.59.44a22.56,22.56,0,0,0,1.57,3.77.82.82,0,0,0,1.5-.64,49.63,49.63,0,0,1-1.48-5.06l-1.59.44a40.06,40.06,0,0,1,1.45,7.82l1.62-.22a67.59,67.59,0,0,1-1.16-7.23l-1.62.22a29.33,29.33,0,0,1,2.09,7.15l1.59-.44c-.66-2.76-1.77-5.36-2.68-8-.34-1-1.94-.57-1.59.44Z"/><path d="M1138.94,384.48l1.79,3.57a.83.83,0,0,0,1.42,0,3,3,0,0,0,0-2.62c-.41-1-1.84-.14-1.42.83a1.15,1.15,0,0,1,0,1h1.42c-.59-1.2-1.19-2.39-1.78-3.58-.48-.95-1.9-.11-1.43.84Z"/><path d="M1139.54,384.48a17.28,17.28,0,0,1,1.11,3.37l1.5-.63c-.36-.61-.24-1.26-.51-1.89l-1.21.93a6.66,6.66,0,0,1,1.62,1.06c.77.73,1.94-.43,1.16-1.16a7.37,7.37,0,0,0-2-1.32c-.56-.29-1.52.2-1.21.93a3.28,3.28,0,0,1,.18.88,3.57,3.57,0,0,0,.5,1.4.83.83,0,0,0,1.51-.64,19.26,19.26,0,0,0-1.28-3.77c-.46-.95-1.88-.12-1.42.84Z"/><path d="M1192.6,844c6.59,1.51,13.36,1.52,20.08,1.52,6.45,0,6.45-10,0-10-5.81,0-11.73.14-17.42-1.16-6.28-1.43-9,8.21-2.66,9.64Z"/><path d="M-2.5,805.46c127.12,13.39,255,1.89,382.17-5.17,89.49-5,179.18-6.81,268.8-6.83,6.45,0,6.45-10,0-10q-98.34,0-196.62,3.53c-63.48,2.28-126.84,6.75-190.26,10.21C173.67,802,85.23,804.7-2.5,795.46c-6.41-.67-6.34,9.33,0,10Z"/><path d="M1221.44,774.46c62.35,8.08,125.42,6.66,188.1,4.45q95.46-3.37,190.85-3.59c93.67-.19,187.34.64,281,.64,6.45,0,6.45-10,0-10-66.07,0-132.14-.4-198.2-.58-65.23-.18-130.54-.68-195.76.88-88.59,2.13-177.73,9.64-266-1.8-6.38-.82-6.3,9.19,0,10Z"/></svg>