<svg id="Layer_1" data-name="Layer 1" xmlns="http://www.w3.org/2000/svg" viewBox="0 0 1798.91 886.89"><title>landing</title><path d="M662,423.35c14.63,1.49,29.31,1.56,44,1.56,6.43,0,6.45-10,0-10-14.69,0-29.37-.07-44-1.56-6.4-.64-6.35,9.36,0,10Z"/><path d="M702.13,420c0,65.88,0,131.77-1,197.65-.51,32.28-1,64.62-2.54,96.87-1.49,30.42-4.27,60.79-3.67,91.28a286.07,286.07,0,0,0,4.43,46c1.16,6.34,10.8,3.65,9.65-2.65-5.5-30-4.59-60.81-3-91.16,1.68-31,3.36-61.9,4.13-92.94,1.63-65.91,1.92-131.85,2-197.79q0-23.62,0-47.26c0-6.45-10-6.45-10,0Z"/><path d="M687.13,381a281.82,281.82,0,0,1,1.5,33c0,6.44,10,6.44,10,0a281.82,281.82,0,0,0-1.5-33c-.76-6.32-10.77-6.4-10,0Z"/><path d="M718.62,382.54c0,70.49-1.53,141.09,3,211.49.42,6.4,10.42,6.44,10,0-4.53-70.4-3-141-3-211.49,0-6.45-10-6.45-10,0Z"/><path d="M713.12,605c111.26,0,222.46,4.06,333.65,7.49q82.05,2.52,164.14,4.18c54.85,1.08,109.54-1.23,164.35-3.22,62-2.26,123.89-4.75,185.79-8,6.41-.34,6.45-10.34,0-10-55.32,2.88-110.68,5.18-166,7.24-54.86,2-109.77,4.93-164.68,4.27-110.18-1.34-220.31-5.95-330.46-9-62.23-1.72-124.48-3-186.75-3-6.43,0-6.44,10,0,10Z"/><path d="M1575.81,605c73.82-5,147.75-9,221.76-9,6.43,0,6.45-10,0-10-74,0-147.94,4-221.76,9-6.39.43-6.43,10.44,0,10Z"/><path d="M1530.58,608l37.59-2.5c6.39-.42,6.44-10.42,0-10l-37.59,2.5c-6.38.42-6.43,10.43,0,10Z"/><path d="M1638.64,307.67c25.86-19.37,34.93-56.43,34.61-87.29-.36-34-16.6-64.68-45.83-82.52-17-10.34-36.5-14.94-56.06-17-6.4-.67-6.35,9.34,0,10,30.09,3.13,59.55,14.62,77.3,40.33s17.41,59.39,9,88.56c-4.28,14.83-11.4,29.8-24.05,39.27-5.09,3.81-.11,12.5,5.05,8.63Z"/><path d="M1495.92,148c-20.63,27.67-30.61,66.93-16.7,99.72,7.33,17.31,21.28,30.77,36.5,41.34,16.4,11.39,35.15,20.67,54.43,25.95,22.16,6.07,46.88,6.65,66.81-6.2,5.39-3.48.38-12.14-5-8.64-32.37,20.89-75.75,2.69-104.94-15.66-14.39-9-28.25-20.64-36.32-35.88-7.48-14.12-9.21-30.77-6.92-46.44a109.11,109.11,0,0,1,20.83-49.14c3.85-5.17-4.83-10.16-8.64-5.05Z"/><path d="M1631.71,307.83c11.53,13.15,17,30,20.43,46.86,3.85,19.17,5.1,38.75,5.48,58.26.74,37.53-.55,75.93-14.65,111.22-2.39,6,7.28,8.57,9.64,2.65,11.45-28.64,14.62-59.65,15.08-90.27.48-31.31-.21-63.66-8.1-94.14-3.95-15.26-10.35-29.72-20.81-41.65-4.25-4.85-11.3,2.25-7.07,7.07Z"/><path d="M1451.15,413c30.45-9.62,62-15.61,94-16.73,5.15-.18,5.17-8.18,0-8a361.48,361.48,0,0,0-96.09,17c-4.9,1.55-2.81,9.27,2.12,7.71Z"/><path d="M1447.8,406.83c2.74-23-7.5-45.54-15.92-66.34-1.91-4.72-9.65-2.66-7.72,2.13,8.16,20.15,18.29,41.93,15.64,64.21-.61,5.12,7.4,5.06,8,0Z"/><path d="M1428,342.81c9.22-5.16,17.2,15.27,19.59,21A184.8,184.8,0,0,1,1458.3,399c1,5.06,8.71,2.91,7.71-2.13a182.47,182.47,0,0,0-13.69-42c-4.83-10.26-14.91-26.52-28.36-19-4.5,2.52-.47,9.43,4,6.9Z"/><path d="M1542.11,397.75c17.54,32.56,40.54,61.75,63,91,3.1,4,10.06.05,6.91-4-22.5-29.21-45.5-58.4-63-91-2.44-4.54-9.35-.5-6.91,4Z"/><path d="M1519.07,505.46q2,2.16,4,4.32a4,4,0,0,0,5.66,0,4.09,4.09,0,0,0,0-5.66q-2-2.14-4-4.32a4,4,0,0,0-5.65,0,4.08,4.08,0,0,0,0,5.66Z"/><path d="M1441.54,413.07c25.81,30,49.71,61.55,76.21,90.94,3.45,3.83,9.1-1.84,5.66-5.66-26.51-29.38-50.4-61-76.22-90.93-3.36-3.91-9,1.77-5.65,5.65Z"/><path d="M1539.18,516.08c22.41-6.48,45.26-11.28,67.61-18,4.92-1.47,2.83-9.2-2.12-7.72-22.36,6.67-45.21,11.48-67.62,17.95-4.93,1.43-2.83,9.15,2.13,7.72Z"/><path d="M1653.82,594.33c11.62-64.09,19.64-128.88,35.07-192.23,2.38-9.79,4.49-19.66,7.07-29.4,1.29-4.89,3.08-11.24,5.94-14.73,2.66-3.25,6-4.43,10.67-5,8-.93,16.31-.16,24.34.39,20.74,1.43,41.43,4.3,62.09,6.6,6.4.71,6.34-9.3,0-10-26.23-2.92-52.78-7.34-79.23-7.34-11.65,0-22.71,2.49-28.51,13.53-3.16,6-4.76,12.87-6.36,19.43q-4.29,17.53-8.34,35.15c-7.33,31.62-12.85,63.63-18.12,95.65-4.68,28.43-9.12,56.9-14.26,85.25-1.14,6.3,8.49,9,9.64,2.66Z"/><path d="M1633.18,318.33c6.2,36.56,3.7,74.43-5.65,110.23-6.58,25.23-17.77,53.88-43.3,65.2-19,8.4-41.09,6.38-61.27,6.25-6.44,0-6.45,10,0,10,19.73.13,40.28,1.47,59.31-4.85,14.13-4.7,25.57-14,34.25-26,8.83-12.17,14.48-26.54,18.7-40.88a284.44,284.44,0,0,0,10.12-53.57,264.5,264.5,0,0,0-2.52-69.06c-1.07-6.33-10.71-3.65-9.64,2.66Z"/><path d="M1504.32,154c16.63-21.63,44.8-26.08,70.35-22.2,6.31,1,9-8.67,2.66-9.64-30.57-4.65-61.94,1.16-81.65,26.8-3.93,5.11,4.77,10.08,8.64,5Z"/><path d="M1605.33,498.82c4.21-1.47,8-4.44,9-9a5,5,0,0,0-9.64-2.66,4.92,4.92,0,0,1-.14.55c-.27,1,.54-1.09.09-.16a4.82,4.82,0,0,1-.43.73c.76-1.16.32-.41,0-.12a7.55,7.55,0,0,1-.65.61c1.06-.91.29-.25,0-.07s-.57.32-.86.46c1.22-.6.23-.1-.07,0a5.09,5.09,0,0,0-3.49,6.15c.68,2.49,3.57,4.39,6.15,3.49Z"/><path d="M1463,405.5c5.16,0,5.16-8,0-8s-5.16,8,0,8Z"/><path d="M1462.5,406c5.16,0,5.16-8,0-8s-5.16,8,0,8Z"/><path d="M1539.5,506.5c-4.16.39-8.27.63-11.17-2.83-3.33-3.95-8.95,1.74-5.66,5.66,4.24,5,10.65,5.75,16.83,5.17,5.09-.48,5.14-8.48,0-8Z"/><path d="M-21.67,870.34c59.05,8.77,118.7,6.89,178,2.35,61-4.67,121.88-10.57,183-14.13,124.32-7.24,248.81-8.57,373.17-2C838.1,863.09,964,869,1089.64,862q93.49-5.22,186.69-14c61.8-5.76,123.56-13.13,185.72-12.79,35.89.2,71.75,2.1,107.62,3.15,35.65,1,71.36.83,107,1,69.45.4,139.58-.56,207.7-15.57,6.29-1.39,3.62-11-2.66-9.64-58,12.77-117.49,15-176.67,15.25-59.94.24-119.88-.42-179.78-2.61-31-1.13-62.06-2.05-93.1-1.41s-62,3.82-92.89,6.67c-61.94,5.71-123.84,12-185.92,16-62.56,4-125.05,7.14-187.76,7.1-63,0-125.9-2.44-188.78-5.44-62.3-3-124.48-7.14-186.88-7.45s-124.71.35-187,3c-70.28,3-140.38,8-210.43,14.31-70.22,6.3-141.41,11.47-211.5,1.06-6.3-.94-9,8.69-2.66,9.64Z"/><path d="M1098.44,607.85c23.81-9.48,39.32-30.62,51.94-52,14.65-24.82,25.53-51.68,37.14-78,11.74-26.62,23.82-53.13,38.16-78.47,13-23,28.56-46,54.32-55.73,25.1-9.49,51.73-3.74,73.49,11,20.19,13.65,35.37,33.57,47.72,54.3,15.08,25.33,28.11,51.76,44.16,76.54,14.1,21.75,30,43.39,50.32,59.76,21.29,17.16,47.74,27.45,75.12,20.44,13.48-3.46,25.65-10.6,36.49-19.16,8.09-6.39,18.82-21.53,30.53-18.73,6.26,1.49,8.93-8.15,2.66-9.65-11.39-2.72-20.86,4-28.93,11.29-9.2,8.24-18.25,16-29.46,21.46-23.53,11.52-48.87,7.79-70.37-6.22-22.18-14.46-39.09-36.38-53.67-58.1-16.43-24.46-29.73-50.62-44.39-76.12-23.66-41.17-62.18-86.34-114.94-81.25-26.47,2.55-48.38,17.29-64.3,38-17,22.12-29.24,48.28-41,73.42-13.83,29.57-25.77,60.06-40.37,89.27-12.73,25.47-29.21,57.13-57.27,68.31-5.91,2.35-3.33,12,2.66,9.64Z"/><path d="M1658,529.71c1.14-5.09,2-10.23,2.82-15.38.44-2.66-.69-5.38-3.49-6.15-2.39-.66-5.71.81-6.15,3.49-.85,5.15-1.68,10.29-2.82,15.39-1.4,6.26,8.24,8.94,9.64,2.65Z"/><path d="M1100.67,596.18a220.8,220.8,0,0,1-24,5c-5.56.75-4.24,10.57,1.33,9.82a230.17,230.17,0,0,0,25.33-5.18c6.25-1.56,3.6-11.2-2.66-9.64Z"/><path d="M1569,605c6.45,0,6.45-10,0-10s-6.45,10,0,10Z"/><path d="M1573.52,605.32c-1.1.52,0,0,.21-.05a9.72,9.72,0,0,1,1.32-.3c-1.55.27-.28.06.09,0h.86a5,5,0,0,0,0-10,17.11,17.11,0,0,0-7.52,1.68c-2.47,1.16-3.08,4.65-1.8,6.84,1.47,2.51,4.38,3,6.84,1.8Z"/><path d="M1639.33,529.82c9.57-1.77,12.17,15.86,11.67,22.18s9.5,6.38,10,0c1.11-14.15-7.08-35-24.33-31.82-6.34,1.17-3.64,10.81,2.66,9.64Z"/><path d="M1630.33,529.82c12.08-1.91,16.19,11,17.85,20.51,1.11,6.34,10.75,3.65,9.64-2.66-2.8-16-12.1-30.35-30.15-27.49-6.35,1-3.65,10.64,2.66,9.64Z"/><path d="M1643.32,315.48l-6-12c-1.22-2.44-4.61-3.11-6.84-1.8a5.08,5.08,0,0,0-1.8,6.84l6,12c1.22,2.44,4.61,3.11,6.84,1.8a5.08,5.08,0,0,0,1.8-6.84Z"/><path d="M693,386c9.68-.06,19.32-.94,29-1,6.45,0,6.45-10,0-10-9.68.06-19.32.94-29,1-6.45,0-6.45,10,0,10Z"/><path d="M657,418.32C672.11,546,669.46,674.87,668.79,803.19q-.12,20.89-.12,41.8c0,6.45,10,6.45,10,0,0-128.29,4-256.89-7.33-384.86q-1.86-20.94-4.34-41.81c-.75-6.32-10.76-6.39-10,0Z"/></svg>