<?xml version="1.0" encoding="utf-8"?>
<!-- Generator: Adobe Illustrator 16.0.0, SVG Export Plug-In . SVG Version: 6.00 Build 0)  -->
<!DOCTYPE svg PUBLIC "-//W3C//DTD SVG 1.1//EN" "http://www.w3.org/Graphics/SVG/1.1/DTD/svg11.dtd">
<svg version="1.1" id="Layer_1" xmlns="http://www.w3.org/2000/svg" xmlns:xlink="http://www.w3.org/1999/xlink" x="0px" y="0px"
	 width="1920px" height="1080px" viewBox="0 0 1920 1080" enable-background="new 0 0 1920 1080" xml:space="preserve">
<g>
	<g id="XMLID_1_">
		<g>
			<path d="M477.03,360.9c0,0.79,0,1.57,0,2.36c-2.21,0.19-4.43,0.36-6.64,0.51c-1.45,0.1-2.57-0.33-3.36-1.07c0-0.6,0-1.2,0-1.8
				C467.03,354.45,477.03,354.45,477.03,360.9z"/>
			<path d="M477.03,363.26c-0.04,82.32-0.91,164.64-1.93,246.95c-1.64,132.95-3.59,265.91-2.81,398.87c0.04,6.45-9.96,6.45-10,0
				c-0.49-83.1,0.08-166.2,0.99-249.3c1.45-132.351,3.7-264.71,3.75-397.08c0.79,0.74,1.91,1.17,3.36,1.07
				C472.6,363.62,474.82,363.45,477.03,363.26z"/>
			<path d="M470.39,353.77c28.62-1.98,56.93-6.48,85.59-7.99c29.1-1.52,58.23-2.17,87.36-2.3c57.82-0.25,115.64,1.3,173.46,0.95
				c6.45-0.04,6.45,9.96,0,10c-58.48,0.36-116.96-1.28-175.44-0.94c-29.14,0.17-58.28,0.79-87.37,2.4
				c-25.76,1.43-51.26,5.27-76.96,7.37c0-0.79,0-1.57,0-2.36c0-6.45-10-6.45-10,0c0,0.6,0,1.2,0,1.8
				C464.29,360.2,465.44,354.11,470.39,353.77z"/>
		</g>
		<g>
		</g>
	</g>
</g>
<g>
	<path d="M813.442,349.426c6.791,65.377,6.976,130.896,7.651,196.538c0.683,66.377-1.809,132.732-2.913,199.091
		c-1.438,86.347-0.143,172.693-1.439,259.036c-0.097,6.452,9.903,6.442,10,0c0.99-65.925-0.056-131.858,0.48-197.786
		c0.539-66.219,2.843-132.409,3.711-198.623c0.562-42.895,0.347-85.839-0.365-128.731c-0.718-43.246-2.656-86.493-7.125-129.525
		C822.783,343.078,812.776,343.014,813.442,349.426L813.442,349.426z"/>
</g>
<g>
	<path d="M464.089,1022.368c117.872-2.388,235.627-8.349,353.425-12.904c6.427-0.249,6.451-10.249,0-10
		c-117.798,4.556-235.553,10.517-353.425,12.904C457.649,1012.499,457.637,1022.499,464.089,1022.368L464.089,1022.368z"/>
</g>
<g>
	<path d="M1040.523,272.365c-5.986,0.873-11.971,1.739-18.026,1.674c-14.988,3.42-30.004,6.721-44.95,10.328
		c-19.061,4.601-37.746,10.525-56.469,16.332c-35.209,10.919-70.274,23.568-100.862,44.586c-5.278,3.626-0.284,12.297,5.047,8.635
		c30.438-20.915,65.151-33.244,100.172-44.104c18.162-5.633,36.291-11.306,54.771-15.806c19.353-4.711,38.852-8.801,58.235-13.383
		C1042.702,279.619,1042.837,274.857,1040.523,272.365z"/>
</g>
<g>
	<path d="M1067.075,501.782c2.987,66.277,6.779,132.604,7.213,198.959c0.828,126.755-5.199,253.436-5.104,380.187
		c3.332-0.013,6.666-0.012,9.999,0.003c-0.098-132.036,6.375-264,4.97-396.045c-0.678-63.707-4.586-127.431-7.435-191.067
		c-1.415-31.592-2.706-63.161-2.87-94.79c-0.162-31.445,0.426-62.889,0.887-94.329c0.095-6.452-9.905-6.443-10,0
		c-0.48,32.746-1.066,65.493-0.864,98.244C1064.072,435.919,1065.591,468.844,1067.075,501.782z"/>
</g>
<g>
	<path d="M1077.371,1080.926c2.543-2.433,2.54-7.449-1.861-8.452c-86.816-19.801-168.022-59.001-255.738-75.41
		c-6.302-1.179-8.992,8.458-2.658,9.643c86.022,16.093,165.788,54.089,250.721,74.226
		C1071.013,1080.915,1074.192,1080.916,1077.371,1080.926z"/>
</g>
<g>
	<path d="M1096.756,690.313c0.779,66.246,0.636,132.505-0.532,198.746c-1.128,63.984-3.9,127.954-4.08,191.951
		c3.337,0.022,6.673,0.039,10.008,0.047c0.163-62.685,2.837-125.348,4-188.018c1.231-66.243,1.375-132.505,0.649-198.755
		c-1.451-132.545-6.543-265.03-13.797-397.377c-0.072-1.327-0.146-2.654-0.219-3.981c-0.354-6.412-10.355-6.446-10,0
		C1090.083,425.279,1095.197,557.763,1096.756,690.313z"/>
</g>
<g>
	<path d="M1062.219,268.61c-5.174,0.842-10.348,1.621-15.53,2.205c-0.573,0.504-1.349,0.867-2.359,1.006
		c-6.316,0.871-12.612,1.962-18.974,2.184c-0.922,2.923,0.59,6.693,4.562,6.65c10.383-0.113,20.617-1.756,30.837-3.457
		C1065.434,276.42,1065.188,270.998,1062.219,268.61z"/>
</g>
<g>
	<path d="M1066.886,270.619c-1.059-0.676-2.07-1.428-3.035-2.276c-1.415,0.233-2.831,0.464-4.247,0.688
		c-1.629,1.019-2.654,2.886-1.925,5.299c3.467,11.468,6.657,23.114,6.821,35.171c0.088,6.443,10.088,6.452,10,0
		c-0.176-12.942-3.456-25.514-7.179-37.829C1067.205,271.286,1067.059,270.936,1066.886,270.619z"/>
</g>
<g>
	<path d="M1090.493,268.154c-2.592-0.123-5.183-0.31-7.779-0.463c-0.117,2.011-0.255,4.021-0.427,6.03
		c2.018-0.278,4.032-0.568,6.042-0.899c1.595-0.263,2.755-1.525,3.299-3.013C1091.254,269.254,1090.875,268.703,1090.493,268.154z"
		/>
</g>
<g>
	<path d="M1063.863,268.34c-3.41,0.562-6.818,1.103-10.23,1.586c-0.08,0.342-0.133,0.697-0.133,1.073c0,2.616,2.276,5.146,5,5
		c1.742-0.093,3.482-0.2,5.223-0.322c2.296-0.161,4.265-1.58,4.825-3.743c-0.069-0.145-0.131-0.293-0.199-0.438
		C1066.755,270.609,1065.262,269.57,1063.863,268.34z"/>
</g>
<g>
	<path d="M1091.5,271c-0.12-1.158-0.554-2.104-1.174-2.843c-2.532-0.125-5.063-0.315-7.6-0.465
		c-0.164,2.697-0.378,5.392-0.619,8.086c0.131,0.637,0.11,1.253-0.044,1.826c0.481,6.799,0.734,13.613,1.437,20.396
		c0.657,6.348,10.664,6.412,10,0C1092.57,289.019,1092.43,279.981,1091.5,271z"/>
</g>
<g>
	<g>
		<path d="M1062,278c7.025-0.002,14.024-0.078,21-1c2.701-0.357,5-2.004,5-5c0-2.455-2.291-5.358-5-5
			c-6.976,0.922-13.975,0.998-21,1C1055.552,268.002,1055.551,278.002,1062,278L1062,278z"/>
	</g>
</g>
<g>
	<g>
		<path d="M846.444,605.319c2.909,13.021,6.091,25.978,9,38.998c0.708,3.168,5.221,2.24,5.402-0.731
			c0.323-5.304,4.048-9.452,5.901-14.268c-1.676,0.219-3.351,0.438-5.026,0.656c2.591,4.011,7.993,5.119,10.5,8.999
			c1.183,1.832,4.569,1.84,5.026-0.656c4.307-23.511-5.198-45.956-13.5-67.459c-1.264-3.272-6.583-1.852-5.304,1.463
			c7.862,20.363,17.588,42.217,13.5,64.533c1.675-0.219,3.351-0.438,5.026-0.656c-2.591-4.011-7.993-5.119-10.5-8.999
			c-1.368-2.117-4.175-1.555-5.026,0.656c-2.118,5.504-5.725,9.6-6.098,15.73c1.801-0.244,3.601-0.487,5.402-0.731
			c-2.909-13.021-6.091-25.978-9-38.998C850.975,600.396,845.672,601.864,846.444,605.319L846.444,605.319z"/>
	</g>
</g>
<g>
	<g>
		<path d="M880.942,609.819c1.326,6.541,2.882,13.024,4.5,19.499c0.86,3.439,6.164,1.979,5.304-1.463
			c-1.618-6.474-3.174-12.957-4.5-19.499C885.542,604.882,880.241,606.356,880.942,609.819L880.942,609.819z"/>
	</g>
</g>
<g>
	<g>
		<path d="M890.844,628.587c-1.353-12.222-2.599-24.918,10.638-30.624c3.249-1.401,0.444-6.138-2.776-4.75
			c-15.092,6.507-14.933,21.182-13.361,35.374C885.729,632.072,891.234,632.109,890.844,628.587L890.844,628.587z"/>
	</g>
</g>
<g>
	<g>
		<path d="M884.325,622.238c5.762-1.546,10.731-4.496,15.656-7.775c2.936-1.956,0.186-6.722-2.776-4.75
			c-4.533,3.019-9.033,5.798-14.342,7.223C879.441,617.854,880.895,623.159,884.325,622.238L884.325,622.238z"/>
	</g>
</g>
<g>
	<g>
		<path d="M888.094,631.337c7.149-0.357,13.85-5.277,19.388-9.375c2.817-2.085,0.079-6.862-2.776-4.75
			c-4.582,3.392-10.661,8.327-16.611,8.625C884.564,626.014,884.547,631.515,888.094,631.337L888.094,631.337z"/>
	</g>
</g>
<g>
	<g>
		<path d="M907.843,588.089c-1.516,11.82,0.072,24.202,4.598,35.229c0.53,1.291,1.853,2.481,3.383,1.92
			c5.7-2.09,10.372-5.511,14.712-9.706c2.554-2.469-1.339-6.354-3.889-3.889c-3.634,3.512-7.504,6.538-12.286,8.292
			c1.127,0.64,2.255,1.28,3.383,1.92c-4.374-10.656-5.867-22.345-4.402-33.767C913.793,584.578,908.288,584.621,907.843,588.089
			L907.843,588.089z"/>
	</g>
</g>
<g>
	<g>
		<path d="M934.704,581.214c-8.533,5.521-13.679,16.005-8.111,25.512c6.213,10.606,19.065,6.361,26.443-0.193
			c2.657-2.36-1.248-6.235-3.889-3.889c-4.94,4.389-13.183,8.246-17.805,1.306c-4.383-6.581,0.43-14.293,6.138-17.985
			C940.446,584.045,937.691,579.281,934.704,581.214L934.704,581.214z"/>
	</g>
</g>
<g>
	<g>
		<path d="M951.716,574.701c-5.086,9.282-2.562,33.899,12.489,30.629c8.83-1.92,12.053-12.258,9.532-19.929
			c-2.681-8.162-11.062-14.151-19.646-13.562c-3.519,0.242-3.542,5.743,0,5.5c6.413-0.44,11.976,3.642,14.343,9.523
			c2.169,5.388-0.639,13.301-7.288,13.331c-4.121,0.019-5.458-7.189-5.955-10.087c-0.674-3.931-0.69-9.045,1.275-12.631
			C958.17,574.365,953.421,571.59,951.716,574.701L951.716,574.701z"/>
	</g>
</g>
<g>
	<g>
		<path d="M983.84,595.588c-1.507-11.482-4.331-22.88-4.5-34.498c-1.564,0.648-3.13,1.297-4.694,1.944
			c4.1,3.45,9.534,3.747,14.056,6.431c2.214,1.313,4.469-0.829,4.039-3.106c-0.934-4.949,1.381-9.035,3-13.536
			c-1.531,0.404-3.063,0.809-4.596,1.213c12.527,10.046,9.725,31.848,9.693,46.053c-0.008,3.547,5.492,3.547,5.5,0
			c0.035-15.708,2.561-38.824-11.305-49.941c-1.664-1.335-3.851-0.858-4.596,1.213c-2.038,5.664-4.157,10.33-3,16.462
			c1.346-1.035,2.692-2.071,4.039-3.106c-3.965-2.353-9.446-2.627-12.942-5.569c-1.748-1.472-4.731-0.622-4.694,1.944
			c0.169,11.634,2.992,23.007,4.5,34.498C978.795,599.053,984.301,599.097,983.84,595.588L983.84,595.588z"/>
	</g>
</g>
<g>
	<g>
		<path d="M1010.944,575.045c0.76,4.33,1.348,8.683,1.894,13.044c0.435,3.471,5.94,3.514,5.5,0
			c-0.607-4.849-1.246-9.692-2.091-14.507C1015.635,570.094,1010.336,571.577,1010.944,575.045L1010.944,575.045z"/>
	</g>
</g>
<g>
	<g>
		<path d="M1005.437,555.821c1.501,3.561,2.721,7.209,3.713,10.943c0.909,3.425,6.215,1.97,5.303-1.463
			c-0.991-3.733-2.211-7.382-3.713-10.943c-0.581-1.38-1.794-2.357-3.383-1.92C1006.054,552.797,1004.853,554.437,1005.437,555.821
			L1005.437,555.821z"/>
	</g>
</g>
<g>
	<g>
		<path d="M1009.239,557.321c2.7-7.491,9.056-11.323,16.848-11.48c3.542-0.071,3.549-5.571,0-5.5
			c-10.381,0.209-18.604,5.677-22.15,15.518C1002.73,559.204,1008.047,560.631,1009.239,557.321L1009.239,557.321z"/>
	</g>
</g>
<g>
	<g>
		<path d="M1014.853,573.808c3.946-0.76,7.734-2.164,11.122-4.343c2.972-1.912,0.217-6.675-2.775-4.75
			c-3.027,1.947-6.285,3.111-9.81,3.79C1009.909,569.175,1011.387,574.476,1014.853,573.808L1014.853,573.808z"/>
	</g>
</g>
<g>
	<g>
		<path d="M1019.032,591.533c2.967-2.968,5.585-6.066,7.929-9.557c1.984-2.953-2.782-5.703-4.749-2.775
			c-2.086,3.106-4.428,5.802-7.068,8.443C1012.634,590.154,1016.522,594.044,1019.032,591.533L1019.032,591.533z"/>
	</g>
</g>
<g>
	<g>
		<path d="M824.985,587.464c19.624-14.808,40.115-28.589,62.65-38.59c20.501-9.098,42.471-14.151,64.55-17.617
			c22.552-3.541,45.94-4.342,67.418-12.782c14.634-5.75,25.807-15.673,34.915-28.32c7.102-9.861,12.958-20.617,18.94-31.171
			c1.752-3.09-3-5.861-4.748-2.776c-8.825,15.57-17.373,32.339-30.67,44.651c-13.283,12.301-31.41,16.862-48.781,19.835
			c-24.191,4.14-48.507,5.877-72.333,12.18c-21.025,5.562-40.875,14.43-59.491,25.618c-12.22,7.345-23.853,15.642-35.227,24.223
			C819.416,584.822,822.151,589.602,824.985,587.464L824.985,587.464z"/>
	</g>
</g>
<g>
	<g>
		<path d="M830.471,698.971c17.031-38.87,60.541-44.971,98.22-48.072c18.834-1.551,37.86-2.314,56.422-6.109
			c20.557-4.203,41.204-12.793,57.727-25.83c15.513-12.24,26.852-28.218,33.896-46.638c1.27-3.318-4.05-4.74-5.303-1.463
			c-8.666,22.656-24.549,40.72-45.485,52.839c-17.898,10.361-38.275,15.931-58.692,18.393c-37.18,4.482-78.665,1.489-112.191,20.922
			c-13.164,7.63-23.255,19.289-29.343,33.184C824.313,699.41,829.051,702.213,830.471,698.971L830.471,698.971z"/>
	</g>
</g>
<g>
	<g>
		<path d="M353.495,450.207c-36.271-59.445-95.124-99.919-144.423-147.549c-2.55-2.464-6.443,1.421-3.889,3.889
			c48.926,47.27,107.569,87.446,143.562,146.437C350.59,456.005,355.348,453.244,353.495,450.207L353.495,450.207z"/>
	</g>
</g>
<g>
	<g>
		<path d="M322.622,631.836c-33.494,4.368-67.03-1.325-100.495-3c-3.546-0.178-3.529,5.323,0,5.5
			c33.465,1.675,67.001,7.368,100.495,3C326.087,636.884,326.132,631.378,322.622,631.836L322.622,631.836z"/>
	</g>
</g>
<g>
	<g>
		<path d="M336.469,809.346c-2.137,6.771-6.612,11.407-11.737,16.083c-5.638,5.145-11.336,10.146-17.214,15.022
			c-12.978,10.768-26.274,21.147-39.732,31.305c-26.215,19.786-53.142,38.608-80.045,57.44c-2.882,2.018-0.137,6.789,2.776,4.75
			c28.459-19.922,56.909-39.868,84.583-60.876c13.305-10.1,26.403-20.472,39.236-31.164c10.325-8.603,23.224-17.746,27.438-31.098
			C342.843,807.416,337.533,805.977,336.469,809.346L336.469,809.346z"/>
	</g>
</g>
<g>
	<g>
		<path d="M1009.204,564.887c1.024,2.995,2.261,5.914,3,9c0.255,1.061,1.738,0.582,1.592-0.439c-0.399-2.772-1.255-5.421-2.333-8
			c-0.323-0.771-1.746-0.79-1.621,0.22c0.355,2.868,0.697,5.735,1.362,8.553c0.215,0.908,1.646,0.709,1.621-0.22
			c-0.085-3.159-0.991-6.16-1.695-9.22c-0.239-1.038-1.817-0.597-1.592,0.439c0.422,1.928,1.044,3.796,1.666,5.667
			c0.503-0.212,1.006-0.424,1.508-0.636c-0.616-1.24-1.197-2.471-1.582-3.804c-0.296-1.021-1.847-0.595-1.592,0.439
			c0.688,2.789,1.292,5.591,1.637,8.446c0.126,1.043,1.777,1.055,1.65,0c-0.363-3.004-0.972-5.949-1.695-8.886
			c-0.53,0.146-1.062,0.293-1.592,0.439c0.426,1.472,1.069,2.827,1.75,4.196c0.416,0.839,1.802,0.249,1.508-0.636
			c-0.622-1.87-1.245-3.738-1.666-5.667c-0.53,0.146-1.062,0.293-1.592,0.439c0.671,2.912,1.557,5.771,1.637,8.78
			c0.54-0.073,1.081-0.146,1.621-0.22c-0.632-2.674-0.966-5.39-1.304-8.113c-0.54,0.073-1.08,0.146-1.621,0.22
			c1.079,2.578,1.935,5.227,2.333,8c0.53-0.146,1.062-0.293,1.592-0.439c-0.74-3.085-1.977-6.004-3-9
			C1010.453,563.447,1008.859,563.877,1009.204,564.887L1009.204,564.887z"/>
	</g>
</g>
<g>
	<g>
		<path d="M1010.622,565.416c0.666,1.334,1.333,2.667,2,4c0.257,0.516,1.183,0.564,1.424,0c0.43-1.002,0.43-1.83,0-2.832
			c-0.417-0.976-1.838-0.135-1.424,0.832c0.171,0.401,0.171,0.767,0,1.168c0.475,0,0.949,0,1.424,0c-0.667-1.334-1.333-2.667-2-4
			C1011.57,563.632,1010.147,564.468,1010.622,565.416L1010.622,565.416z"/>
	</g>
</g>
<g>
	<g>
		<path d="M1011.288,565.416c0.585,1.213,0.924,2.503,1.25,3.804c0.503-0.212,1.006-0.424,1.508-0.636
			c-0.413-0.686-0.283-1.425-0.583-2.137c-0.404,0.311-0.809,0.621-1.212,0.932c0.67,0.336,1.284,0.686,1.833,1.204
			c0.771,0.731,1.94-0.434,1.166-1.166c-0.648-0.615-1.371-1.063-2.167-1.462c-0.565-0.284-1.521,0.199-1.212,0.932
			c0.141,0.333,0.157,0.658,0.204,1.013c0.074,0.556,0.257,1.037,0.547,1.517c0.487,0.808,1.735,0.274,1.508-0.636
			c-0.362-1.443-0.769-2.852-1.418-4.196C1012.25,563.626,1010.827,564.463,1011.288,565.416L1011.288,565.416z"/>
	</g>
</g>
<path d="M594,500.268c-1,0-1,1.65,0,1.65S595,500.268,594,500.268z"/>
</svg>
