<?xml version="1.0" encoding="utf-8"?>
<!-- Generator: Adobe Illustrator 16.0.0, SVG Export Plug-In . SVG Version: 6.00 Build 0)  -->
<!DOCTYPE svg PUBLIC "-//W3C//DTD SVG 1.1//EN" "http://www.w3.org/Graphics/SVG/1.1/DTD/svg11.dtd">
<svg version="1.1" id="Layer_1" xmlns="http://www.w3.org/2000/svg" xmlns:xlink="http://www.w3.org/1999/xlink" x="0px" y="0px"
	 width="1798.912px" height="886.89px" viewBox="0 0 1798.912 886.89" enable-background="new 0 0 1798.912 886.89"
	 xml:space="preserve">
<g>
	<g>
		<path d="M153.814,164.692c65.915,0.492,131.813-1.329,197.693-3.249c32.901-0.959,65.803-1.936,98.71-2.658
			c32.077-0.706,64.425-1.397,96.455,0.791c1.924,0.131,3.845,0.29,5.767,0.45c5.787,0.481,5.741-8.522,0-9
			c-31.946-2.658-64.29-2.029-96.313-1.368c-32.9,0.68-65.794,1.651-98.687,2.611c-65.886,1.925-131.787,3.816-197.708,3.463
			c-1.972-0.011-3.944-0.025-5.916-0.04C148.008,155.648,148.013,164.649,153.814,164.692L153.814,164.692z"/>
	</g>
</g>
<g>
	<g>
		<path d="M139.917,189.097c4.603,79.761,12.522,159.376,12.868,239.331c0.025,5.803,9.025,5.805,9,0
			c-0.346-79.955-8.265-159.57-12.868-239.331C148.584,183.328,139.582,183.296,139.917,189.097L139.917,189.097z"/>
	</g>
</g>
<g>
	<g>
		<path d="M554.607,167.826c10.545,86.02,5.908,172.776,5.32,259.173c-0.04,5.806,8.96,5.802,9,0
			c0.588-86.396,5.225-173.153-5.32-259.173C562.911,162.143,553.902,162.074,554.607,167.826L554.607,167.826z"/>
	</g>
</g>
<g>
	<g>
		<path d="M155.856,434.356c31.054,4.065,62.351,0.394,93.504,0.019c16.405-0.198,32.961,1.304,49.34,2.179
			c16.557,0.885,33.112,1.802,49.675,2.566c33.093,1.527,66.238,2.325,99.351,0.955c16.133-0.667,32.195-1.845,48.346-2.187
			c15.902-0.335,31.808-0.713,47.62-2.575c5.437-0.641,10.845-1.502,16.218-2.546c5.694-1.107,3.277-9.781-2.393-8.68
			c-31.501,6.124-63.995,4.201-95.881,6.255c-33.07,2.13-66.258,1.65-99.351,0.37c-33.134-1.281-66.225-3.468-99.351-4.941
			c-31.426-1.398-62.811,2.916-94.244,0.881c-4.292-0.277-8.569-0.737-12.833-1.296
			C150.114,424.604,150.186,433.614,155.856,434.356L155.856,434.356z"/>
	</g>
</g>
<g>
	<g>
		<path d="M302.021,289.811c1.395,30.715,2.733,61.439,2.762,92.191c0.004,4.514,7.004,4.514,7,0
			c-0.029-30.752-1.368-61.477-2.762-92.191C308.816,285.315,301.815,285.296,302.021,289.811L302.021,289.811z"/>
	</g>
</g>
<g>
	<g>
		<path d="M306.716,288.844c20.037,1.87,40.08-0.404,60.138-0.484c4.513-0.018,4.515-7.018,0-7
			c-20.058,0.08-40.101,2.354-60.138,0.484C302.221,281.424,302.261,288.428,306.716,288.844L306.716,288.844z"/>
	</g>
</g>
<g>
	<g>
		<path d="M363.167,286.188c0.055,31.355,2.612,62.645,2.667,94c0.008,4.514,7.008,4.515,7,0c-0.055-31.355-2.612-62.645-2.667-94
			C370.159,281.674,363.159,281.673,363.167,286.188L363.167,286.188z"/>
	</g>
</g>
<g>
	<g>
		<path d="M366.264,289.562c14.022-3.579,26.245-11.271,38.788-18.194c3.952-2.182,0.421-8.228-3.533-6.045
			c-12.019,6.635-23.678,14.06-37.116,17.489C360.032,283.928,361.887,290.68,366.264,289.562L366.264,289.562z"/>
	</g>
</g>
<g>
	<g>
		<path d="M407.233,271.022c1.191,0.909,1.51,4.706,1.748,6.184c0.625,3.866,0.63,7.877,0.666,11.782
			c0.082,9.044-0.534,18.089-1.086,27.111c-0.578,9.425-0.259,18.767-0.05,28.21c0.363,16.401,0.645,32.806,0.656,49.212
			c0.003,4.514,7.003,4.514,7,0c-0.02-27.077-2.01-54.293-0.367-81.326c0.576-9.479,1.101-18.992,0.723-28.49
			c-0.245-6.147-0.395-14.63-5.756-18.728C407.178,262.236,403.698,268.32,407.233,271.022L407.233,271.022z"/>
	</g>
</g>
<g>
	<g>
		<path d="M411.49,389.207c-13.173-2.241-25.114-8.434-37.893-12.061c-4.352-1.235-6.196,5.52-1.861,6.75
			c12.779,3.627,24.72,9.819,37.893,12.061C414.042,396.708,415.933,389.963,411.49,389.207L411.49,389.207z"/>
	</g>
</g>
<g>
	<g>
		<path d="M158.713,389.07c68.91-6.876,138.25,2.73,207.143-4.285c4.446-0.453,4.49-7.457,0-7
			c-68.893,7.016-138.233-2.591-207.143,4.285C154.265,382.514,154.222,389.519,158.713,389.07L158.713,389.07z"/>
	</g>
</g>
<g>
	<g>
		<path d="M414.427,384.785c47.637,0.038,95.221,2.817,142.857,2.856c4.514,0.004,4.514-6.996,0-7
			c-47.636-0.039-95.221-2.818-142.857-2.856C409.913,377.781,409.914,384.781,414.427,384.785L414.427,384.785z"/>
	</g>
</g>
<g>
	<g>
		<path d="M351.356,439.856c0,11.904,0,23.81,0,35.714c0,5.804,9,5.804,9,0c0-11.904,0-23.81,0-35.714
			C360.356,434.053,351.356,434.053,351.356,439.856L351.356,439.856z"/>
	</g>
</g>
<g>
	<g>
		<path d="M365.642,441.285c0.06,11.509,1.355,23.192-1.268,34.518c-1.308,5.648,7.369,8.046,8.679,2.393
			c2.821-12.176,1.654-24.539,1.589-36.91C374.611,435.482,365.611,435.48,365.642,441.285L365.642,441.285z"/>
	</g>
</g>
<g>
	<g>
		<path d="M329.31,494.731c2.1-4.646,7.334-7.068,11.848-8.788c6.796-2.591,14.109-3.843,21.338-4.348
			c9.366-0.655,30.297-1.01,33.789,10.753c1.464,4.934,9.186,2.831,7.714-2.127c-4.619-15.562-26.062-17.205-39.426-16.735
			c-8.925,0.313-18.023,1.877-26.381,5.062c-6.067,2.312-12.977,5.92-15.79,12.146C320.295,495.355,327.188,499.427,329.31,494.731
			L329.31,494.731z"/>
	</g>
</g>
<g>
	<g>
		<path d="M325.856,496.142c23.786,2.649,47.594,0.078,71.429,0c5.158-0.017,5.16-8.017,0-8c-23.834,0.078-47.643,2.649-71.429,0
			C320.733,487.571,320.788,495.577,325.856,496.142L325.856,496.142z"/>
	</g>
</g>
<g>
	<g>
		<path d="M101.476,510.727c6.681,1.902,13.486,2.047,20.378,2.351c8.1,0.356,16.08,0.701,24.201,0.464
			c15.994-0.468,31.937-1.98,47.945-2.041c32.894-0.125,65.741-0.783,98.644-0.324c32.93,0.458,65.853,1.299,98.779,1.91
			c32.912,0.611,65.819,0.314,98.733-0.028c55.185-0.575,110.367-1.502,165.556-1.416c5.804,0.009,5.803-8.991,0-9
			c-65.718-0.103-131.427,1.222-197.142,1.699c-65.871,0.479-131.692-2.124-197.558-2.479c-26.754-0.145-53.581-0.104-80.318,0.941
			c-12.832,0.502-25.636,1.534-38.477,1.839c-6.235,0.147-12.435,0.03-18.648-0.465c-6.677-0.533-13.188-0.275-19.702-2.129
			C98.275,500.456,95.904,509.141,101.476,510.727L101.476,510.727z"/>
	</g>
</g>
<g>
	<g>
		<path d="M650.713,479.999c0,7.143,0,14.286,0,21.429c0,6.449,10,6.449,10,0c0-7.143,0-14.286,0-21.429
			C660.713,473.551,650.713,473.551,650.713,479.999L650.713,479.999z"/>
	</g>
</g>
<g>
	<g>
		<path d="M651.713,508.57c10.916,81.503,8.442,163.904,13.694,245.809c0.329,5.122,8.331,5.154,8,0
			c-5.252-81.904-2.778-164.306-13.694-245.809C659.039,503.535,651.03,503.469,651.713,508.57L651.713,508.57z"/>
	</g>
</g>
<g>
	<g>
		<path d="M106.616,603.924c131.29,14.96,264.078,11.935,395.96,9.947c51.998-0.783,103.995-1.548,155.994-2.229
			c5.799-0.076,5.807-9.076,0-9c-131.732,1.728-263.671,5.938-395.402,2.581c-52.295-1.333-104.565-4.375-156.552-10.299
			C100.855,594.268,100.918,603.274,106.616,603.924L106.616,603.924z"/>
	</g>
</g>
<g>
	<g>
		<path d="M140.785,608.57c-2.106,45.373,4.233,90.491,5.862,135.768c0.162,4.5,7.163,4.516,7,0
			c-1.628-45.276-7.968-90.395-5.862-135.768C147.994,604.056,140.993,604.076,140.785,608.57L140.785,608.57z"/>
	</g>
</g>
<g>
	<g>
		<path d="M100.516,605c0.467,45.036,0.497,90.078,1.551,135.106c0.151,6.438,10.151,6.452,10,0
			c-1.055-45.028-1.084-90.07-1.551-135.106C110.449,598.555,100.449,598.549,100.516,605L100.516,605z"/>
	</g>
</g>
<g>
	<g>
		<path d="M93.53,522.705c1.821,21.436,3.291,42.898,3.969,64.403c0.203,6.433,10.204,6.452,10,0
			c-0.678-21.505-2.148-42.968-3.969-64.403C102.988,516.329,92.984,516.276,93.53,522.705L93.53,522.705z"/>
	</g>
</g>
<g>
	<g>
		<path d="M616.499,608.57c3.019,48.513,6.97,96.971,12.403,145.276c0.499,4.434,7.504,4.481,7,0
			c-5.433-48.306-9.384-96.764-12.403-145.276C623.22,604.087,616.218,604.061,616.499,608.57L616.499,608.57z"/>
	</g>
</g>
<g>
	<g>
		<path d="M175.999,608.57c-3.205,29.383-18.265,55.918-28.428,83.223c-1.804,4.846,5.931,6.917,7.714,2.127
			c10.473-28.137,25.412-55.072,28.714-85.35C184.558,603.445,176.552,603.499,175.999,608.57L175.999,608.57z"/>
	</g>
</g>
<g>
	<g>
		<path d="M152.856,699.856c32.822,4.29,65.409-0.78,98.249-1.519c33.021-0.744,66.05-1.049,99.079-0.967
			c66.194,0.166,132.364,2.406,198.549,3.342c25.183,0.356,50.367,0.566,75.552,0.572c2.58,0,2.58-4,0-4
			c-66.279-0.016-132.542-1.533-198.802-2.991c-33.021-0.727-66.05-1.016-99.078-0.917c-32.95,0.1-66.021,0.003-98.906,2.213
			c-24.872,1.67-49.813,3.512-74.643,0.267C150.304,695.522,150.336,699.527,152.856,699.856L152.856,699.856z"/>
	</g>
</g>
<g>
	<g>
		<path d="M629.57,691.793c-9.14-31.24-27.552-58.511-43.26-86.67c-2.513-4.506-9.424-0.473-6.908,4.037
			c15.363,27.541,33.515,54.207,42.454,84.76C623.301,698.86,631.022,696.756,629.57,691.793L629.57,691.793z"/>
	</g>
</g>
<g>
	<g>
		<path d="M194.392,619.63c-4.192,18.118-8.666,36.168-12.857,54.285c-0.871,3.766,4.914,5.364,5.786,1.596
			c4.191-18.118,8.665-36.168,12.857-54.285C201.049,617.46,195.264,615.861,194.392,619.63L194.392,619.63z"/>
	</g>
</g>
<g>
	<g>
		<path d="M197.285,624.856c95.272,0.039,190.442,5.675,285.714,5.714c3.869,0.002,3.869-5.998,0-6
			c-95.272-0.039-190.442-5.675-285.714-5.714C193.416,618.854,193.416,624.854,197.285,624.856L197.285,624.856z"/>
	</g>
</g>
<g>
	<g>
		<path d="M482.856,627.57c-0.053,17.078-1.554,34.01-5.607,50.631c-0.917,3.759,4.87,5.354,5.786,1.596
			c4.176-17.125,5.766-34.627,5.821-52.227C488.868,623.7,482.868,623.701,482.856,627.57L482.856,627.57z"/>
	</g>
</g>
<g>
	<g>
		<path d="M480.142,677.428c-98.147-0.048-196.138-7.095-294.286-7.143c-3.869-0.002-3.869,5.998,0,6
			c98.147,0.048,196.138,7.095,294.286,7.143C484.011,683.43,484.011,677.43,480.142,677.428L480.142,677.428z"/>
	</g>
</g>
<g>
	<g>
		<path d="M195.856,636.285c93.926,10.033,188.543,8.581,282.857,8.571c3.869-0.001,3.869-6.001,0-6
			c-94.314,0.01-188.931,1.462-282.857-8.571C192.011,629.874,192.05,635.879,195.856,636.285L195.856,636.285z"/>
	</g>
</g>
<g>
	<g>
		<path d="M192.999,650.57c94.799,2.912,189.398,11.369,284.286,11.429c3.869,0.003,3.869-5.997,0-6
			c-94.888-0.06-189.487-8.517-284.286-11.429C189.127,644.451,189.139,650.451,192.999,650.57L192.999,650.57z"/>
	</g>
</g>
<g>
	<g>
		<path d="M190.142,661.999c46.919,4.851,94.136,3.526,141.217,4.806c46.826,1.272,93.315,7.967,140.212,8.052
			c3.87,0.007,3.869-5.993,0-6c-46.895-0.085-93.39-6.704-140.212-8.052c-47.086-1.355-94.288,0.046-141.217-4.806
			C186.294,655.602,186.333,661.605,190.142,661.999L190.142,661.999z"/>
	</g>
</g>
<g>
	<g>
		<path d="M221.534,623.915c-3.054,15.656-10.602,29.752-18.269,43.569c-1.879,3.387,3.304,6.412,5.181,3.029
			c7.9-14.238,15.727-28.873,18.874-45.003C228.057,621.731,222.275,620.12,221.534,623.915L221.534,623.915z"/>
	</g>
</g>
<g>
	<g>
		<path d="M248.677,625.344c-4.026,13.603-6.894,27.65-12.555,40.713c-1.522,3.512,3.646,6.57,5.181,3.027
			c5.881-13.57,8.977-28.013,13.16-42.145C255.564,623.22,249.773,621.643,248.677,625.344L248.677,625.344z"/>
	</g>
</g>
<g>
	<g>
		<path d="M277.142,624.713c-1.42,17.009-6.41,33.326-11.743,49.454c-1.218,3.685,4.577,5.251,5.786,1.596
			c5.511-16.668,10.489-33.479,11.957-51.05C283.464,620.855,277.461,620.886,277.142,624.713L277.142,624.713z"/>
	</g>
</g>
<g>
	<g>
		<path d="M301,627c1.879,16.076-2.697,32.49-8.893,47.202c-1.501,3.564,4.308,5.104,5.786,1.596
			c6.373-15.134,11.041-32.26,9.107-48.798C306.556,623.205,300.551,623.161,301,627L301,627z"/>
	</g>
</g>
<g>
	<g>
		<path d="M331.107,627.202c-5.097,15.448-9.056,31.228-13,47c-0.938,3.755,4.848,5.348,5.786,1.596
			c3.944-15.773,7.902-31.552,13-47C338.109,625.112,332.313,623.546,331.107,627.202L331.107,627.202z"/>
	</g>
</g>
<g>
	<g>
		<path d="M356,626c-0.28,16.52-7.688,31.824-12.893,47.202c-1.244,3.676,4.553,5.239,5.786,1.596
			C354.29,658.849,361.71,643.135,362,626C362.065,622.129,356.065,622.135,356,626L356,626z"/>
	</g>
</g>
<g>
	<g>
		<path d="M381,630c-0.232,15.355-5.784,29.921-10.893,44.202c-1.306,3.652,4.493,5.211,5.786,1.596
			c5.3-14.818,10.866-29.87,11.107-45.798C387.059,626.129,381.059,626.135,381,630L381,630z"/>
	</g>
</g>
<g>
	<g>
		<path d="M403.107,627.202c-2.965,15.386-7.751,30.261-13,45c-1.301,3.655,4.498,5.213,5.786,1.596
			c5.248-14.739,10.035-29.614,13-45C409.621,625.018,403.839,623.405,403.107,627.202L403.107,627.202z"/>
	</g>
</g>
<g>
	<g>
		<path d="M422,630c-1.099,15.308-3.989,30.376-7.893,45.202c-0.986,3.746,4.802,5.334,5.786,1.596
			c4.039-15.342,6.97-30.962,8.107-46.798C428.277,626.137,422.275,626.164,422,630L422,630z"/>
	</g>
</g>
<g>
	<g>
		<path d="M446,632c-1.115,13.766-4.861,27.049-8.893,40.202c-1.137,3.71,4.656,5.283,5.786,1.596
			C447.087,660.11,450.84,646.318,452,632C452.312,628.141,446.31,628.171,446,632L446,632z"/>
	</g>
</g>
<g>
	<g>
		<path d="M462.107,629.202c-2.979,17.081-5.195,34.299-10,51c-1.072,3.728,4.718,5.307,5.786,1.596
			c4.805-16.702,7.021-33.919,10-51C468.553,627.015,462.771,625.396,462.107,629.202L462.107,629.202z"/>
	</g>
</g>
<g>
	<g>
		<path d="M535.897,629.103c-9.188,9.409-8.9,24.048-6.245,36.064c2.089,9.458,11.816,25.407,23.667,19.521
			c6.304-3.131,9.103-9.693,10.96-16.104c2.299-7.933,4.252-16.676,3.63-24.974c-1.01-13.452-13.337-18.688-25.33-18.281
			c-5.145,0.174-5.162,8.175,0,8c8.375-0.283,16.709,2.023,17.432,11.65c0.469,6.243-1.226,12.7-2.721,18.705
			c-1.213,4.87-2.51,10.594-6.944,13.566c-3.669,2.459-7.723-2.994-9.411-5.522c-2.262-3.388-3.295-7.166-4.076-11.112
			c-1.663-8.406-1.669-19.342,4.695-25.858C545.159,631.067,539.506,625.406,535.897,629.103L535.897,629.103z"/>
	</g>
</g>
<g>
	<g>
		<path d="M544.142,632.284c0.87,6.525,1,13.118,2,19.629c0.78,5.086,8.488,2.918,7.714-2.127
			c-0.889-5.795-0.939-11.689-1.713-17.502C551.471,627.248,543.462,627.183,544.142,632.284L544.142,632.284z"/>
	</g>
</g>
<g>
	<g>
		<path d="M535.146,658.562c9.599,0.771,19.168,0.057,28.776,0c5.157-0.03,5.16-8.03,0-8c-9.608,0.057-19.178,0.771-28.776,0
			C530,650.148,530.041,658.152,535.146,658.562L535.146,658.562z"/>
	</g>
</g>
<g>
	<g>
		<path d="M538.697,626.974c-0.167,0.084-0.335,0.164-0.506,0.242c-0.83,0.387,0.845-0.339,0.076-0.033
			c-0.354,0.14-0.71,0.27-1.061,0.417c-1.172,0.491-2.091,0.96-3.031,1.856c-1.578,1.504-1.513,4.144,0,5.656
			c1.569,1.569,4.08,1.504,5.657,0c0.727-0.692-0.813,0.485,0.007,0.015c0.836-0.48-0.964,0.357-0.009-0.014
			c0.98-0.381,1.958-0.77,2.904-1.231c1.958-0.957,2.474-3.698,1.435-5.473C543.008,626.426,540.656,626.017,538.697,626.974
			L538.697,626.974z"/>
	</g>
</g>
<g>
	<g>
		<path d="M103.518,485.859c82.228,0.076,164.246-7.792,246.482-7.142c3.871,0.03,3.868-5.97,0-6
			c-82.237-0.65-164.254,7.218-246.482,7.142C99.648,479.855,99.648,485.855,103.518,485.859L103.518,485.859z"/>
	</g>
</g>
<g>
	<g>
		<path d="M372.857,477.289c93.819,0.029,187.604,4.26,281.428,2.856c3.866-0.058,3.871-6.058,0-6
			c-93.824,1.403-187.609-2.827-281.428-2.856C368.988,471.288,368.988,477.288,372.857,477.289L372.857,477.289z"/>
	</g>
</g>
<g>
	<g>
		<path d="M121.942,746.167c66.297,1.783,132.553,4.778,198.805,7.762c33.124,1.491,66.247,2.974,99.378,4.299
			c33.098,1.324,66.27,0.507,99.394,0.472c66.129-0.072,132.258,0.195,198.386-0.08c65.921-0.275,131.831-1.455,197.741-2.636
			c44.502-0.798,89.001-1.863,133.473-3.72c6.424-0.269,6.451-10.27,0-10c-65.34,2.729-130.734,3.73-196.119,4.736
			c-66.193,1.019-132.364,1.727-198.567,1.749c-66.171,0.022-132.343-0.22-198.514,0.148c-33.132,0.185-66.298-1.903-99.395-3.367
			c-33.129-1.466-66.255-2.995-99.385-4.432c-45.054-1.954-90.117-3.719-135.197-4.932
			C115.49,735.993,115.507,745.994,121.942,746.167L121.942,746.167z"/>
	</g>
</g>
<g>
	<g>
		<path d="M-4.286,745.255c32.78-0.438,65.564-0.271,98.341,0.313c6.452,0.115,6.441-9.885,0-10
			c-32.777-0.584-65.561-0.751-98.341-0.313C-10.729,735.341-10.737,745.341-4.286,745.255L-4.286,745.255z"/>
	</g>
</g>
<g>
	<g>
		<path d="M153.671,156.179C139.383,158.207,140.217,176.283,139,187c-0.727,6.401,9.281,6.332,10,0
			c0.682-6.006-0.767-20.029,7.329-21.179C162.692,164.918,159.975,155.283,153.671,156.179L153.671,156.179z"/>
	</g>
</g>
<g>
	<g>
		<path d="M552,156c0.083,3.584,1.056,6.956,2.179,10.329c0.86,2.584,3.418,4.244,6.15,3.492c2.522-0.694,4.353-3.563,3.492-6.15
			c-0.839-2.522-1.762-5.118-1.821-7.671c-0.063-2.725-2.227-5-5-5C554.322,151,551.937,153.274,552,156L552,156z"/>
	</g>
</g>
<g>
	<g>
		<path d="M92.566,521.783c0.179,1.519,0.382,3.034,0.612,4.546c0.184,1.21,1.289,2.397,2.298,2.988
			c1.155,0.677,2.562,0.858,3.853,0.504c1.25-0.344,2.333-1.18,2.988-2.298c0.74-1.264,0.715-2.461,0.504-3.853
			c-0.087-0.576-0.17-1.152-0.248-1.729c0.06,0.442,0.119,0.886,0.179,1.328c-0.065-0.494-0.127-0.99-0.186-1.486
			c-0.163-1.381-0.443-2.514-1.464-3.535c-0.934-0.934-2.215-1.465-3.536-1.465s-2.602,0.531-3.536,1.465
			C93.187,519.092,92.42,520.543,92.566,521.783L92.566,521.783z"/>
	</g>
</g>
<g>
	<g>
		<path d="M92,484c-0.038,11.297-0.612,22.591,0.187,33.875c0.453,6.395,10.456,6.438,10,0c-0.799-11.284-0.225-22.578-0.187-33.875
			C102.021,477.551,92.021,477.553,92,484L92,484z"/>
	</g>
</g>
<g>
	<g>
		<path d="M98,582c0.963,9.646,1.935,19.298,2,29c0.043,6.446,10.043,6.45,10,0c-0.065-9.702-1.037-19.354-2-29
			C107.365,575.646,97.359,575.584,98,582L98,582z"/>
	</g>
</g>
<g>
	<g>
		<path d="M307,290.5c4.514,0,4.514-7,0-7S302.486,290.5,307,290.5L307,290.5z"/>
	</g>
</g>
<g>
	<g>
		<path d="M406,269.5c4.514,0,4.514-7,0-7S401.486,269.5,406,269.5L406,269.5z"/>
	</g>
</g>
<g>
	<g>
		<path d="M668,595c29.977,3.092,60.051-0.476,89.994-2.221c15.135-0.882,30.277-0.701,45.427-1.045
			c15.201-0.344,30.392-1.044,45.58-1.734c5.137-0.233,5.16-8.234,0-8c-30.316,1.378-60.723,1.095-91.006,2.779
			c-29.963,1.667-59.996,5.314-89.994,2.221C662.87,586.471,662.921,594.477,668,595L668,595z"/>
	</g>
</g>
<g>
	<g>
		<path d="M846,586c3.922,55.715,3.006,111.577,2.777,167.385c-0.021,5.16,7.979,5.158,8,0c0.229-55.808,1.145-111.67-2.777-167.385
			C853.64,580.884,845.637,580.849,846,586L846,586z"/>
	</g>
</g>
<g>
	<g>
		<path d="M664,614c61.001,0.011,121.999,0.989,183,1c5.159,0.001,5.159-7.999,0-8c-61.001-0.011-121.999-0.989-183-1
			C658.841,605.999,658.841,613.999,664,614L664,614z"/>
	</g>
</g>
<g>
	<g>
		<path d="M672,696c30.857,0.709,61.658-1.414,92.459-2.934c14.834-0.732,29.71-1.481,44.564-1.18
			c13.736,0.279,27.507,0.807,41.041-2.029c5.048-1.059,2.906-8.77-2.127-7.715c-13.356,2.8-27.111,1.984-40.662,1.709
			c-14.264-0.29-28.572,0.525-42.816,1.215c-30.805,1.49-61.598,3.643-92.459,2.934C666.838,687.881,666.85,695.882,672,696L672,696
			z"/>
	</g>
</g>
<g>
	<g>
		<path d="M152.856,713.856c32.822,4.29,65.409-0.78,98.249-1.519c33.021-0.744,66.05-1.049,99.079-0.967
			c66.194,0.166,132.364,2.406,198.549,3.342c25.183,0.356,50.367,0.566,75.552,0.572c3.869,0.001,3.869-5.999,0-6
			c-66.279-0.016-132.542-1.533-198.802-2.991c-33.021-0.727-66.05-1.016-99.078-0.917c-32.95,0.1-66.021,0.003-98.906,2.213
			c-24.872,1.67-49.813,3.512-74.643,0.267C149.028,707.355,149.076,713.362,152.856,713.856L152.856,713.856z"/>
	</g>
</g>
<g>
	<g>
		<path d="M85,745c14.626,1.825,29.307,1.043,44,1c6.448-0.019,6.45-10.019,0-10c-14.693,0.043-29.374,0.825-44-1
			C78.612,734.203,78.688,744.212,85,745L85,745z"/>
	</g>
</g>
<g>
	<g>
		<path d="M1040,559c2.86,55.365,3.779,110.801,4.788,166.224c0.504,27.697,1.047,55.396,1.873,83.085
			c0.197,6.609,0.417,13.219,0.65,19.826c0.235,6.652-0.329,13.999,0.979,20.535c0.488,2.439,1.505,4.847,1.71,7.33
			c0.29,3.504,0.434,6.96,0.919,10.455c0.902,6.486,2.66,12.833,3.737,19.292c1.059,6.351,10.695,3.647,9.643-2.658
			c-0.979-5.872-2.4-11.656-3.451-17.515c-1.005-5.604-0.675-11.143-2.24-16.652c-1.658-5.838-1.005-12.763-1.227-18.803
			c-0.266-7.27-0.501-14.539-0.722-21.811c-0.839-27.689-1.367-55.388-1.873-83.085c-1.011-55.423-1.928-110.858-4.788-166.224
			C1049.668,552.585,1039.667,552.553,1040,559L1040,559z"/>
	</g>
</g>
<g>
	<g>
		<path d="M1044.671,560.821c8.805,1.882,17.455,0.325,26.329,0.179c6.442-0.105,6.452-10.106,0-10
			c-7.857,0.129-15.889,1.842-23.671,0.179C1041.041,549.834,1038.366,559.474,1044.671,560.821L1044.671,560.821z"/>
	</g>
</g>
<g>
	<g>
		<path d="M1067,556c6.156,54.404,5.362,109.229,7.168,163.871c1.807,54.676,5.22,109.298,5.769,164.012
			c0.064,6.445,10.065,6.451,10,0c-0.549-54.713-3.924-109.339-5.769-164.012c-1.845-54.645-1.012-109.461-7.168-163.871
			C1076.284,549.668,1066.275,549.598,1067,556L1067,556z"/>
	</g>
</g>
<g>
	<g>
		<path d="M1021,530c4.437,38.334,1.625,76.904,2.634,115.373c0.446,17.002,0.437,33.979,0.657,50.984
			c0.217,16.76,1.238,33.786,5.888,49.972c1.777,6.187,11.427,3.554,9.643-2.658c-4.583-15.953-5.34-32.567-5.553-49.072
			c-0.221-17.063-0.237-34.094-0.685-51.155c-0.993-37.838,1.781-75.732-2.583-113.443C1030.268,523.672,1020.259,523.601,1021,530
			L1021,530z"/>
	</g>
</g>
<g>
	<g>
		<path d="M1028,535c6.679,0.823,13.307,0.073,20,0c6.444-0.07,6.451-10.07,0-10c-6.693,0.073-13.321,0.823-20,0
			C1021.61,524.213,1021.686,534.222,1028,535L1028,535z"/>
	</g>
</g>
<g>
	<g>
		<path d="M1045,530c0.066,7.68,0.934,15.32,1,23c0.055,6.445,10.055,6.451,10,0c-0.066-7.68-0.934-15.32-1-23
			C1054.945,523.555,1044.945,523.549,1045,530L1045,530z"/>
	</g>
</g>
<g>
	<g>
		<path d="M0,887.5c226.693,0,453.386,0,680.079,0c226.773,0,453.547,0,680.32,0c114.45,0,228.9,0,343.351,0c6.449,0,6.449-10,0-10
			c-226.693,0-453.386,0-680.079,0c-226.773,0-453.547,0-680.32,0c-114.45,0-228.9,0-343.351,0C-6.449,877.5-6.449,887.5,0,887.5
			L0,887.5z"/>
	</g>
</g>
<g>
	<g>
		<path d="M547.929,632.469c-1.278-8.408-6.16-15.426-12.515-20.883c-1.946-1.671-4.789,1.146-2.828,2.828
			c5.897,5.064,10.299,11.312,11.485,19.117C544.458,636.075,548.312,634.99,547.929,632.469L547.929,632.469z"/>
	</g>
</g>
</svg>
