<?xml version="1.0" encoding="utf-8"?>
<!-- Generator: Adobe Illustrator 16.0.0, SVG Export Plug-In . SVG Version: 6.00 Build 0)  -->
<!DOCTYPE svg PUBLIC "-//W3C//DTD SVG 1.1//EN" "http://www.w3.org/Graphics/SVG/1.1/DTD/svg11.dtd">
<svg version="1.1" id="Layer_1" xmlns="http://www.w3.org/2000/svg" xmlns:xlink="http://www.w3.org/1999/xlink" x="0px" y="0px"
	 width="1798.912px" height="886.89px" viewBox="0 0 1798.912 886.89" enable-background="new 0 0 1798.912 886.89"
	 xml:space="preserve">
<g>
	<g id="XMLID_1_">
		<g>
			<path d="M966.07-728.823c5.76-0.036,5.76,8.896,0,8.931c-52.229,0.321-104.457-1.143-156.685-0.839
				c-26.025,0.152-52.05,0.706-78.03,2.143c-23.006,1.277-45.78,4.707-68.733,6.582c0-0.705,0-1.402,0-2.107
				c0-5.761-8.931-5.761-8.931,0c0,0.536,0,1.072,0,1.607c-2.447-2.232-1.42-7.671,3-7.975c25.561-1.769,50.844-5.788,76.44-7.136
				c25.989-1.358,52.005-1.938,78.021-2.054C862.792-729.895,914.431-728.51,966.07-728.823z"/>
			<path d="M662.623-714.113c0,0.706,0,1.402,0,2.107c-1.974,0.17-3.956,0.322-5.93,0.456c-1.295,0.089-2.295-0.294-3-0.956
				c0-0.536,0-1.072,0-1.607C653.692-719.874,662.623-719.874,662.623-714.113z"/>
			<path d="M662.623-712.006c-0.036,73.52-0.812,147.039-1.724,220.55c-1.464,118.737-3.206,237.483-2.509,356.229
				c0.036,5.76-8.896,5.76-8.931,0c-0.438-74.217,0.071-148.433,0.884-222.649c1.295-118.201,3.304-236.411,3.349-354.63
				c0.706,0.661,1.706,1.045,3,0.956C658.667-711.684,660.649-711.836,662.623-712.006z"/>
		</g>
		<g>
		</g>
	</g>
</g>
<g>
	<path d="M963.078-724.359c6.064,58.388,6.229,116.903,6.833,175.527c0.611,59.281-1.615,118.543-2.602,177.807
		c-1.284,77.116-0.127,154.232-1.286,231.345c-0.086,5.762,8.845,5.753,8.931,0c0.884-58.878-0.05-117.763,0.429-176.643
		c0.481-59.14,2.539-118.254,3.315-177.389c0.501-38.31,0.309-76.663-0.326-114.969c-0.642-38.623-2.372-77.246-6.364-115.678
		C971.42-730.028,962.483-730.086,963.078-724.359L963.078-724.359z"/>
</g>
<g>
	<path d="M651.072-123.357c105.271-2.133,210.437-7.456,315.642-11.525c5.741-0.222,5.762-9.153,0-8.931
		c-105.205,4.068-210.371,9.393-315.642,11.524C645.321-132.172,645.31-123.241,651.072-123.357L651.072-123.357z"/>
</g>
<g>
	<path d="M1165.883-793.182c-5.346,0.78-10.691,1.553-16.099,1.495c-13.386,3.055-26.796,6.002-40.145,9.224
		c-17.023,4.108-33.711,9.4-50.432,14.586c-31.446,9.751-62.762,21.049-90.08,39.819c-4.714,3.239-0.254,10.983,4.507,7.712
		c27.184-18.679,58.186-29.69,89.463-39.39c16.22-5.031,32.411-10.098,48.916-14.116c17.284-4.208,34.698-7.861,52.01-11.953
		C1167.829-786.703,1167.949-790.956,1165.883-793.182z"/>
</g>
<g>
	<path stroke="#000000" stroke-width="0.8" stroke-miterlimit="10" d="M1189.596-588.291c2.668,59.191,6.054,118.428,6.442,177.689
		c0.739,113.205-4.644,226.343-4.559,339.543c2.976-0.011,5.954-0.01,8.93,0.003c-0.087-117.921,5.693-235.777,4.438-353.706
		c-0.605-56.896-4.096-113.808-6.64-170.641c-1.264-28.215-2.417-56.409-2.563-84.657c-0.145-28.083,0.38-56.166,0.792-84.245
		c0.084-5.762-8.846-5.754-8.931,0c-0.429,29.245-0.952,58.491-0.772,87.741C1186.914-647.112,1188.271-617.707,1189.596-588.291z"
		/>
</g>
<g>
	<path d="M1198.792-71.061c2.271-2.172,2.268-6.652-1.663-7.548c-77.535-17.685-150.06-52.693-228.398-67.349
		c-5.628-1.053-8.031,7.554-2.374,8.611c76.826,14.373,148.064,48.307,223.917,66.291
		C1193.113-71.069,1195.953-71.068,1198.792-71.061z"/>
</g>
<g>
	<path stroke="#000000" stroke-width="0.25" stroke-miterlimit="10" d="M1216.104-419.914c0.696,59.164,0.568,118.34-0.475,177.499
		c-1.007,57.145-3.483,114.275-3.644,171.431c2.98,0.021,5.959,0.035,8.938,0.042c0.146-55.983,2.534-111.947,3.572-167.918
		c1.1-59.161,1.228-118.339,0.58-177.507c-1.296-118.375-5.843-236.696-12.322-354.895c-0.064-1.186-0.13-2.371-0.195-3.556
		c-0.316-5.727-9.249-5.757-8.931,0C1210.145-656.615,1214.712-538.295,1216.104-419.914z"/>
</g>
<g>
	<path d="M1185.259-796.535c-4.621,0.752-9.241,1.448-13.87,1.969c-0.512,0.45-1.204,0.774-2.107,0.898
		c-5.641,0.778-11.264,1.752-16.945,1.95c-0.823,2.611,0.527,5.978,4.075,5.939c9.273-0.101,18.413-1.568,27.541-3.087
		C1188.13-789.56,1187.91-794.403,1185.259-796.535z"/>
</g>
<g>
	<path d="M1189.427-794.741c-0.945-0.604-1.849-1.276-2.71-2.033c-1.264,0.208-2.528,0.415-3.793,0.614
		c-1.455,0.91-2.371,2.578-1.719,4.732c3.096,10.242,5.945,20.644,6.092,31.411c0.078,5.754,9.009,5.762,8.931,0
		c-0.157-11.559-3.086-22.787-6.411-33.785C1189.712-794.145,1189.581-794.458,1189.427-794.741z"/>
</g>
<g>
	<path d="M1210.511-796.942c-2.315-0.11-4.629-0.276-6.948-0.414c-0.105,1.796-0.228,3.591-0.381,5.385
		c1.802-0.249,3.602-0.508,5.396-0.804c1.424-0.234,2.46-1.362,2.946-2.69C1211.19-795.96,1210.852-796.452,1210.511-796.942z"/>
</g>
<g>
	<path d="M1186.728-796.776c-3.045,0.502-6.089,0.985-9.137,1.417c-0.071,0.305-0.119,0.623-0.119,0.958
		c0,2.336,2.033,4.596,4.465,4.465c1.556-0.083,3.11-0.179,4.665-0.288c2.05-0.144,3.809-1.411,4.309-3.343
		c-0.062-0.129-0.117-0.262-0.178-0.391C1189.31-794.75,1187.977-795.678,1186.728-796.776z"/>
</g>
<g>
	<path d="M1211.41-794.401c-0.107-1.034-0.495-1.879-1.048-2.539c-2.261-0.112-4.522-0.282-6.787-0.416
		c-0.146,2.409-0.337,4.815-0.553,7.222c0.117,0.569,0.099,1.119-0.04,1.631c0.43,6.072,0.656,12.158,1.283,18.216
		c0.587,5.669,9.524,5.727,8.931,0C1212.366-778.309,1212.24-786.379,1211.41-794.401z"/>
</g>
<g>
	<g>
		<path d="M1185.063-787.615c6.274-0.002,12.525-0.07,18.755-0.893c2.701-0.357,5-2.004,5-5c0-2.455-2.291-5.358-5-5
			c-6.229,0.823-12.481,0.891-18.755,0.893C1178.615-797.613,1178.615-787.613,1185.063-787.615L1185.063-787.615z"/>
	</g>
</g>
<g>
	<g>
		<path d="M992.268-495.743c2.599,11.628,5.439,23.2,8.038,34.828c0.71,3.177,5.206,2.231,5.402-0.731
			c0.31-4.687,3.603-8.404,5.261-12.664c-1.675,0.219-3.351,0.438-5.026,0.656c2.374,3.54,7.081,4.616,9.376,8.037
			c1.203,1.792,4.568,1.871,5.026-0.656c3.822-21.08-4.608-41.117-12.056-60.403c-1.264-3.271-6.583-1.852-5.304,1.463
			c7.007,18.145,15.662,37.592,12.056,57.478c1.676-0.219,3.351-0.438,5.026-0.656c-2.374-3.539-7.082-4.616-9.376-8.037
			c-1.399-2.087-4.157-1.578-5.026,0.656c-1.926,4.951-5.092,8.612-5.457,14.127c1.801-0.244,3.601-0.487,5.402-0.731
			c-2.599-11.628-5.439-23.2-8.038-34.828C996.798-500.666,991.496-499.198,992.268-495.743L992.268-495.743z"/>
	</g>
</g>
<g>
	<g>
		<path d="M1023.078-491.725c1.184,5.842,2.574,11.632,4.019,17.414c0.859,3.439,6.164,1.979,5.304-1.463
			c-1.445-5.782-2.835-11.571-4.019-17.414C1027.677-496.662,1022.376-495.188,1023.078-491.725L1023.078-491.725z"/>
	</g>
</g>
<g>
	<g>
		<path d="M1032.499-475.042c-1.198-10.83-2.345-22.013,9.355-27.096c3.246-1.411,0.442-6.147-2.776-4.75
			c-13.569,5.896-13.496,19.035-12.079,31.846C1027.384-471.557,1032.888-471.52,1032.499-475.042L1032.499-475.042z"/>
	</g>
</g>
<g>
	<g>
		<path d="M1026.46-480.428c5.17-1.387,9.634-4.032,14.054-6.975c2.936-1.956,0.186-6.722-2.776-4.75
			c-4.028,2.683-8.022,5.156-12.739,6.422C1021.576-484.812,1023.03-479.507,1026.46-480.428L1026.46-480.428z"/>
	</g>
</g>
<g>
	<g>
		<path d="M1029.749-472.292c6.445-0.322,12.468-4.716,17.464-8.412c2.817-2.085,0.079-6.862-2.776-4.75
			c-4.04,2.99-9.439,7.399-14.688,7.662C1026.219-477.615,1026.202-472.114,1029.749-472.292L1029.749-472.292z"/>
	</g>
</g>
<g>
	<g>
		<path d="M1047.092-511.21c-1.344,10.596,0.076,21.651,4.117,31.541c0.527,1.288,1.856,2.486,3.383,1.92
			c5.146-1.906,9.337-4.958,13.27-8.744c2.559-2.464-1.334-6.349-3.889-3.889c-3.218,3.098-6.622,5.766-10.843,7.33
			c1.127,0.64,2.255,1.28,3.383,1.92c-3.889-9.516-5.214-19.883-3.921-30.078C1053.038-514.722,1047.532-514.679,1047.092-511.21
			L1047.092-511.21z"/>
	</g>
</g>
<g>
	<g>
		<path d="M1071.227-517.604c-7.754,5.017-12.406,14.554-7.349,23.188c5.652,9.649,17.344,5.869,24.078-0.113
			c2.657-2.36-1.248-6.235-3.889-3.889c-4.255,3.779-11.431,7.244-15.44,1.226c-3.822-5.738,0.408-12.447,5.376-15.661
			C1076.969-514.773,1074.215-519.537,1071.227-517.604L1071.227-517.604z"/>
	</g>
</g>
<g>
	<g>
		<path d="M1086.316-523.315c-4.67,8.578-2.314,30.433,11.325,27.828c7.88-1.506,10.968-10.677,9.103-17.542
			c-2.107-7.761-10.099-13.504-18.053-12.987c-3.521,0.229-3.543,5.729,0,5.5c5.522-0.358,9.801,2.886,12.261,7.653
			c2.195,4.252,0.019,13.153-6.182,12.138c-6.364-1.043-5.902-15.777-3.705-19.814
			C1092.761-523.655,1088.012-526.432,1086.316-523.315L1086.316-523.315z"/>
	</g>
</g>
<g>
	<g>
		<path d="M1115.553-504.513c-1.354-10.256-3.851-20.435-4.019-30.811c-1.565,0.648-3.13,1.296-4.694,1.944
			c3.739,3.037,8.513,3.416,12.612,5.789c2.241,1.297,4.441-0.817,4.04-3.106c-0.766-4.366,1.236-7.972,2.68-11.933
			c-1.532,0.404-3.064,0.809-4.596,1.213c11.093,8.978,8.602,28.27,8.571,40.922c-0.009,3.547,5.491,3.546,5.5,0
			c0.035-14.162,2.245-34.754-10.182-44.811c-1.665-1.348-3.845-0.847-4.596,1.213c-1.877,5.152-3.656,9.292-2.68,14.858
			c1.347-1.035,2.693-2.071,4.04-3.106c-3.537-2.047-8.354-2.373-11.5-4.928c-1.756-1.427-4.736-0.655-4.694,1.944
			c0.168,10.392,2.665,20.546,4.019,30.811C1110.51-501.049,1116.016-501.004,1115.553-504.513L1115.553-504.513z"/>
	</g>
</g>
<g>
	<g>
		<path d="M1139.182-522.781c0.674,3.841,1.196,7.702,1.681,11.571c0.435,3.471,5.94,3.513,5.5,0
			c-0.546-4.356-1.119-8.709-1.877-13.034C1143.874-527.732,1138.574-526.249,1139.182-522.781L1139.182-522.781z"/>
	</g>
</g>
<g>
	<g>
		<path d="M1134.263-539.95c1.341,3.18,2.43,6.438,3.316,9.773c0.91,3.425,6.215,1.97,5.304-1.463
			c-0.886-3.335-1.975-6.593-3.316-9.773c-0.582-1.38-1.795-2.357-3.383-1.92C1134.88-542.975,1133.68-541.335,1134.263-539.95
			L1134.263-539.95z"/>
	</g>
</g>
<g>
	<g>
		<path d="M1138.227-538.61c2.365-6.564,7.941-9.899,14.763-10.037c3.542-0.071,3.549-5.571,0-5.5
			c-9.408,0.189-16.854,5.16-20.066,14.074C1131.718-536.728,1137.034-535.301,1138.227-538.61L1138.227-538.61z"/>
	</g>
</g>
<g>
	<g>
		<path d="M1143.034-523.682c3.548-0.682,6.959-1.95,10.004-3.908c2.971-1.912,0.216-6.675-2.776-4.75
			c-2.684,1.728-5.563,2.754-8.689,3.355C1138.091-528.315,1139.569-523.015,1143.034-523.682L1143.034-523.682z"/>
	</g>
</g>
<g>
	<g>
		<path d="M1146.897-507.927c2.667-2.667,5.021-5.457,7.127-8.594c1.984-2.953-2.783-5.703-4.749-2.775
			c-1.85,2.753-3.926,5.139-6.267,7.48C1140.498-509.306,1144.387-505.416,1146.897-507.927L1146.897-507.927z"/>
	</g>
</g>
<g>
	<g>
		<path d="M973.536-511.515c19.556-14.751,40.114-28.41,63.023-37.384c21.916-8.586,45.326-12.427,68.584-15.243
			c19.094-2.312,39.499-4.962,55.745-16.129c13.871-9.534,22.483-24.808,30.673-39.079c1.339-2.333,2.665-4.675,3.991-7.016
			c1.751-3.09-3-5.861-4.749-2.776c-8.602,15.175-17.028,32.289-31.243,43.076c-16.238,12.322-38.138,14.411-57.661,16.82
			c-22.719,2.805-45.357,6.812-66.802,15.043c-22.308,8.562-42.438,21.624-61.526,35.825c-0.939,0.701-1.876,1.405-2.811,2.112
			C967.966-514.157,970.701-509.378,973.536-511.515L973.536-511.515z"/>
	</g>
</g>
<g>
	<g>
		<path d="M978.54-412.034c17.121-38.978,63.395-40.983,100.195-43.768c18.778-1.42,37.156-3.311,55.075-9.399
			c21.149-7.186,40.051-19.731,53.17-37.973c4.864-6.764,8.553-14.281,11.528-22.04c1.271-3.317-4.047-4.739-5.304-1.463
			c-8.716,22.738-25.494,39.846-47.193,50.552c-18.207,8.981-37.897,12.354-57.92,14.08c-35.313,3.043-79.959,1.939-104.9,31.771
			c-3.896,4.661-6.962,9.914-9.4,15.465C972.379-411.595,977.116-408.793,978.54-412.034L978.54-412.034z"/>
	</g>
</g>
<g>
	<g>
		<path d="M1137.827-531.908c0.915,2.675,2.019,5.281,2.679,8.037c0.254,1.061,1.738,0.582,1.591-0.439
			c-0.356-2.476-1.12-4.842-2.083-7.145c-0.323-0.771-1.746-0.79-1.621,0.22c0.319,2.569,0.624,5.139,1.22,7.662
			c0.214,0.908,1.646,0.709,1.621-0.22c-0.076-2.829-0.887-5.518-1.518-8.258c-0.239-1.038-1.817-0.597-1.591,0.439
			c0.376,1.722,0.932,3.39,1.488,5.062c0.502-0.212,1.005-0.424,1.508-0.636c-0.547-1.101-1.062-2.192-1.405-3.376
			c-0.295-1.021-1.846-0.595-1.591,0.439c0.613,2.483,1.151,4.978,1.458,7.52c0.126,1.043,1.778,1.055,1.65,0
			c-0.325-2.69-0.869-5.329-1.518-7.959c-0.53,0.146-1.061,0.293-1.591,0.439c0.382,1.321,0.96,2.54,1.571,3.769
			c0.417,0.839,1.802,0.249,1.508-0.636c-0.556-1.671-1.111-3.339-1.488-5.062c-0.53,0.146-1.061,0.293-1.591,0.439
			c0.597,2.593,1.387,5.14,1.458,7.818c0.541-0.073,1.081-0.146,1.621-0.22c-0.562-2.38-0.86-4.798-1.161-7.223
			c-0.541,0.073-1.081,0.146-1.621,0.22c0.963,2.303,1.728,4.668,2.083,7.145c0.53-0.146,1.061-0.293,1.591-0.439
			c-0.661-2.755-1.765-5.361-2.679-8.037C1139.076-533.348,1137.482-532.918,1137.827-531.908L1137.827-531.908z"/>
	</g>
</g>
<g>
	<g>
		<path d="M1139.102-531.415c0.595,1.191,1.19,2.382,1.786,3.572c0.258,0.515,1.184,0.564,1.425,0c0.396-0.927,0.396-1.691,0-2.618
			c-0.417-0.976-1.838-0.135-1.425,0.832c0.14,0.327,0.14,0.627,0,0.954c0.475,0,0.95,0,1.425,0
			c-0.596-1.191-1.191-2.382-1.786-3.572C1140.051-533.199,1138.627-532.363,1139.102-531.415L1139.102-531.415z"/>
	</g>
</g>
<g>
	<g>
		<path d="M1139.696-531.415c0.52,1.075,0.819,2.222,1.108,3.376c0.502-0.212,1.005-0.424,1.508-0.636
			c-0.364-0.604-0.248-1.258-0.513-1.887c-0.404,0.311-0.808,0.621-1.212,0.932c0.592,0.297,1.136,0.604,1.619,1.062
			c0.772,0.731,1.941-0.434,1.167-1.166c-0.585-0.555-1.235-0.961-1.953-1.319c-0.565-0.283-1.521,0.199-1.212,0.932
			c0.123,0.291,0.138,0.57,0.179,0.881c0.068,0.513,0.232,0.956,0.5,1.398c0.488,0.808,1.736,0.274,1.508-0.636
			c-0.325-1.297-0.691-2.561-1.274-3.769C1140.658-533.205,1139.236-532.368,1139.696-531.415L1139.696-531.415z"/>
	</g>
</g>
<g>
	<g>
		<path d="M1192.756-71.916c6.591,1.507,13.358,1.517,20.083,1.519c6.449,0.002,6.449-9.998,0-10
			c-5.813-0.002-11.727,0.142-17.425-1.161C1189.137-82.994,1186.471-73.353,1192.756-71.916L1192.756-71.916z"/>
	</g>
</g>
<g>
	<g>
		<path d="M-2.339-110.429c127.12,13.394,255.04,1.884,382.17-5.169c89.49-4.965,179.176-6.815,268.797-6.831
			c6.449-0.001,6.449-10.001,0-10c-65.556,0.012-131.107,1.17-196.621,3.524c-63.481,2.28-126.841,6.752-190.263,10.217
			c-87.914,4.803-176.358,7.502-264.084-1.741C-8.75-121.104-8.684-111.098-2.339-110.429L-2.339-110.429z"/>
	</g>
</g>
<g>
	<g>
		<path d="M1221.6-141.428c62.349,8.077,125.422,6.653,188.102,4.444c63.634-2.243,127.166-3.458,190.843-3.585
			c93.675-0.188,187.348,0.635,281.022,0.641c6.448,0,6.448-10,0-10c-66.067-0.004-132.134-0.404-198.2-0.585
			c-65.23-0.179-130.538-0.679-195.755,0.885c-88.592,2.124-177.737,9.636-266.012-1.8
			C1215.218-152.255,1215.298-142.244,1221.6-141.428L1221.6-141.428z"/>
	</g>
</g>
<g>
	<g>
		<path d="M668.127,423.536c11.958,1.417,23.972,1.499,35.998,1.5c6.449,0.001,6.449-9.999,0-10
			c-12.026-0.001-24.04-0.083-35.998-1.5C661.731,412.778,661.804,422.787,668.127,423.536L668.127,423.536z"/>
	</g>
</g>
<g>
	<g>
		<path d="M702.125,420.036c0,65.886-0.011,131.773-1.048,197.653c-0.508,32.281-0.953,64.618-2.533,96.868
			c-1.491,30.422-4.27,60.793-3.676,91.281c0.301,15.421,1.656,30.828,4.435,46.005c1.16,6.337,10.797,3.645,9.643-2.658
			c-5.5-30.033-4.583-60.811-2.942-91.16c1.675-30.991,3.356-61.9,4.124-92.934c1.629-65.916,1.92-131.856,1.983-197.789
			c0.015-15.756,0.015-31.511,0.015-47.267C712.125,413.588,702.125,413.588,702.125,420.036L702.125,420.036z"/>
	</g>
</g>
<g>
	<g>
		<path d="M687.126,381.038c1.309,10.972,1.498,21.962,1.5,32.998c0.001,6.448,10.001,6.448,10,0
			c-0.001-11.036-0.191-22.026-1.5-32.998C696.372,374.717,686.363,374.643,687.126,381.038L687.126,381.038z"/>
	</g>
</g>
<g>
	<g>
		<path d="M718.624,382.538c-0.014,70.496-1.534,141.088,3,211.489c0.412,6.402,10.415,6.442,10,0
			c-4.534-70.401-3.014-140.993-3-211.489C728.625,376.09,718.625,376.09,718.624,382.538L718.624,382.538z"/>
	</g>
</g>
<g>
	<g>
		<path d="M713.125,605.027c132.47,0.006,264.835,5.761,397.234,9.343c65.203,1.764,130.419,3.836,195.626,1.561
			c65.881-2.298,131.761-4.632,197.614-7.623c19.155-0.87,38.308-1.804,57.456-2.801c6.415-0.334,6.447-10.336,0-10
			c-65.855,3.43-131.75,6.026-197.651,8.397c-32.675,1.177-65.377,2.828-98.073,3.184c-32.432,0.353-64.856-0.656-97.278-1.327
			c-132.438-2.74-264.791-8.885-397.258-10.401c-19.223-0.22-38.446-0.331-57.67-0.332
			C706.676,595.027,706.676,605.027,713.125,605.027L713.125,605.027z"/>
	</g>
</g>
<g>
	<g>
		<path d="M1575.811,605.032c73.82-4.998,147.749-8.996,221.76-9.005c6.448-0.001,6.449-10.001,0-10
			c-74.011,0.009-147.939,4.007-221.76,9.005C1569.412,595.466,1569.37,605.469,1575.811,605.032L1575.811,605.032z"/>
	</g>
</g>
<g>
	<g>
		<path d="M1530.584,608.027c12.529-0.835,25.059-1.672,37.589-2.495c6.4-0.421,6.441-10.423,0-10
			c-12.53,0.823-25.06,1.66-37.589,2.495C1524.185,598.454,1524.143,608.457,1530.584,608.027L1530.584,608.027z"/>
	</g>
</g>
<g>
	<g>
		<path d="M1638.639,307.675c15.972-11.962,24.619-29.95,29.639-48.86c5.905-22.25,7.025-46.185,0.644-68.442
			c-5.562-19.399-18.592-35.619-34.423-47.713c-18.051-13.79-40.938-19.468-63.142-21.779c-6.412-0.667-6.348,9.339,0,10
			c19.614,2.042,38.846,7.254,55.313,18.408c14.841,10.053,26.521,25.238,32.146,42.245c6.568,19.857,5.21,41.653,0.535,61.743
			c-3.969,17.054-11.33,34.956-25.76,45.764C1628.496,302.856,1633.472,311.545,1638.639,307.675L1638.639,307.675z"/>
	</g>
</g>
<g>
	<g>
		<path d="M1495.922,148.039c-13.35,17.902-21.47,39.469-22.95,61.766c-1.567,23.611,6.802,45.482,22.901,62.615
			c17.282,18.39,41.466,31.31,64.996,39.729c24.383,8.725,53.421,11.322,76.087-3.3c5.397-3.482,0.39-12.142-5.047-8.635
			c-20.687,13.345-46.245,9.917-68.382,2.292c-21.622-7.447-43.208-19.774-59.439-35.979c-31.521-31.471-24.341-80.169,0.469-113.44
			C1508.416,147.91,1499.729,142.934,1495.922,148.039L1495.922,148.039z"/>
	</g>
</g>
<g>
	<g>
		<path d="M1631.709,307.832c11.185,12.754,16.62,28.918,20.104,45.254c4.188,19.643,5.389,39.832,5.812,59.865
			c0.791,37.501-0.562,75.961-14.658,111.215c-2.396,5.993,7.279,8.569,9.643,2.658c14.887-37.23,15.893-78.219,14.927-117.781
			c-0.493-20.191-2.205-40.444-6.423-60.223c-3.736-17.521-10.415-34.469-22.334-48.059
			C1634.52,295.904,1627.476,303.006,1631.709,307.832L1631.709,307.832z"/>
	</g>
</g>
<g>
	<g>
		<path d="M1451.152,413.031c30.446-9.618,62.031-15.612,93.972-16.733c5.144-0.181,5.161-8.181,0-8
			c-32.626,1.146-64.995,7.193-96.099,17.019C1444.125,406.865,1446.219,414.589,1451.152,413.031L1451.152,413.031z"/>
	</g>
</g>
<g>
	<g>
		<path d="M1447.802,406.834c2.738-23.01-7.506-45.539-15.924-66.346c-1.909-4.718-9.65-2.658-7.715,2.127
			c8.153,20.151,18.29,41.934,15.639,64.219C1439.193,411.95,1447.2,411.892,1447.802,406.834L1447.802,406.834z"/>
	</g>
</g>
<g>
	<g>
		<path d="M1427.993,342.813c9.22-5.161,17.198,15.271,19.583,20.962c4.715,11.254,8.351,23.23,10.72,35.205
			c1.001,5.059,8.712,2.911,7.715-2.127c-2.844-14.368-7.46-28.71-13.695-41.957c-4.827-10.253-14.908-26.521-28.359-18.991
			C1419.455,338.426,1423.487,345.336,1427.993,342.813L1427.993,342.813z"/>
	</g>
</g>
<g>
	<g>
		<path d="M1542.114,397.748c17.539,32.559,40.54,61.751,63.035,90.959c3.101,4.026,10.056,0.051,6.908-4.037
			c-22.495-29.209-45.496-58.401-63.035-90.959C1546.575,389.168,1539.668,393.207,1542.114,397.748L1542.114,397.748z"/>
	</g>
</g>
<g>
	<g>
		<path d="M1519.065,505.459c1.315,1.445,2.639,2.885,3.969,4.316c1.483,1.599,4.158,1.499,5.656,0c1.584-1.584,1.482-4.061,0-5.656
			c-1.329-1.433-2.652-2.871-3.969-4.316c-1.468-1.613-4.169-1.487-5.656,0C1517.471,501.397,1517.599,503.849,1519.065,505.459
			L1519.065,505.459z"/>
	</g>
</g>
<g>
	<g>
		<path d="M1441.537,413.073c25.812,29.972,49.711,61.551,76.212,90.935c3.462,3.839,9.102-1.837,5.656-5.656
			c-26.5-29.384-50.399-60.964-76.212-90.935C1443.821,403.501,1438.188,409.187,1441.537,413.073L1441.537,413.073z"/>
	</g>
</g>
<g>
	<g>
		<path d="M1539.18,516.076c22.408-6.473,45.26-11.277,67.613-17.949c4.931-1.472,2.829-9.193-2.127-7.715
			c-22.354,6.672-45.205,11.478-67.613,17.949C1532.106,509.79,1534.212,517.511,1539.18,516.076L1539.18,516.076z"/>
	</g>
</g>
<g>
	<g>
		<path d="M1653.821,594.329c11.614-64.088,19.635-128.883,35.068-192.233c2.385-9.79,4.489-19.659,7.067-29.4
			c1.294-4.89,3.088-11.23,5.941-14.721c2.66-3.253,6.047-4.43,10.667-4.965c8.032-0.933,16.315-0.161,24.345,0.392
			c20.739,1.426,41.43,4.303,62.09,6.599c6.404,0.712,6.336-9.296,0-10c-26.233-2.915-52.784-7.345-79.234-7.344
			c-11.65,0.001-22.708,2.498-28.501,13.537c-3.163,6.026-4.762,12.863-6.366,19.427c-2.857,11.692-5.627,23.419-8.343,35.146
			c-7.324,31.623-12.851,63.635-18.117,95.654c-4.677,28.43-9.122,56.898-14.26,85.251
			C1643.036,597.975,1652.673,600.668,1653.821,594.329L1653.821,594.329z"/>
	</g>
</g>
<g>
	<g>
		<path d="M1633.179,318.329c7.379,43.477,3.285,90.828-12.606,132.092c-6.196,16.09-15.9,31.528-30.961,40.562
			c-19.562,11.733-44.838,9.169-66.654,9.025c-6.45-0.043-6.446,9.957,0,10c23.689,0.156,48.965,1.895,70.541-9.729
			c16.901-9.106,27.979-26.149,35.181-43.418c8.188-19.631,12.828-40.899,15.517-61.936c3.373-26.391,3.08-53.009-1.374-79.254
			C1641.744,309.323,1632.108,312.023,1633.179,318.329L1633.179,318.329z"/>
	</g>
</g>
<g>
	<g>
		<path d="M1504.317,154.023c16.63-21.634,44.802-26.087,70.354-22.202c6.306,0.959,9.017-8.676,2.658-9.643
			c-30.565-4.647-61.939,1.16-81.646,26.798C1491.752,154.09,1500.445,159.061,1504.317,154.023L1504.317,154.023z"/>
	</g>
</g>
<g>
	<g>
		<path d="M1605.329,498.821c4.212-1.474,7.973-4.438,8.992-8.992c0.595-2.657-0.771-5.402-3.492-6.15
			c-2.529-0.696-5.556,0.832-6.15,3.492c-0.037,0.185-0.082,0.366-0.136,0.547c-0.271,0.995,0.535-1.084,0.09-0.154
			c-0.122,0.255-0.277,0.492-0.432,0.728c0.76-1.163,0.319-0.407,0.054-0.119c-0.202,0.219-0.43,0.413-0.655,0.606
			c1.062-0.91,0.289-0.249,0-0.066c-0.275,0.173-0.566,0.317-0.857,0.462c1.223-0.607,0.227-0.1-0.071,0.005
			c-2.57,0.899-4.252,3.388-3.492,6.15C1599.864,497.821,1602.755,499.723,1605.329,498.821L1605.329,498.821z"/>
	</g>
</g>
<g>
	<g>
		<path d="M1463,405.5c5.159,0,5.159-8,0-8S1457.841,405.5,1463,405.5L1463,405.5z"/>
	</g>
</g>
<g>
	<g>
		<path d="M1462.5,406c5.159,0,5.159-8,0-8S1457.341,406,1462.5,406L1462.5,406z"/>
	</g>
</g>
<g>
	<g>
		<path d="M1539.5,506.5c-4.162,0.391-8.266,0.627-11.172-2.828c-3.324-3.953-8.953,1.736-5.656,5.656
			c4.239,5.042,10.647,5.752,16.828,5.172C1544.591,514.021,1544.637,506.018,1539.5,506.5L1539.5,506.5z"/>
	</g>
</g>
<g>
	<g>
		<path d="M-21.666,870.338c59.048,8.775,118.699,6.895,178.033,2.352c61.03-4.674,121.879-10.568,183.001-14.129
			c124.323-7.243,248.809-8.569,373.174-2.049c125.559,6.582,251.419,12.496,377.096,5.472
			c62.328-3.484,124.531-8.185,186.687-13.978c61.804-5.759,123.568-13.125,185.721-12.785c35.891,0.195,71.749,2.1,107.618,3.151
			c35.656,1.044,71.364,0.829,107.033,1.034c69.448,0.401,139.583-0.559,207.699-15.566c6.297-1.387,3.626-11.027-2.658-9.643
			c-57.979,12.774-117.491,15.019-176.666,15.256c-59.94,0.24-119.887-0.421-179.786-2.61c-31.021-1.134-62.053-2.058-93.097-1.408
			c-31.052,0.649-61.979,3.816-92.887,6.666c-61.943,5.71-123.839,11.971-185.922,15.996c-62.563,4.057-125.054,7.141-187.766,7.101
			c-62.958-0.041-125.895-2.437-188.773-5.433c-62.305-2.968-124.479-7.143-186.877-7.453
			c-62.382-0.311-124.717,0.347-187.046,3.019c-70.278,3.014-140.381,8.02-210.434,14.31
			c-70.217,6.305-141.403,11.472-211.493,1.056C-25.313,859.758-28.026,869.393-21.666,870.338L-21.666,870.338z"/>
	</g>
</g>
<g>
	<g>
		<path d="M1098.436,607.851c25.546-10.175,41.574-33.712,54.688-56.754c15.176-26.666,26.444-55.466,38.916-83.441
			c12.483-28.002,25.558-55.989,41.779-82.058c15.129-24.312,36.961-44.037,66.621-46.564c27.11-2.311,52.033,11.943,70.772,30.337
			c20.11,19.739,33.349,44.866,46.718,69.34c14.75,27,30.408,53.547,49.633,77.647c15.828,19.843,35.156,38.016,59.259,47.052
			c20.476,7.677,42.495,5.034,61.771-4.632c9.07-4.548,17.488-10.768,24.954-17.61c6.274-5.751,14.724-15.686,24.284-13.401
			c6.269,1.498,8.929-8.145,2.658-9.643c-11.923-2.849-21.641,4.662-29.985,12.239c-9.606,8.724-19.437,16.449-31.336,21.876
			c-25.502,11.632-52.218,3.918-73.749-12.012c-22.599-16.721-39.503-41.022-54.388-64.467
			c-16.566-26.095-29.708-54.176-46.319-80.221c-13.526-21.206-30.75-40.706-52.585-53.58
			c-23.731-13.992-52.327-17.234-78.001-6.668c-26.143,10.76-42.57,33.722-56.166,57.43c-15.404,26.858-28.107,55.17-40.574,83.477
			c-10.617,24.108-20.751,48.511-33.801,71.44c-11.314,19.88-25.662,41.749-47.807,50.57
			C1089.862,600.564,1092.439,610.239,1098.436,607.851L1098.436,607.851z"/>
	</g>
</g>
<g>
	<g>
		<path d="M1658.005,529.714c1.14-5.092,1.967-10.238,2.816-15.385c0.443-2.687-0.66-5.372-3.492-6.15
			c-2.416-0.665-5.706,0.8-6.15,3.492c-0.85,5.146-1.677,10.293-2.816,15.385C1646.956,533.337,1656.597,536.006,1658.005,529.714
			L1658.005,529.714z"/>
	</g>
</g>
<g>
	<g>
		<path d="M1100.671,596.179c-7.941,1.983-15.879,3.909-24,5c-5.563,0.747-4.242,10.57,1.329,9.821
			c8.579-1.152,16.939-3.083,25.329-5.179C1109.583,604.26,1106.929,594.615,1100.671,596.179L1100.671,596.179z"/>
	</g>
</g>
<g>
	<g>
		<path d="M1569,605c6.449,0,6.449-10,0-10S1562.551,605,1569,605L1569,605z"/>
	</g>
</g>
<g>
	<g>
		<path d="M1573.523,605.317c-1.108,0.522-0.04,0.03,0.204-0.049c0.431-0.139,0.877-0.222,1.321-0.299
			c-1.552,0.269-0.283,0.062,0.092,0.043c0.286-0.014,0.573-0.013,0.859-0.013c2.726-0.003,5-2.272,5-5c0-2.724-2.274-5.003-5-5
			c-2.676,0.003-5.107,0.543-7.523,1.683c-2.465,1.162-3.079,4.647-1.794,6.841C1568.149,606.027,1571.059,606.479,1573.523,605.317
			L1573.523,605.317z"/>
	</g>
</g>
<g>
	<g>
		<path d="M1639.329,529.821c9.567-1.771,12.167,15.856,11.671,22.179c-0.505,6.434,9.499,6.385,10,0
			c1.11-14.149-7.084-35.013-24.329-31.821C1630.335,521.351,1633.026,530.987,1639.329,529.821L1639.329,529.821z"/>
	</g>
</g>
<g>
	<g>
		<path d="M1630.329,529.821c12.08-1.915,16.189,11.031,17.85,20.508c1.111,6.344,10.747,3.646,9.643-2.658
			c-2.798-15.974-12.097-30.354-30.15-27.492C1621.315,521.186,1624.022,530.821,1630.329,529.821L1630.329,529.821z"/>
	</g>
</g>
<g>
	<g>
		<path d="M1643.317,315.477c-2-4-4-8-6-12c-1.218-2.437-4.606-3.103-6.841-1.794c-2.464,1.443-3.013,4.403-1.794,6.841
			c2,4,4,8,6,12c1.218,2.437,4.606,3.103,6.841,1.794C1643.987,320.874,1644.536,317.914,1643.317,315.477L1643.317,315.477z"/>
	</g>
</g>
<g>
	<g>
		<path d="M693,386c9.676-0.064,19.323-0.942,29-1c6.447-0.039,6.45-10.039,0-10c-9.677,0.058-19.324,0.936-29,1
			C686.554,376.043,686.549,386.043,693,386L693,386z"/>
	</g>
</g>
<g>
	<g>
		<path d="M155.814,1079.192c65.915,0.492,131.813-1.329,197.693-3.249c32.901-0.959,65.803-1.936,98.71-2.658
			c32.077-0.706,64.425-1.397,96.455,0.791c1.924,0.131,3.845,0.29,5.767,0.45c5.144,0.428,5.103-7.575,0-8
			c-31.946-2.658-64.29-2.029-96.313-1.368c-32.9,0.68-65.794,1.651-98.687,2.611c-65.886,1.925-131.787,3.816-197.708,3.463
			c-1.972-0.011-3.944-0.025-5.916-0.04C150.653,1071.154,150.657,1079.154,155.814,1079.192L155.814,1079.192z"/>
	</g>
</g>
<g>
	<g>
		<path d="M142.417,1104.097c4.603,79.761,12.522,159.376,12.868,239.331c0.022,5.158,8.022,5.16,8,0
			c-0.346-79.955-8.265-159.57-12.868-239.331C150.121,1098.969,142.12,1098.94,142.417,1104.097L142.417,1104.097z"/>
	</g>
</g>
<g>
	<g>
		<path d="M557.107,1082.826c10.545,86.02,5.908,172.776,5.32,259.173c-0.035,5.16,7.965,5.157,8,0
			c0.588-86.396,5.225-173.153-5.32-259.173C564.488,1077.773,556.48,1077.713,557.107,1082.826L557.107,1082.826z"/>
	</g>
</g>
<g>
	<g>
		<path d="M157.856,1348.856c31.054,4.065,62.351,0.394,93.504,0.019c16.405-0.198,32.961,1.304,49.34,2.179
			c16.557,0.885,33.112,1.802,49.675,2.566c33.093,1.527,66.238,2.325,99.351,0.955c16.133-0.667,32.195-1.845,48.346-2.187
			c15.902-0.335,31.808-0.713,47.62-2.575c5.393-0.636,10.755-1.493,16.085-2.528c5.061-0.984,2.913-8.694-2.127-7.715
			c-31.547,6.133-64.081,4.217-96.014,6.272c-33.07,2.13-66.258,1.65-99.351,0.37c-33.134-1.281-66.225-3.468-99.351-4.941
			c-31.426-1.398-62.811,2.916-94.244,0.881c-4.292-0.277-8.569-0.737-12.833-1.296
			C152.752,1340.188,152.816,1348.196,157.856,1348.856L157.856,1348.856z"/>
	</g>
</g>
<g>
	<g>
		<path d="M305.521,1204.811c1.395,30.715,2.733,61.439,2.762,92.191c0.002,2.579,4.002,2.58,4,0
			c-0.029-30.752-1.368-61.477-2.762-92.191C309.404,1202.242,305.403,1202.23,305.521,1204.811L305.521,1204.811z"/>
	</g>
</g>
<g>
	<g>
		<path d="M308.716,1202.344c20.037,1.87,40.08-0.404,60.138-0.484c2.579-0.01,2.58-4.01,0-4
			c-20.058,0.08-40.101,2.354-60.138,0.484C306.147,1198.104,306.17,1202.106,308.716,1202.344L308.716,1202.344z"/>
	</g>
</g>
<g>
	<g>
		<path d="M366.667,1201.188c0.055,31.355,2.612,62.645,2.667,94c0.004,2.579,4.004,2.58,4,0c-0.055-31.355-2.612-62.645-2.667-94
			C370.662,1198.608,366.662,1198.607,366.667,1201.188L366.667,1201.188z"/>
	</g>
</g>
<g>
	<g>
		<path d="M367.865,1203.116c13.898-3.548,25.998-11.181,38.43-18.044c2.258-1.246,0.241-4.701-2.019-3.453
			c-12.131,6.696-23.91,14.178-37.475,17.64C364.304,1199.896,365.364,1203.754,367.865,1203.116L367.865,1203.116z"/>
	</g>
</g>
<g>
	<g>
		<path d="M409.991,1184.727c1.813,1.386,2.108,5.044,2.437,7.08c0.646,4.004,0.683,8.137,0.719,12.182
			c0.082,9.044-0.534,18.089-1.086,27.111c-0.578,9.425-0.259,18.767-0.05,28.21c0.363,16.401,0.645,32.806,0.656,49.212
			c0.002,2.579,4.002,2.58,4,0c-0.02-27.077-2.01-54.293-0.367-81.326c0.576-9.479,1.101-18.992,0.723-28.49
			c-0.216-5.443-0.204-13.758-5.013-17.432C409.959,1179.706,407.97,1183.184,409.991,1184.727L409.991,1184.727z"/>
	</g>
</g>
<g>
	<g>
		<path d="M413.091,1305.653c-13.173-2.241-25.114-8.434-37.893-12.061c-2.487-0.706-3.541,3.154-1.063,3.857
			c12.779,3.627,24.72,9.819,37.893,12.061C414.55,1309.939,415.63,1306.086,413.091,1305.653L413.091,1305.653z"/>
	</g>
</g>
<g>
	<g>
		<path d="M173,1302.57c64.807-6.863,130.067,2.718,194.856-4.285c2.536-0.274,2.563-4.277,0-4
			c-64.789,7.003-130.049-2.578-194.856,4.285C170.462,1298.839,170.436,1302.842,173,1302.57L173,1302.57z"/>
	</g>
</g>
<g>
	<g>
		<path d="M416.427,1298.285c46.287-0.243,92.516,2.675,138.797,2.85c2.58,0.01,2.579-3.99,0-4
			c-46.281-0.175-92.511-3.093-138.797-2.85C413.849,1294.299,413.847,1298.299,416.427,1298.285L416.427,1298.285z"/>
	</g>
</g>
<g>
	<g>
		<path d="M353.856,1354.856c0,11.904,0,23.81,0,35.714c0,5.159,8,5.159,8,0c0-11.904,0-23.81,0-35.714
			C361.856,1349.697,353.856,1349.697,353.856,1354.856L353.856,1354.856z"/>
	</g>
</g>
<g>
	<g>
		<path d="M368.142,1356.285c0.06,11.558,1.349,23.277-1.286,34.65c-1.163,5.021,6.55,7.152,7.714,2.127
			c2.81-12.129,1.636-24.454,1.572-36.777C376.115,1351.128,368.115,1351.125,368.142,1356.285L368.142,1356.285z"/>
	</g>
</g>
<g>
	<g>
		<path d="M331.31,1409.731c2.1-4.646,7.334-7.068,11.848-8.788c6.796-2.591,14.109-3.843,21.338-4.348
			c9.366-0.655,30.297-1.01,33.789,10.753c1.464,4.934,9.186,2.831,7.714-2.127c-4.619-15.562-26.062-17.205-39.426-16.735
			c-8.925,0.313-18.023,1.877-26.381,5.062c-6.067,2.312-12.977,5.92-15.79,12.146
			C322.295,1410.355,329.188,1414.427,331.31,1409.731L331.31,1409.731z"/>
	</g>
</g>
<g>
	<g>
		<path d="M327.856,1411.142c23.786,2.649,47.594,0.078,71.429,0c5.158-0.017,5.16-8.017,0-8c-23.834,0.078-47.643,2.649-71.429,0
			C322.733,1402.571,322.788,1410.577,327.856,1411.142L327.856,1411.142z"/>
	</g>
</g>
<g>
	<g>
		<path d="M103.476,1425.727c6.681,1.902,13.486,2.047,20.378,2.351c8.1,0.356,16.08,0.701,24.201,0.464
			c15.994-0.468,31.937-1.98,47.945-2.041c32.894-0.125,65.741-0.783,98.644-0.324c32.93,0.458,65.853,1.299,98.779,1.91
			c32.912,0.611,65.819,0.314,98.733-0.028c55.185-0.575,110.367-1.502,165.556-1.416c5.804,0.009,5.803-8.991,0-9
			c-65.718-0.103-131.427,1.222-197.142,1.699c-65.871,0.479-131.692-2.124-197.558-2.479c-26.754-0.145-53.581-0.104-80.318,0.941
			c-12.832,0.502-25.636,1.534-38.477,1.839c-6.235,0.147-12.435,0.03-18.648-0.465c-6.677-0.533-13.188-0.275-19.702-2.129
			C100.275,1415.456,97.904,1424.141,103.476,1425.727L103.476,1425.727z"/>
	</g>
</g>
<g>
	<g>
		<path d="M652.713,1394.999c0,7.143,0,14.286,0,21.429c0,6.449,10,6.449,10,0c0-7.143,0-14.286,0-21.429
			C662.713,1388.551,652.713,1388.551,652.713,1394.999L652.713,1394.999z"/>
	</g>
</g>
<g>
	<g>
		<path d="M653.713,1423.57c10.916,81.503,8.442,163.904,13.694,245.809c0.329,5.122,8.331,5.154,8,0
			c-5.252-81.904-2.778-164.306-13.694-245.809C661.039,1418.535,653.03,1418.469,653.713,1423.57L653.713,1423.57z"/>
	</g>
</g>
<g>
	<g>
		<path d="M108.616,1518.924c131.29,14.96,264.078,11.935,395.96,9.947c51.998-0.783,103.995-1.548,155.994-2.229
			c5.799-0.076,5.807-9.076,0-9c-131.732,1.728-263.671,5.938-395.402,2.581c-52.295-1.333-104.565-4.375-156.552-10.299
			C102.855,1509.268,102.918,1518.274,108.616,1518.924L108.616,1518.924z"/>
	</g>
</g>
<g>
	<g>
		<path d="M142.785,1523.57c-2.106,45.373,4.233,90.491,5.862,135.768c0.162,4.5,7.163,4.516,7,0
			c-1.628-45.276-7.968-90.395-5.862-135.768C149.994,1519.056,142.993,1519.076,142.785,1523.57L142.785,1523.57z"/>
	</g>
</g>
<g>
	<g>
		<path d="M102.516,1520c0.467,45.036,0.497,90.078,1.551,135.106c0.151,6.438,10.151,6.452,10,0
			c-1.055-45.028-1.084-90.07-1.551-135.106C112.449,1513.555,102.449,1513.549,102.516,1520L102.516,1520z"/>
	</g>
</g>
<g>
	<g>
		<path d="M95.53,1437.705c1.821,21.436,3.291,42.898,3.969,64.403c0.203,6.433,10.204,6.452,10,0
			c-0.678-21.505-2.148-42.968-3.969-64.403C104.988,1431.329,94.984,1431.276,95.53,1437.705L95.53,1437.705z"/>
	</g>
</g>
<g>
	<g>
		<path d="M618.499,1523.57c3.019,48.513,6.97,96.971,12.403,145.276c0.499,4.434,7.504,4.481,7,0
			c-5.433-48.306-9.384-96.764-12.403-145.276C625.22,1519.087,618.218,1519.061,618.499,1523.57L618.499,1523.57z"/>
	</g>
</g>
<g>
	<g>
		<path d="M177.999,1523.57c-3.205,29.383-18.265,55.918-28.428,83.223c-1.804,4.846,5.931,6.917,7.714,2.127
			c10.473-28.137,25.412-55.072,28.714-85.35C186.558,1518.445,178.552,1518.499,177.999,1523.57L177.999,1523.57z"/>
	</g>
</g>
<g>
	<g>
		<path d="M154.856,1614.856c32.822,4.29,65.409-0.78,98.249-1.519c33.021-0.744,66.05-1.049,99.079-0.967
			c66.194,0.166,132.364,2.406,198.549,3.342c25.183,0.356,50.367,0.566,75.552,0.572c2.58,0,2.58-4,0-4
			c-66.279-0.016-132.542-1.533-198.802-2.991c-33.021-0.727-66.05-1.016-99.078-0.917c-32.95,0.1-66.021,0.003-98.906,2.213
			c-24.872,1.67-49.813,3.512-74.643,0.267C152.304,1610.522,152.336,1614.527,154.856,1614.856L154.856,1614.856z"/>
	</g>
</g>
<g>
	<g>
		<path d="M631.57,1606.793c-9.14-31.24-27.552-58.511-43.26-86.67c-2.513-4.506-9.424-0.473-6.908,4.037
			c15.363,27.541,33.515,54.207,42.454,84.76C625.301,1613.86,633.022,1611.756,631.57,1606.793L631.57,1606.793z"/>
	</g>
</g>
<g>
	<g>
		<path d="M196.392,1534.63c-4.192,18.118-8.666,36.168-12.857,54.285c-0.871,3.766,4.914,5.364,5.786,1.596
			c4.191-18.118,8.665-36.168,12.857-54.285C203.049,1532.46,197.264,1530.861,196.392,1534.63L196.392,1534.63z"/>
	</g>
</g>
<g>
	<g>
		<path d="M199.285,1539.856c95.272,0.039,190.442,5.675,285.714,5.714c3.869,0.002,3.869-5.998,0-6
			c-95.272-0.039-190.442-5.675-285.714-5.714C195.416,1533.854,195.416,1539.854,199.285,1539.856L199.285,1539.856z"/>
	</g>
</g>
<g>
	<g>
		<path d="M484.856,1542.57c-0.053,17.078-1.554,34.01-5.607,50.631c-0.917,3.759,4.87,5.354,5.786,1.596
			c4.176-17.125,5.766-34.627,5.821-52.227C490.868,1538.7,484.868,1538.701,484.856,1542.57L484.856,1542.57z"/>
	</g>
</g>
<g>
	<g>
		<path d="M482.142,1592.428c-98.147-0.048-196.138-7.095-294.286-7.143c-3.869-0.002-3.869,5.998,0,6
			c98.147,0.048,196.138,7.095,294.286,7.143C486.011,1598.43,486.011,1592.43,482.142,1592.428L482.142,1592.428z"/>
	</g>
</g>
<g>
	<g>
		<path d="M197.856,1551.285c93.926,10.033,188.543,8.581,282.857,8.571c3.869-0.001,3.869-6.001,0-6
			c-94.314,0.01-188.931,1.462-282.857-8.571C194.011,1544.874,194.05,1550.879,197.856,1551.285L197.856,1551.285z"/>
	</g>
</g>
<g>
	<g>
		<path d="M194.999,1565.57c94.799,2.912,189.398,11.369,284.286,11.429c3.869,0.003,3.869-5.997,0-6
			c-94.888-0.06-189.487-8.517-284.286-11.429C191.127,1559.451,191.139,1565.451,194.999,1565.57L194.999,1565.57z"/>
	</g>
</g>
<g>
	<g>
		<path d="M192.142,1576.999c46.919,4.851,94.136,3.526,141.217,4.806c46.826,1.272,93.315,7.967,140.212,8.052
			c3.87,0.007,3.869-5.993,0-6c-46.895-0.085-93.39-6.704-140.212-8.052c-47.086-1.355-94.288,0.046-141.217-4.806
			C188.294,1570.602,188.333,1576.605,192.142,1576.999L192.142,1576.999z"/>
	</g>
</g>
<g>
	<g>
		<path d="M223.534,1538.915c-3.054,15.656-10.602,29.752-18.269,43.569c-1.879,3.387,3.304,6.412,5.181,3.029
			c7.9-14.238,15.727-28.873,18.874-45.003C230.057,1536.731,224.275,1535.12,223.534,1538.915L223.534,1538.915z"/>
	</g>
</g>
<g>
	<g>
		<path d="M250.677,1540.344c-4.026,13.603-6.894,27.65-12.555,40.713c-1.522,3.512,3.646,6.57,5.181,3.027
			c5.881-13.57,8.977-28.013,13.16-42.145C257.564,1538.22,251.773,1536.643,250.677,1540.344L250.677,1540.344z"/>
	</g>
</g>
<g>
	<g>
		<path d="M279.142,1539.713c-1.42,17.009-6.41,33.326-11.743,49.454c-1.218,3.685,4.577,5.251,5.786,1.596
			c5.511-16.668,10.489-33.479,11.957-51.05C285.464,1535.855,279.461,1535.886,279.142,1539.713L279.142,1539.713z"/>
	</g>
</g>
<g>
	<g>
		<path d="M303,1542c1.879,16.076-2.697,32.49-8.893,47.202c-1.501,3.564,4.308,5.104,5.786,1.596
			c6.373-15.134,11.041-32.26,9.107-48.798C308.556,1538.205,302.551,1538.161,303,1542L303,1542z"/>
	</g>
</g>
<g>
	<g>
		<path d="M333.107,1542.202c-5.097,15.448-9.056,31.228-13,47c-0.938,3.755,4.848,5.348,5.786,1.596
			c3.944-15.773,7.902-31.552,13-47C340.109,1540.112,334.313,1538.546,333.107,1542.202L333.107,1542.202z"/>
	</g>
</g>
<g>
	<g>
		<path d="M358,1541c-0.28,16.52-7.688,31.824-12.893,47.202c-1.244,3.676,4.553,5.239,5.786,1.596
			c5.397-15.949,12.817-31.663,13.107-48.798C364.065,1537.129,358.065,1537.135,358,1541L358,1541z"/>
	</g>
</g>
<g>
	<g>
		<path d="M383,1545c-0.232,15.355-5.784,29.921-10.893,44.202c-1.306,3.652,4.493,5.211,5.786,1.596
			c5.3-14.818,10.866-29.87,11.107-45.798C389.059,1541.129,383.059,1541.135,383,1545L383,1545z"/>
	</g>
</g>
<g>
	<g>
		<path d="M405.107,1542.202c-2.965,15.386-7.751,30.261-13,45c-1.301,3.655,4.498,5.213,5.786,1.596
			c5.248-14.739,10.035-29.614,13-45C411.621,1540.018,405.839,1538.405,405.107,1542.202L405.107,1542.202z"/>
	</g>
</g>
<g>
	<g>
		<path d="M424,1545c-1.099,15.308-3.989,30.376-7.893,45.202c-0.986,3.746,4.802,5.334,5.786,1.596
			c4.039-15.342,6.97-30.962,8.107-46.798C430.277,1541.137,424.275,1541.164,424,1545L424,1545z"/>
	</g>
</g>
<g>
	<g>
		<path d="M448,1547c-1.115,13.766-4.861,27.049-8.893,40.202c-1.137,3.71,4.656,5.283,5.786,1.596
			c4.194-13.688,7.947-27.479,9.107-41.798C454.312,1543.141,448.31,1543.171,448,1547L448,1547z"/>
	</g>
</g>
<g>
	<g>
		<path d="M464.107,1544.202c-2.979,17.081-5.195,34.299-10,51c-1.072,3.728,4.718,5.307,5.786,1.596
			c4.805-16.702,7.021-33.919,10-51C470.553,1542.015,464.771,1540.396,464.107,1544.202L464.107,1544.202z"/>
	</g>
</g>
<g>
	<g>
		<path d="M537.897,1544.103c-9.188,9.409-8.9,24.048-6.245,36.064c2.089,9.458,11.816,25.407,23.667,19.521
			c6.304-3.131,9.103-9.693,10.96-16.104c2.299-7.933,4.252-16.676,3.63-24.974c-1.01-13.452-13.337-18.688-25.33-18.281
			c-5.145,0.174-5.162,8.175,0,8c8.375-0.283,16.709,2.023,17.432,11.65c0.469,6.243-1.226,12.7-2.721,18.705
			c-1.213,4.87-2.51,10.594-6.944,13.566c-3.669,2.459-7.723-2.994-9.411-5.522c-2.262-3.388-3.295-7.166-4.076-11.112
			c-1.663-8.406-1.669-19.342,4.695-25.858C547.159,1546.067,541.506,1540.406,537.897,1544.103L537.897,1544.103z"/>
	</g>
</g>
<g>
	<g>
		<path d="M546.142,1547.284c0.87,6.525,1,13.118,2,19.629c0.78,5.086,8.488,2.918,7.714-2.127
			c-0.889-5.795-0.939-11.689-1.713-17.502C553.471,1542.248,545.462,1542.183,546.142,1547.284L546.142,1547.284z"/>
	</g>
</g>
<g>
	<g>
		<path d="M537.146,1573.562c9.599,0.771,19.168,0.057,28.776,0c5.157-0.03,5.16-8.03,0-8c-9.608,0.057-19.178,0.771-28.776,0
			C532,1565.148,532.041,1573.152,537.146,1573.562L537.146,1573.562z"/>
	</g>
</g>
<g>
	<g>
		<path d="M540.697,1541.974c-0.167,0.084-0.335,0.164-0.506,0.242c-0.83,0.387,0.845-0.339,0.076-0.033
			c-0.354,0.14-0.71,0.27-1.061,0.417c-1.172,0.491-2.091,0.96-3.031,1.856c-1.578,1.504-1.513,4.144,0,5.656
			c1.569,1.569,4.08,1.504,5.657,0c0.727-0.692-0.813,0.485,0.007,0.015c0.836-0.48-0.964,0.357-0.009-0.014
			c0.98-0.381,1.958-0.77,2.904-1.231c1.958-0.957,2.474-3.698,1.435-5.473C545.008,1541.426,542.656,1541.017,540.697,1541.974
			L540.697,1541.974z"/>
	</g>
</g>
<g>
	<g>
		<path d="M105.518,1400.859c82.228,0.076,164.246-7.792,246.482-7.142c3.871,0.03,3.868-5.97,0-6
			c-82.237-0.65-164.254,7.218-246.482,7.142C101.648,1394.855,101.648,1400.855,105.518,1400.859L105.518,1400.859z"/>
	</g>
</g>
<g>
	<g>
		<path d="M374.857,1392.289c93.819,0.029,187.604,4.26,281.428,2.856c3.866-0.058,3.871-6.058,0-6
			c-93.824,1.403-187.609-2.827-281.428-2.856C370.988,1386.288,370.988,1392.288,374.857,1392.289L374.857,1392.289z"/>
	</g>
</g>
<g>
	<g>
		<path d="M123.942,1661.167c66.297,1.783,132.553,4.778,198.805,7.762c33.124,1.491,66.247,2.974,99.378,4.299
			c33.098,1.324,66.27,0.507,99.394,0.472c66.129-0.072,132.258,0.195,198.386-0.08c65.921-0.275,131.831-1.455,197.741-2.636
			c44.502-0.798,89.001-1.863,133.473-3.72c6.424-0.269,6.451-10.27,0-10c-65.34,2.729-130.734,3.73-196.119,4.736
			c-66.193,1.019-132.364,1.727-198.567,1.749c-66.171,0.022-132.343-0.22-198.514,0.148c-33.132,0.185-66.298-1.903-99.395-3.367
			c-33.129-1.466-66.255-2.995-99.385-4.432c-45.054-1.954-90.117-3.719-135.197-4.932
			C117.49,1650.993,117.507,1660.994,123.942,1661.167L123.942,1661.167z"/>
	</g>
</g>
<g>
	<g>
		<path d="M-2.286,1660.255c32.78-0.438,65.564-0.271,98.341,0.313c6.452,0.115,6.441-9.885,0-10
			c-32.777-0.584-65.561-0.751-98.341-0.313C-8.729,1650.341-8.737,1660.341-2.286,1660.255L-2.286,1660.255z"/>
	</g>
</g>
<g>
	<g>
		<path d="M155.671,1071.179c-14.288,2.028-13.454,20.104-14.671,30.821c-0.727,6.401,9.281,6.332,10,0
			c0.682-6.006-0.767-20.029,7.329-21.179C164.692,1079.918,161.975,1070.283,155.671,1071.179L155.671,1071.179z"/>
	</g>
</g>
<g>
	<g>
		<path d="M554,1071c0.083,3.584,1.056,6.956,2.179,10.329c0.86,2.584,3.418,4.244,6.15,3.492c2.522-0.694,4.353-3.563,3.492-6.15
			c-0.839-2.522-1.762-5.118-1.821-7.671c-0.063-2.725-2.227-5-5-5C556.322,1066,553.937,1068.274,554,1071L554,1071z"/>
	</g>
</g>
<g>
	<g>
		<path d="M94.566,1436.783c0.179,1.519,0.382,3.034,0.612,4.546c0.184,1.21,1.289,2.397,2.298,2.988
			c1.155,0.677,2.562,0.858,3.853,0.504c1.25-0.344,2.333-1.18,2.988-2.298c0.74-1.264,0.715-2.461,0.504-3.853
			c-0.087-0.576-0.17-1.152-0.248-1.729c0.06,0.442,0.119,0.886,0.179,1.328c-0.065-0.494-0.127-0.99-0.186-1.486
			c-0.163-1.381-0.443-2.514-1.464-3.535c-0.934-0.934-2.215-1.465-3.536-1.465s-2.602,0.531-3.536,1.465
			C95.187,1434.092,94.42,1435.543,94.566,1436.783L94.566,1436.783z"/>
	</g>
</g>
<g>
	<g>
		<path d="M94,1399c-0.038,11.297-0.612,22.591,0.187,33.875c0.453,6.395,10.456,6.438,10,0
			c-0.799-11.284-0.225-22.578-0.187-33.875C104.021,1392.551,94.021,1392.553,94,1399L94,1399z"/>
	</g>
</g>
<g>
	<g>
		<path d="M100,1497c0.963,9.646,1.935,19.298,2,29c0.043,6.446,10.043,6.45,10,0c-0.065-9.702-1.037-19.354-2-29
			C109.365,1490.646,99.359,1490.584,100,1497L100,1497z"/>
	</g>
</g>
<g>
	<g>
		<path d="M309,1204c2.58,0,2.58-4,0-4S306.42,1204,309,1204L309,1204z"/>
	</g>
</g>
<g>
	<g>
		<path d="M408,1183c2.58,0,2.58-4,0-4S405.42,1183,408,1183L408,1183z"/>
	</g>
</g>
<g>
	<g>
		<path d="M670,1510c29.977,3.092,60.051-0.476,89.994-2.221c15.135-0.882,30.277-0.701,45.427-1.045
			c15.201-0.344,30.392-1.044,45.58-1.734c5.137-0.233,5.16-8.234,0-8c-30.316,1.378-60.723,1.095-91.006,2.779
			c-29.963,1.667-59.996,5.314-89.994,2.221C664.87,1501.471,664.921,1509.477,670,1510L670,1510z"/>
	</g>
</g>
<g>
	<g>
		<path d="M848,1501c3.922,55.715,3.006,111.577,2.777,167.385c-0.021,5.16,7.979,5.158,8,0
			c0.229-55.808,1.145-111.67-2.777-167.385C855.64,1495.884,847.637,1495.849,848,1501L848,1501z"/>
	</g>
</g>
<g>
	<g>
		<path d="M666,1529c61.001,0.011,121.999,0.989,183,1c5.159,0.001,5.159-7.999,0-8c-61.001-0.011-121.999-0.989-183-1
			C660.841,1520.999,660.841,1528.999,666,1529L666,1529z"/>
	</g>
</g>
<g>
	<g>
		<path d="M674,1611c30.857,0.709,61.658-1.414,92.459-2.934c14.834-0.732,29.71-1.481,44.564-1.18
			c13.736,0.279,27.507,0.807,41.041-2.029c5.048-1.059,2.906-8.77-2.127-7.715c-13.356,2.8-27.111,1.984-40.662,1.709
			c-14.264-0.29-28.572,0.525-42.816,1.215c-30.805,1.49-61.598,3.643-92.459,2.934C668.838,1602.881,668.85,1610.882,674,1611
			L674,1611z"/>
	</g>
</g>
<g>
	<g>
		<path d="M154.856,1628.856c32.822,4.29,65.409-0.78,98.249-1.519c33.021-0.744,66.05-1.049,99.079-0.967
			c66.194,0.166,132.364,2.406,198.549,3.342c25.183,0.356,50.367,0.566,75.552,0.572c3.869,0.001,3.869-5.999,0-6
			c-66.279-0.016-132.542-1.533-198.802-2.991c-33.021-0.727-66.05-1.016-99.078-0.917c-32.95,0.1-66.021,0.003-98.906,2.213
			c-24.872,1.67-49.813,3.512-74.643,0.267C151.028,1622.355,151.076,1628.362,154.856,1628.856L154.856,1628.856z"/>
	</g>
</g>
<g>
	<g>
		<path d="M-1182,952c17.186,130.938,10.184,263.093,8.017,394.674c-0.268,16.271-0.446,32.545-0.502,48.818
			c-0.009,2.58,3.991,2.579,4,0c0.454-131.408,9.496-263.055-2.094-394.241c-1.454-16.453-3.271-32.874-5.42-49.251
			C-1178.331,949.48-1182.335,949.448-1182,952L-1182,952z"/>
	</g>
</g>
<g>
	<g>
		<path d="M-1181.25,950.5c34.122,1.189,68.005-5.363,102.061-6.541c34.358-1.188,68.725-2.111,103.085-3.22
			c68.664-2.217,137.173-6.527,205.748-10.542c68.412-4.006,136.864-7.529,205.383-9c69.254-1.486,138.538-0.84,207.799-2.275
			c74.499-1.545,148.972-4.138,223.423-7.172c2.57-0.104,2.58-4.105,0-4c-69.583,2.836-139.184,5.27-208.807,6.854
			c-69.347,1.578-138.694,1.181-208.04,2.32c-137.259,2.258-274.017,14.627-411.164,19.338c-36.373,1.25-72.754,2.209-109.128,3.416
			c-18.535,0.615-36.887,1.881-55.333,3.799c-18.293,1.902-36.614,3.665-55.027,3.023
			C-1183.831,946.41-1183.822,950.41-1181.25,950.5L-1181.25,950.5z"/>
	</g>
</g>
<g>
	<g>
		<path d="M-134.5,910.75c0.71,6.438,2.498,12.398,2.501,18.929c0.005,8.626,0.035,17.252,0.064,25.878
			c0.058,16.589,0.122,33.178,0.078,49.767c-0.089,33.204-1.095,66.329-2.583,99.496c-1.476,32.888-3.178,65.764-4.863,98.641
			c-0.842,16.42-1.679,32.839-2.485,49.261c-0.806,16.406-2.201,32.941-2.213,49.367c-0.021,28.139-0.906,56.283,0.611,84.401
			c0.138,2.565,4.139,2.579,4,0c-3.501-64.877,1.372-130.061,4.693-194.841c3.388-66.08,6.843-132.086,6.857-198.27
			c0.003-14.598-0.066-29.195-0.114-43.794c-0.024-7.299-0.041-14.598-0.045-21.897c-0.003-5.824-1.866-11.188-2.5-16.938
			C-130.78,908.215-134.783,908.188-134.5,910.75L-134.5,910.75z"/>
	</g>
</g>
<g>
	<g>
		<path d="M-563.75,1407.75c62.157,0.135,124.241-3.07,186.305-6.091c31.008-1.509,62.038-3.157,93.077-3.856
			c30.74-0.691,61.49,0.164,92.233,0.014c2.579-0.013,2.58-4.013,0-4c-30.107,0.147-60.215-0.607-90.321-0.053
			c-31.014,0.573-62.027,2.297-93.007,3.799c-62.726,3.042-125.469,6.324-188.288,6.188
			C-566.33,1403.744-566.329,1407.744-563.75,1407.75L-563.75,1407.75z"/>
	</g>
</g>
<g>
	<g>
		<path d="M87,1660c14.626,1.825,29.307,1.043,44,1c6.448-0.019,6.45-10.019,0-10c-14.693,0.043-29.374,0.825-44-1
			C80.612,1649.203,80.688,1659.212,87,1660L87,1660z"/>
	</g>
</g>
<g>
	<g>
		<path d="M1042,1474c6.021,98.656,1.555,197.6,6.986,296.269c0.353,6.412,10.355,6.446,10,0
			c-5.431-98.669-0.965-197.612-6.986-296.269C1051.609,1467.594,1041.607,1467.557,1042,1474L1042,1474z"/>
	</g>
</g>
<g>
	<g>
		<path d="M1046.671,1475.821c8.805,1.882,17.455,0.325,26.329,0.179c6.442-0.105,6.452-10.106,0-10
			c-7.857,0.129-15.889,1.842-23.671,0.179C1043.041,1464.834,1040.366,1474.474,1046.671,1475.821L1046.671,1475.821z"/>
	</g>
</g>
<g>
	<g>
		<path d="M1023,1445c4.437,38.334,1.625,76.904,2.634,115.373c0.446,17.002,0.437,33.979,0.657,50.984
			c0.217,16.76,1.238,33.786,5.888,49.972c1.777,6.187,11.427,3.554,9.643-2.658c-4.583-15.953-5.34-32.567-5.553-49.072
			c-0.221-17.063-0.237-34.094-0.685-51.155c-0.993-37.838,1.781-75.732-2.583-113.443
			C1032.268,1438.672,1022.259,1438.601,1023,1445L1023,1445z"/>
	</g>
</g>
<g>
	<g>
		<path d="M1030,1450c6.679,0.823,13.307,0.073,20,0c6.444-0.07,6.451-10.07,0-10c-6.693,0.073-13.321,0.823-20,0
			C1023.61,1439.213,1023.686,1449.222,1030,1450L1030,1450z"/>
	</g>
</g>
<g>
	<g>
		<path d="M1047,1445c0.066,7.68,0.934,15.32,1,23c0.055,6.445,10.055,6.451,10,0c-0.066-7.68-0.934-15.32-1-23
			C1056.945,1438.555,1046.945,1438.549,1047,1445L1047,1445z"/>
	</g>
</g>
<g>
	<g>
		<path d="M549.929,1547.469c-1.278-8.408-6.16-15.426-12.515-20.883c-1.946-1.671-4.789,1.146-2.828,2.828
			c5.897,5.064,10.299,11.312,11.485,19.117C546.458,1551.075,550.312,1549.99,549.929,1547.469L549.929,1547.469z"/>
	</g>
</g>
<g>
	<g>
		<path d="M1070.333,1474.988c-0.329,98.572-0.332,197.146-0.129,295.718c0.013,6.448,10.013,6.449,10,0
			c-0.202-98.572-0.2-197.146,0.129-295.718C1080.354,1468.539,1070.354,1468.541,1070.333,1474.988L1070.333,1474.988z"/>
	</g>
</g>
<g>
	<g>
		<path d="M1136,2128.627c132.284-7.156,264.792-4.6,397.199-5.542c60.9-0.434,121.923-1.896,182.795,0.59
			c59.053,2.411,120.446,8.295,178.661-4.854c6.289-1.42,3.622-11.061-2.658-9.643c-31.276,7.063-63.348,7.479-95.263,7.496
			c-32.137,0.017-64.362-2.597-96.487-3.555c-65.58-1.955-131.273-0.126-196.867,0.126c-122.473,0.47-245.028-1.238-367.38,5.381
			C1129.587,2118.974,1129.553,2128.976,1136,2128.627L1136,2128.627z"/>
	</g>
</g>
<g>
	<g>
		<path d="M10.121,2094.279c7.798,0.079,15.552,0.833,23.334,0.008c9.009-0.955,17.968-2.718,26.972-3.807
			c17.129-2.07,34.344-3.39,51.572-4.278c34.119-1.76,68.309-1.478,102.456-0.915c34.676,0.571,69.352,1.983,104.03,2.671
			c34.774,0.689,69.546,1.255,104.316,2.107c34.777,0.854,69.562,1.407,104.349,1.571c34.699,0.162,69.392-0.537,104.087-0.102
			c68.68,0.86,137.589-2.684,206.176-6.021c75.537-3.677,151.036-8.114,226.586-11.514c6.421-0.289,6.45-10.29,0-10
			c-69.945,3.147-139.846,7.172-209.773,10.682c-34.741,1.744-69.482,3.346-104.249,4.453c-34.123,1.087-68.282,2.769-102.426,2.568
			c-69.347-0.406-138.677,0.241-208.021-1.252c-69.45-1.495-138.921-2.527-208.356-4.631c-36.966-1.12-73.991-1.492-110.954,0.004
			c-18.593,0.753-37.16,2.117-55.655,4.176c-8.757,0.976-17.493,2.159-26.205,3.478c-9.546,1.444-18.639,0.899-28.24,0.802
			C3.669,2084.214,3.676,2094.214,10.121,2094.279L10.121,2094.279z"/>
	</g>
</g>
<g>
	<g>
		<path d="M656.999,418.324c15.109,127.684,12.46,256.546,11.789,384.861c-0.073,13.935-0.119,27.869-0.122,41.805
			c-0.001,6.449,9.999,6.448,10,0c0.021-128.292,4.048-256.89-7.324-384.861c-1.24-13.955-2.696-27.892-4.343-41.805
			C666.251,412.001,656.242,411.928,656.999,418.324L656.999,418.324z"/>
	</g>
</g>
<g>
	<g>
		<path d="M1188.333,2060.977c7.814-0.107,15.519-1.559,23.333-1.666c6.443-0.089,6.452-10.089,0-10
			c-7.814,0.107-15.519,1.559-23.333,1.666C1181.89,2051.065,1181.881,2061.065,1188.333,2060.977L1188.333,2060.977z"/>
	</g>
</g>
<g>
	<g>
		<path d="M157,1088.922c65.988,0.445,131.961-1.229,197.92-2.969c32.936-0.868,65.871-1.745,98.812-2.381
			c32.353-0.625,64.978-1.244,97.268,1.182c1.287,0.097,1.278-1.904,0-2c-32.292-2.426-64.914-1.797-97.268-1.182
			c-32.941,0.625-65.876,1.512-98.812,2.381c-65.959,1.74-131.933,3.414-197.92,2.969
			C155.71,1086.913,155.711,1088.913,157,1088.922L157,1088.922z"/>
	</g>
</g>
<g>
	<g>
		<path d="M156,1088c4.112,80.248,11.186,160.381,11.494,240.783c0.005,1.289,2.005,1.29,2,0
			c-0.309-80.402-7.382-160.535-11.494-240.783C157.934,1086.717,155.934,1086.711,156,1088L156,1088z"/>
	</g>
</g>
<g>
	<g>
		<path d="M551,1084c-2.401,18.685,1.399,37.403,3.206,55.968c1.98,20.341,1.766,41.062,1.892,61.481
			c0.266,43.099-1.065,86.188-1.346,129.283c-0.008,1.29,1.992,1.289,2,0c0.276-42.442,1.525-84.875,1.356-127.32
			c-0.082-20.53-0.062-41.252-1.747-61.724c-1.579-19.198-5.844-38.374-3.361-57.688C553.164,1082.724,551.162,1082.739,551,1084
			L551,1084z"/>
	</g>
</g>
<g>
	<g>
		<path d="M166.495,1330.863c10.115,5.749,22.406,5.266,33.651,4.75c14.932-0.687,29.877-1.195,44.816-1.723
			c32.885-1.161,65.962,1.922,98.808,3.447c32.914,1.527,65.869,2.532,98.815,1.554c16.181-0.48,32.309-1.757,48.496-2.1
			c15.925-0.338,31.854-0.542,47.718-2.117c5.771-0.573,11.512-1.411,17.218-2.442c1.268-0.23,0.729-2.157-0.531-1.93
			c-31.867,5.766-64.853,4.201-97.09,5.934c-32.909,1.77-65.904,1.103-98.815-0.212c-16.475-0.657-32.941-1.51-49.408-2.336
			c-16.419-0.824-32.966-2.183-49.408-2.14c-16.467,0.044-32.912,1.178-49.371,1.56c-12.607,0.292-25.546,2.214-37.881-1.327
			c-2.123-0.609-4.098-1.559-6.008-2.645C166.382,1328.498,165.375,1330.227,166.495,1330.863L166.495,1330.863z"/>
	</g>
</g>
<g>
	<g>
		<path d="M171,1302c2.58,0,2.58-4,0-4S168.42,1302,171,1302L171,1302z"/>
	</g>
</g>
<g>
	<g>
		<path d="M1098.002,1774.207c132.276-3.295,264.673-3.605,396.984-3.847c65.654-0.12,131.188,1.011,196.798,3.396
			c63.401,2.304,127.569,5.296,190.676-2.982c14.823-1.944,29.533-4.607,44.069-8.102c5.642-1.355,3.248-10.034-2.393-8.678
			c-61.728,14.836-126.876,14.56-189.983,12.297c-65.219-2.339-130.373-4.711-195.643-4.919
			c-132.233-0.421-264.568,0.392-396.779,2.878c-14.578,0.273-29.154,0.594-43.729,0.957
			C1092.209,1765.352,1092.195,1774.352,1098.002,1774.207L1098.002,1774.207z"/>
	</g>
</g>
<g>
	<g>
		<path d="M-28,1784.5c147.223-0.863,294.341-7.882,441.574-7.939c72.777-0.029,145.667,1.275,218.426,2.939
			c73.266,1.675,146.691,0.278,219.954-0.917c76.903-1.255,153.796-3.079,230.703-4.146c5.799-0.081,5.807-9.081,0-9
			c-146.555,2.034-293.096,6.791-439.68,5.197c-72.785-0.791-145.568-2.876-218.357-3.062
			c-73.584-0.188-147.158,1.512-220.714,3.373c-77.292,1.957-154.586,4.102-231.906,4.555
			C-33.802,1775.534-33.805,1784.534-28,1784.5L-28,1784.5z"/>
	</g>
</g>
<g>
	<g>
		<path d="M1083.667,1772.833c5.804,0,5.804-9,0-9S1077.863,1772.833,1083.667,1772.833L1083.667,1772.833z"/>
	</g>
</g>
<g>
	<g>
		<path d="M1085.333,1772.833c5.804,0,5.804-9,0-9S1079.529,1772.833,1085.333,1772.833L1085.333,1772.833z"/>
	</g>
</g>
<g>
	<g>
		<path d="M1084.729,1772.219c3.963,1.844,7.942,2.277,12.271,2.281c5.804,0.005,5.804-8.995,0-9
			c-2.602-0.002-5.312,0.071-7.729-1.053c-2.224-1.035-4.833-0.646-6.157,1.614
			C1081.963,1768.027,1082.505,1771.184,1084.729,1772.219L1084.729,1772.219z"/>
	</g>
</g>
</svg>
