<?xml version="1.0" encoding="utf-8"?>
<!-- Generator: Adobe Illustrator 16.0.0, SVG Export Plug-In . SVG Version: 6.00 Build 0)  -->
<!DOCTYPE svg PUBLIC "-//W3C//DTD SVG 1.1//EN" "http://www.w3.org/Graphics/SVG/1.1/DTD/svg11.dtd">
<svg version="1.1" id="Layer_1" xmlns="http://www.w3.org/2000/svg" xmlns:xlink="http://www.w3.org/1999/xlink" x="0px" y="0px"
	 width="1798.912px" height="886.89px" viewBox="0 0 1798.912 886.89" enable-background="new 0 0 1798.912 886.89"
	 xml:space="preserve">
<g>
	<g id="XMLID_1_">
		<g>
			<path d="M964.07-2581.823c5.76-0.036,5.76,8.896,0,8.931c-52.229,0.321-104.457-1.143-156.685-0.839
				c-26.025,0.152-52.05,0.706-78.03,2.143c-23.006,1.277-45.78,4.707-68.733,6.582c0-0.705,0-1.402,0-2.107
				c0-5.761-8.931-5.761-8.931,0c0,0.536,0,1.072,0,1.607c-2.447-2.232-1.42-7.671,3-7.975c25.561-1.769,50.844-5.788,76.44-7.136
				c25.989-1.358,52.005-1.938,78.021-2.054C860.792-2582.895,912.431-2581.51,964.07-2581.823z"/>
			<path d="M660.623-2567.113c0,0.706,0,1.402,0,2.107c-1.974,0.17-3.956,0.322-5.93,0.456c-1.295,0.089-2.295-0.294-3-0.956
				c0-0.536,0-1.072,0-1.607C651.692-2572.874,660.623-2572.874,660.623-2567.113z"/>
			<path d="M660.623-2565.006c-0.036,73.52-0.812,147.039-1.724,220.55c-1.464,118.737-3.206,237.483-2.509,356.229
				c0.036,5.76-8.896,5.76-8.931,0c-0.438-74.217,0.071-148.433,0.884-222.649c1.295-118.201,3.304-236.411,3.349-354.63
				c0.706,0.661,1.706,1.045,3,0.956C656.667-2564.684,658.649-2564.836,660.623-2565.006z"/>
		</g>
		<g>
		</g>
	</g>
</g>
<g>
	<path d="M961.078-2577.359c6.064,58.388,6.229,116.903,6.833,175.527c0.611,59.281-1.615,118.543-2.602,177.807
		c-1.284,77.116-0.127,154.232-1.286,231.345c-0.086,5.762,8.845,5.753,8.931,0c0.884-58.878-0.05-117.763,0.429-176.643
		c0.481-59.14,2.539-118.254,3.315-177.389c0.501-38.31,0.309-76.663-0.326-114.969c-0.642-38.623-2.372-77.246-6.364-115.678
		C969.42-2583.028,960.483-2583.086,961.078-2577.359L961.078-2577.359z"/>
</g>
<g>
	<path d="M649.072-1976.357c105.271-2.133,210.437-7.456,315.642-11.525c5.741-0.222,5.762-9.153,0-8.931
		c-105.205,4.068-210.371,9.393-315.642,11.524C643.321-1985.172,643.31-1976.241,649.072-1976.357L649.072-1976.357z"/>
</g>
<g>
	<path d="M1163.883-2646.182c-5.346,0.78-10.691,1.553-16.099,1.495c-13.386,3.055-26.796,6.002-40.145,9.224
		c-17.023,4.108-33.711,9.4-50.432,14.586c-31.446,9.751-62.762,21.049-90.08,39.819c-4.714,3.239-0.254,10.983,4.507,7.712
		c27.184-18.679,58.186-29.69,89.463-39.39c16.22-5.031,32.411-10.098,48.916-14.116c17.284-4.208,34.698-7.861,52.01-11.953
		C1165.829-2639.703,1165.949-2643.956,1163.883-2646.182z"/>
</g>
<g>
	<path stroke="#000000" stroke-width="0.8" stroke-miterlimit="10" d="M1187.596-2441.291c2.668,59.191,6.054,118.428,6.442,177.689
		c0.739,113.205-4.644,226.343-4.559,339.543c2.976-0.011,5.954-0.01,8.93,0.003c-0.087-117.921,5.693-235.777,4.438-353.706
		c-0.605-56.896-4.096-113.808-6.64-170.641c-1.264-28.215-2.417-56.409-2.563-84.657c-0.145-28.083,0.38-56.166,0.792-84.245
		c0.084-5.762-8.846-5.754-8.931,0c-0.429,29.245-0.952,58.491-0.772,87.741C1184.914-2500.112,1186.271-2470.707,1187.596-2441.291
		z"/>
</g>
<g>
	<path d="M1196.792-1924.061c2.271-2.172,2.268-6.652-1.663-7.548c-77.535-17.685-150.06-52.693-228.398-67.349
		c-5.628-1.053-8.031,7.554-2.374,8.611c76.826,14.373,148.064,48.307,223.917,66.291
		C1191.113-1924.069,1193.953-1924.068,1196.792-1924.061z"/>
</g>
<g>
	<path stroke="#000000" stroke-width="0.25" stroke-miterlimit="10" d="M1214.104-2272.914c0.696,59.164,0.568,118.34-0.475,177.499
		c-1.007,57.145-3.483,114.275-3.644,171.431c2.98,0.021,5.959,0.035,8.938,0.042c0.146-55.983,2.534-111.947,3.572-167.918
		c1.1-59.161,1.228-118.339,0.58-177.507c-1.296-118.375-5.843-236.696-12.322-354.895c-0.064-1.186-0.13-2.371-0.195-3.556
		c-0.316-5.727-9.249-5.757-8.931,0C1208.145-2509.615,1212.712-2391.295,1214.104-2272.914z"/>
</g>
<g>
	<path d="M1183.259-2649.535c-4.621,0.752-9.241,1.448-13.87,1.969c-0.512,0.45-1.204,0.774-2.107,0.898
		c-5.641,0.778-11.264,1.752-16.945,1.95c-0.823,2.611,0.527,5.978,4.075,5.939c9.273-0.101,18.413-1.568,27.541-3.087
		C1186.13-2642.56,1185.91-2647.403,1183.259-2649.535z"/>
</g>
<g>
	<path d="M1187.427-2647.741c-0.945-0.604-1.849-1.276-2.71-2.033c-1.264,0.208-2.528,0.415-3.793,0.614
		c-1.455,0.91-2.371,2.578-1.719,4.732c3.096,10.242,5.945,20.644,6.092,31.411c0.078,5.754,9.009,5.762,8.931,0
		c-0.157-11.559-3.086-22.787-6.411-33.785C1187.712-2647.145,1187.581-2647.458,1187.427-2647.741z"/>
</g>
<g>
	<path d="M1208.511-2649.942c-2.315-0.11-4.629-0.276-6.948-0.414c-0.105,1.796-0.228,3.591-0.381,5.385
		c1.802-0.249,3.602-0.508,5.396-0.804c1.424-0.234,2.46-1.362,2.946-2.69C1209.19-2648.96,1208.852-2649.452,1208.511-2649.942z"/>
</g>
<g>
	<path d="M1184.728-2649.776c-3.045,0.502-6.089,0.985-9.137,1.417c-0.071,0.305-0.119,0.623-0.119,0.958
		c0,2.336,2.033,4.596,4.465,4.465c1.556-0.083,3.11-0.179,4.665-0.288c2.05-0.144,3.809-1.411,4.309-3.343
		c-0.062-0.129-0.117-0.262-0.178-0.391C1187.31-2647.75,1185.977-2648.678,1184.728-2649.776z"/>
</g>
<g>
	<path d="M1209.41-2647.401c-0.107-1.034-0.495-1.879-1.048-2.539c-2.261-0.112-4.522-0.282-6.787-0.416
		c-0.146,2.409-0.337,4.815-0.553,7.222c0.117,0.569,0.099,1.119-0.04,1.631c0.43,6.072,0.656,12.158,1.283,18.216
		c0.587,5.669,9.524,5.727,8.931,0C1210.366-2631.309,1210.24-2639.379,1209.41-2647.401z"/>
</g>
<g>
	<g>
		<path d="M1183.063-2640.615c6.274-0.002,12.525-0.07,18.755-0.893c2.701-0.357,5-2.004,5-5c0-2.455-2.291-5.358-5-5
			c-6.229,0.823-12.481,0.891-18.755,0.893C1176.615-2650.613,1176.615-2640.613,1183.063-2640.615L1183.063-2640.615z"/>
	</g>
</g>
<g>
	<g>
		<path d="M990.268-2348.743c2.599,11.628,5.439,23.2,8.038,34.828c0.71,3.177,5.206,2.231,5.402-0.731
			c0.31-4.687,3.603-8.404,5.261-12.664c-1.675,0.219-3.351,0.438-5.026,0.656c2.374,3.54,7.081,4.616,9.376,8.037
			c1.203,1.792,4.568,1.871,5.026-0.656c3.822-21.08-4.608-41.117-12.056-60.403c-1.264-3.271-6.583-1.852-5.304,1.463
			c7.007,18.145,15.662,37.592,12.056,57.478c1.676-0.219,3.351-0.438,5.026-0.656c-2.374-3.539-7.082-4.616-9.376-8.037
			c-1.399-2.087-4.157-1.578-5.026,0.656c-1.926,4.951-5.092,8.612-5.457,14.127c1.801-0.244,3.601-0.487,5.402-0.731
			c-2.599-11.628-5.439-23.2-8.038-34.828C994.798-2353.666,989.496-2352.198,990.268-2348.743L990.268-2348.743z"/>
	</g>
</g>
<g>
	<g>
		<path d="M1021.078-2344.725c1.184,5.842,2.574,11.632,4.019,17.414c0.859,3.439,6.164,1.979,5.304-1.463
			c-1.445-5.782-2.835-11.571-4.019-17.414C1025.677-2349.662,1020.376-2348.188,1021.078-2344.725L1021.078-2344.725z"/>
	</g>
</g>
<g>
	<g>
		<path d="M1030.499-2328.042c-1.198-10.83-2.345-22.013,9.355-27.096c3.246-1.411,0.442-6.147-2.776-4.75
			c-13.569,5.896-13.496,19.035-12.079,31.846C1025.384-2324.557,1030.888-2324.52,1030.499-2328.042L1030.499-2328.042z"/>
	</g>
</g>
<g>
	<g>
		<path d="M1024.46-2333.428c5.17-1.387,9.634-4.032,14.054-6.975c2.936-1.956,0.186-6.722-2.776-4.75
			c-4.028,2.683-8.022,5.156-12.739,6.422C1019.576-2337.812,1021.03-2332.507,1024.46-2333.428L1024.46-2333.428z"/>
	</g>
</g>
<g>
	<g>
		<path d="M1027.749-2325.292c6.445-0.322,12.468-4.716,17.464-8.412c2.817-2.085,0.079-6.862-2.776-4.75
			c-4.04,2.99-9.439,7.399-14.688,7.662C1024.219-2330.615,1024.202-2325.114,1027.749-2325.292L1027.749-2325.292z"/>
	</g>
</g>
<g>
	<g>
		<path d="M1045.092-2364.21c-1.344,10.596,0.076,21.651,4.117,31.541c0.527,1.288,1.856,2.486,3.383,1.92
			c5.146-1.906,9.337-4.958,13.27-8.744c2.559-2.464-1.334-6.349-3.889-3.889c-3.218,3.098-6.622,5.766-10.843,7.33
			c1.127,0.64,2.255,1.28,3.383,1.92c-3.889-9.516-5.214-19.883-3.921-30.078C1051.038-2367.722,1045.532-2367.679,1045.092-2364.21
			L1045.092-2364.21z"/>
	</g>
</g>
<g>
	<g>
		<path d="M1069.227-2370.604c-7.754,5.017-12.406,14.554-7.349,23.188c5.652,9.649,17.344,5.869,24.078-0.113
			c2.657-2.36-1.248-6.235-3.889-3.889c-4.255,3.779-11.431,7.244-15.44,1.226c-3.822-5.738,0.408-12.447,5.376-15.661
			C1074.969-2367.773,1072.215-2372.537,1069.227-2370.604L1069.227-2370.604z"/>
	</g>
</g>
<g>
	<g>
		<path d="M1084.316-2376.315c-4.67,8.578-2.314,30.433,11.325,27.828c7.88-1.506,10.968-10.677,9.103-17.542
			c-2.107-7.761-10.099-13.504-18.053-12.987c-3.521,0.229-3.543,5.729,0,5.5c5.522-0.358,9.801,2.886,12.261,7.653
			c2.195,4.252,0.019,13.153-6.182,12.138c-6.364-1.043-5.902-15.777-3.705-19.814
			C1090.761-2376.655,1086.012-2379.432,1084.316-2376.315L1084.316-2376.315z"/>
	</g>
</g>
<g>
	<g>
		<path d="M1113.553-2357.513c-1.354-10.256-3.851-20.435-4.019-30.811c-1.565,0.648-3.13,1.296-4.694,1.944
			c3.739,3.037,8.513,3.416,12.612,5.789c2.241,1.297,4.441-0.817,4.04-3.106c-0.766-4.366,1.236-7.972,2.68-11.933
			c-1.532,0.404-3.064,0.809-4.596,1.213c11.093,8.978,8.602,28.27,8.571,40.922c-0.009,3.547,5.491,3.546,5.5,0
			c0.035-14.162,2.245-34.754-10.182-44.811c-1.665-1.348-3.845-0.847-4.596,1.213c-1.877,5.152-3.656,9.292-2.68,14.858
			c1.347-1.035,2.693-2.071,4.04-3.106c-3.537-2.047-8.354-2.373-11.5-4.928c-1.756-1.427-4.736-0.655-4.694,1.944
			c0.168,10.392,2.665,20.546,4.019,30.811C1108.51-2354.049,1114.016-2354.004,1113.553-2357.513L1113.553-2357.513z"/>
	</g>
</g>
<g>
	<g>
		<path d="M1137.182-2375.781c0.674,3.841,1.196,7.702,1.681,11.571c0.435,3.471,5.94,3.513,5.5,0
			c-0.546-4.356-1.119-8.709-1.877-13.034C1141.874-2380.732,1136.574-2379.249,1137.182-2375.781L1137.182-2375.781z"/>
	</g>
</g>
<g>
	<g>
		<path d="M1132.263-2392.95c1.341,3.18,2.43,6.438,3.316,9.773c0.91,3.425,6.215,1.97,5.304-1.463
			c-0.886-3.335-1.975-6.593-3.316-9.773c-0.582-1.38-1.795-2.357-3.383-1.92C1132.88-2395.975,1131.68-2394.335,1132.263-2392.95
			L1132.263-2392.95z"/>
	</g>
</g>
<g>
	<g>
		<path d="M1136.227-2391.61c2.365-6.564,7.941-9.899,14.763-10.037c3.542-0.071,3.549-5.571,0-5.5
			c-9.408,0.189-16.854,5.16-20.066,14.074C1129.718-2389.728,1135.034-2388.301,1136.227-2391.61L1136.227-2391.61z"/>
	</g>
</g>
<g>
	<g>
		<path d="M1141.034-2376.682c3.548-0.682,6.959-1.95,10.004-3.908c2.971-1.912,0.216-6.675-2.776-4.75
			c-2.684,1.728-5.563,2.754-8.689,3.355C1136.091-2381.315,1137.569-2376.015,1141.034-2376.682L1141.034-2376.682z"/>
	</g>
</g>
<g>
	<g>
		<path d="M1144.897-2360.927c2.667-2.667,5.021-5.457,7.127-8.594c1.984-2.953-2.783-5.703-4.749-2.775
			c-1.85,2.753-3.926,5.139-6.267,7.48C1138.498-2362.306,1142.387-2358.416,1144.897-2360.927L1144.897-2360.927z"/>
	</g>
</g>
<g>
	<g>
		<path d="M971.536-2364.515c19.556-14.751,40.114-28.41,63.023-37.384c21.916-8.586,45.326-12.427,68.584-15.243
			c19.094-2.312,39.499-4.962,55.745-16.129c13.871-9.534,22.483-24.808,30.673-39.079c1.339-2.333,2.665-4.675,3.991-7.016
			c1.751-3.09-3-5.861-4.749-2.776c-8.602,15.175-17.028,32.289-31.243,43.076c-16.238,12.322-38.138,14.411-57.661,16.82
			c-22.719,2.805-45.357,6.812-66.802,15.043c-22.308,8.562-42.438,21.624-61.526,35.825c-0.939,0.701-1.876,1.405-2.811,2.112
			C965.966-2367.157,968.701-2362.378,971.536-2364.515L971.536-2364.515z"/>
	</g>
</g>
<g>
	<g>
		<path d="M976.54-2265.034c17.121-38.978,63.395-40.983,100.195-43.768c18.778-1.42,37.156-3.311,55.075-9.399
			c21.149-7.186,40.051-19.731,53.17-37.973c4.864-6.764,8.553-14.281,11.528-22.04c1.271-3.317-4.047-4.739-5.304-1.463
			c-8.716,22.738-25.494,39.846-47.193,50.552c-18.207,8.981-37.897,12.354-57.92,14.08c-35.313,3.043-79.959,1.939-104.9,31.771
			c-3.896,4.661-6.962,9.914-9.4,15.465C970.379-2264.595,975.116-2261.793,976.54-2265.034L976.54-2265.034z"/>
	</g>
</g>
<g>
	<g>
		<path d="M1135.827-2384.908c0.915,2.675,2.019,5.281,2.679,8.037c0.254,1.061,1.738,0.582,1.591-0.439
			c-0.356-2.476-1.12-4.842-2.083-7.145c-0.323-0.771-1.746-0.79-1.621,0.22c0.319,2.569,0.624,5.139,1.22,7.662
			c0.214,0.908,1.646,0.709,1.621-0.22c-0.076-2.829-0.887-5.518-1.518-8.258c-0.239-1.038-1.817-0.597-1.591,0.439
			c0.376,1.722,0.932,3.39,1.488,5.062c0.502-0.212,1.005-0.424,1.508-0.636c-0.547-1.101-1.062-2.192-1.405-3.376
			c-0.295-1.021-1.846-0.595-1.591,0.439c0.613,2.483,1.151,4.978,1.458,7.52c0.126,1.043,1.778,1.055,1.65,0
			c-0.325-2.69-0.869-5.329-1.518-7.959c-0.53,0.146-1.061,0.293-1.591,0.439c0.382,1.321,0.96,2.54,1.571,3.769
			c0.417,0.839,1.802,0.249,1.508-0.636c-0.556-1.671-1.111-3.339-1.488-5.062c-0.53,0.146-1.061,0.293-1.591,0.439
			c0.597,2.593,1.387,5.14,1.458,7.818c0.541-0.073,1.081-0.146,1.621-0.22c-0.562-2.38-0.86-4.798-1.161-7.223
			c-0.541,0.073-1.081,0.146-1.621,0.22c0.963,2.303,1.728,4.668,2.083,7.145c0.53-0.146,1.061-0.293,1.591-0.439
			c-0.661-2.755-1.765-5.361-2.679-8.037C1137.076-2386.348,1135.482-2385.918,1135.827-2384.908L1135.827-2384.908z"/>
	</g>
</g>
<g>
	<g>
		<path d="M1137.102-2384.415c0.595,1.191,1.19,2.382,1.786,3.572c0.258,0.515,1.184,0.564,1.425,0c0.396-0.927,0.396-1.691,0-2.618
			c-0.417-0.976-1.838-0.135-1.425,0.832c0.14,0.327,0.14,0.627,0,0.954c0.475,0,0.95,0,1.425,0
			c-0.596-1.191-1.191-2.382-1.786-3.572C1138.051-2386.199,1136.627-2385.363,1137.102-2384.415L1137.102-2384.415z"/>
	</g>
</g>
<g>
	<g>
		<path d="M1137.696-2384.415c0.52,1.075,0.819,2.222,1.108,3.376c0.502-0.212,1.005-0.424,1.508-0.636
			c-0.364-0.604-0.248-1.258-0.513-1.887c-0.404,0.311-0.808,0.621-1.212,0.932c0.592,0.297,1.136,0.604,1.619,1.062
			c0.772,0.731,1.941-0.434,1.167-1.166c-0.585-0.555-1.235-0.961-1.953-1.319c-0.565-0.283-1.521,0.199-1.212,0.932
			c0.123,0.291,0.138,0.57,0.179,0.881c0.068,0.513,0.232,0.956,0.5,1.398c0.488,0.808,1.736,0.274,1.508-0.636
			c-0.325-1.297-0.691-2.561-1.274-3.769C1138.658-2386.205,1137.236-2385.368,1137.696-2384.415L1137.696-2384.415z"/>
	</g>
</g>
<g>
	<g>
		<path d="M1190.756-1924.916c6.591,1.507,13.358,1.517,20.083,1.519c6.449,0.002,6.449-9.998,0-10
			c-5.813-0.002-11.727,0.142-17.425-1.161C1187.137-1935.994,1184.471-1926.353,1190.756-1924.916L1190.756-1924.916z"/>
	</g>
</g>
<g>
	<g>
		<path d="M-4.339-1963.429c127.12,13.394,255.04,1.884,382.17-5.169c89.49-4.965,179.176-6.815,268.797-6.831
			c6.449-0.001,6.449-10.001,0-10c-65.556,0.012-131.107,1.17-196.621,3.524c-63.481,2.28-126.841,6.752-190.263,10.217
			c-87.914,4.803-176.358,7.502-264.084-1.741C-10.75-1974.104-10.684-1964.098-4.339-1963.429L-4.339-1963.429z"/>
	</g>
</g>
<g>
	<g>
		<path d="M1219.6-1994.428c62.349,8.077,125.422,6.653,188.102,4.444c63.634-2.243,127.166-3.458,190.843-3.585
			c93.675-0.188,187.348,0.635,281.022,0.641c6.448,0,6.448-10,0-10c-66.067-0.004-132.134-0.404-198.2-0.585
			c-65.23-0.179-130.538-0.679-195.755,0.885c-88.592,2.124-177.737,9.636-266.012-1.8
			C1213.218-2005.255,1213.298-1995.244,1219.6-1994.428L1219.6-1994.428z"/>
	</g>
</g>
<g>
	<g>
		<path d="M666.127-1429.464c11.958,1.417,23.972,1.499,35.998,1.5c6.449,0.001,6.449-9.999,0-10
			c-12.026-0.001-24.04-0.083-35.998-1.5C659.731-1440.222,659.804-1430.213,666.127-1429.464L666.127-1429.464z"/>
	</g>
</g>
<g>
	<g>
		<path d="M700.125-1432.964c0,65.886-0.011,131.773-1.048,197.653c-0.508,32.281-0.953,64.618-2.533,96.868
			c-1.491,30.422-4.27,60.793-3.676,91.281c0.301,15.421,1.656,30.828,4.435,46.005c1.16,6.337,10.797,3.645,9.643-2.658
			c-5.5-30.033-4.583-60.811-2.942-91.16c1.675-30.991,3.356-61.9,4.124-92.934c1.629-65.916,1.92-131.856,1.983-197.789
			c0.015-15.756,0.015-31.511,0.015-47.267C710.125-1439.412,700.125-1439.412,700.125-1432.964L700.125-1432.964z"/>
	</g>
</g>
<g>
	<g>
		<path d="M685.126-1471.962c1.309,10.972,1.498,21.962,1.5,32.998c0.001,6.448,10.001,6.448,10,0
			c-0.001-11.036-0.191-22.026-1.5-32.998C694.372-1478.283,684.363-1478.357,685.126-1471.962L685.126-1471.962z"/>
	</g>
</g>
<g>
	<g>
		<path d="M716.624-1470.462c-0.014,70.496-1.534,141.088,3,211.489c0.412,6.402,10.415,6.442,10,0
			c-4.534-70.401-3.014-140.993-3-211.489C726.625-1476.91,716.625-1476.91,716.624-1470.462L716.624-1470.462z"/>
	</g>
</g>
<g>
	<g>
		<path d="M711.125-1247.973c132.47,0.006,264.835,5.761,397.234,9.343c65.203,1.764,130.419,3.836,195.626,1.561
			c65.881-2.298,131.761-4.632,197.614-7.623c19.155-0.87,38.308-1.804,57.456-2.801c6.415-0.334,6.447-10.336,0-10
			c-65.855,3.43-131.75,6.026-197.651,8.397c-32.675,1.177-65.377,2.828-98.073,3.184c-32.432,0.353-64.856-0.656-97.278-1.327
			c-132.438-2.74-264.791-8.885-397.258-10.401c-19.223-0.22-38.446-0.331-57.67-0.332
			C704.676-1257.973,704.676-1247.973,711.125-1247.973L711.125-1247.973z"/>
	</g>
</g>
<g>
	<g>
		<path d="M1573.811-1247.968c73.82-4.998,147.749-8.996,221.76-9.005c6.448-0.001,6.449-10.001,0-10
			c-74.011,0.009-147.939,4.007-221.76,9.005C1567.412-1257.534,1567.37-1247.531,1573.811-1247.968L1573.811-1247.968z"/>
	</g>
</g>
<g>
	<g>
		<path d="M1528.584-1244.973c12.529-0.835,25.059-1.672,37.589-2.495c6.4-0.421,6.441-10.423,0-10
			c-12.53,0.823-25.06,1.66-37.589,2.495C1522.185-1254.546,1522.143-1244.543,1528.584-1244.973L1528.584-1244.973z"/>
	</g>
</g>
<g>
	<g>
		<path d="M1636.639-1545.325c15.972-11.962,24.619-29.95,29.639-48.86c5.905-22.25,7.025-46.185,0.644-68.442
			c-5.562-19.399-18.592-35.619-34.423-47.713c-18.051-13.79-40.938-19.468-63.142-21.779c-6.412-0.667-6.348,9.339,0,10
			c19.614,2.042,38.846,7.254,55.313,18.408c14.841,10.053,26.521,25.238,32.146,42.245c6.568,19.857,5.21,41.653,0.535,61.743
			c-3.969,17.054-11.33,34.956-25.76,45.764C1626.496-1550.144,1631.472-1541.455,1636.639-1545.325L1636.639-1545.325z"/>
	</g>
</g>
<g>
	<g>
		<path d="M1493.922-1704.961c-13.35,17.902-21.47,39.469-22.95,61.766c-1.567,23.611,6.802,45.482,22.901,62.615
			c17.282,18.39,41.466,31.31,64.996,39.729c24.383,8.725,53.421,11.322,76.087-3.3c5.397-3.482,0.39-12.142-5.047-8.635
			c-20.687,13.345-46.245,9.917-68.382,2.292c-21.622-7.447-43.208-19.774-59.439-35.979c-31.521-31.471-24.341-80.169,0.469-113.44
			C1506.416-1705.09,1497.729-1710.066,1493.922-1704.961L1493.922-1704.961z"/>
	</g>
</g>
<g>
	<g>
		<path d="M1629.709-1545.168c11.185,12.754,16.62,28.918,20.104,45.254c4.188,19.643,5.389,39.832,5.812,59.865
			c0.791,37.501-0.562,75.961-14.658,111.215c-2.396,5.993,7.279,8.569,9.643,2.658c14.887-37.23,15.893-78.219,14.927-117.781
			c-0.493-20.191-2.205-40.444-6.423-60.223c-3.736-17.521-10.415-34.469-22.334-48.059
			C1632.52-1557.096,1625.476-1549.994,1629.709-1545.168L1629.709-1545.168z"/>
	</g>
</g>
<g>
	<g>
		<path d="M1449.152-1439.969c30.446-9.618,62.031-15.612,93.972-16.733c5.144-0.181,5.161-8.181,0-8
			c-32.626,1.146-64.995,7.193-96.099,17.019C1442.125-1446.135,1444.219-1438.411,1449.152-1439.969L1449.152-1439.969z"/>
	</g>
</g>
<g>
	<g>
		<path d="M1445.802-1446.166c2.738-23.01-7.506-45.539-15.924-66.346c-1.909-4.718-9.65-2.658-7.715,2.127
			c8.153,20.151,18.29,41.934,15.639,64.219C1437.193-1441.05,1445.2-1441.108,1445.802-1446.166L1445.802-1446.166z"/>
	</g>
</g>
<g>
	<g>
		<path d="M1425.993-1510.187c9.22-5.161,17.198,15.271,19.583,20.962c4.715,11.254,8.351,23.23,10.72,35.205
			c1.001,5.059,8.712,2.911,7.715-2.127c-2.844-14.368-7.46-28.71-13.695-41.957c-4.827-10.253-14.908-26.521-28.359-18.991
			C1417.455-1514.574,1421.487-1507.664,1425.993-1510.187L1425.993-1510.187z"/>
	</g>
</g>
<g>
	<g>
		<path d="M1540.114-1455.252c17.539,32.559,40.54,61.751,63.035,90.959c3.101,4.026,10.056,0.051,6.908-4.037
			c-22.495-29.209-45.496-58.401-63.035-90.959C1544.575-1463.832,1537.668-1459.793,1540.114-1455.252L1540.114-1455.252z"/>
	</g>
</g>
<g>
	<g>
		<path d="M1517.065-1347.541c1.315,1.445,2.639,2.885,3.969,4.316c1.483,1.599,4.158,1.499,5.656,0
			c1.584-1.584,1.482-4.061,0-5.656c-1.329-1.433-2.652-2.871-3.969-4.316c-1.468-1.613-4.169-1.487-5.656,0
			C1515.471-1351.603,1515.599-1349.151,1517.065-1347.541L1517.065-1347.541z"/>
	</g>
</g>
<g>
	<g>
		<path d="M1439.537-1439.927c25.812,29.972,49.711,61.551,76.212,90.935c3.462,3.839,9.102-1.837,5.656-5.656
			c-26.5-29.384-50.399-60.964-76.212-90.935C1441.821-1449.499,1436.188-1443.813,1439.537-1439.927L1439.537-1439.927z"/>
	</g>
</g>
<g>
	<g>
		<path d="M1537.18-1336.924c22.408-6.473,45.26-11.277,67.613-17.949c4.931-1.472,2.829-9.193-2.127-7.715
			c-22.354,6.672-45.205,11.478-67.613,17.949C1530.106-1343.21,1532.212-1335.489,1537.18-1336.924L1537.18-1336.924z"/>
	</g>
</g>
<g>
	<g>
		<path d="M1651.821-1258.671c11.614-64.088,19.635-128.883,35.068-192.233c2.385-9.79,4.489-19.659,7.067-29.4
			c1.294-4.89,3.088-11.23,5.941-14.721c2.66-3.253,6.047-4.43,10.667-4.965c8.032-0.933,16.315-0.161,24.345,0.392
			c20.739,1.426,41.43,4.303,62.09,6.599c6.404,0.712,6.336-9.296,0-10c-26.233-2.915-52.784-7.345-79.234-7.344
			c-11.65,0.001-22.708,2.498-28.501,13.537c-3.163,6.026-4.762,12.863-6.366,19.427c-2.857,11.692-5.627,23.419-8.343,35.146
			c-7.324,31.623-12.851,63.635-18.117,95.654c-4.677,28.43-9.122,56.898-14.26,85.251
			C1641.036-1255.025,1650.673-1252.332,1651.821-1258.671L1651.821-1258.671z"/>
	</g>
</g>
<g>
	<g>
		<path d="M1631.179-1534.671c7.379,43.477,3.285,90.828-12.606,132.092c-6.196,16.09-15.9,31.528-30.961,40.562
			c-19.562,11.733-44.838,9.169-66.654,9.025c-6.45-0.043-6.446,9.957,0,10c23.689,0.156,48.965,1.895,70.541-9.729
			c16.901-9.106,27.979-26.149,35.181-43.418c8.188-19.631,12.828-40.899,15.517-61.936c3.373-26.391,3.08-53.009-1.374-79.254
			C1639.744-1543.677,1630.108-1540.977,1631.179-1534.671L1631.179-1534.671z"/>
	</g>
</g>
<g>
	<g>
		<path d="M1502.317-1698.977c16.63-21.634,44.802-26.087,70.354-22.202c6.306,0.959,9.017-8.676,2.658-9.643
			c-30.565-4.647-61.939,1.16-81.646,26.798C1489.752-1698.91,1498.445-1693.939,1502.317-1698.977L1502.317-1698.977z"/>
	</g>
</g>
<g>
	<g>
		<path d="M1603.329-1354.179c4.212-1.474,7.973-4.438,8.992-8.992c0.595-2.657-0.771-5.402-3.492-6.15
			c-2.529-0.696-5.556,0.832-6.15,3.492c-0.037,0.185-0.082,0.366-0.136,0.547c-0.271,0.995,0.535-1.084,0.09-0.154
			c-0.122,0.255-0.277,0.492-0.432,0.728c0.76-1.163,0.319-0.407,0.054-0.119c-0.202,0.219-0.43,0.413-0.655,0.606
			c1.062-0.91,0.289-0.249,0-0.066c-0.275,0.173-0.566,0.317-0.857,0.462c1.223-0.607,0.227-0.1-0.071,0.005
			c-2.57,0.899-4.252,3.388-3.492,6.15C1597.864-1355.179,1600.755-1353.277,1603.329-1354.179L1603.329-1354.179z"/>
	</g>
</g>
<g>
	<g>
		<path d="M1461-1447.5c5.159,0,5.159-8,0-8S1455.841-1447.5,1461-1447.5L1461-1447.5z"/>
	</g>
</g>
<g>
	<g>
		<path d="M1460.5-1447c5.159,0,5.159-8,0-8S1455.341-1447,1460.5-1447L1460.5-1447z"/>
	</g>
</g>
<g>
	<g>
		<path d="M1537.5-1346.5c-4.162,0.391-8.266,0.627-11.172-2.828c-3.324-3.953-8.953,1.736-5.656,5.656
			c4.239,5.042,10.647,5.752,16.828,5.172C1542.591-1338.979,1542.637-1346.982,1537.5-1346.5L1537.5-1346.5z"/>
	</g>
</g>
<g>
	<g>
		<path d="M-23.666-982.662c59.048,8.775,118.699,6.895,178.033,2.352c61.03-4.674,121.879-10.568,183.001-14.129
			c124.323-7.243,248.809-8.569,373.174-2.049c125.559,6.582,251.419,12.496,377.096,5.472
			c62.328-3.484,124.531-8.185,186.687-13.978c61.804-5.759,123.568-13.125,185.721-12.785c35.891,0.195,71.749,2.1,107.618,3.151
			c35.656,1.044,71.364,0.829,107.033,1.034c69.448,0.401,139.583-0.559,207.699-15.566c6.297-1.387,3.626-11.027-2.658-9.643
			c-57.979,12.774-117.491,15.019-176.666,15.256c-59.94,0.24-119.887-0.421-179.786-2.61c-31.021-1.134-62.053-2.058-93.097-1.408
			c-31.052,0.649-61.979,3.816-92.887,6.666c-61.943,5.71-123.839,11.971-185.922,15.996c-62.563,4.057-125.054,7.141-187.766,7.101
			c-62.958-0.041-125.895-2.437-188.773-5.433c-62.305-2.968-124.479-7.143-186.877-7.453
			c-62.382-0.311-124.717,0.347-187.046,3.019c-70.278,3.014-140.381,8.02-210.434,14.31
			c-70.217,6.305-141.403,11.472-211.493,1.056C-27.313-993.242-30.026-983.607-23.666-982.662L-23.666-982.662z"/>
	</g>
</g>
<g>
	<g>
		<path d="M1096.436-1245.149c25.546-10.175,41.574-33.712,54.688-56.754c15.176-26.666,26.444-55.466,38.916-83.441
			c12.483-28.002,25.558-55.989,41.779-82.058c15.129-24.312,36.961-44.037,66.621-46.564c27.11-2.311,52.033,11.943,70.772,30.337
			c20.11,19.739,33.349,44.866,46.718,69.34c14.75,27,30.408,53.547,49.633,77.647c15.828,19.843,35.156,38.016,59.259,47.052
			c20.476,7.677,42.495,5.034,61.771-4.632c9.07-4.548,17.488-10.768,24.954-17.61c6.274-5.751,14.724-15.686,24.284-13.401
			c6.269,1.498,8.929-8.145,2.658-9.643c-11.923-2.849-21.641,4.662-29.985,12.239c-9.606,8.724-19.437,16.449-31.336,21.876
			c-25.502,11.632-52.218,3.918-73.749-12.012c-22.599-16.721-39.503-41.022-54.388-64.467
			c-16.566-26.095-29.709-54.175-46.32-80.221c-13.525-21.206-30.75-40.706-52.584-53.58c-23.731-13.992-52.327-17.234-78.001-6.668
			c-26.143,10.76-42.57,33.722-56.166,57.43c-15.404,26.858-28.107,55.17-40.574,83.477c-10.617,24.108-20.751,48.511-33.801,71.44
			c-11.314,19.88-25.662,41.749-47.807,50.57C1087.862-1252.436,1090.439-1242.761,1096.436-1245.149L1096.436-1245.149z"/>
	</g>
</g>
<g>
	<g>
		<path d="M1656.005-1323.286c1.14-5.092,1.967-10.238,2.816-15.385c0.443-2.687-0.66-5.372-3.492-6.15
			c-2.416-0.665-5.706,0.8-6.15,3.492c-0.85,5.146-1.677,10.293-2.816,15.385
			C1644.956-1319.663,1654.597-1316.994,1656.005-1323.286L1656.005-1323.286z"/>
	</g>
</g>
<g>
	<g>
		<path d="M1098.671-1256.821c-7.941,1.983-15.879,3.909-24,5c-5.563,0.747-4.242,10.57,1.329,9.821
			c8.579-1.152,16.939-3.083,25.329-5.179C1107.583-1248.74,1104.929-1258.385,1098.671-1256.821L1098.671-1256.821z"/>
	</g>
</g>
<g>
	<g>
		<path d="M1567-1248c6.449,0,6.449-10,0-10S1560.551-1248,1567-1248L1567-1248z"/>
	</g>
</g>
<g>
	<g>
		<path d="M1571.523-1247.683c-1.108,0.522-0.04,0.03,0.204-0.049c0.431-0.139,0.877-0.222,1.321-0.299
			c-1.552,0.269-0.283,0.062,0.092,0.043c0.286-0.014,0.573-0.013,0.859-0.013c2.726-0.003,5-2.272,5-5c0-2.724-2.274-5.003-5-5
			c-2.676,0.003-5.107,0.543-7.523,1.683c-2.465,1.162-3.079,4.647-1.794,6.841
			C1566.149-1246.973,1569.059-1246.521,1571.523-1247.683L1571.523-1247.683z"/>
	</g>
</g>
<g>
	<g>
		<path d="M1637.329-1323.179c9.567-1.771,12.167,15.856,11.671,22.179c-0.505,6.434,9.499,6.385,10,0
			c1.11-14.149-7.084-35.013-24.329-31.821C1628.335-1331.649,1631.026-1322.013,1637.329-1323.179L1637.329-1323.179z"/>
	</g>
</g>
<g>
	<g>
		<path d="M1628.329-1323.179c12.08-1.915,16.189,11.031,17.85,20.508c1.111,6.344,10.747,3.646,9.643-2.658
			c-2.798-15.974-12.097-30.354-30.15-27.492C1619.315-1331.814,1622.022-1322.179,1628.329-1323.179L1628.329-1323.179z"/>
	</g>
</g>
<g>
	<g>
		<path d="M1641.317-1537.523c-2-4-4-8-6-12c-1.218-2.437-4.606-3.103-6.841-1.794c-2.464,1.443-3.013,4.403-1.794,6.841
			c2,4,4,8,6,12c1.218,2.437,4.606,3.103,6.841,1.794C1641.987-1532.126,1642.536-1535.086,1641.317-1537.523L1641.317-1537.523z"/>
	</g>
</g>
<g>
	<g>
		<path d="M691-1467c9.676-0.064,19.323-0.942,29-1c6.447-0.039,6.45-10.039,0-10c-9.677,0.058-19.324,0.936-29,1
			C684.554-1476.957,684.549-1466.957,691-1467L691-1467z"/>
	</g>
</g>
<g>
	<g>
		<path d="M153.814-773.808c65.915,0.492,131.813-1.329,197.693-3.249c32.901-0.959,65.803-1.936,98.71-2.658
			c32.077-0.706,64.425-1.397,96.455,0.791c1.924,0.131,3.845,0.29,5.767,0.45c5.144,0.428,5.103-7.575,0-8
			c-31.946-2.658-64.29-2.029-96.313-1.368c-32.9,0.68-65.794,1.651-98.687,2.611c-65.886,1.925-131.787,3.816-197.708,3.463
			c-1.972-0.011-3.944-0.025-5.916-0.04C148.653-781.846,148.657-773.846,153.814-773.808L153.814-773.808z"/>
	</g>
</g>
<g>
	<g>
		<path d="M140.417-748.903c4.603,79.761,12.522,159.376,12.868,239.331c0.022,5.158,8.022,5.16,8,0
			c-0.346-79.955-8.265-159.57-12.868-239.331C148.121-754.031,140.12-754.06,140.417-748.903L140.417-748.903z"/>
	</g>
</g>
<g>
	<g>
		<path d="M555.107-770.174c10.545,86.02,5.908,172.776,5.32,259.173c-0.035,5.16,7.965,5.157,8,0
			c0.588-86.396,5.225-173.153-5.32-259.173C562.488-775.227,554.48-775.287,555.107-770.174L555.107-770.174z"/>
	</g>
</g>
<g>
	<g>
		<path d="M155.856-504.144c31.054,4.065,62.351,0.394,93.504,0.019c16.405-0.198,32.961,1.304,49.34,2.179
			c16.557,0.885,33.112,1.802,49.675,2.566c33.093,1.527,66.238,2.325,99.351,0.955c16.133-0.667,32.195-1.845,48.346-2.187
			c15.902-0.335,31.808-0.713,47.62-2.575c5.393-0.636,10.755-1.493,16.085-2.528c5.061-0.984,2.913-8.694-2.127-7.715
			c-31.547,6.133-64.081,4.217-96.014,6.272c-33.07,2.13-66.258,1.65-99.351,0.37c-33.134-1.281-66.225-3.468-99.351-4.941
			c-31.426-1.398-62.811,2.916-94.244,0.881c-4.292-0.277-8.569-0.737-12.833-1.296
			C150.752-512.812,150.816-504.804,155.856-504.144L155.856-504.144z"/>
	</g>
</g>
<g>
	<g>
		<path d="M303.521-648.189c1.395,30.715,2.733,61.439,2.762,92.191c0.002,2.579,4.002,2.58,4,0
			c-0.029-30.752-1.368-61.477-2.762-92.191C307.404-650.758,303.403-650.77,303.521-648.189L303.521-648.189z"/>
	</g>
</g>
<g>
	<g>
		<path d="M306.716-650.656c20.037,1.87,40.08-0.404,60.138-0.484c2.579-0.01,2.58-4.01,0-4c-20.058,0.08-40.101,2.354-60.138,0.484
			C304.147-654.896,304.17-650.894,306.716-650.656L306.716-650.656z"/>
	</g>
</g>
<g>
	<g>
		<path d="M364.667-651.812c0.055,31.355,2.612,62.645,2.667,94c0.004,2.579,4.004,2.58,4,0c-0.055-31.355-2.612-62.645-2.667-94
			C368.662-654.392,364.662-654.393,364.667-651.812L364.667-651.812z"/>
	</g>
</g>
<g>
	<g>
		<path d="M365.865-649.884c13.898-3.548,25.998-11.181,38.43-18.044c2.258-1.246,0.241-4.701-2.019-3.453
			c-12.131,6.696-23.91,14.178-37.475,17.64C362.304-653.104,363.364-649.246,365.865-649.884L365.865-649.884z"/>
	</g>
</g>
<g>
	<g>
		<path d="M407.991-668.273c1.813,1.386,2.108,5.044,2.437,7.08c0.646,4.004,0.683,8.137,0.719,12.182
			c0.082,9.044-0.534,18.089-1.086,27.111c-0.578,9.425-0.259,18.767-0.05,28.21c0.363,16.401,0.645,32.806,0.656,49.212
			c0.002,2.579,4.002,2.58,4,0c-0.02-27.077-2.01-54.293-0.367-81.326c0.576-9.479,1.101-18.992,0.723-28.49
			c-0.216-5.443-0.204-13.758-5.013-17.432C407.959-673.294,405.97-669.816,407.991-668.273L407.991-668.273z"/>
	</g>
</g>
<g>
	<g>
		<path d="M411.091-547.347c-13.173-2.241-25.114-8.434-37.893-12.061c-2.487-0.706-3.541,3.154-1.063,3.857
			c12.779,3.627,24.72,9.819,37.893,12.061C412.55-543.061,413.63-546.914,411.091-547.347L411.091-547.347z"/>
	</g>
</g>
<g>
	<g>
		<path d="M171-550.43c64.807-6.863,130.067,2.718,194.856-4.285c2.536-0.274,2.563-4.277,0-4
			c-64.789,7.003-130.049-2.578-194.856,4.285C168.462-554.161,168.436-550.158,171-550.43L171-550.43z"/>
	</g>
</g>
<g>
	<g>
		<path d="M414.427-554.715c46.287-0.243,92.516,2.675,138.797,2.85c2.58,0.01,2.579-3.99,0-4
			c-46.281-0.175-92.511-3.093-138.797-2.85C411.849-558.701,411.847-554.701,414.427-554.715L414.427-554.715z"/>
	</g>
</g>
<g>
	<g>
		<path d="M351.856-498.144c0,11.904,0,23.81,0,35.714c0,5.159,8,5.159,8,0c0-11.904,0-23.81,0-35.714
			C359.856-503.303,351.856-503.303,351.856-498.144L351.856-498.144z"/>
	</g>
</g>
<g>
	<g>
		<path d="M366.142-496.715c0.06,11.558,1.349,23.277-1.286,34.65c-1.163,5.021,6.55,7.152,7.714,2.127
			c2.81-12.129,1.636-24.454,1.572-36.777C374.115-501.872,366.115-501.875,366.142-496.715L366.142-496.715z"/>
	</g>
</g>
<g>
	<g>
		<path d="M329.31-443.269c2.1-4.646,7.334-7.068,11.848-8.788c6.796-2.591,14.109-3.843,21.338-4.348
			c9.366-0.655,30.297-1.01,33.789,10.753c1.464,4.934,9.186,2.831,7.714-2.127c-4.619-15.562-26.062-17.205-39.426-16.735
			c-8.925,0.313-18.023,1.877-26.381,5.062c-6.067,2.312-12.977,5.92-15.79,12.146C320.295-442.645,327.188-438.573,329.31-443.269
			L329.31-443.269z"/>
	</g>
</g>
<g>
	<g>
		<path d="M325.856-441.858c23.786,2.649,47.594,0.078,71.429,0c5.158-0.017,5.16-8.017,0-8c-23.834,0.078-47.643,2.649-71.429,0
			C320.733-450.429,320.788-442.423,325.856-441.858L325.856-441.858z"/>
	</g>
</g>
<g>
	<g>
		<path d="M101.476-427.273c6.681,1.902,13.486,2.047,20.378,2.351c8.1,0.356,16.08,0.701,24.201,0.464
			c15.994-0.468,31.937-1.98,47.945-2.041c32.894-0.125,65.741-0.783,98.644-0.324c32.93,0.458,65.853,1.299,98.779,1.91
			c32.912,0.611,65.819,0.314,98.733-0.028c55.185-0.575,110.367-1.502,165.556-1.416c5.804,0.009,5.803-8.991,0-9
			c-65.718-0.103-131.427,1.222-197.142,1.699c-65.871,0.479-131.692-2.124-197.558-2.479c-26.754-0.145-53.581-0.104-80.318,0.941
			c-12.832,0.502-25.636,1.534-38.477,1.839c-6.235,0.147-12.435,0.03-18.648-0.465c-6.677-0.533-13.188-0.275-19.702-2.129
			C98.275-437.544,95.904-428.859,101.476-427.273L101.476-427.273z"/>
	</g>
</g>
<g>
	<g>
		<path d="M650.713-458.001c0,7.143,0,14.286,0,21.429c0,6.449,10,6.449,10,0c0-7.143,0-14.286,0-21.429
			C660.713-464.449,650.713-464.449,650.713-458.001L650.713-458.001z"/>
	</g>
</g>
<g>
	<g>
		<path d="M651.713-429.43c10.916,81.503,8.442,163.904,13.694,245.809c0.329,5.122,8.331,5.154,8,0
			c-5.252-81.904-2.778-164.306-13.694-245.809C659.039-434.465,651.03-434.531,651.713-429.43L651.713-429.43z"/>
	</g>
</g>
<g>
	<g>
		<path d="M106.616-334.076c131.29,14.96,264.078,11.935,395.96,9.947c51.998-0.783,103.995-1.548,155.994-2.229
			c5.799-0.076,5.807-9.076,0-9c-131.732,1.728-263.671,5.938-395.402,2.581c-52.295-1.333-104.565-4.375-156.552-10.299
			C100.855-343.732,100.918-334.726,106.616-334.076L106.616-334.076z"/>
	</g>
</g>
<g>
	<g>
		<path d="M140.785-329.43c-2.106,45.373,4.233,90.491,5.862,135.768c0.162,4.5,7.163,4.516,7,0
			c-1.628-45.276-7.968-90.395-5.862-135.768C147.994-333.944,140.993-333.924,140.785-329.43L140.785-329.43z"/>
	</g>
</g>
<g>
	<g>
		<path d="M100.516-333c0.467,45.036,0.497,90.078,1.551,135.106c0.151,6.438,10.151,6.452,10,0
			c-1.055-45.028-1.084-90.07-1.551-135.106C110.449-339.445,100.449-339.451,100.516-333L100.516-333z"/>
	</g>
</g>
<g>
	<g>
		<path d="M93.53-415.295c1.821,21.436,3.291,42.898,3.969,64.403c0.203,6.433,10.204,6.452,10,0
			c-0.678-21.505-2.148-42.968-3.969-64.403C102.988-421.671,92.984-421.724,93.53-415.295L93.53-415.295z"/>
	</g>
</g>
<g>
	<g>
		<path d="M616.499-329.43c3.019,48.513,6.97,96.971,12.403,145.276c0.499,4.434,7.504,4.481,7,0
			c-5.433-48.306-9.384-96.764-12.403-145.276C623.22-333.913,616.218-333.939,616.499-329.43L616.499-329.43z"/>
	</g>
</g>
<g>
	<g>
		<path d="M175.999-329.43c-3.205,29.383-18.265,55.918-28.428,83.223c-1.804,4.846,5.931,6.917,7.714,2.127
			c10.473-28.137,25.412-55.072,28.714-85.35C184.558-334.555,176.552-334.501,175.999-329.43L175.999-329.43z"/>
	</g>
</g>
<g>
	<g>
		<path d="M152.856-238.144c32.822,4.29,65.409-0.78,98.249-1.519c33.021-0.744,66.05-1.049,99.079-0.967
			c66.194,0.166,132.364,2.406,198.549,3.342c25.183,0.356,50.367,0.566,75.552,0.572c2.58,0,2.58-4,0-4
			c-66.279-0.016-132.542-1.533-198.802-2.991c-33.021-0.727-66.05-1.016-99.078-0.917c-32.95,0.1-66.021,0.003-98.906,2.213
			c-24.872,1.67-49.813,3.512-74.643,0.267C150.304-242.478,150.336-238.473,152.856-238.144L152.856-238.144z"/>
	</g>
</g>
<g>
	<g>
		<path d="M629.57-246.207c-9.14-31.24-27.552-58.511-43.26-86.67c-2.513-4.506-9.424-0.473-6.908,4.037
			c15.363,27.541,33.515,54.207,42.454,84.76C623.301-239.14,631.022-241.244,629.57-246.207L629.57-246.207z"/>
	</g>
</g>
<g>
	<g>
		<path d="M194.392-318.37c-4.192,18.118-8.666,36.168-12.857,54.285c-0.871,3.766,4.914,5.364,5.786,1.596
			c4.191-18.118,8.665-36.168,12.857-54.285C201.049-320.54,195.264-322.139,194.392-318.37L194.392-318.37z"/>
	</g>
</g>
<g>
	<g>
		<path d="M197.285-313.144c95.272,0.039,190.442,5.675,285.714,5.714c3.869,0.002,3.869-5.998,0-6
			c-95.272-0.039-190.442-5.675-285.714-5.714C193.416-319.146,193.416-313.146,197.285-313.144L197.285-313.144z"/>
	</g>
</g>
<g>
	<g>
		<path d="M482.856-310.43c-0.053,17.078-1.554,34.01-5.607,50.631c-0.917,3.759,4.87,5.354,5.786,1.596
			c4.176-17.125,5.766-34.627,5.821-52.227C488.868-314.3,482.868-314.299,482.856-310.43L482.856-310.43z"/>
	</g>
</g>
<g>
	<g>
		<path d="M480.142-260.572c-98.147-0.048-196.138-7.095-294.286-7.143c-3.869-0.002-3.869,5.998,0,6
			c98.147,0.048,196.138,7.095,294.286,7.143C484.011-254.57,484.011-260.57,480.142-260.572L480.142-260.572z"/>
	</g>
</g>
<g>
	<g>
		<path d="M195.856-301.715c93.926,10.033,188.543,8.581,282.857,8.571c3.869-0.001,3.869-6.001,0-6
			c-94.314,0.01-188.931,1.462-282.857-8.571C192.011-308.126,192.05-302.121,195.856-301.715L195.856-301.715z"/>
	</g>
</g>
<g>
	<g>
		<path d="M192.999-287.43c94.799,2.912,189.398,11.369,284.286,11.429c3.869,0.003,3.869-5.997,0-6
			c-94.888-0.06-189.487-8.517-284.286-11.429C189.127-293.549,189.139-287.549,192.999-287.43L192.999-287.43z"/>
	</g>
</g>
<g>
	<g>
		<path d="M190.142-276.001c46.919,4.851,94.136,3.526,141.217,4.806c46.826,1.272,93.315,7.967,140.212,8.052
			c3.87,0.007,3.869-5.993,0-6c-46.895-0.085-93.39-6.704-140.212-8.052c-47.086-1.355-94.288,0.046-141.217-4.806
			C186.294-282.398,186.333-276.395,190.142-276.001L190.142-276.001z"/>
	</g>
</g>
<g>
	<g>
		<path d="M221.534-314.085c-3.054,15.656-10.602,29.752-18.269,43.569c-1.879,3.387,3.304,6.412,5.181,3.029
			c7.9-14.238,15.727-28.873,18.874-45.003C228.057-316.269,222.275-317.88,221.534-314.085L221.534-314.085z"/>
	</g>
</g>
<g>
	<g>
		<path d="M248.677-312.656c-4.026,13.603-6.894,27.65-12.555,40.713c-1.522,3.512,3.646,6.57,5.181,3.027
			c5.881-13.57,8.977-28.013,13.16-42.145C255.564-314.78,249.773-316.357,248.677-312.656L248.677-312.656z"/>
	</g>
</g>
<g>
	<g>
		<path d="M277.142-313.287c-1.42,17.009-6.41,33.326-11.743,49.454c-1.218,3.685,4.577,5.251,5.786,1.596
			c5.511-16.668,10.489-33.479,11.957-51.05C283.464-317.145,277.461-317.114,277.142-313.287L277.142-313.287z"/>
	</g>
</g>
<g>
	<g>
		<path d="M301-311c1.879,16.076-2.697,32.49-8.893,47.202c-1.501,3.564,4.308,5.104,5.786,1.596
			c6.373-15.134,11.041-32.26,9.107-48.798C306.556-314.795,300.551-314.839,301-311L301-311z"/>
	</g>
</g>
<g>
	<g>
		<path d="M331.107-310.798c-5.097,15.448-9.056,31.228-13,47c-0.938,3.755,4.848,5.348,5.786,1.596
			c3.944-15.773,7.902-31.552,13-47C338.109-312.888,332.313-314.454,331.107-310.798L331.107-310.798z"/>
	</g>
</g>
<g>
	<g>
		<path d="M356-312c-0.28,16.52-7.688,31.824-12.893,47.202c-1.244,3.676,4.553,5.239,5.786,1.596
			C354.29-279.151,361.71-294.865,362-312C362.065-315.871,356.065-315.865,356-312L356-312z"/>
	</g>
</g>
<g>
	<g>
		<path d="M381-308c-0.232,15.355-5.784,29.921-10.893,44.202c-1.306,3.652,4.493,5.211,5.786,1.596
			c5.3-14.818,10.866-29.87,11.107-45.798C387.059-311.871,381.059-311.865,381-308L381-308z"/>
	</g>
</g>
<g>
	<g>
		<path d="M403.107-310.798c-2.965,15.386-7.751,30.261-13,45c-1.301,3.655,4.498,5.213,5.786,1.596
			c5.248-14.739,10.035-29.614,13-45C409.621-312.982,403.839-314.595,403.107-310.798L403.107-310.798z"/>
	</g>
</g>
<g>
	<g>
		<path d="M422-308c-1.099,15.308-3.989,30.376-7.893,45.202c-0.986,3.746,4.802,5.334,5.786,1.596
			c4.039-15.342,6.97-30.962,8.107-46.798C428.277-311.863,422.275-311.836,422-308L422-308z"/>
	</g>
</g>
<g>
	<g>
		<path d="M446-306c-1.115,13.766-4.861,27.049-8.893,40.202c-1.137,3.71,4.656,5.283,5.786,1.596
			C447.087-277.89,450.84-291.682,452-306C452.312-309.859,446.31-309.829,446-306L446-306z"/>
	</g>
</g>
<g>
	<g>
		<path d="M462.107-308.798c-2.979,17.081-5.195,34.299-10,51c-1.072,3.728,4.718,5.307,5.786,1.596
			c4.805-16.702,7.021-33.919,10-51C468.553-310.985,462.771-312.604,462.107-308.798L462.107-308.798z"/>
	</g>
</g>
<g>
	<g>
		<path d="M535.897-308.897c-9.188,9.409-8.9,24.048-6.245,36.064c2.089,9.458,11.816,25.407,23.667,19.521
			c6.304-3.131,9.103-9.693,10.96-16.104c2.299-7.933,4.252-16.676,3.63-24.974c-1.01-13.452-13.337-18.688-25.33-18.281
			c-5.145,0.174-5.162,8.175,0,8c8.375-0.283,16.709,2.023,17.432,11.65c0.469,6.243-1.226,12.7-2.721,18.705
			c-1.213,4.87-2.51,10.594-6.944,13.566c-3.669,2.459-7.723-2.994-9.411-5.522c-2.262-3.388-3.295-7.166-4.076-11.112
			c-1.663-8.406-1.669-19.342,4.695-25.858C545.159-306.933,539.506-312.594,535.897-308.897L535.897-308.897z"/>
	</g>
</g>
<g>
	<g>
		<path d="M544.142-305.716c0.87,6.525,1,13.118,2,19.629c0.78,5.086,8.488,2.918,7.714-2.127
			c-0.889-5.795-0.939-11.689-1.713-17.502C551.471-310.752,543.462-310.817,544.142-305.716L544.142-305.716z"/>
	</g>
</g>
<g>
	<g>
		<path d="M535.146-279.438c9.599,0.771,19.168,0.057,28.776,0c5.157-0.03,5.16-8.03,0-8c-9.608,0.057-19.178,0.771-28.776,0
			C530-287.852,530.041-279.848,535.146-279.438L535.146-279.438z"/>
	</g>
</g>
<g>
	<g>
		<path d="M538.697-311.026c-0.167,0.084-0.335,0.164-0.506,0.242c-0.83,0.387,0.845-0.339,0.076-0.033
			c-0.354,0.14-0.71,0.27-1.061,0.417c-1.172,0.491-2.091,0.96-3.031,1.856c-1.578,1.504-1.513,4.144,0,5.656
			c1.569,1.569,4.08,1.504,5.657,0c0.727-0.692-0.813,0.485,0.007,0.015c0.836-0.48-0.964,0.357-0.009-0.014
			c0.98-0.381,1.958-0.77,2.904-1.231c1.958-0.957,2.474-3.698,1.435-5.473C543.008-311.574,540.656-311.983,538.697-311.026
			L538.697-311.026z"/>
	</g>
</g>
<g>
	<g>
		<path d="M103.518-452.141c82.228,0.076,164.246-7.792,246.482-7.142c3.871,0.03,3.868-5.97,0-6
			c-82.237-0.65-164.254,7.218-246.482,7.142C99.648-458.145,99.648-452.145,103.518-452.141L103.518-452.141z"/>
	</g>
</g>
<g>
	<g>
		<path d="M372.857-460.711c93.819,0.029,187.604,4.26,281.428,2.856c3.866-0.058,3.871-6.058,0-6
			c-93.824,1.403-187.609-2.827-281.428-2.856C368.988-466.712,368.988-460.712,372.857-460.711L372.857-460.711z"/>
	</g>
</g>
<g>
	<g>
		<path d="M121.942-191.833c66.297,1.783,132.553,4.778,198.805,7.762c33.124,1.491,66.247,2.974,99.378,4.299
			c33.098,1.324,66.27,0.507,99.394,0.472c66.129-0.072,132.258,0.195,198.386-0.08c65.921-0.275,131.831-1.455,197.741-2.636
			c44.502-0.798,89.001-1.863,133.473-3.72c6.424-0.269,6.451-10.27,0-10c-65.34,2.729-130.734,3.73-196.119,4.736
			c-66.193,1.019-132.364,1.727-198.567,1.749c-66.171,0.022-132.343-0.22-198.514,0.148c-33.132,0.185-66.298-1.903-99.395-3.367
			c-33.129-1.466-66.255-2.995-99.385-4.432c-45.054-1.954-90.117-3.719-135.197-4.932
			C115.49-202.007,115.507-192.006,121.942-191.833L121.942-191.833z"/>
	</g>
</g>
<g>
	<g>
		<path d="M-4.286-192.745c32.78-0.438,65.564-0.271,98.341,0.313c6.452,0.115,6.441-9.885,0-10
			c-32.777-0.584-65.561-0.751-98.341-0.313C-10.729-202.659-10.737-192.659-4.286-192.745L-4.286-192.745z"/>
	</g>
</g>
<g>
	<g>
		<path d="M153.671-781.821C139.383-779.793,140.217-761.717,139-751c-0.727,6.401,9.281,6.332,10,0
			c0.682-6.006-0.767-20.029,7.329-21.179C162.692-773.082,159.975-782.717,153.671-781.821L153.671-781.821z"/>
	</g>
</g>
<g>
	<g>
		<path d="M552-782c0.083,3.584,1.056,6.956,2.179,10.329c0.86,2.584,3.418,4.244,6.15,3.492c2.522-0.694,4.353-3.563,3.492-6.15
			c-0.839-2.522-1.762-5.118-1.821-7.671c-0.063-2.725-2.227-5-5-5C554.322-787,551.937-784.726,552-782L552-782z"/>
	</g>
</g>
<g>
	<g>
		<path d="M92.566-416.217c0.179,1.519,0.382,3.034,0.612,4.546c0.184,1.21,1.289,2.397,2.298,2.988
			c1.155,0.677,2.562,0.858,3.853,0.504c1.25-0.344,2.333-1.18,2.988-2.298c0.74-1.264,0.715-2.461,0.504-3.853
			c-0.087-0.576-0.17-1.152-0.248-1.729c0.06,0.442,0.119,0.886,0.179,1.328c-0.065-0.494-0.127-0.99-0.186-1.486
			c-0.163-1.381-0.443-2.514-1.464-3.535c-0.934-0.934-2.215-1.465-3.536-1.465s-2.602,0.531-3.536,1.465
			C93.187-418.908,92.42-417.457,92.566-416.217L92.566-416.217z"/>
	</g>
</g>
<g>
	<g>
		<path d="M92-454c-0.038,11.297-0.612,22.591,0.187,33.875c0.453,6.395,10.456,6.438,10,0c-0.799-11.284-0.225-22.578-0.187-33.875
			C102.021-460.449,92.021-460.447,92-454L92-454z"/>
	</g>
</g>
<g>
	<g>
		<path d="M98-356c0.963,9.646,1.935,19.298,2,29c0.043,6.446,10.043,6.45,10,0c-0.065-9.702-1.037-19.354-2-29
			C107.365-362.354,97.359-362.416,98-356L98-356z"/>
	</g>
</g>
<g>
	<g>
		<path d="M307-649c2.58,0,2.58-4,0-4S304.42-649,307-649L307-649z"/>
	</g>
</g>
<g>
	<g>
		<path d="M406-670c2.58,0,2.58-4,0-4S403.42-670,406-670L406-670z"/>
	</g>
</g>
<g>
	<g>
		<path d="M668-343c29.977,3.092,60.051-0.476,89.994-2.221c15.135-0.882,30.277-0.701,45.427-1.045
			c15.201-0.344,30.392-1.044,45.58-1.734c5.137-0.233,5.16-8.234,0-8c-30.316,1.378-60.723,1.095-91.006,2.779
			c-29.963,1.667-59.996,5.314-89.994,2.221C662.87-351.529,662.921-343.523,668-343L668-343z"/>
	</g>
</g>
<g>
	<g>
		<path d="M846-352c3.922,55.715,3.006,111.577,2.777,167.385c-0.021,5.16,7.979,5.158,8,0c0.229-55.808,1.145-111.67-2.777-167.385
			C853.64-357.116,845.637-357.151,846-352L846-352z"/>
	</g>
</g>
<g>
	<g>
		<path d="M664-324c61.001,0.011,121.999,0.989,183,1c5.159,0.001,5.159-7.999,0-8c-61.001-0.011-121.999-0.989-183-1
			C658.841-332.001,658.841-324.001,664-324L664-324z"/>
	</g>
</g>
<g>
	<g>
		<path d="M672-242c30.857,0.709,61.658-1.414,92.459-2.934c14.834-0.732,29.71-1.481,44.564-1.18
			c13.736,0.279,27.507,0.807,41.041-2.029c5.048-1.059,2.906-8.77-2.127-7.715c-13.356,2.8-27.111,1.984-40.662,1.709
			c-14.264-0.29-28.572,0.525-42.816,1.215c-30.805,1.49-61.598,3.643-92.459,2.934C666.838-250.119,666.85-242.118,672-242L672-242
			z"/>
	</g>
</g>
<g>
	<g>
		<path d="M152.856-224.144c32.822,4.29,65.409-0.78,98.249-1.519c33.021-0.744,66.05-1.049,99.079-0.967
			c66.194,0.166,132.364,2.406,198.549,3.342c25.183,0.356,50.367,0.566,75.552,0.572c3.869,0.001,3.869-5.999,0-6
			c-66.279-0.016-132.542-1.533-198.802-2.991c-33.021-0.727-66.05-1.016-99.078-0.917c-32.95,0.1-66.021,0.003-98.906,2.213
			c-24.872,1.67-49.813,3.512-74.643,0.267C149.028-230.645,149.076-224.638,152.856-224.144L152.856-224.144z"/>
	</g>
</g>
<g>
	<g>
		<path d="M-1184-901c17.186,130.938,10.184,263.093,8.017,394.674c-0.268,16.271-0.446,32.545-0.502,48.818
			c-0.009,2.58,3.991,2.579,4,0c0.454-131.408,9.496-263.055-2.094-394.241c-1.454-16.453-3.271-32.874-5.42-49.251
			C-1180.331-903.52-1184.335-903.552-1184-901L-1184-901z"/>
	</g>
</g>
<g>
	<g>
		<path d="M-1183.25-902.5c34.122,1.189,68.005-5.363,102.061-6.541c34.358-1.188,68.725-2.111,103.085-3.22
			c68.664-2.217,137.173-6.527,205.748-10.542c68.412-4.006,136.864-7.529,205.383-9c69.254-1.486,138.538-0.84,207.799-2.275
			c74.499-1.545,148.972-4.138,223.423-7.172c2.57-0.104,2.58-4.105,0-4c-69.583,2.836-139.184,5.27-208.807,6.854
			c-69.347,1.578-138.694,1.181-208.04,2.32c-137.259,2.258-274.017,14.627-411.164,19.338c-36.373,1.25-72.754,2.209-109.128,3.416
			c-18.535,0.615-36.887,1.881-55.333,3.799c-18.293,1.902-36.614,3.665-55.027,3.023
			C-1185.831-906.59-1185.822-902.59-1183.25-902.5L-1183.25-902.5z"/>
	</g>
</g>
<g>
	<g>
		<path d="M-136.5-942.25c0.71,6.438,2.498,12.398,2.501,18.929c0.005,8.626,0.035,17.252,0.064,25.878
			c0.058,16.589,0.122,33.178,0.078,49.767c-0.089,33.204-1.095,66.329-2.583,99.496c-1.476,32.888-3.178,65.764-4.863,98.641
			c-0.842,16.42-1.679,32.839-2.485,49.261c-0.806,16.406-2.201,32.941-2.213,49.367c-0.021,28.139-0.906,56.283,0.611,84.401
			c0.138,2.565,4.139,2.579,4,0c-3.501-64.877,1.372-130.061,4.693-194.841c3.388-66.08,6.843-132.086,6.857-198.27
			c0.003-14.598-0.066-29.195-0.114-43.794c-0.024-7.299-0.041-14.598-0.045-21.897c-0.003-5.824-1.866-11.188-2.5-16.938
			C-132.78-944.785-136.783-944.812-136.5-942.25L-136.5-942.25z"/>
	</g>
</g>
<g>
	<g>
		<path d="M-565.75-445.25c62.157,0.135,124.241-3.07,186.305-6.091c31.008-1.509,62.038-3.157,93.077-3.856
			c30.74-0.691,61.49,0.164,92.233,0.014c2.579-0.013,2.58-4.013,0-4c-30.107,0.147-60.215-0.607-90.321-0.053
			c-31.014,0.573-62.027,2.297-93.007,3.799c-62.726,3.042-125.469,6.324-188.288,6.188
			C-568.33-449.256-568.329-445.256-565.75-445.25L-565.75-445.25z"/>
	</g>
</g>
<g>
	<g>
		<path d="M85-193c14.626,1.825,29.307,1.043,44,1c6.448-0.019,6.45-10.019,0-10c-14.693,0.043-29.374,0.825-44-1
			C78.612-203.797,78.688-193.788,85-193L85-193z"/>
	</g>
</g>
<g>
	<g>
		<path d="M1040-379c6.021,98.656,1.555,197.6,6.986,296.269c0.353,6.412,10.355,6.446,10,0
			C1051.555-181.4,1056.021-280.344,1050-379C1049.609-385.406,1039.607-385.443,1040-379L1040-379z"/>
	</g>
</g>
<g>
	<g>
		<path d="M1044.671-377.179c8.805,1.882,17.455,0.325,26.329,0.179c6.442-0.105,6.452-10.106,0-10
			c-7.857,0.129-15.889,1.842-23.671,0.179C1041.041-388.166,1038.366-378.526,1044.671-377.179L1044.671-377.179z"/>
	</g>
</g>
<g>
	<g>
		<path d="M1021-408c4.437,38.334,1.625,76.904,2.634,115.373c0.446,17.002,0.437,33.979,0.657,50.984
			c0.217,16.76,1.238,33.786,5.888,49.972c1.777,6.187,11.427,3.554,9.643-2.658c-4.583-15.953-5.34-32.567-5.553-49.072
			c-0.221-17.063-0.237-34.094-0.685-51.155c-0.993-37.838,1.781-75.732-2.583-113.443C1030.268-414.328,1020.259-414.399,1021-408
			L1021-408z"/>
	</g>
</g>
<g>
	<g>
		<path d="M1028-403c6.679,0.823,13.307,0.073,20,0c6.444-0.07,6.451-10.07,0-10c-6.693,0.073-13.321,0.823-20,0
			C1021.61-413.787,1021.686-403.778,1028-403L1028-403z"/>
	</g>
</g>
<g>
	<g>
		<path d="M1045-408c0.066,7.68,0.934,15.32,1,23c0.055,6.445,10.055,6.451,10,0c-0.066-7.68-0.934-15.32-1-23
			C1054.945-414.445,1044.945-414.451,1045-408L1045-408z"/>
	</g>
</g>
<g>
	<g>
		<path d="M547.929-305.531c-1.278-8.408-6.16-15.426-12.515-20.883c-1.946-1.671-4.789,1.146-2.828,2.828
			c5.897,5.064,10.299,11.312,11.485,19.117C544.458-301.925,548.312-303.01,547.929-305.531L547.929-305.531z"/>
	</g>
</g>
<g>
	<g>
		<path d="M1068.333-378.012c-0.332,97.411-0.332,194.823-0.137,292.234c0.013,6.448,10.013,6.449,10,0
			c-0.195-97.411-0.195-194.823,0.137-292.234C1078.355-384.461,1068.355-384.459,1068.333-378.012L1068.333-378.012z"/>
	</g>
</g>
<g>
	<g>
		<path d="M654.999-1434.676c15.109,127.684,12.46,256.546,11.789,384.861c-0.073,13.935-0.119,27.869-0.122,41.805
			c-0.001,6.449,9.999,6.448,10,0c0.021-128.292,4.048-256.89-7.324-384.861c-1.24-13.955-2.696-27.892-4.343-41.805
			C664.251-1440.999,654.242-1441.072,654.999-1434.676L654.999-1434.676z"/>
	</g>
</g>
<g>
	<g>
		<path d="M155-764.078c65.988,0.445,131.961-1.229,197.92-2.969c32.936-0.868,65.871-1.745,98.812-2.381
			c32.353-0.625,64.978-1.244,97.268,1.182c1.287,0.097,1.278-1.904,0-2c-32.292-2.426-64.914-1.797-97.268-1.182
			c-32.941,0.625-65.876,1.512-98.812,2.381c-65.959,1.74-131.933,3.414-197.92,2.969C153.71-766.087,153.711-764.087,155-764.078
			L155-764.078z"/>
	</g>
</g>
<g>
	<g>
		<path d="M154-765c4.112,80.248,11.186,160.381,11.494,240.783c0.005,1.289,2.005,1.29,2,0
			C167.186-604.619,160.112-684.752,156-765C155.934-766.283,153.934-766.289,154-765L154-765z"/>
	</g>
</g>
<g>
	<g>
		<path d="M549-769c-2.401,18.685,1.399,37.403,3.206,55.968c1.98,20.341,1.766,41.062,1.892,61.481
			c0.266,43.099-1.065,86.188-1.346,129.283c-0.008,1.29,1.992,1.289,2,0c0.276-42.442,1.525-84.875,1.356-127.32
			c-0.082-20.53-0.062-41.252-1.747-61.724C552.782-730.51,548.518-749.686,551-769C551.164-770.276,549.162-770.261,549-769
			L549-769z"/>
	</g>
</g>
<g>
	<g>
		<path d="M164.495-522.137c10.115,5.749,22.406,5.266,33.651,4.75c14.932-0.687,29.877-1.195,44.816-1.723
			c32.885-1.161,65.962,1.922,98.808,3.447c32.914,1.527,65.869,2.532,98.815,1.554c16.181-0.48,32.309-1.757,48.496-2.1
			c15.925-0.338,31.854-0.542,47.718-2.117c5.771-0.573,11.512-1.411,17.218-2.442c1.268-0.23,0.729-2.157-0.531-1.93
			c-31.867,5.766-64.853,4.201-97.09,5.934c-32.909,1.77-65.904,1.103-98.815-0.212c-16.475-0.657-32.941-1.51-49.408-2.336
			c-16.419-0.824-32.966-2.183-49.408-2.14c-16.467,0.044-32.912,1.178-49.371,1.56c-12.607,0.292-25.546,2.214-37.881-1.327
			c-2.123-0.609-4.098-1.559-6.008-2.645C164.382-524.502,163.375-522.773,164.495-522.137L164.495-522.137z"/>
	</g>
</g>
<g>
	<g>
		<path d="M169-551c2.58,0,2.58-4,0-4S166.42-551,169-551L169-551z"/>
	</g>
</g>
<g>
	<g>
		<path d="M1096.002-78.793c132.276-3.295,264.673-3.605,396.984-3.847c65.654-0.12,131.188,1.011,196.798,3.396
			c63.401,2.304,127.569,5.296,190.676-2.982c14.823-1.944,29.533-4.607,44.069-8.102c5.642-1.355,3.248-10.034-2.393-8.678
			c-61.728,14.836-126.876,14.56-189.983,12.297c-65.219-2.339-130.373-4.711-195.643-4.919
			c-132.233-0.421-264.568,0.392-396.779,2.878c-14.578,0.273-29.154,0.594-43.729,0.957
			C1090.209-87.648,1090.195-78.648,1096.002-78.793L1096.002-78.793z"/>
	</g>
</g>
<g>
	<g>
		<path d="M1078.654-78.454c7.449-0.029,14.897-0.045,22.346-0.046c5.804-0.001,5.804-9.001,0-9
			c-7.449,0.001-14.897,0.017-22.346,0.046C1072.851-87.432,1072.849-78.432,1078.654-78.454L1078.654-78.454z"/>
	</g>
</g>
<g>
	<g>
		<path d="M-30-68.5c145.298-0.037,290.475-7.424,435.767-7.988c72.649-0.281,145.183,3.166,217.811,3.414
			c72.678,0.247,145.354-0.648,218.021-1.801c74.828-1.188,149.652-2.668,224.485-3.533c5.8-0.067,5.806-9.067,0-9
			c-145.325,1.682-290.628,5.67-435.973,5.352c-72.628-0.159-145.164-3.592-217.807-3.45c-72.644,0.141-145.27,2.104-217.883,4.037
			C119.627-79.479,44.825-77.52-30-77.5C-35.804-77.498-35.804-68.498-30-68.5L-30-68.5z"/>
	</g>
</g>
<g>
	<g>
		<path d="M1059-77.5c9.343-0.062,18.655-0.943,28-1c5.802-0.035,5.805-9.035,0-9c-9.345,0.057-18.657,0.938-28,1
			C1053.198-86.461,1053.194-77.461,1059-77.5L1059-77.5z"/>
	</g>
</g>
<g>
	<g>
		<path d="M908.384,366.115c-21.745-12.934-45.807-22.265-71.197-24.147c-25.28-1.874-49.68,5.972-69.289,21.931
			c-42.755,34.799-50.798,103.231-19.167,147.729c15.309,21.537,38.437,34.647,63.328,42.214c25.625,7.789,54.268,9.58,80.211,2.346
			c24.805-6.917,45.329-23.437,56.844-46.485c11.382-22.783,13.597-49.585,9.092-74.408
			C952.885,405.975,933.481,381.396,908.384,366.115c-4.419-2.69-8.436,4.23-4.038,6.908c21.858,13.309,38.265,33.54,44.83,58.449
			c6.626,25.145,3.627,53.889-8.373,76.942c-27.369,52.579-98.808,52.108-146.18,30.354c-24.394-11.202-43.243-30.907-51.987-56.427
			c-9.608-28.04-5.842-59.883,8.39-85.646c13.034-23.593,35.674-40.491,62.168-45.554c25.292-4.834,51.85,2.229,74.677,13.013
			c5.642,2.665,11.114,5.68,16.475,8.868C908.791,375.667,912.812,368.75,908.384,366.115z"/>
	</g>
</g>
<g>
	<g>
		<path d="M808.884,551.886c-37.441,42.202-63.987,94.062-67.626,151.013c-0.329,5.154,7.673,5.122,8,0
			c3.497-54.726,29.322-104.822,65.284-145.356C817.952,553.698,812.314,548.019,808.884,551.886L808.884,551.886z"/>
	</g>
</g>
<g>
	<g>
		<path d="M919.612,558.084c-6.037,67.81-36.411,130.295-47.487,197.117c-1.045,6.307,8.59,9.009,9.643,2.658
			c11.23-67.748,41.721-130.99,47.844-199.775C930.185,551.658,920.179,551.714,919.612,558.084L919.612,558.084z"/>
	</g>
</g>
<g>
	<g>
		<path d="M925.671,559.821c23.178,3.729,46.554,1.356,69.883,1.351c26.274-0.008,52.583,0.987,78.848,1.592
			c52.199,1.201,104.402,2.438,156.619,2.453c6.449,0.002,6.449-9.998,0-10c-51.555-0.016-103.098-1.221-154.636-2.407
			c-25.771-0.593-51.543-1.18-77.318-1.605c-23.538-0.39-47.347,2.737-70.738-1.025
			C922.023,549.164,919.317,558.799,925.671,559.821L925.671,559.821z"/>
	</g>
</g>
<g>
	<g>
		<path d="M1226.57,561.41c-4.226,37.752-15.709,74.162-27.853,109.997c-6.175,18.225-12.574,36.374-18.463,54.694
			c-1.912,5.948-3.014,12.087-4.54,18.138c-1.329,5.267-3.062,12.065-7.782,15.37c-5.231,3.662-0.289,12.312,5.047,8.635
			c1.493-1.028,2.98-2.012,4.545-2.927c5.563-3.251,0.533-11.895-5.047-8.635c-1.565,0.915-3.053,1.898-4.545,2.927
			c1.682,2.878,3.365,5.757,5.047,8.635c11.068-7.749,12.453-22.495,15.471-34.605c4.726-18.966,12.391-37.516,18.697-56.006
			c12.931-37.913,24.95-76.258,29.423-116.223C1237.287,555.007,1227.279,555.076,1226.57,561.41L1226.57,561.41z"/>
	</g>
</g>
<g>
	<g>
		<path d="M873.849,768.773c50.176,4.213,100.548,4.119,150.859,3.619c24.915-0.248,49.869-0.892,74.783-0.444
			c23.336,0.419,46.647,2.37,69.783-1.788c5.706-1.025,3.281-9.697-2.393-8.678c-22.847,4.105-46.176,1.848-69.221,1.434
			c-24.962-0.449-49.974,0.247-74.937,0.496c-49.649,0.494-99.36,0.518-148.875-3.639
			C868.062,759.287,868.109,768.291,873.849,768.773L873.849,768.773z"/>
	</g>
</g>
<g>
	<g>
		<path d="M891,697.177c-38.265,3.241-76.574-0.685-114.874-0.757c-4.515-0.009-4.514,6.991,0,7
			c38.3,0.072,76.609,3.998,114.874,0.757C895.463,703.799,895.5,696.796,891,697.177L891,697.177z"/>
	</g>
</g>
<g>
	<g>
		<path d="M772.528,704.235c37.097,17.168,69.206,42.974,105.302,61.943c4.562,2.397,8.606-4.507,4.038-6.908
			c-36.097-18.97-68.205-44.775-105.302-61.943C771.917,695.176,767.85,702.07,772.528,704.235L772.528,704.235z"/>
	</g>
</g>
<g>
	<g>
		<path d="M686.746,713.961c66.432,57.895,123.583,126.105,195.298,177.925c5.238,3.784,10.221-4.896,5.047-8.635
			c-70.982-51.289-127.513-119.052-193.273-176.36C688.979,702.674,681.875,709.717,686.746,713.961L686.746,713.961z"/>
	</g>
</g>
<g>
	<g>
		<path d="M749.672,712.876c13.377,0.804,26.734,1.846,40.038,3.479c5.752,0.706,5.684-8.303,0-9
			c-13.304-1.633-26.661-2.675-40.038-3.479C743.872,703.527,743.906,712.529,749.672,712.876L749.672,712.876z"/>
	</g>
</g>
<g>
	<g>
		<path d="M686.853,709.212c19.963,1.593,40.12,1.052,59.951,4.128c5.676,0.88,8.114-7.792,2.393-8.68
			c-20.655-3.203-41.557-2.789-62.344-4.448C681.063,699.75,681.108,708.754,686.853,709.212L686.853,709.212z"/>
	</g>
</g>
<g>
	<g>
		<path d="M680.666,704.664c3.578,63.004-10.021,125.279-10.17,188.19c-0.014,5.805,8.986,5.804,9,0
			c0.149-62.911,13.748-125.187,10.17-188.19C689.338,698.895,680.336,698.863,680.666,704.664L680.666,704.664z"/>
	</g>
</g>
<g>
	<g>
		<path d="M726.646,415.14c-29.106,9.539-24.403,47.286-11.01,67.919c6.219,9.581,16.177,18.167,28.307,16.101
			c15.808-2.693,25.377-24.704,26.838-38.478c2.777-26.179-16.837-48.145-43.072-48.542c-5.162-0.078-5.154,7.922,0,8
			c22.56,0.342,38.511,19.839,34.824,42.07c-1.809,10.901-11.452,32.915-26.12,28.802c-11.1-3.111-17.782-17.062-20.907-27.045
			c-3.52-11.244-4.612-26.111,3.984-35.434c2.515-2.728,5.787-4.533,9.283-5.679C733.653,421.255,731.563,413.529,726.646,415.14
			L726.646,415.14z"/>
	</g>
</g>
<g>
	<g>
		<path d="M950.567,417.283c15.159-0.399,23.264,15.474,26.125,28.255c2.825,12.62,1.404,31.671-12.903,36.744
			c-4.827,1.712-2.748,9.443,2.127,7.715c34.921-12.386,21.422-81.683-15.349-80.714
			C945.418,409.419,945.405,417.419,950.567,417.283L950.567,417.283z"/>
	</g>
</g>
<g>
	<g>
		<path d="M722.424,436.505c-4.499,16.47,7.431,41.531,27.521,32.223c7.83-3.628,13.794-11.578,9.435-20.298
			c-3.736-7.473-12.241-9.793-19.404-5.744c-6.365,3.599-9.928,12.153-6.921,18.893c2.416,5.414,7.961,8.78,13.714,9.386
			c6.349,0.669,10.263-4.919,9.775-10.739c-0.67-7.996-6.472-16.443-14.807-17.63c-12.124-1.727-17.079,10.337-11.768,19.85
			c1.318,2.359,4.399,2.479,6.283,0.81c4.449-3.941,8.109-9.847,6.921-16.034c-1.235-6.434-6.881-9.761-12.972-10.651
			c-2.285-0.334-4.122,0.541-4.92,2.794c-1.714,4.836-2.524,8.42-1.429,13.556c0.481,2.258,2.881,3.178,4.92,2.794
			c6.892-1.298,11.599-6.934,10.68-14.058c-0.789-6.114-5.079-12.29-11.603-12.97c-8.672-0.904-14.057,8.86-16.199,15.823
			c-2.841,9.229,0.252,19.707,6.795,26.552c6.702,7.011,18.017,8.264,26.594,4.198c6.121-2.9,8.599-9.127,5.083-15.125
			c-3.248-5.541-10.389-8.68-16.633-8.327c-8.1,0.458-13.889,7.444-15.604,14.952c-2.154,9.429,5.495,17.121,14.453,18.109
			c9.839,1.086,16.932-6.171,16.512-15.87c-0.091-2.112-1.751-4.087-4-4c-6.753,0.262-13.661,3.807-14.309,11.256
			c-0.661,7.604,5.294,12.735,11.817,15.173c4.843,1.809,6.914-5.926,2.127-7.715c-6.794-2.538-8.371-10.375,0.365-10.714
			c-1.333-1.333-2.667-2.667-4-4c0.23,5.318-2.43,8.271-7.799,7.949c-4.139-0.249-8.14-3.71-7.453-8.062
			c0.898-5.685,5.533-10.16,11.364-8.823c2.117,0.485,8.327,3.595,6.64,6.597c-1.306,2.323-6.328,2.74-8.541,2.901
			c-4.156,0.303-7.971-1.366-10.96-4.157c-6.216-5.804-6.695-15.48-3.141-22.74c1.97-4.024,6.001-8.762,9.39-3.478
			c2.659,4.147,0.975,7.932-3.706,8.812c1.64,0.932,3.28,1.862,4.92,2.794c-0.774-3.633,0.235-5.933,1.429-9.302
			c-1.64,0.931-3.28,1.862-4.92,2.794c3.015,0.44,7.011,1.227,7.318,4.918c0.282,3.398-2.473,6.337-4.798,8.396
			c2.094,0.27,4.188,0.539,6.283,0.81c-1.708-3.058-2.381-7.587,2.282-7.997c5.42-0.479,9.062,5.959,9.45,10.593
			c0.419,5.001-8.853-0.819-8.743-5.308c0.102-4.131,5.743-8.485,9.589-6.63c5.726,2.763,3.096,9.099-1.122,11.589
			c-14.131,8.345-21.174-11.123-18.197-22.022C731.5,433.646,723.782,431.534,722.424,436.505L722.424,436.505z"/>
	</g>
</g>
<g>
	<g>
		<path d="M718.139,461.489c1.212,6.776,0.984,12.747,6.743,17.479c3.19,2.622,7.359,0.15,6.686-3.892
			c-1.352-8.108-2.695-16.219-4.286-24.285c-2.229,1.297-4.457,2.595-6.686,3.892c1.007,1.197,1.585,2.423,1.829,3.949
			c0.611,3.839,7.096,3.831,7.714,0c1.26-7.804-1.534-16.015,0.761-23.645c1.328-4.414,7.783-3.295,10.956-2.296
			c4.016,1.266,8.181,4.58,9.14,8.798c1.286-1.688,2.571-3.376,3.857-5.063c-9.483,1.057-18.196-3.619-22.26-12.305
			c-0.797,1.958-1.594,3.917-2.391,5.876c3.057-1.193,7.291-2.831,10.08-0.245c2.408,2.232,2.857,6.455,3.122,9.515
			c0.744,8.601-0.74,17.398-2.409,25.81c-1.002,5.049,6.075,7.043,7.714,2.127c1.429-4.285,2.857-8.571,4.286-12.856
			c1.637-4.908-6.091-6.995-7.714-2.127c-1.429,4.286-2.857,8.571-4.286,12.856c2.571,0.709,5.143,1.418,7.714,2.127
			c2.111-10.639,3.833-21.712,2.127-32.523c-1.907-12.081-11.696-16.717-22.761-12.397c-2.546,0.994-3.563,3.37-2.391,5.876
			c5.12,10.943,17.172,17.604,29.168,16.268c2.634-0.293,4.48-2.323,3.857-5.063c-2.54-11.17-17.039-18.095-27.542-14.614
			c-13.734,4.552-7.088,21.506-8.743,31.757c2.571,0,5.143,0,7.714,0c-0.459-2.886-2.038-5.281-3.885-7.479
			c-2.797-3.327-7.39,0.32-6.686,3.892c1.59,8.065,2.934,16.177,4.286,24.285c2.229-1.297,4.457-2.595,6.686-3.892
			c-4.377-3.597-3.761-8.777-4.686-13.949C724.946,454.29,717.237,456.445,718.139,461.489L718.139,461.489z"/>
	</g>
</g>
<g>
	<g>
		<path d="M749.424,446.14c1.037,13.788-1.135,34.137-18.857,34.572c-3.672,0.091-5.049,4.206-2.829,6.828
			c3.554,4.196,8.728,8.475,14.602,6.565c5.497-1.787,8.192-7.835,10.132-12.771c2.521-6.416,3.873-13.3,5.27-20.027
			c0.58-2.793,1.139-5.59,1.786-8.368c0.242-1.038,0.513-2.069,0.819-3.091c0.308-1.026,0.71-1.47,0.192-0.88
			c-2.229-0.588-4.457-1.177-6.686-1.765c2.506,11.035-0.414,21.998-6.74,31.204c2.303,0,4.605,0,6.908,0
			c-5.139-9.14-11.046-17.814-16.054-27.036c-4.166-7.671-11.08-19.402-7.829-28.453c1.749-4.867-5.984-6.944-7.714-2.127
			c-3.67,10.218,2.343,22.231,6.839,31.187c5.293,10.544,12.078,20.202,17.85,30.467c1.56,2.774,5.266,2.391,6.908,0
			c7.543-10.977,10.51-24.321,7.546-37.368c-0.644-2.836-4.728-3.995-6.686-1.765c-2.341,2.666-2.906,6.67-3.635,10.02
			c-1.257,5.777-2.349,11.586-3.82,17.315c-1.225,4.769-2.566,10.49-5.778,14.383c-2.785,3.375-5.658-0.082-8.252-3.146
			c-0.943,2.276-1.886,4.552-2.829,6.828c22.574-0.555,28.265-23.86,26.857-42.572C757.04,441.028,749.037,440.991,749.424,446.14
			L749.424,446.14z"/>
	</g>
</g>
<g>
	<g>
		<path d="M731.996,406.426c-30.953,3.915-34.868,53.225-14.257,71.114c3.876,3.365,9.56-2.269,5.657-5.656
			c-8.72-7.569-10.644-20.631-9.917-31.554c0.729-10.963,6.191-24.346,18.517-25.904
			C737.042,413.787,737.104,405.779,731.996,406.426L731.996,406.426z"/>
	</g>
</g>
<g>
	<g>
		<path d="M724.424,411.489c7.962-20.019,18.348-39.505,33.817-54.754c14.385-14.18,33.081-22.537,53.068-24.837
			c45.532-5.241,96.3,15.217,124.139,51.844c8.843,11.635,15.026,24.979,18.405,39.176c1.194,5.018,8.908,2.889,7.714-2.127
			c-10.973-46.109-50.265-78.188-94.334-91.295c-21.578-6.418-44.903-8.327-67.045-3.875c-19.229,3.865-36.487,13.944-50.081,27.955
			c-15.233,15.699-25.387,35.648-33.397,55.786C714.801,414.16,722.541,416.223,724.424,411.489L724.424,411.489z"/>
	</g>
</g>
<g>
	<g>
		<path d="M959.424,434.712c0,11.429,0,22.856,0,34.285c0,5.323,7.338,4.938,8,0c1.272-9.487,1.426-19.014,1.428-28.571
			c-2.619,0.354-5.238,0.709-7.857,1.063c1.621,6.624,2.948,13.313,4.286,20c0.904,4.519,7.842,3.354,7.857-1.063
			c0.05-15.053,0.427-29.214-9.743-41.399c-1.297,2.229-2.595,4.457-3.892,6.686c12.438,4.618,17.312,23.218,15.398,35.038
			c-2.007,12.399-15.46,16.252-19.62,27.184c-1.678,4.41,4.973,6.74,7.311,3.082c5.699-8.917,7.602-18.697,7.688-29.161
			c-2.667,0-5.333,0-8,0c0.187,4.326,1.243,8.536,1.429,12.857c0.158,3.664,4.158,5.059,6.829,2.828
			c8.382-7.001,8.722-19.487,7.194-29.417c-1.329-8.637-6.13-21.403-16.102-22.983c-3.069-0.485-5.581,1.729-4.92,4.921
			c3.493,16.885-1.553,36.868,7.546,52.384c2.607,4.446,9.523,0.423,6.908-4.037c-4.304-7.34-4.326-16.962-4.738-25.217
			c-0.419-8.407-0.29-16.979-2.002-25.257c-1.64,1.641-3.28,3.28-4.92,4.921c6.775,1.073,9.183,10.717,10.32,16.305
			c1.507,7.407,1.327,17.489-4.942,22.725c2.276,0.942,4.552,1.886,6.829,2.828c-0.187-4.326-1.243-8.536-1.429-12.857
			c-0.221-5.134-7.957-5.179-8,0c-0.076,9.122-1.625,17.346-6.597,25.124c2.437,1.027,4.874,2.055,7.311,3.082
			c1.948-5.118,8.544-8.799,12.137-12.738c5.283-5.792,7.749-12.774,8.165-20.53c0.795-14.82-7.048-33.365-21.667-38.795
			c-4.118-1.529-6.196,3.925-3.892,6.686c8.546,10.24,7.442,23.235,7.4,35.743c2.619-0.354,5.238-0.709,7.857-1.063
			c-1.338-6.686-2.666-13.375-4.286-20c-1.085-4.436-7.856-3.415-7.857,1.063c-0.002,9.558-0.156,19.084-1.428,28.571
			c2.667,0,5.333,0,8,0c0-11.429,0-22.856,0-34.285C967.424,429.553,959.424,429.553,959.424,434.712L959.424,434.712z"/>
	</g>
</g>
<g>
	<g>
		<path d="M713.853,437.204c1.591,5.822,4.123,11.321,5.714,17.144c1.373,5.024,8.701,2.883,7.714-2.127
			c-1.514-7.688-2.623-15.374-2.714-23.223c-1.688,1.285-3.375,2.571-5.063,3.857c10.233,4.209,14.644,15.865,17.207,25.777
			c0.891,3.447,5.521,3.825,7.311,0.955c4.13-6.62,9.747-12.246,17.609-13.875c-1.64-0.932-3.28-1.863-4.92-2.794
			c4.895,15.083-8.092,28.716-12.857,42.158c-1.404,3.96,3.944,6.481,6.686,3.892c14.25-13.462,9.043-37.754-4.286-49.941
			c-3.799-3.474-9.472,2.168-5.657,5.656c10.135,9.267,15.414,28.117,4.286,38.629c2.229,1.297,4.457,2.594,6.686,3.892
			c5.438-15.342,18.496-29.036,12.857-46.412c-0.706-2.175-2.71-3.252-4.92-2.794c-9.842,2.039-17.221,9.268-22.391,17.553
			c2.437,0.318,4.874,0.637,7.311,0.955c-3.39-13.11-9.636-25.953-22.793-31.365c-2.438-1.002-5.091,1.49-5.063,3.857
			c0.099,8.548,1.352,16.977,3,25.35c2.571-0.709,5.143-1.418,7.714-2.127c-1.591-5.822-4.123-11.32-5.714-17.144
			C720.208,430.106,712.49,432.22,713.853,437.204L713.853,437.204z"/>
	</g>
</g>
<g>
	<g>
		<path d="M958.139,460.792c-1.122,4.924-1.29,10.323-3.883,14.759c2.485,0.673,4.97,1.346,7.454,2.019
			c-1.217-17.904,15.797-44.525-3.41-57.739c-3.431-2.36-7.362,2.16-5.473,5.473c3.685,6.459,5.509,13.58,8.168,20.473
			c1.836,4.761,9.574,2.693,7.714-2.127c-2.909-7.541-4.943-15.316-8.974-22.383c-1.824,1.824-3.649,3.648-5.473,5.473
			c7.426,5.109,5.09,16.218,3.637,23.671c-1.731,8.884-4.812,18.008-4.189,27.16c0.261,3.844,5.349,5.621,7.454,2.019
			c3.011-5.15,3.389-10.963,4.688-16.669C966.997,457.896,959.284,455.763,958.139,460.792L958.139,460.792z"/>
	</g>
</g>
<g>
	<g>
		<path d="M771.71,610.427c-1.372,20.519-2.618,40.95,0,61.429c0.645,5.045,8.653,5.107,8,0c-2.618-20.479-1.372-40.91,0-61.429
			C780.055,605.274,772.052,605.308,771.71,610.427L771.71,610.427z"/>
	</g>
</g>
<g>
	<g>
		<path d="M778.926,676.217c37.429,5.781,74.464,13.42,105.105,37.105c4.027,3.113,9.734-2.505,5.657-5.656
			c-15.095-11.669-31.702-20.409-49.781-26.481c-19.053-6.399-39.049-9.623-58.854-12.683
			C776.008,667.723,773.84,675.431,778.926,676.217L778.926,676.217z"/>
	</g>
</g>
<g>
	<g>
		<path d="M714,455c6.134-0.421,9.729,1.758,6.546,7.981c2.485,0.673,4.97,1.346,7.454,2.019c-0.142-2.655-0.708-5.291-0.143-7.937
			c-2.571-0.709-5.143-1.418-7.714-2.127c-1.208,6.817-0.733,13.311,3.403,19.082c1.544,2.155,5.575,3.017,6.908,0
			c0.727-1.646,1.274-3.357,2-5c-2.485-0.673-4.97-1.346-7.454-2.019c0.276,2.193,1.085,4.237,1.423,6.407
			c0.613-1.506,1.226-3.012,1.838-4.517c-0.022,0.01-0.043,0.019-0.065,0.028c1.824,0.479,3.648,0.957,5.473,1.435
			c-0.072-0.124-0.144-0.248-0.215-0.372c-1.266-2.195-4.506-2.679-6.283-0.81c-4.596,4.834-8.661,14.403-0.804,18.523
			c8.747,4.587,16.664-6.066,19.842-12.675c6.528-13.575,17.189-45.073-4.146-50.878c-3.159-0.859-5.427,1.998-4.92,4.921
			c0.37,2.133,1.633,3.883,2,6c2.229-1.298,4.457-2.595,6.686-3.892c-1.327-1.341-2.297-2.435-2.972-4.235
			c-1.286,1.688-2.571,3.376-3.857,5.063c1.888-0.014,3.779-0.095,5.667-0.037c-0.91-1.111-1.268-1.353-1.076-0.724
			c0.291,0.899,0.394,1.897,0.552,2.824c1.64-1.641,3.28-3.28,4.92-4.921c-7.168-1.076-11.227-9.123-6.609-15.124
			c1.43-1.858,0.138-4.311-1.435-5.473c-4.83-3.566-9.055-5.252-15.083-4.403c-4.677,0.659-3.198,7.629,1.063,7.857
			c9.984,0.537,19.387,4.349,25.617,12.42c6.256,8.106,8.287,18.564,8.383,28.58c0.05,5.156,8.05,5.161,8,0
			c-0.118-12.158-2.914-24.748-10.796-34.328C750.369,409.15,739.123,404.651,727,404c0.354,2.619,0.709,5.238,1.063,7.857
			c3.593-0.507,6.195,1.586,8.917,3.597c-0.478-1.824-0.957-3.648-1.435-5.473c-7.563,9.83-0.511,25.089,11.391,26.876
			c3.153,0.473,5.468-1.713,4.92-4.921c-1.336-7.83-5.785-7.988-12.857-7.937c-2.419,0.018-4.789,2.576-3.857,5.063
			c1.165,3.11,2.694,5.407,5.028,7.765c3.022,3.053,7.335-0.146,6.686-3.892c-0.37-2.133-1.633-3.883-2-6
			c-1.64,1.641-3.28,3.28-4.92,4.921c12.62,3.434,4.691,24.219,1.923,32.28c-2.027,5.902-4.274,13.163-10.175,16.261
			c-4.096,2.149,0.392-4.778,1.144-5.57c-2.094-0.27-4.188-0.539-6.283-0.81c0.072,0.125,0.144,0.249,0.215,0.373
			c1.176,2.04,3.493,2.318,5.473,1.436c0.021-0.01,0.043-0.02,0.065-0.029c1.741-0.776,2.094-2.876,1.838-4.517
			c-0.225-1.443-0.961-2.88-1.137-4.281c-0.428-3.402-5.638-6.129-7.454-2.019c-0.727,1.646-1.274,3.357-2,5
			c2.303,0,4.605,0,6.908,0c-2.869-4.003-3.446-8.127-2.597-12.918c0.887-5.009-6.628-7.216-7.714-2.127
			c-0.737,3.452-0.329,6.572-0.143,10.063c0.199,3.729,5.534,5.773,7.454,2.019c2.387-4.667,3.538-9.616,0.88-14.422
			c-2.73-4.937-9.284-5.943-14.334-5.597C708.882,447.352,708.848,455.354,714,455L714,455z"/>
	</g>
</g>
<g>
	<g>
		<path d="M721.171,403.172c-24.795,28.597-17.916,72.901,12.81,94.282c4.247,2.954,8.24-3.984,4.038-6.908
			c-26.326-18.318-32.45-57.198-11.19-81.718C730.19,404.951,724.557,399.268,721.171,403.172L721.171,403.172z"/>
	</g>
</g>
<g>
	<g>
		<path d="M718.143,439.937c-3.197,10.401-2.312,23.094,6.028,30.892c3.764,3.519,9.433-2.127,5.657-5.656
			c-6.296-5.887-6.349-15.373-3.972-23.108C727.377,437.119,719.654,435.021,718.143,439.937L718.143,439.937z"/>
	</g>
</g>
<g>
	<g>
		<path d="M723.546,449.019c3.83,8.128,13.428,13.927,22.454,12.981c2.501-0.262,4.659-2.365,3.857-5.063
			c-1.543-5.192-5.116-8.877-9.838-11.391c-4.552-2.422-8.593,4.483-4.038,6.908c2.881,1.533,5.202,3.381,6.162,6.609
			c1.286-1.688,2.571-3.376,3.857-5.063c-6.513,0.682-12.784-3.156-15.546-9.019C728.256,440.316,721.361,444.381,723.546,449.019
			L723.546,449.019z"/>
	</g>
</g>
<g>
	<g>
		<path d="M952,495c19.579,1.594,27.392-15.251,29.857-31.937c0.746-5.044-6.962-7.216-7.714-2.127
			C972.21,474.018,967.895,488.294,952,487C946.855,486.581,946.896,494.584,952,495L952,495z"/>
	</g>
</g>
<g>
	<g>
		<path d="M961.063,492.857c24.852-4.632,28.413-30.064,22.793-50.921c-1.34-4.976-9.058-2.862-7.714,2.127
			c2.151,7.984,3.173,16.417,1.301,24.562c-2.179,9.481-9.225,14.788-18.507,16.518
			C953.869,486.087,956.021,493.797,961.063,492.857L961.063,492.857z"/>
	</g>
</g>
<g>
	<g>
		<path d="M775.851,608.858c2.712,15.276,8.845,29.47,14.792,43.705c1.958,4.687,9.702,2.632,7.714-2.127
			c-5.947-14.235-12.08-28.428-14.792-43.705C782.665,601.658,774.956,603.814,775.851,608.858L775.851,608.858z"/>
	</g>
</g>
<g>
	<g>
		<path d="M794.687,656.607c30.165,8.916,61.22,24.669,80.109,50.661c3.001,4.13,9.947,0.144,6.908-4.037
			c-20.198-27.793-52.543-44.776-84.891-54.339C791.854,647.427,789.751,655.148,794.687,656.607L794.687,656.607z"/>
	</g>
</g>
<g>
	<g>
		<path d="M1192,722.25c64.96,5.646,130.158,7.644,195.328,9.03c65.497,1.394,131.007,3.135,196.52,3.462
			c66.042,0.33,132.086-0.68,198.098-2.646c32.174-0.958,64.315-2.107,96.502-2.613c31.859-0.501,63.767-1.297,95.419-5.234
			c2.279-0.283,4.555-0.598,6.83-0.909c5.729-0.787,3.28-9.458-2.393-8.68c-31.806,4.368-63.966,5.22-96.023,5.761
			c-32.139,0.543-64.234,1.569-96.361,2.556c-66.015,2.025-132.062,3.035-198.108,2.783c-65.53-0.25-131.055-2.038-196.568-3.397
			c-65.179-1.352-130.389-3.278-195.37-8.778c-1.291-0.109-2.582-0.221-3.872-0.334C1186.215,712.747,1186.264,721.752,1192,722.25
			L1192,722.25z"/>
	</g>
</g>
<g>
	<g>
		<path d="M740.821,422.671c-0.605-2.212-1.837-3.79-3.66-5.126c-1.818-1.333-4.4-1.336-6.491-0.866
			c-2.66,0.597-4.188,3.62-3.492,6.15c0.748,2.72,3.494,4.089,6.15,3.492c0.144-0.036,0.29-0.065,0.436-0.087
			c-0.443,0.06-0.886,0.119-1.329,0.179c0.342-0.04,0.668-0.046,1.01-0.009c-0.443-0.059-0.886-0.118-1.329-0.178
			c0.249,0.043,0.48,0.105,0.716,0.197c-0.398-0.168-0.796-0.336-1.194-0.504c0.224,0.104,0.424,0.222,0.623,0.367
			c-0.337-0.261-0.675-0.521-1.012-0.781c0.193,0.162,0.361,0.333,0.521,0.528c-0.261-0.337-0.521-0.675-0.782-1.012
			c0.2,0.275,0.356,0.56,0.492,0.872c-0.168-0.398-0.336-0.796-0.504-1.194c0.078,0.208,0.145,0.415,0.203,0.629
			c0.718,2.628,3.527,4.214,6.15,3.492C739.958,428.098,741.54,425.299,740.821,422.671L740.821,422.671z"/>
	</g>
</g>
<g>
	<g>
		<path d="M782.5,609.5c-0.001-2.818-0.114-5.792-1.614-8.271c-1.268-2.095-4.017-2.868-6.157-1.614
			c-2.09,1.225-2.885,4.058-1.614,6.157c0.56,0.925-0.269-0.947,0.099,0.13c0.079,0.23,0.316,1.737,0.183,0.6
			c0.117,0.992,0.104,2.001,0.104,2.999c0.001,2.453,2.046,4.5,4.5,4.5C780.452,614,782.501,611.953,782.5,609.5L782.5,609.5z"/>
	</g>
</g>
</svg>
