<?xml version="1.0" encoding="utf-8"?>
<!-- Generator: Adobe Illustrator 16.0.0, SVG Export Plug-In . SVG Version: 6.00 Build 0)  -->
<!DOCTYPE svg PUBLIC "-//W3C//DTD SVG 1.1//EN" "http://www.w3.org/Graphics/SVG/1.1/DTD/svg11.dtd">
<svg version="1.1" id="Layer_1" xmlns="http://www.w3.org/2000/svg" xmlns:xlink="http://www.w3.org/1999/xlink" x="0px" y="0px"
	 width="1798.912px" height="886.89px" viewBox="0 0 1798.912 886.89" enable-background="new 0 0 1798.912 886.89"
	 xml:space="preserve">
<g>
	<g>
		<path d="M908.384,366.115c-21.745-12.934-45.807-22.265-71.197-24.147c-25.28-1.874-49.68,5.972-69.289,21.931
			c-42.755,34.799-50.798,103.231-19.167,147.729c15.309,21.537,38.437,34.647,63.328,42.214c25.625,7.789,54.268,9.58,80.211,2.346
			c24.805-6.917,45.329-23.437,56.844-46.485c11.382-22.783,13.597-49.585,9.092-74.408
			C952.885,405.975,933.481,381.396,908.384,366.115c-4.419-2.69-8.436,4.23-4.038,6.908c21.858,13.309,38.265,33.54,44.83,58.449
			c6.626,25.145,3.627,53.889-8.373,76.942c-27.369,52.579-98.808,52.108-146.18,30.354c-24.394-11.202-43.243-30.907-51.987-56.427
			c-9.608-28.04-5.842-59.883,8.39-85.646c13.034-23.593,35.674-40.491,62.168-45.554c25.292-4.834,51.85,2.229,74.677,13.013
			c5.642,2.665,11.114,5.68,16.475,8.868C908.791,375.667,912.812,368.75,908.384,366.115z"/>
	</g>
</g>
<g>
	<g>
		<path d="M808.884,551.886c-37.441,42.202-63.987,94.062-67.626,151.013c-0.329,5.154,7.673,5.122,8,0
			c3.497-54.726,29.322-104.822,65.284-145.356C817.952,553.698,812.314,548.019,808.884,551.886L808.884,551.886z"/>
	</g>
</g>
<g>
	<g>
		<path d="M919.612,558.084c-6.037,67.81-36.411,130.295-47.487,197.117c-1.045,6.307,8.59,9.009,9.643,2.658
			c11.23-67.748,41.721-130.99,47.844-199.775C930.185,551.658,920.179,551.714,919.612,558.084L919.612,558.084z"/>
	</g>
</g>
<g>
	<g>
		<path d="M925.671,559.821c23.178,3.729,46.554,1.356,69.883,1.351c26.274-0.008,52.583,0.987,78.848,1.592
			c52.199,1.201,104.402,2.438,156.619,2.453c6.449,0.002,6.449-9.998,0-10c-51.555-0.016-103.098-1.221-154.636-2.407
			c-25.771-0.593-51.543-1.18-77.318-1.605c-23.538-0.39-47.347,2.737-70.738-1.025
			C922.023,549.164,919.317,558.799,925.671,559.821L925.671,559.821z"/>
	</g>
</g>
<g>
	<g>
		<path d="M1226.57,561.41c-4.226,37.752-15.709,74.162-27.853,109.997c-6.175,18.225-12.574,36.374-18.463,54.694
			c-1.912,5.948-3.014,12.087-4.54,18.138c-1.329,5.267-3.062,12.065-7.782,15.37c-5.231,3.662-0.289,12.312,5.047,8.635
			c1.493-1.028,2.98-2.012,4.545-2.927c5.563-3.251,0.533-11.895-5.047-8.635c-1.565,0.915-3.053,1.898-4.545,2.927
			c1.682,2.878,3.365,5.757,5.047,8.635c11.068-7.749,12.453-22.495,15.471-34.605c4.726-18.966,12.391-37.516,18.697-56.006
			c12.931-37.913,24.95-76.258,29.423-116.223C1237.287,555.007,1227.279,555.076,1226.57,561.41L1226.57,561.41z"/>
	</g>
</g>
<g>
	<g>
		<path d="M873.849,768.773c50.176,4.213,100.548,4.119,150.859,3.619c24.915-0.248,49.869-0.892,74.783-0.444
			c23.336,0.419,46.647,2.37,69.783-1.788c5.706-1.025,3.281-9.697-2.393-8.678c-22.847,4.105-46.176,1.848-69.221,1.434
			c-24.962-0.449-49.974,0.247-74.937,0.496c-49.649,0.494-99.36,0.518-148.875-3.639
			C868.062,759.287,868.109,768.291,873.849,768.773L873.849,768.773z"/>
	</g>
</g>
<g>
	<g>
		<path d="M891,697.177c-38.265,3.241-76.574-0.685-114.874-0.757c-4.515-0.009-4.514,6.991,0,7
			c38.3,0.072,76.609,3.998,114.874,0.757C895.463,703.799,895.5,696.796,891,697.177L891,697.177z"/>
	</g>
</g>
<g>
	<g>
		<path d="M772.528,704.235c37.097,17.168,69.206,42.974,105.302,61.943c4.562,2.397,8.606-4.507,4.038-6.908
			c-36.097-18.97-68.205-44.775-105.302-61.943C771.917,695.176,767.85,702.07,772.528,704.235L772.528,704.235z"/>
	</g>
</g>
<g>
	<g>
		<path d="M686.746,713.961c66.432,57.895,123.583,126.105,195.298,177.925c5.238,3.784,10.221-4.896,5.047-8.635
			c-70.982-51.289-127.513-119.052-193.273-176.36C688.979,702.674,681.875,709.717,686.746,713.961L686.746,713.961z"/>
	</g>
</g>
<g>
	<g>
		<path d="M749.672,712.876c13.377,0.804,26.734,1.846,40.038,3.479c5.752,0.706,5.684-8.303,0-9
			c-13.304-1.633-26.661-2.675-40.038-3.479C743.872,703.527,743.906,712.529,749.672,712.876L749.672,712.876z"/>
	</g>
</g>
<g>
	<g>
		<path d="M686.853,709.212c19.963,1.593,40.12,1.052,59.951,4.128c5.676,0.88,8.114-7.792,2.393-8.68
			c-20.655-3.203-41.557-2.789-62.344-4.448C681.063,699.75,681.108,708.754,686.853,709.212L686.853,709.212z"/>
	</g>
</g>
<g>
	<g>
		<path d="M680.666,704.664c3.578,63.004-10.021,125.279-10.17,188.19c-0.014,5.805,8.986,5.804,9,0
			c0.149-62.911,13.748-125.187,10.17-188.19C689.338,698.895,680.336,698.863,680.666,704.664L680.666,704.664z"/>
	</g>
</g>
<g>
	<g>
		<path d="M726.646,415.14c-29.106,9.539-24.403,47.286-11.01,67.919c6.219,9.581,16.177,18.167,28.307,16.101
			c15.808-2.693,25.377-24.704,26.838-38.478c2.777-26.179-16.837-48.145-43.072-48.542c-5.162-0.078-5.154,7.922,0,8
			c22.56,0.342,38.511,19.839,34.824,42.07c-1.809,10.901-11.452,32.915-26.12,28.802c-11.1-3.111-17.782-17.062-20.907-27.045
			c-3.52-11.244-4.612-26.111,3.984-35.434c2.515-2.728,5.787-4.533,9.283-5.679C733.653,421.255,731.563,413.529,726.646,415.14
			L726.646,415.14z"/>
	</g>
</g>
<g>
	<g>
		<path d="M950.567,417.283c15.159-0.399,23.264,15.474,26.125,28.255c2.825,12.62,1.404,31.671-12.903,36.744
			c-4.827,1.712-2.748,9.443,2.127,7.715c34.921-12.386,21.422-81.683-15.349-80.714
			C945.418,409.419,945.405,417.419,950.567,417.283L950.567,417.283z"/>
	</g>
</g>
<g>
	<g>
		<path d="M722.424,436.505c-4.499,16.47,7.431,41.531,27.521,32.223c7.83-3.628,13.794-11.578,9.435-20.298
			c-3.736-7.473-12.241-9.793-19.404-5.744c-6.365,3.599-9.928,12.153-6.921,18.893c2.416,5.414,7.961,8.78,13.714,9.386
			c6.349,0.669,10.263-4.919,9.775-10.739c-0.67-7.996-6.472-16.443-14.807-17.63c-12.124-1.727-17.079,10.337-11.768,19.85
			c1.318,2.359,4.399,2.479,6.283,0.81c4.449-3.941,8.109-9.847,6.921-16.034c-1.235-6.434-6.881-9.761-12.972-10.651
			c-2.285-0.334-4.122,0.541-4.92,2.794c-1.714,4.836-2.524,8.42-1.429,13.556c0.481,2.258,2.881,3.178,4.92,2.794
			c6.892-1.298,11.599-6.934,10.68-14.058c-0.789-6.114-5.079-12.29-11.603-12.97c-8.672-0.904-14.057,8.86-16.199,15.823
			c-2.841,9.229,0.252,19.707,6.795,26.552c6.702,7.011,18.017,8.264,26.594,4.198c6.121-2.9,8.599-9.127,5.083-15.125
			c-3.248-5.541-10.389-8.68-16.633-8.327c-8.1,0.458-13.889,7.444-15.604,14.952c-2.154,9.429,5.495,17.121,14.453,18.109
			c9.839,1.086,16.932-6.171,16.512-15.87c-0.091-2.112-1.751-4.087-4-4c-6.753,0.262-13.661,3.807-14.309,11.256
			c-0.661,7.604,5.294,12.735,11.817,15.173c4.843,1.809,6.914-5.926,2.127-7.715c-6.794-2.538-8.371-10.375,0.365-10.714
			c-1.333-1.333-2.667-2.667-4-4c0.23,5.318-2.43,8.271-7.799,7.949c-4.139-0.249-8.14-3.71-7.453-8.062
			c0.898-5.685,5.533-10.16,11.364-8.823c2.117,0.485,8.327,3.595,6.64,6.597c-1.306,2.323-6.328,2.74-8.541,2.901
			c-4.156,0.303-7.971-1.366-10.96-4.157c-6.216-5.804-6.695-15.48-3.141-22.74c1.97-4.024,6.001-8.762,9.39-3.478
			c2.659,4.147,0.975,7.932-3.706,8.812c1.64,0.932,3.28,1.862,4.92,2.794c-0.774-3.633,0.235-5.933,1.429-9.302
			c-1.64,0.931-3.28,1.862-4.92,2.794c3.015,0.44,7.011,1.227,7.318,4.918c0.282,3.398-2.473,6.337-4.798,8.396
			c2.094,0.27,4.188,0.539,6.283,0.81c-1.708-3.058-2.381-7.587,2.282-7.997c5.42-0.479,9.062,5.959,9.45,10.593
			c0.419,5.001-8.853-0.819-8.743-5.308c0.102-4.131,5.743-8.485,9.589-6.63c5.726,2.763,3.096,9.099-1.122,11.589
			c-14.131,8.345-21.174-11.123-18.197-22.022C731.5,433.646,723.782,431.534,722.424,436.505L722.424,436.505z"/>
	</g>
</g>
<g>
	<g>
		<path d="M718.139,461.489c1.212,6.776,0.984,12.747,6.743,17.479c3.19,2.622,7.359,0.15,6.686-3.892
			c-1.352-8.108-2.695-16.219-4.286-24.285c-2.229,1.297-4.457,2.595-6.686,3.892c1.007,1.197,1.585,2.423,1.829,3.949
			c0.611,3.839,7.096,3.831,7.714,0c1.26-7.804-1.534-16.015,0.761-23.645c1.328-4.414,7.783-3.295,10.956-2.296
			c4.016,1.266,8.181,4.58,9.14,8.798c1.286-1.688,2.571-3.376,3.857-5.063c-9.483,1.057-18.196-3.619-22.26-12.305
			c-0.797,1.958-1.594,3.917-2.391,5.876c3.057-1.193,7.291-2.831,10.08-0.245c2.408,2.232,2.857,6.455,3.122,9.515
			c0.744,8.601-0.74,17.398-2.409,25.81c-1.002,5.049,6.075,7.043,7.714,2.127c1.429-4.285,2.857-8.571,4.286-12.856
			c1.637-4.908-6.091-6.995-7.714-2.127c-1.429,4.286-2.857,8.571-4.286,12.856c2.571,0.709,5.143,1.418,7.714,2.127
			c2.111-10.639,3.833-21.712,2.127-32.523c-1.907-12.081-11.696-16.717-22.761-12.397c-2.546,0.994-3.563,3.37-2.391,5.876
			c5.12,10.943,17.172,17.604,29.168,16.268c2.634-0.293,4.48-2.323,3.857-5.063c-2.54-11.17-17.039-18.095-27.542-14.614
			c-13.734,4.552-7.088,21.506-8.743,31.757c2.571,0,5.143,0,7.714,0c-0.459-2.886-2.038-5.281-3.885-7.479
			c-2.797-3.327-7.39,0.32-6.686,3.892c1.59,8.065,2.934,16.177,4.286,24.285c2.229-1.297,4.457-2.595,6.686-3.892
			c-4.377-3.597-3.761-8.777-4.686-13.949C724.946,454.29,717.237,456.445,718.139,461.489L718.139,461.489z"/>
	</g>
</g>
<g>
	<g>
		<path d="M749.424,446.14c1.037,13.788-1.135,34.137-18.857,34.572c-3.672,0.091-5.049,4.206-2.829,6.828
			c3.554,4.196,8.728,8.475,14.602,6.565c5.497-1.787,8.192-7.835,10.132-12.771c2.521-6.416,3.873-13.3,5.27-20.027
			c0.58-2.793,1.139-5.59,1.786-8.368c0.242-1.038,0.513-2.069,0.819-3.091c0.308-1.026,0.71-1.47,0.192-0.88
			c-2.229-0.588-4.457-1.177-6.686-1.765c2.506,11.035-0.414,21.998-6.74,31.204c2.303,0,4.605,0,6.908,0
			c-5.139-9.14-11.046-17.814-16.054-27.036c-4.166-7.671-11.08-19.402-7.829-28.453c1.749-4.867-5.984-6.944-7.714-2.127
			c-3.67,10.218,2.343,22.231,6.839,31.187c5.293,10.544,12.078,20.202,17.85,30.467c1.56,2.774,5.266,2.391,6.908,0
			c7.543-10.977,10.51-24.321,7.546-37.368c-0.644-2.836-4.728-3.995-6.686-1.765c-2.341,2.666-2.906,6.67-3.635,10.02
			c-1.257,5.777-2.349,11.586-3.82,17.315c-1.225,4.769-2.566,10.49-5.778,14.383c-2.785,3.375-5.658-0.082-8.252-3.146
			c-0.943,2.276-1.886,4.552-2.829,6.828c22.574-0.555,28.265-23.86,26.857-42.572C757.04,441.028,749.037,440.991,749.424,446.14
			L749.424,446.14z"/>
	</g>
</g>
<g>
	<g>
		<path d="M731.996,406.426c-30.953,3.915-34.868,53.225-14.257,71.114c3.876,3.365,9.56-2.269,5.657-5.656
			c-8.72-7.569-10.644-20.631-9.917-31.554c0.729-10.963,6.191-24.346,18.517-25.904
			C737.042,413.787,737.104,405.779,731.996,406.426L731.996,406.426z"/>
	</g>
</g>
<g>
	<g>
		<path d="M724.424,411.489c7.962-20.019,18.348-39.505,33.817-54.754c14.385-14.18,33.081-22.537,53.068-24.837
			c45.532-5.241,96.3,15.217,124.139,51.844c8.843,11.635,15.026,24.979,18.405,39.176c1.194,5.018,8.908,2.889,7.714-2.127
			c-10.973-46.109-50.265-78.188-94.334-91.295c-21.578-6.418-44.903-8.327-67.045-3.875c-19.229,3.865-36.487,13.944-50.081,27.955
			c-15.233,15.699-25.387,35.648-33.397,55.786C714.801,414.16,722.541,416.223,724.424,411.489L724.424,411.489z"/>
	</g>
</g>
<g>
	<g>
		<path d="M959.424,434.712c0,11.429,0,22.856,0,34.285c0,5.323,7.338,4.938,8,0c1.272-9.487,1.426-19.014,1.428-28.571
			c-2.619,0.354-5.238,0.709-7.857,1.063c1.621,6.624,2.948,13.313,4.286,20c0.904,4.519,7.842,3.354,7.857-1.063
			c0.05-15.053,0.427-29.214-9.743-41.399c-1.297,2.229-2.595,4.457-3.892,6.686c12.438,4.618,17.312,23.218,15.398,35.038
			c-2.007,12.399-15.46,16.252-19.62,27.184c-1.678,4.41,4.973,6.74,7.311,3.082c5.699-8.917,7.602-18.697,7.688-29.161
			c-2.667,0-5.333,0-8,0c0.187,4.326,1.243,8.536,1.429,12.857c0.158,3.664,4.158,5.059,6.829,2.828
			c8.382-7.001,8.722-19.487,7.194-29.417c-1.329-8.637-6.13-21.403-16.102-22.983c-3.069-0.485-5.581,1.729-4.92,4.921
			c3.493,16.885-1.553,36.868,7.546,52.384c2.607,4.446,9.523,0.423,6.908-4.037c-4.304-7.34-4.326-16.962-4.738-25.217
			c-0.419-8.407-0.29-16.979-2.002-25.257c-1.64,1.641-3.28,3.28-4.92,4.921c6.775,1.073,9.183,10.717,10.32,16.305
			c1.507,7.407,1.327,17.489-4.942,22.725c2.276,0.942,4.552,1.886,6.829,2.828c-0.187-4.326-1.243-8.536-1.429-12.857
			c-0.221-5.134-7.957-5.179-8,0c-0.076,9.122-1.625,17.346-6.597,25.124c2.437,1.027,4.874,2.055,7.311,3.082
			c1.948-5.118,8.544-8.799,12.137-12.738c5.283-5.792,7.749-12.774,8.165-20.53c0.795-14.82-7.048-33.365-21.667-38.795
			c-4.118-1.529-6.196,3.925-3.892,6.686c8.546,10.24,7.442,23.235,7.4,35.743c2.619-0.354,5.238-0.709,7.857-1.063
			c-1.338-6.686-2.666-13.375-4.286-20c-1.085-4.436-7.856-3.415-7.857,1.063c-0.002,9.558-0.156,19.084-1.428,28.571
			c2.667,0,5.333,0,8,0c0-11.429,0-22.856,0-34.285C967.424,429.553,959.424,429.553,959.424,434.712L959.424,434.712z"/>
	</g>
</g>
<g>
	<g>
		<path d="M713.853,437.204c1.591,5.822,4.123,11.321,5.714,17.144c1.373,5.024,8.701,2.883,7.714-2.127
			c-1.514-7.688-2.623-15.374-2.714-23.223c-1.688,1.285-3.375,2.571-5.063,3.857c10.233,4.209,14.644,15.865,17.207,25.777
			c0.891,3.447,5.521,3.825,7.311,0.955c4.13-6.62,9.747-12.246,17.609-13.875c-1.64-0.932-3.28-1.863-4.92-2.794
			c4.895,15.083-8.092,28.716-12.857,42.158c-1.404,3.96,3.944,6.481,6.686,3.892c14.25-13.462,9.043-37.754-4.286-49.941
			c-3.799-3.474-9.472,2.168-5.657,5.656c10.135,9.267,15.414,28.117,4.286,38.629c2.229,1.297,4.457,2.594,6.686,3.892
			c5.438-15.342,18.496-29.036,12.857-46.412c-0.706-2.175-2.71-3.252-4.92-2.794c-9.842,2.039-17.221,9.268-22.391,17.553
			c2.437,0.318,4.874,0.637,7.311,0.955c-3.39-13.11-9.636-25.953-22.793-31.365c-2.438-1.002-5.091,1.49-5.063,3.857
			c0.099,8.548,1.352,16.977,3,25.35c2.571-0.709,5.143-1.418,7.714-2.127c-1.591-5.822-4.123-11.32-5.714-17.144
			C720.208,430.106,712.49,432.22,713.853,437.204L713.853,437.204z"/>
	</g>
</g>
<g>
	<g>
		<path d="M958.139,460.792c-1.122,4.924-1.29,10.323-3.883,14.759c2.485,0.673,4.97,1.346,7.454,2.019
			c-1.217-17.904,15.797-44.525-3.41-57.739c-3.431-2.36-7.362,2.16-5.473,5.473c3.685,6.459,5.509,13.58,8.168,20.473
			c1.836,4.761,9.574,2.693,7.714-2.127c-2.909-7.541-4.943-15.316-8.974-22.383c-1.824,1.824-3.649,3.648-5.473,5.473
			c7.426,5.109,5.09,16.218,3.637,23.671c-1.731,8.884-4.812,18.008-4.189,27.16c0.261,3.844,5.349,5.621,7.454,2.019
			c3.011-5.15,3.389-10.963,4.688-16.669C966.997,457.896,959.284,455.763,958.139,460.792L958.139,460.792z"/>
	</g>
</g>
<g>
	<g>
		<path d="M771.71,610.427c-1.372,20.519-2.618,40.95,0,61.429c0.645,5.045,8.653,5.107,8,0c-2.618-20.479-1.372-40.91,0-61.429
			C780.055,605.274,772.052,605.308,771.71,610.427L771.71,610.427z"/>
	</g>
</g>
<g>
	<g>
		<path d="M778.926,676.217c37.429,5.781,74.464,13.42,105.105,37.105c4.027,3.113,9.734-2.505,5.657-5.656
			c-15.095-11.669-31.702-20.409-49.781-26.481c-19.053-6.399-39.049-9.623-58.854-12.683
			C776.008,667.723,773.84,675.431,778.926,676.217L778.926,676.217z"/>
	</g>
</g>
<g>
	<g>
		<path d="M714,455c6.134-0.421,9.729,1.758,6.546,7.981c2.485,0.673,4.97,1.346,7.454,2.019c-0.142-2.655-0.708-5.291-0.143-7.937
			c-2.571-0.709-5.143-1.418-7.714-2.127c-1.208,6.817-0.733,13.311,3.403,19.082c1.544,2.155,5.575,3.017,6.908,0
			c0.727-1.646,1.274-3.357,2-5c-2.485-0.673-4.97-1.346-7.454-2.019c0.276,2.193,1.085,4.237,1.423,6.407
			c0.613-1.506,1.226-3.012,1.838-4.517c-0.022,0.01-0.043,0.019-0.065,0.028c1.824,0.479,3.648,0.957,5.473,1.435
			c-0.072-0.124-0.144-0.248-0.215-0.372c-1.266-2.195-4.506-2.679-6.283-0.81c-4.596,4.834-8.661,14.403-0.804,18.523
			c8.747,4.587,16.664-6.066,19.842-12.675c6.528-13.575,17.189-45.073-4.146-50.878c-3.159-0.859-5.427,1.998-4.92,4.921
			c0.37,2.133,1.633,3.883,2,6c2.229-1.298,4.457-2.595,6.686-3.892c-1.327-1.341-2.297-2.435-2.972-4.235
			c-1.286,1.688-2.571,3.376-3.857,5.063c1.888-0.014,3.779-0.095,5.667-0.037c-0.91-1.111-1.268-1.353-1.076-0.724
			c0.291,0.899,0.394,1.897,0.552,2.824c1.64-1.641,3.28-3.28,4.92-4.921c-7.168-1.076-11.227-9.123-6.609-15.124
			c1.43-1.858,0.138-4.311-1.435-5.473c-4.83-3.566-9.055-5.252-15.083-4.403c-4.677,0.659-3.198,7.629,1.063,7.857
			c9.984,0.537,19.387,4.349,25.617,12.42c6.256,8.106,8.287,18.564,8.383,28.58c0.05,5.156,8.05,5.161,8,0
			c-0.118-12.158-2.914-24.748-10.796-34.328C750.369,409.15,739.123,404.651,727,404c0.354,2.619,0.709,5.238,1.063,7.857
			c3.593-0.507,6.195,1.586,8.917,3.597c-0.478-1.824-0.957-3.648-1.435-5.473c-7.563,9.83-0.511,25.089,11.391,26.876
			c3.153,0.473,5.468-1.713,4.92-4.921c-1.336-7.83-5.785-7.988-12.857-7.937c-2.419,0.018-4.789,2.576-3.857,5.063
			c1.165,3.11,2.694,5.407,5.028,7.765c3.022,3.053,7.335-0.146,6.686-3.892c-0.37-2.133-1.633-3.883-2-6
			c-1.64,1.641-3.28,3.28-4.92,4.921c12.62,3.434,4.691,24.219,1.923,32.28c-2.027,5.902-4.274,13.163-10.175,16.261
			c-4.096,2.149,0.392-4.778,1.144-5.57c-2.094-0.27-4.188-0.539-6.283-0.81c0.072,0.125,0.144,0.249,0.215,0.373
			c1.176,2.04,3.493,2.318,5.473,1.436c0.021-0.01,0.043-0.02,0.065-0.029c1.741-0.776,2.094-2.876,1.838-4.517
			c-0.225-1.443-0.961-2.88-1.137-4.281c-0.428-3.402-5.638-6.129-7.454-2.019c-0.727,1.646-1.274,3.357-2,5
			c2.303,0,4.605,0,6.908,0c-2.869-4.003-3.446-8.127-2.597-12.918c0.887-5.009-6.628-7.216-7.714-2.127
			c-0.737,3.452-0.329,6.572-0.143,10.063c0.199,3.729,5.534,5.773,7.454,2.019c2.387-4.667,3.538-9.616,0.88-14.422
			c-2.73-4.937-9.284-5.943-14.334-5.597C708.882,447.352,708.848,455.354,714,455L714,455z"/>
	</g>
</g>
<g>
	<g>
		<path d="M721.171,403.172c-24.795,28.597-17.916,72.901,12.81,94.282c4.247,2.954,8.24-3.984,4.038-6.908
			c-26.326-18.318-32.45-57.198-11.19-81.718C730.19,404.951,724.557,399.268,721.171,403.172L721.171,403.172z"/>
	</g>
</g>
<g>
	<g>
		<path d="M718.143,439.937c-3.197,10.401-2.312,23.094,6.028,30.892c3.764,3.519,9.433-2.127,5.657-5.656
			c-6.296-5.887-6.349-15.373-3.972-23.108C727.377,437.119,719.654,435.021,718.143,439.937L718.143,439.937z"/>
	</g>
</g>
<g>
	<g>
		<path d="M723.546,449.019c3.83,8.128,13.428,13.927,22.454,12.981c2.501-0.262,4.659-2.365,3.857-5.063
			c-1.543-5.192-5.116-8.877-9.838-11.391c-4.552-2.422-8.593,4.483-4.038,6.908c2.881,1.533,5.202,3.381,6.162,6.609
			c1.286-1.688,2.571-3.376,3.857-5.063c-6.513,0.682-12.784-3.156-15.546-9.019C728.256,440.316,721.361,444.381,723.546,449.019
			L723.546,449.019z"/>
	</g>
</g>
<g>
	<g>
		<path d="M952,495c19.579,1.594,27.392-15.251,29.857-31.937c0.746-5.044-6.962-7.216-7.714-2.127
			C972.21,474.018,967.895,488.294,952,487C946.855,486.581,946.896,494.584,952,495L952,495z"/>
	</g>
</g>
<g>
	<g>
		<path d="M961.063,492.857c24.852-4.632,28.413-30.064,22.793-50.921c-1.34-4.976-9.058-2.862-7.714,2.127
			c2.151,7.984,3.173,16.417,1.301,24.562c-2.179,9.481-9.225,14.788-18.507,16.518
			C953.869,486.087,956.021,493.797,961.063,492.857L961.063,492.857z"/>
	</g>
</g>
<g>
	<g>
		<path d="M775.851,608.858c2.712,15.276,8.845,29.47,14.792,43.705c1.958,4.687,9.702,2.632,7.714-2.127
			c-5.947-14.235-12.08-28.428-14.792-43.705C782.665,601.658,774.956,603.814,775.851,608.858L775.851,608.858z"/>
	</g>
</g>
<g>
	<g>
		<path d="M794.687,656.607c30.165,8.916,61.22,24.669,80.109,50.661c3.001,4.13,9.947,0.144,6.908-4.037
			c-20.198-27.793-52.543-44.776-84.891-54.339C791.854,647.427,789.751,655.148,794.687,656.607L794.687,656.607z"/>
	</g>
</g>
<g>
	<g>
		<path d="M1192,722.25c64.96,5.646,130.158,7.644,195.328,9.03c65.497,1.394,131.007,3.135,196.52,3.462
			c66.042,0.33,132.086-0.68,198.098-2.646c32.174-0.958,64.315-2.107,96.502-2.613c31.859-0.501,63.767-1.297,95.419-5.234
			c2.279-0.283,4.555-0.598,6.83-0.909c5.729-0.787,3.28-9.458-2.393-8.68c-31.806,4.368-63.966,5.22-96.023,5.761
			c-32.139,0.543-64.234,1.569-96.361,2.556c-66.015,2.025-132.062,3.035-198.108,2.783c-65.53-0.25-131.055-2.038-196.568-3.397
			c-65.179-1.352-130.389-3.278-195.37-8.778c-1.291-0.109-2.582-0.221-3.872-0.334C1186.215,712.747,1186.264,721.752,1192,722.25
			L1192,722.25z"/>
	</g>
</g>
<g>
	<g>
		<path d="M740.821,422.671c-0.605-2.212-1.837-3.79-3.66-5.126c-1.818-1.333-4.4-1.336-6.491-0.866
			c-2.66,0.597-4.188,3.62-3.492,6.15c0.748,2.72,3.494,4.089,6.15,3.492c0.144-0.036,0.29-0.065,0.436-0.087
			c-0.443,0.06-0.886,0.119-1.329,0.179c0.342-0.04,0.668-0.046,1.01-0.009c-0.443-0.059-0.886-0.118-1.329-0.178
			c0.249,0.043,0.48,0.105,0.716,0.197c-0.398-0.168-0.796-0.336-1.194-0.504c0.224,0.104,0.424,0.222,0.623,0.367
			c-0.337-0.261-0.675-0.521-1.012-0.781c0.193,0.162,0.361,0.333,0.521,0.528c-0.261-0.337-0.521-0.675-0.782-1.012
			c0.2,0.275,0.356,0.56,0.492,0.872c-0.168-0.398-0.336-0.796-0.504-1.194c0.078,0.208,0.145,0.415,0.203,0.629
			c0.718,2.628,3.527,4.214,6.15,3.492C739.958,428.098,741.54,425.299,740.821,422.671L740.821,422.671z"/>
	</g>
</g>
<g>
	<g>
		<path d="M782.5,609.5c-0.001-2.818-0.114-5.792-1.614-8.271c-1.268-2.095-4.017-2.868-6.157-1.614
			c-2.09,1.225-2.885,4.058-1.614,6.157c0.56,0.925-0.269-0.947,0.099,0.13c0.079,0.23,0.316,1.737,0.183,0.6
			c0.117,0.992,0.104,2.001,0.104,2.999c0.001,2.453,2.046,4.5,4.5,4.5C780.452,614,782.501,611.953,782.5,609.5L782.5,609.5z"/>
	</g>
</g>
</svg>
