<?xml version="1.0" encoding="utf-8"?>
<!-- Generator: Adobe Illustrator 16.0.0, SVG Export Plug-In . SVG Version: 6.00 Build 0)  -->
<!DOCTYPE svg PUBLIC "-//W3C//DTD SVG 1.1//EN" "http://www.w3.org/Graphics/SVG/1.1/DTD/svg11.dtd">
<svg version="1.1" id="Layer_1" xmlns="http://www.w3.org/2000/svg" xmlns:xlink="http://www.w3.org/1999/xlink" x="0px" y="0px"
	 width="1798.912px" height="886.89px" viewBox="0 0 1798.912 886.89" enable-background="new 0 0 1798.912 886.89"
	 xml:space="preserve">
<g>
	<g id="XMLID_1_">
		<g>
			<path d="M965.911,187.067c5.76-0.036,5.76,8.896,0,8.931c-52.229,0.321-104.457-1.143-156.685-0.839
				c-26.025,0.152-52.05,0.706-78.03,2.143c-23.006,1.277-45.78,4.707-68.733,6.582c0-0.705,0-1.402,0-2.107
				c0-5.761-8.931-5.761-8.931,0c0,0.536,0,1.072,0,1.607c-2.447-2.232-1.42-7.671,3-7.975c25.561-1.769,50.844-5.788,76.44-7.136
				c25.989-1.358,52.005-1.938,78.021-2.054C862.633,185.996,914.271,187.38,965.911,187.067z"/>
			<path d="M662.463,201.777c0,0.706,0,1.402,0,2.107c-1.974,0.17-3.956,0.322-5.93,0.456c-1.295,0.089-2.295-0.294-3-0.956
				c0-0.536,0-1.072,0-1.607C653.533,196.016,662.463,196.016,662.463,201.777z"/>
			<path d="M662.463,203.884c-0.036,73.52-0.812,147.039-1.724,220.55c-1.464,118.737-3.206,237.483-2.509,356.229
				c0.036,5.76-8.896,5.76-8.931,0c-0.438-74.217,0.071-148.433,0.884-222.649c1.295-118.201,3.304-236.411,3.349-354.63
				c0.706,0.661,1.706,1.045,3,0.956C658.507,204.206,660.49,204.054,662.463,203.884z"/>
		</g>
	</g>
</g>
<g>
	<path d="M962.919,191.531c6.064,58.388,6.229,116.903,6.833,175.527c0.611,59.281-1.615,118.543-2.602,177.807
		c-1.284,77.116-0.127,154.232-1.286,231.345c-0.086,5.762,8.845,5.753,8.931,0c0.884-58.878-0.05-117.763,0.429-176.643
		c0.481-59.14,2.539-118.254,3.315-177.389c0.501-38.31,0.309-76.663-0.326-114.969c-0.642-38.623-2.372-77.246-6.364-115.678
		C971.261,185.862,962.324,185.804,962.919,191.531L962.919,191.531z"/>
</g>
<g>
	<path d="M650.913,792.533c105.271-2.133,210.437-7.456,315.642-11.525c5.741-0.222,5.762-9.153,0-8.931
		c-105.205,4.068-210.371,9.393-315.642,11.524C645.162,783.718,645.15,792.649,650.913,792.533L650.913,792.533z"/>
</g>
<g>
	<path d="M1165.724,122.708c-5.346,0.78-10.691,1.553-16.099,1.495c-13.386,3.055-26.796,6.002-40.145,9.224
		c-17.023,4.108-33.711,9.4-50.432,14.586c-31.446,9.751-62.762,21.049-90.08,39.819c-4.714,3.239-0.254,10.983,4.507,7.712
		c27.184-18.679,58.186-29.69,89.463-39.39c16.22-5.031,32.411-10.098,48.916-14.116c17.284-4.208,34.698-7.861,52.01-11.953
		C1167.669,129.187,1167.79,124.935,1165.724,122.708z"/>
</g>
<g>
	<path stroke="#000000" stroke-width="0.8" stroke-miterlimit="10" d="M1189.437,327.599c2.668,59.191,6.054,118.428,6.442,177.689
		c0.739,113.205-4.644,226.343-4.559,339.543c2.976-0.011,5.954-0.01,8.93,0.003c-0.087-117.921,5.693-235.777,4.438-353.706
		c-0.605-56.896-4.096-113.808-6.64-170.641c-1.264-28.215-2.417-56.409-2.563-84.657c-0.145-28.083,0.38-56.166,0.792-84.245
		c0.084-5.762-8.846-5.754-8.931,0c-0.429,29.245-0.952,58.491-0.772,87.741C1186.755,268.778,1188.111,298.183,1189.437,327.599z"
		/>
</g>
<g>
	<path d="M1198.632,844.83c2.271-2.172,2.268-6.652-1.663-7.548c-77.535-17.685-150.06-52.693-228.398-67.349
		c-5.628-1.053-8.031,7.554-2.374,8.611c76.826,14.373,148.064,48.307,223.917,66.291
		C1192.954,844.821,1195.793,844.822,1198.632,844.83z"/>
</g>
<g>
	<path stroke="#000000" stroke-width="0.25" stroke-miterlimit="10" d="M1215.944,495.976c0.696,59.164,0.568,118.34-0.475,177.499
		c-1.007,57.145-3.483,114.275-3.644,171.431c2.98,0.021,5.959,0.035,8.938,0.042c0.146-55.983,2.534-111.947,3.572-167.918
		c1.1-59.161,1.228-118.339,0.58-177.507c-1.296-118.375-5.843-236.696-12.322-354.895c-0.064-1.186-0.13-2.371-0.195-3.556
		c-0.316-5.727-9.249-5.757-8.931,0C1209.985,259.275,1214.553,377.595,1215.944,495.976z"/>
</g>
<g>
	<path d="M1185.1,119.355c-4.621,0.752-9.241,1.448-13.87,1.969c-0.512,0.45-1.204,0.774-2.107,0.898
		c-5.641,0.778-11.264,1.752-16.945,1.95c-0.823,2.611,0.527,5.978,4.075,5.939c9.273-0.101,18.413-1.568,27.541-3.087
		C1187.971,126.33,1187.751,121.487,1185.1,119.355z"/>
</g>
<g>
	<path d="M1189.268,121.149c-0.945-0.604-1.849-1.276-2.71-2.033c-1.264,0.208-2.528,0.415-3.793,0.614
		c-1.455,0.91-2.371,2.578-1.719,4.732c3.096,10.242,5.945,20.644,6.092,31.411c0.078,5.754,9.009,5.762,8.931,0
		c-0.157-11.559-3.086-22.787-6.411-33.785C1189.553,121.745,1189.422,121.432,1189.268,121.149z"/>
</g>
<g>
	<path d="M1210.352,118.948c-2.315-0.11-4.629-0.276-6.948-0.414c-0.105,1.796-0.228,3.591-0.381,5.385
		c1.802-0.249,3.602-0.508,5.396-0.804c1.424-0.234,2.46-1.362,2.946-2.69C1211.031,119.93,1210.692,119.438,1210.352,118.948z"/>
</g>
<g>
	<path d="M1186.568,119.114c-3.045,0.502-6.089,0.985-9.137,1.417c-0.071,0.305-0.119,0.623-0.119,0.958
		c0,2.336,2.033,4.596,4.465,4.465c1.556-0.083,3.11-0.179,4.665-0.288c2.05-0.144,3.809-1.411,4.309-3.343
		c-0.062-0.129-0.117-0.262-0.178-0.391C1189.151,121.141,1187.817,120.212,1186.568,119.114z"/>
</g>
<g>
	<path d="M1211.25,121.489c-0.107-1.034-0.495-1.879-1.048-2.539c-2.261-0.112-4.522-0.282-6.787-0.416
		c-0.146,2.409-0.337,4.815-0.553,7.222c0.117,0.569,0.099,1.119-0.04,1.631c0.43,6.072,0.656,12.158,1.283,18.216
		c0.587,5.669,9.524,5.727,8.931,0C1212.207,137.582,1212.081,129.511,1211.25,121.489z"/>
</g>
<g>
	<g>
		<path d="M1184.904,128.275c6.274-0.002,12.525-0.07,18.755-0.893c2.701-0.357,5-2.004,5-5c0-2.455-2.291-5.358-5-5
			c-6.229,0.823-12.481,0.891-18.755,0.893C1178.456,118.277,1178.456,128.277,1184.904,128.275L1184.904,128.275z"/>
	</g>
</g>
<g>
	<g>
		<path d="M992.109,420.147c2.599,11.628,5.439,23.2,8.038,34.828c0.71,3.177,5.206,2.231,5.402-0.731
			c0.31-4.687,3.603-8.404,5.261-12.664c-1.675,0.219-3.351,0.438-5.026,0.656c2.374,3.54,7.081,4.616,9.376,8.037
			c1.203,1.792,4.568,1.871,5.026-0.656c3.822-21.08-4.608-41.117-12.056-60.403c-1.264-3.271-6.583-1.852-5.304,1.463
			c7.007,18.145,15.662,37.592,12.056,57.478c1.676-0.219,3.351-0.438,5.026-0.656c-2.374-3.539-7.082-4.616-9.376-8.037
			c-1.399-2.087-4.157-1.578-5.026,0.656c-1.926,4.951-5.092,8.612-5.457,14.127c1.801-0.244,3.601-0.487,5.402-0.731
			c-2.599-11.628-5.439-23.2-8.038-34.828C996.639,415.224,991.337,416.692,992.109,420.147L992.109,420.147z"/>
	</g>
</g>
<g>
	<g>
		<path d="M1022.918,424.166c1.184,5.842,2.574,11.632,4.019,17.414c0.859,3.439,6.164,1.979,5.304-1.463
			c-1.445-5.782-2.835-11.571-4.019-17.414C1027.518,419.228,1022.217,420.703,1022.918,424.166L1022.918,424.166z"/>
	</g>
</g>
<g>
	<g>
		<path d="M1032.339,440.848c-1.198-10.83-2.345-22.013,9.355-27.096c3.246-1.411,0.442-6.147-2.776-4.75
			c-13.569,5.896-13.496,19.035-12.079,31.846C1027.225,444.333,1032.729,444.371,1032.339,440.848L1032.339,440.848z"/>
	</g>
</g>
<g>
	<g>
		<path d="M1026.301,435.462c5.17-1.387,9.634-4.032,14.054-6.975c2.936-1.956,0.186-6.722-2.776-4.75
			c-4.028,2.683-8.022,5.156-12.739,6.422C1021.417,431.078,1022.871,436.383,1026.301,435.462L1026.301,435.462z"/>
	</g>
</g>
<g>
	<g>
		<path d="M1029.589,443.598c6.445-0.322,12.468-4.716,17.464-8.412c2.817-2.085,0.079-6.862-2.776-4.75
			c-4.04,2.99-9.439,7.399-14.688,7.662C1026.06,438.275,1026.043,443.776,1029.589,443.598L1029.589,443.598z"/>
	</g>
</g>
<g>
	<g>
		<path d="M1046.933,404.68c-1.344,10.596,0.076,21.651,4.117,31.541c0.527,1.288,1.856,2.486,3.383,1.92
			c5.146-1.906,9.337-4.958,13.27-8.744c2.559-2.464-1.334-6.349-3.889-3.889c-3.218,3.098-6.622,5.766-10.843,7.33
			c1.127,0.64,2.255,1.28,3.383,1.92c-3.889-9.516-5.214-19.883-3.921-30.078C1052.878,401.168,1047.373,401.211,1046.933,404.68
			L1046.933,404.68z"/>
	</g>
</g>
<g>
	<g>
		<path d="M1071.068,398.286c-7.754,5.017-12.406,14.554-7.349,23.188c5.652,9.649,17.344,5.869,24.078-0.113
			c2.657-2.36-1.248-6.235-3.889-3.889c-4.255,3.779-11.431,7.244-15.44,1.226c-3.822-5.738,0.408-12.447,5.376-15.661
			C1076.81,401.117,1074.056,396.353,1071.068,398.286L1071.068,398.286z"/>
	</g>
</g>
<g>
	<g>
		<path d="M1086.157,392.575c-4.67,8.578-2.314,30.433,11.325,27.828c7.88-1.506,10.968-10.677,9.103-17.542
			c-2.107-7.761-10.099-13.504-18.053-12.987c-3.521,0.229-3.543,5.729,0,5.5c5.522-0.358,9.801,2.886,12.261,7.653
			c2.195,4.252,0.019,13.153-6.182,12.138c-6.364-1.043-5.902-15.777-3.705-19.814
			C1092.602,392.235,1087.853,389.458,1086.157,392.575L1086.157,392.575z"/>
	</g>
</g>
<g>
	<g>
		<path d="M1115.394,411.377c-1.354-10.256-3.851-20.435-4.019-30.811c-1.565,0.648-3.13,1.296-4.694,1.944
			c3.739,3.037,8.513,3.416,12.612,5.789c2.241,1.297,4.441-0.817,4.04-3.106c-0.766-4.366,1.236-7.972,2.68-11.933
			c-1.532,0.404-3.064,0.809-4.596,1.213c11.093,8.978,8.602,28.27,8.571,40.922c-0.009,3.547,5.491,3.546,5.5,0
			c0.035-14.162,2.245-34.754-10.182-44.811c-1.665-1.348-3.845-0.847-4.596,1.213c-1.877,5.152-3.656,9.292-2.68,14.858
			c1.347-1.035,2.693-2.071,4.04-3.106c-3.537-2.047-8.354-2.373-11.5-4.928c-1.756-1.427-4.736-0.655-4.694,1.944
			c0.168,10.392,2.665,20.546,4.019,30.811C1110.351,414.841,1115.857,414.886,1115.394,411.377L1115.394,411.377z"/>
	</g>
</g>
<g>
	<g>
		<path d="M1139.023,393.109c0.674,3.841,1.196,7.702,1.681,11.571c0.435,3.471,5.94,3.513,5.5,0
			c-0.546-4.356-1.119-8.709-1.877-13.034C1143.715,388.158,1138.415,389.641,1139.023,393.109L1139.023,393.109z"/>
	</g>
</g>
<g>
	<g>
		<path d="M1134.104,375.94c1.341,3.18,2.43,6.438,3.316,9.773c0.91,3.425,6.215,1.97,5.304-1.463
			c-0.886-3.335-1.975-6.593-3.316-9.773c-0.582-1.38-1.795-2.357-3.383-1.92C1134.721,372.916,1133.521,374.555,1134.104,375.94
			L1134.104,375.94z"/>
	</g>
</g>
<g>
	<g>
		<path d="M1138.068,377.28c2.365-6.564,7.941-9.899,14.763-10.037c3.542-0.071,3.549-5.571,0-5.5
			c-9.408,0.189-16.854,5.16-20.066,14.074C1131.559,379.163,1136.875,380.589,1138.068,377.28L1138.068,377.28z"/>
	</g>
</g>
<g>
	<g>
		<path d="M1142.875,392.208c3.548-0.682,6.959-1.95,10.004-3.908c2.971-1.912,0.216-6.675-2.776-4.75
			c-2.684,1.728-5.563,2.754-8.689,3.355C1137.932,387.575,1139.41,392.875,1142.875,392.208L1142.875,392.208z"/>
	</g>
</g>
<g>
	<g>
		<path d="M1146.738,407.963c2.667-2.667,5.021-5.457,7.127-8.594c1.984-2.953-2.783-5.703-4.749-2.775
			c-1.85,2.753-3.926,5.139-6.267,7.48C1140.339,406.584,1144.228,410.474,1146.738,407.963L1146.738,407.963z"/>
	</g>
</g>
<g>
	<g>
		<path d="M973.376,404.375c19.556-14.751,40.114-28.41,63.023-37.384c21.916-8.586,45.326-12.427,68.584-15.243
			c19.094-2.312,39.499-4.962,55.745-16.129c13.871-9.534,22.483-24.808,30.673-39.079c1.339-2.333,2.665-4.675,3.991-7.016
			c1.751-3.09-3-5.861-4.749-2.776c-8.602,15.175-17.028,32.289-31.243,43.076c-16.238,12.322-38.138,14.411-57.661,16.82
			c-22.719,2.805-45.357,6.812-66.802,15.043c-22.308,8.562-42.438,21.624-61.526,35.825c-0.939,0.701-1.876,1.405-2.811,2.112
			C967.807,401.733,970.542,406.512,973.376,404.375L973.376,404.375z"/>
	</g>
</g>
<g>
	<g>
		<path d="M978.381,503.856c17.121-38.978,63.395-40.983,100.195-43.768c18.778-1.42,37.156-3.311,55.075-9.399
			c21.149-7.186,40.051-19.731,53.17-37.973c4.864-6.764,8.553-14.281,11.528-22.04c1.271-3.317-4.047-4.739-5.304-1.463
			c-8.716,22.738-25.494,39.846-47.193,50.552c-18.207,8.981-37.897,12.354-57.92,14.08c-35.313,3.043-79.959,1.939-104.9,31.771
			c-3.896,4.661-6.962,9.914-9.4,15.465C972.22,504.295,976.957,507.097,978.381,503.856L978.381,503.856z"/>
	</g>
</g>
<g>
	<g>
		<path d="M1137.668,383.982c0.915,2.675,2.019,5.281,2.679,8.037c0.254,1.061,1.738,0.582,1.591-0.439
			c-0.356-2.476-1.12-4.842-2.083-7.145c-0.323-0.771-1.746-0.79-1.621,0.22c0.319,2.569,0.624,5.139,1.22,7.662
			c0.214,0.908,1.646,0.709,1.621-0.22c-0.076-2.829-0.887-5.518-1.518-8.258c-0.239-1.038-1.817-0.597-1.591,0.439
			c0.376,1.722,0.932,3.39,1.488,5.062c0.502-0.212,1.005-0.424,1.508-0.636c-0.547-1.101-1.062-2.192-1.405-3.376
			c-0.295-1.021-1.846-0.595-1.591,0.439c0.613,2.483,1.151,4.978,1.458,7.52c0.126,1.043,1.778,1.055,1.65,0
			c-0.325-2.69-0.869-5.329-1.518-7.959c-0.53,0.146-1.061,0.293-1.591,0.439c0.382,1.321,0.96,2.54,1.571,3.769
			c0.417,0.839,1.802,0.249,1.508-0.636c-0.556-1.671-1.111-3.339-1.488-5.062c-0.53,0.146-1.061,0.293-1.591,0.439
			c0.597,2.593,1.387,5.14,1.458,7.818c0.541-0.073,1.081-0.146,1.621-0.22c-0.562-2.38-0.86-4.798-1.161-7.223
			c-0.541,0.073-1.081,0.146-1.621,0.22c0.963,2.303,1.728,4.668,2.083,7.145c0.53-0.146,1.061-0.293,1.591-0.439
			c-0.661-2.755-1.765-5.361-2.679-8.037C1138.917,382.542,1137.323,382.972,1137.668,383.982L1137.668,383.982z"/>
	</g>
</g>
<g>
	<g>
		<path d="M1138.942,384.475c0.595,1.191,1.19,2.382,1.786,3.572c0.258,0.515,1.184,0.564,1.425,0c0.396-0.927,0.396-1.691,0-2.618
			c-0.417-0.976-1.838-0.135-1.425,0.832c0.14,0.327,0.14,0.627,0,0.954c0.475,0,0.95,0,1.425,0
			c-0.596-1.191-1.191-2.382-1.786-3.572C1139.892,382.691,1138.468,383.527,1138.942,384.475L1138.942,384.475z"/>
	</g>
</g>
<g>
	<g>
		<path d="M1139.537,384.475c0.52,1.075,0.819,2.222,1.108,3.376c0.502-0.212,1.005-0.424,1.508-0.636
			c-0.364-0.604-0.248-1.258-0.513-1.887c-0.404,0.311-0.808,0.621-1.212,0.932c0.592,0.297,1.136,0.604,1.619,1.062
			c0.772,0.731,1.941-0.434,1.167-1.166c-0.585-0.555-1.235-0.961-1.953-1.319c-0.565-0.283-1.521,0.199-1.212,0.932
			c0.123,0.291,0.138,0.57,0.179,0.881c0.068,0.513,0.232,0.956,0.5,1.398c0.488,0.808,1.736,0.274,1.508-0.636
			c-0.325-1.297-0.691-2.561-1.274-3.769C1140.499,382.685,1139.077,383.522,1139.537,384.475L1139.537,384.475z"/>
	</g>
</g>
<g>
	<g>
		<path d="M1192.597,843.974c6.591,1.507,13.358,1.517,20.083,1.519c6.449,0.002,6.449-9.998,0-10
			c-5.813-0.002-11.727,0.142-17.425-1.161C1188.978,832.896,1186.312,842.538,1192.597,843.974L1192.597,843.974z"/>
	</g>
</g>
<g>
	<g>
		<path d="M-2.498,805.461c127.12,13.394,255.04,1.884,382.17-5.169c89.49-4.965,179.176-6.815,268.797-6.831
			c6.449-0.001,6.449-10.001,0-10c-65.556,0.012-131.107,1.17-196.621,3.524c-63.481,2.28-126.841,6.752-190.263,10.217
			c-87.914,4.803-176.358,7.502-264.084-1.741C-8.909,794.786-8.843,804.792-2.498,805.461L-2.498,805.461z"/>
	</g>
</g>
<g>
	<g>
		<path d="M1221.441,774.462c62.349,8.077,125.422,6.653,188.102,4.444c63.634-2.243,127.166-3.458,190.843-3.585
			c93.675-0.188,187.348,0.635,281.022,0.641c6.448,0,6.448-10,0-10c-66.067-0.004-132.134-0.404-198.2-0.585
			c-65.23-0.179-130.538-0.679-195.755,0.885c-88.592,2.124-177.737,9.636-266.012-1.8
			C1215.059,763.635,1215.139,773.646,1221.441,774.462L1221.441,774.462z"/>
	</g>
</g>
</svg>
