<?xml version="1.0" encoding="utf-8"?>
<!-- Generator: Adobe Illustrator 16.0.0, SVG Export Plug-In . SVG Version: 6.00 Build 0)  -->
<!DOCTYPE svg PUBLIC "-//W3C//DTD SVG 1.1//EN" "http://www.w3.org/Graphics/SVG/1.1/DTD/svg11.dtd">
<svg version="1.1" id="Layer_1" xmlns="http://www.w3.org/2000/svg" xmlns:xlink="http://www.w3.org/1999/xlink" x="0px" y="0px"
	 width="1798.912px" height="886.89px" viewBox="0 0 1798.912 886.89" enable-background="new 0 0 1798.912 886.89"
	 xml:space="preserve">
<g>
	<g>
		<path d="M668.127,423.536c11.958,1.417,23.972,1.499,35.998,1.5c6.449,0.001,6.449-9.999,0-10
			c-12.026-0.001-24.04-0.083-35.998-1.5C661.731,412.778,661.804,422.787,668.127,423.536L668.127,423.536z"/>
	</g>
</g>
<g>
	<g>
		<path d="M702.125,420.036c0,65.886-0.011,131.773-1.048,197.653c-0.508,32.281-0.953,64.618-2.533,96.868
			c-1.491,30.422-4.27,60.793-3.676,91.281c0.301,15.421,1.656,30.828,4.435,46.005c1.16,6.337,10.797,3.645,9.643-2.658
			c-5.5-30.033-4.583-60.811-2.942-91.16c1.675-30.991,3.356-61.9,4.124-92.934c1.629-65.916,1.92-131.856,1.983-197.789
			c0.015-15.756,0.015-31.511,0.015-47.267C712.125,413.588,702.125,413.588,702.125,420.036L702.125,420.036z"/>
	</g>
</g>
<g>
	<g>
		<path d="M687.126,381.038c1.309,10.972,1.498,21.962,1.5,32.998c0.001,6.448,10.001,6.448,10,0
			c-0.001-11.036-0.191-22.026-1.5-32.998C696.372,374.717,686.363,374.643,687.126,381.038L687.126,381.038z"/>
	</g>
</g>
<g>
	<g>
		<path d="M718.624,382.538c-0.014,70.496-1.534,141.088,3,211.489c0.412,6.402,10.415,6.442,10,0
			c-4.534-70.401-3.014-140.993-3-211.489C728.625,376.09,718.625,376.09,718.624,382.538L718.624,382.538z"/>
	</g>
</g>
<g>
	<g>
		<path d="M713.125,605.027c132.47,0.006,264.835,5.761,397.234,9.343c65.203,1.764,130.419,3.836,195.626,1.561
			c65.881-2.298,131.761-4.632,197.614-7.623c19.155-0.87,38.308-1.804,57.456-2.801c6.415-0.334,6.447-10.336,0-10
			c-65.855,3.43-131.75,6.026-197.651,8.397c-32.675,1.177-65.377,2.828-98.073,3.184c-32.432,0.353-64.856-0.656-97.278-1.327
			c-132.438-2.74-264.791-8.885-397.258-10.401c-19.223-0.22-38.446-0.331-57.67-0.332
			C706.676,595.027,706.676,605.027,713.125,605.027L713.125,605.027z"/>
	</g>
</g>
<g>
	<g>
		<path d="M1575.811,605.032c73.82-4.998,147.749-8.996,221.76-9.005c6.448-0.001,6.449-10.001,0-10
			c-74.011,0.009-147.939,4.007-221.76,9.005C1569.412,595.466,1569.37,605.469,1575.811,605.032L1575.811,605.032z"/>
	</g>
</g>
<g>
	<g>
		<path d="M1530.584,608.027c12.529-0.835,25.059-1.672,37.589-2.495c6.4-0.421,6.441-10.423,0-10
			c-12.53,0.823-25.06,1.66-37.589,2.495C1524.185,598.454,1524.143,608.457,1530.584,608.027L1530.584,608.027z"/>
	</g>
</g>
<g>
	<g>
		<path d="M1638.639,307.675c15.972-11.962,24.619-29.95,29.639-48.86c5.905-22.25,7.025-46.185,0.644-68.442
			c-5.562-19.399-18.592-35.619-34.423-47.713c-18.051-13.79-40.938-19.468-63.142-21.779c-6.412-0.667-6.348,9.339,0,10
			c19.614,2.042,38.846,7.254,55.313,18.408c14.841,10.053,26.521,25.238,32.146,42.245c6.568,19.857,5.21,41.653,0.535,61.743
			c-3.969,17.054-11.33,34.956-25.76,45.764C1628.496,302.856,1633.472,311.545,1638.639,307.675L1638.639,307.675z"/>
	</g>
</g>
<g>
	<g>
		<path d="M1495.922,148.039c-13.35,17.902-21.47,39.469-22.95,61.766c-1.567,23.611,6.802,45.482,22.901,62.615
			c17.282,18.39,41.466,31.31,64.996,39.729c24.383,8.725,53.421,11.322,76.087-3.3c5.397-3.482,0.39-12.142-5.047-8.635
			c-20.687,13.345-46.245,9.917-68.382,2.292c-21.622-7.447-43.208-19.774-59.439-35.979c-31.521-31.471-24.341-80.169,0.469-113.44
			C1508.416,147.91,1499.729,142.934,1495.922,148.039L1495.922,148.039z"/>
	</g>
</g>
<g>
	<g>
		<path d="M1631.709,307.832c11.185,12.754,16.62,28.918,20.104,45.254c4.188,19.643,5.389,39.832,5.812,59.865
			c0.791,37.501-0.562,75.961-14.658,111.215c-2.396,5.993,7.279,8.569,9.643,2.658c14.887-37.23,15.893-78.219,14.927-117.781
			c-0.493-20.191-2.205-40.444-6.423-60.223c-3.736-17.521-10.415-34.469-22.334-48.059
			C1634.52,295.904,1627.476,303.006,1631.709,307.832L1631.709,307.832z"/>
	</g>
</g>
<g>
	<g>
		<path d="M1451.152,413.031c30.446-9.618,62.031-15.612,93.972-16.733c5.144-0.181,5.161-8.181,0-8
			c-32.626,1.146-64.995,7.193-96.099,17.019C1444.125,406.865,1446.219,414.589,1451.152,413.031L1451.152,413.031z"/>
	</g>
</g>
<g>
	<g>
		<path d="M1447.802,406.834c2.738-23.01-7.506-45.539-15.924-66.346c-1.909-4.718-9.65-2.658-7.715,2.127
			c8.153,20.151,18.29,41.934,15.639,64.219C1439.193,411.95,1447.2,411.892,1447.802,406.834L1447.802,406.834z"/>
	</g>
</g>
<g>
	<g>
		<path d="M1427.993,342.813c9.22-5.161,17.198,15.271,19.583,20.962c4.715,11.254,8.351,23.23,10.72,35.205
			c1.001,5.059,8.712,2.911,7.715-2.127c-2.844-14.368-7.46-28.71-13.695-41.957c-4.827-10.253-14.908-26.521-28.359-18.991
			C1419.455,338.426,1423.487,345.336,1427.993,342.813L1427.993,342.813z"/>
	</g>
</g>
<g>
	<g>
		<path d="M1542.114,397.748c17.539,32.559,40.54,61.751,63.035,90.959c3.101,4.026,10.056,0.051,6.908-4.037
			c-22.495-29.209-45.496-58.401-63.035-90.959C1546.575,389.168,1539.668,393.207,1542.114,397.748L1542.114,397.748z"/>
	</g>
</g>
<g>
	<g>
		<path d="M1519.065,505.459c1.315,1.445,2.639,2.885,3.969,4.316c1.483,1.599,4.158,1.499,5.656,0c1.584-1.584,1.482-4.061,0-5.656
			c-1.329-1.433-2.652-2.871-3.969-4.316c-1.468-1.613-4.169-1.487-5.656,0C1517.471,501.397,1517.599,503.849,1519.065,505.459
			L1519.065,505.459z"/>
	</g>
</g>
<g>
	<g>
		<path d="M1441.537,413.073c25.812,29.972,49.711,61.551,76.212,90.935c3.462,3.839,9.102-1.837,5.656-5.656
			c-26.5-29.384-50.399-60.964-76.212-90.935C1443.821,403.501,1438.188,409.187,1441.537,413.073L1441.537,413.073z"/>
	</g>
</g>
<g>
	<g>
		<path d="M1539.18,516.076c22.408-6.473,45.26-11.277,67.613-17.949c4.931-1.472,2.829-9.193-2.127-7.715
			c-22.354,6.672-45.205,11.478-67.613,17.949C1532.106,509.79,1534.212,517.511,1539.18,516.076L1539.18,516.076z"/>
	</g>
</g>
<g>
	<g>
		<path d="M1653.821,594.329c11.614-64.088,19.635-128.883,35.068-192.233c2.385-9.79,4.489-19.659,7.067-29.4
			c1.294-4.89,3.088-11.23,5.941-14.721c2.66-3.253,6.047-4.43,10.667-4.965c8.032-0.933,16.315-0.161,24.345,0.392
			c20.739,1.426,41.43,4.303,62.09,6.599c6.404,0.712,6.336-9.296,0-10c-26.233-2.915-52.784-7.345-79.234-7.344
			c-11.65,0.001-22.708,2.498-28.501,13.537c-3.163,6.026-4.762,12.863-6.366,19.427c-2.857,11.692-5.627,23.419-8.343,35.146
			c-7.324,31.623-12.851,63.635-18.117,95.654c-4.677,28.43-9.122,56.898-14.26,85.251
			C1643.036,597.975,1652.673,600.668,1653.821,594.329L1653.821,594.329z"/>
	</g>
</g>
<g>
	<g>
		<path d="M1633.179,318.329c7.379,43.477,3.285,90.828-12.606,132.092c-6.196,16.09-15.9,31.528-30.961,40.562
			c-19.562,11.733-44.838,9.169-66.654,9.025c-6.45-0.043-6.446,9.957,0,10c23.689,0.156,48.965,1.895,70.541-9.729
			c16.901-9.106,27.979-26.149,35.181-43.418c8.188-19.631,12.828-40.899,15.517-61.936c3.373-26.391,3.08-53.009-1.374-79.254
			C1641.744,309.323,1632.108,312.023,1633.179,318.329L1633.179,318.329z"/>
	</g>
</g>
<g>
	<g>
		<path d="M1504.317,154.023c16.63-21.634,44.802-26.087,70.354-22.202c6.306,0.959,9.017-8.676,2.658-9.643
			c-30.565-4.647-61.939,1.16-81.646,26.798C1491.752,154.09,1500.445,159.061,1504.317,154.023L1504.317,154.023z"/>
	</g>
</g>
<g>
	<g>
		<path d="M1605.329,498.821c4.212-1.474,7.973-4.438,8.992-8.992c0.595-2.657-0.771-5.402-3.492-6.15
			c-2.529-0.696-5.556,0.832-6.15,3.492c-0.037,0.185-0.082,0.366-0.136,0.547c-0.271,0.995,0.535-1.084,0.09-0.154
			c-0.122,0.255-0.277,0.492-0.432,0.728c0.76-1.163,0.319-0.407,0.054-0.119c-0.202,0.219-0.43,0.413-0.655,0.606
			c1.062-0.91,0.289-0.249,0-0.066c-0.275,0.173-0.566,0.317-0.857,0.462c1.223-0.607,0.227-0.1-0.071,0.005
			c-2.57,0.899-4.252,3.388-3.492,6.15C1599.864,497.821,1602.755,499.723,1605.329,498.821L1605.329,498.821z"/>
	</g>
</g>
<g>
	<g>
		<path d="M1463,405.5c5.159,0,5.159-8,0-8S1457.841,405.5,1463,405.5L1463,405.5z"/>
	</g>
</g>
<g>
	<g>
		<path d="M1462.5,406c5.159,0,5.159-8,0-8S1457.341,406,1462.5,406L1462.5,406z"/>
	</g>
</g>
<g>
	<g>
		<path d="M1539.5,506.5c-4.162,0.391-8.266,0.627-11.172-2.828c-3.324-3.953-8.953,1.736-5.656,5.656
			c4.239,5.042,10.647,5.752,16.828,5.172C1544.591,514.021,1544.637,506.018,1539.5,506.5L1539.5,506.5z"/>
	</g>
</g>
<g>
	<g>
		<path d="M-21.666,870.338c59.048,8.775,118.699,6.895,178.033,2.352c61.03-4.674,121.879-10.568,183.001-14.129
			c124.323-7.243,248.809-8.569,373.174-2.049c125.559,6.582,251.419,12.496,377.096,5.472
			c62.328-3.484,124.531-8.185,186.687-13.978c61.804-5.759,123.568-13.125,185.721-12.785c35.891,0.195,71.749,2.1,107.618,3.151
			c35.656,1.044,71.364,0.829,107.033,1.034c69.448,0.401,139.583-0.559,207.699-15.566c6.297-1.387,3.626-11.027-2.658-9.643
			c-57.979,12.774-117.491,15.019-176.666,15.256c-59.94,0.24-119.887-0.421-179.786-2.61c-31.021-1.134-62.053-2.058-93.097-1.408
			c-31.052,0.649-61.979,3.816-92.887,6.666c-61.943,5.71-123.839,11.971-185.922,15.996c-62.563,4.057-125.054,7.141-187.766,7.101
			c-62.958-0.041-125.895-2.437-188.773-5.433c-62.305-2.968-124.479-7.143-186.877-7.453
			c-62.382-0.311-124.717,0.347-187.046,3.019c-70.278,3.014-140.381,8.02-210.434,14.31
			c-70.217,6.305-141.403,11.472-211.493,1.056C-25.313,859.758-28.026,869.393-21.666,870.338L-21.666,870.338z"/>
	</g>
</g>
<g>
	<g>
		<path d="M1098.436,607.851c25.546-10.175,41.574-33.712,54.688-56.754c15.176-26.666,26.444-55.466,38.916-83.441
			c12.483-28.002,25.558-55.989,41.779-82.058c15.129-24.312,36.961-44.037,66.621-46.564c27.11-2.311,52.033,11.943,70.772,30.337
			c20.11,19.739,33.349,44.866,46.718,69.34c14.75,27,30.408,53.547,49.633,77.647c15.828,19.843,35.156,38.016,59.259,47.052
			c20.476,7.677,42.495,5.034,61.771-4.632c9.07-4.548,17.488-10.768,24.954-17.61c6.274-5.751,14.724-15.686,24.284-13.401
			c6.269,1.498,8.929-8.145,2.658-9.643c-11.923-2.849-21.641,4.662-29.985,12.239c-9.606,8.724-19.437,16.449-31.336,21.876
			c-25.502,11.632-52.218,3.918-73.749-12.012c-22.599-16.721-39.503-41.022-54.388-64.467
			c-16.566-26.095-29.709-54.175-46.32-80.221c-13.525-21.206-30.75-40.706-52.584-53.58c-23.731-13.992-52.327-17.234-78.001-6.668
			c-26.143,10.76-42.57,33.722-56.166,57.43c-15.404,26.858-28.107,55.17-40.574,83.477c-10.617,24.108-20.751,48.511-33.801,71.44
			c-11.314,19.88-25.662,41.749-47.807,50.57C1089.862,600.564,1092.439,610.239,1098.436,607.851L1098.436,607.851z"/>
	</g>
</g>
<g>
	<g>
		<path d="M1658.005,529.714c1.14-5.092,1.967-10.238,2.816-15.385c0.443-2.687-0.66-5.372-3.492-6.15
			c-2.416-0.665-5.706,0.8-6.15,3.492c-0.85,5.146-1.677,10.293-2.816,15.385C1646.956,533.337,1656.597,536.006,1658.005,529.714
			L1658.005,529.714z"/>
	</g>
</g>
<g>
	<g>
		<path d="M1100.671,596.179c-7.941,1.983-15.879,3.909-24,5c-5.563,0.747-4.242,10.57,1.329,9.821
			c8.579-1.152,16.939-3.083,25.329-5.179C1109.583,604.26,1106.929,594.615,1100.671,596.179L1100.671,596.179z"/>
	</g>
</g>
<g>
	<g>
		<path d="M1569,605c6.449,0,6.449-10,0-10S1562.551,605,1569,605L1569,605z"/>
	</g>
</g>
<g>
	<g>
		<path d="M1573.523,605.317c-1.108,0.522-0.04,0.03,0.204-0.049c0.431-0.139,0.877-0.222,1.321-0.299
			c-1.552,0.269-0.283,0.062,0.092,0.043c0.286-0.014,0.573-0.013,0.859-0.013c2.726-0.003,5-2.272,5-5c0-2.724-2.274-5.003-5-5
			c-2.676,0.003-5.107,0.543-7.523,1.683c-2.465,1.162-3.079,4.647-1.794,6.841C1568.149,606.027,1571.059,606.479,1573.523,605.317
			L1573.523,605.317z"/>
	</g>
</g>
<g>
	<g>
		<path d="M1639.329,529.821c9.567-1.771,12.167,15.856,11.671,22.179c-0.505,6.434,9.499,6.385,10,0
			c1.11-14.149-7.084-35.013-24.329-31.821C1630.335,521.351,1633.026,530.987,1639.329,529.821L1639.329,529.821z"/>
	</g>
</g>
<g>
	<g>
		<path d="M1630.329,529.821c12.08-1.915,16.189,11.031,17.85,20.508c1.111,6.344,10.747,3.646,9.643-2.658
			c-2.798-15.974-12.097-30.354-30.15-27.492C1621.315,521.186,1624.022,530.821,1630.329,529.821L1630.329,529.821z"/>
	</g>
</g>
<g>
	<g>
		<path d="M1643.317,315.477c-2-4-4-8-6-12c-1.218-2.437-4.606-3.103-6.841-1.794c-2.464,1.443-3.013,4.403-1.794,6.841
			c2,4,4,8,6,12c1.218,2.437,4.606,3.103,6.841,1.794C1643.987,320.874,1644.536,317.914,1643.317,315.477L1643.317,315.477z"/>
	</g>
</g>
<g>
	<g>
		<path d="M693,386c9.676-0.064,19.323-0.942,29-1c6.447-0.039,6.45-10.039,0-10c-9.677,0.058-19.324,0.936-29,1
			C686.554,376.043,686.549,386.043,693,386L693,386z"/>
	</g>
</g>
<g>
	<g>
		<path d="M656.999,418.324c15.109,127.684,12.46,256.546,11.789,384.861c-0.073,13.935-0.119,27.869-0.122,41.805
			c-0.001,6.449,9.999,6.448,10,0c0.021-128.292,4.048-256.89-7.324-384.861c-1.24-13.955-2.696-27.892-4.343-41.805
			C666.251,412.001,656.242,411.928,656.999,418.324L656.999,418.324z"/>
	</g>
</g>
</svg>
