<?xml version="1.0" encoding="utf-8"?>
<!-- Generator: Adobe Illustrator 16.0.0, SVG Export Plug-In . SVG Version: 6.00 Build 0)  -->
<!DOCTYPE svg PUBLIC "-//W3C//DTD SVG 1.1//EN" "http://www.w3.org/Graphics/SVG/1.1/DTD/svg11.dtd">
<svg version="1.1" id="Layer_1" xmlns="http://www.w3.org/2000/svg" xmlns:xlink="http://www.w3.org/1999/xlink" x="0px" y="0px"
	 width="1616.919px" height="836.89px" viewBox="0 0 1616.919 836.89" enable-background="new 0 0 1616.919 836.89"
	 xml:space="preserve">
<g>
	<g>
		<g id="XMLID_1_">
			<g>
				<path d="M857.137,93.32c6.45-0.04,6.45,9.96,0,10c-58.48,0.36-116.96-1.28-175.44-0.94c-29.14,0.17-58.28,0.79-87.37,2.4
					c-25.76,1.43-51.26,5.27-76.96,7.37c0-0.79,0-1.57,0-2.36c0-6.45-10-6.45-10,0c0,0.6,0,1.2,0,1.8c-2.74-2.5-1.59-8.59,3.36-8.93
					c28.62-1.98,56.93-6.48,85.59-7.99c29.1-1.52,58.23-2.17,87.36-2.3C741.497,92.12,799.317,93.67,857.137,93.32z"/>
				<path d="M517.367,109.79c0,0.79,0,1.57,0,2.36c-2.21,0.19-4.43,0.36-6.64,0.51c-1.45,0.1-2.57-0.33-3.36-1.07c0-0.6,0-1.2,0-1.8
					C507.367,103.34,517.367,103.34,517.367,109.79z"/>
				<path d="M517.367,112.15c-0.04,82.32-0.91,164.64-1.93,246.95c-1.64,132.95-3.59,265.91-2.81,398.87c0.04,6.45-9.96,6.45-10,0
					c-0.49-83.101,0.08-166.2,0.99-249.3c1.45-132.351,3.7-264.71,3.75-397.081c0.79,0.74,1.91,1.17,3.36,1.07
					C512.937,112.51,515.157,112.34,517.367,112.15z"/>
			</g>
			<g>
			</g>
		</g>
	</g>
	<g>
		<path d="M853.783,98.316c6.79,65.377,6.976,130.896,7.651,196.538c0.684,66.377-1.809,132.732-2.913,199.091
			c-1.438,86.347-0.143,172.693-1.439,259.036c-0.097,6.452,9.903,6.442,10,0c0.99-65.925-0.056-131.858,0.48-197.786
			c0.539-66.219,2.843-132.409,3.712-198.623c0.562-42.895,0.346-85.84-0.365-128.731c-0.719-43.246-2.656-86.493-7.126-129.525
			C863.124,91.968,853.117,91.904,853.783,98.316L853.783,98.316z"/>
	</g>
	<g>
		<path d="M504.43,771.258c117.872-2.388,235.627-8.349,353.425-12.904c6.428-0.249,6.451-10.249,0-10
			c-117.798,4.556-235.553,10.517-353.425,12.904C497.99,761.389,497.978,771.389,504.43,771.258L504.43,771.258z"/>
	</g>
	<g>
		<path d="M1080.864,21.255c-5.986,0.873-11.971,1.739-18.026,1.674c-14.988,3.42-30.004,6.721-44.95,10.328
			c-19.061,4.601-37.746,10.525-56.469,16.332c-35.21,10.919-70.274,23.568-100.862,44.586c-5.278,3.626-0.284,12.297,5.047,8.635
			c30.438-20.915,65.151-33.244,100.172-44.104c18.162-5.633,36.291-11.306,54.771-15.806c19.353-4.711,38.852-8.801,58.235-13.383
			C1083.043,28.509,1083.178,23.748,1080.864,21.255z"/>
	</g>
	<g>
		<path d="M1107.416,250.672c2.987,66.277,6.779,132.604,7.213,198.959c0.828,126.755-5.199,253.436-5.104,380.187
			c3.332-0.013,6.666-0.012,9.999,0.003c-0.098-132.036,6.375-264,4.97-396.045c-0.678-63.707-4.586-127.431-7.435-191.067
			c-1.415-31.592-2.706-63.161-2.87-94.79c-0.162-31.445,0.426-62.889,0.887-94.329c0.095-6.452-9.905-6.443-10,0
			c-0.48,32.746-1.066,65.493-0.864,98.244C1104.413,184.81,1105.932,217.734,1107.416,250.672z"/>
	</g>
	<g>
		<path d="M1117.712,829.816c2.543-2.433,2.54-7.449-1.861-8.452c-86.816-19.801-168.022-59.001-255.738-75.41
			c-6.302-1.179-8.992,8.458-2.658,9.643c86.022,16.093,165.788,54.089,250.721,74.226
			C1111.354,829.805,1114.533,829.806,1117.712,829.816z"/>
	</g>
	<g>
		<path d="M1137.097,439.204c0.779,66.246,0.636,132.505-0.532,198.746c-1.128,63.984-3.9,127.954-4.08,191.951
			c3.337,0.022,6.673,0.039,10.008,0.047c0.163-62.685,2.837-125.348,4-188.018c1.231-66.243,1.375-132.505,0.649-198.755
			c-1.451-132.545-6.543-265.03-13.797-397.377c-0.072-1.327-0.146-2.654-0.219-3.981c-0.354-6.412-10.355-6.446-10,0
			C1130.424,174.169,1135.538,306.653,1137.097,439.204z"/>
	</g>
	<g>
		<path d="M1102.56,17.5c-5.174,0.842-10.348,1.621-15.53,2.205c-0.573,0.504-1.349,0.867-2.359,1.006
			c-6.316,0.871-12.612,1.962-18.974,2.184c-0.922,2.923,0.59,6.693,4.562,6.65c10.383-0.113,20.617-1.756,30.837-3.457
			C1105.774,25.31,1105.528,19.888,1102.56,17.5z"/>
	</g>
	<g>
		<path d="M1107.227,19.509c-1.059-0.676-2.07-1.428-3.035-2.276c-1.415,0.233-2.831,0.464-4.247,0.688
			c-1.629,1.019-2.654,2.886-1.925,5.299c3.467,11.468,6.657,23.114,6.821,35.171c0.088,6.443,10.088,6.452,10,0
			c-0.176-12.942-3.456-25.514-7.179-37.829C1107.546,20.176,1107.399,19.826,1107.227,19.509z"/>
	</g>
	<g>
		<path d="M1130.834,17.044c-2.592-0.123-5.183-0.31-7.779-0.463c-0.117,2.011-0.255,4.021-0.427,6.03
			c2.018-0.278,4.032-0.568,6.042-0.899c1.595-0.263,2.755-1.525,3.299-3.013C1131.595,18.144,1131.216,17.593,1130.834,17.044z"/>
	</g>
	<g>
		<path d="M1104.204,17.23c-3.41,0.562-6.818,1.103-10.23,1.586c-0.08,0.342-0.133,0.697-0.133,1.073c0,2.616,2.276,5.146,5,5
			c1.742-0.093,3.482-0.2,5.223-0.322c2.296-0.161,4.265-1.58,4.825-3.743c-0.069-0.145-0.131-0.293-0.199-0.438
			C1107.096,19.5,1105.603,18.46,1104.204,17.23z"/>
	</g>
	<g>
		<path d="M1131.841,19.89c-0.12-1.158-0.554-2.104-1.174-2.843c-2.532-0.125-5.063-0.315-7.6-0.465
			c-0.164,2.697-0.378,5.392-0.619,8.086c0.131,0.637,0.11,1.253-0.044,1.826c0.481,6.799,0.734,13.613,1.437,20.396
			c0.657,6.348,10.664,6.412,10,0C1132.911,37.909,1132.771,28.872,1131.841,19.89z"/>
	</g>
	<g>
		<g>
			<path d="M1102.341,26.89c7.025-0.002,14.025-0.078,21-1c2.701-0.357,5-2.004,5-5c0-2.455-2.291-5.358-5-5
				c-6.975,0.922-13.975,0.998-21,1C1095.892,16.892,1095.892,26.892,1102.341,26.89L1102.341,26.89z"/>
		</g>
	</g>
	<g>
		<g>
			<path d="M886.785,354.209c2.909,13.021,6.091,25.978,9,38.998c0.708,3.168,5.221,2.24,5.402-0.731
				c0.323-5.304,4.049-9.452,5.902-14.268c-1.675,0.219-3.351,0.438-5.026,0.656c2.591,4.011,7.993,5.119,10.499,8.999
				c1.183,1.832,4.569,1.84,5.026-0.656c4.306-23.511-5.198-45.955-13.499-67.459c-1.263-3.272-6.583-1.852-5.304,1.463
				c7.861,20.363,17.587,42.217,13.499,64.533c1.675-0.219,3.351-0.438,5.026-0.656c-2.591-4.011-7.993-5.119-10.499-8.999
				c-1.368-2.117-4.175-1.555-5.026,0.656c-2.118,5.504-5.725,9.6-6.098,15.73c1.801-0.244,3.601-0.487,5.402-0.731
				c-2.909-13.021-6.091-25.978-9-38.998C891.315,349.286,886.013,350.754,886.785,354.209L886.785,354.209z"/>
		</g>
	</g>
	<g>
		<g>
			<path d="M921.283,358.709c1.326,6.541,2.882,13.024,4.5,19.499c0.86,3.439,6.164,1.979,5.304-1.463
				c-1.618-6.474-3.174-12.957-4.5-19.499C925.882,353.772,920.581,355.247,921.283,358.709L921.283,358.709z"/>
		</g>
	</g>
	<g>
		<g>
			<path d="M931.185,377.477c-1.353-12.223-2.599-24.918,10.638-30.624c3.249-1.401,0.444-6.138-2.776-4.75
				c-15.092,6.507-14.933,21.182-13.362,35.374C926.07,380.962,931.575,381,931.185,377.477L931.185,377.477z"/>
		</g>
	</g>
	<g>
		<g>
			<path d="M924.666,371.128c5.762-1.545,10.731-4.496,15.657-7.775c2.936-1.955,0.186-6.722-2.776-4.75
				c-4.533,3.019-9.034,5.798-14.343,7.223C919.781,366.744,921.235,372.049,924.666,371.128L924.666,371.128z"/>
		</g>
	</g>
	<g>
		<g>
			<path d="M928.435,380.227c7.149-0.357,13.851-5.277,19.388-9.375c2.817-2.085,0.079-6.862-2.776-4.75
				c-4.582,3.392-10.662,8.327-16.612,8.625C924.905,374.904,924.888,380.405,928.435,380.227L928.435,380.227z"/>
		</g>
	</g>
	<g>
		<g>
			<path d="M948.184,336.979c-1.516,11.82,0.072,24.202,4.598,35.229c0.53,1.291,1.853,2.481,3.383,1.92
				c5.7-2.09,10.372-5.511,14.712-9.706c2.554-2.469-1.339-6.354-3.889-3.889c-3.634,3.512-7.504,6.538-12.286,8.292
				c1.127,0.64,2.255,1.28,3.383,1.92c-4.374-10.656-5.867-22.345-4.402-33.767C954.134,333.468,948.628,333.511,948.184,336.979
				L948.184,336.979z"/>
		</g>
	</g>
	<g>
		<g>
			<path d="M975.044,330.104c-8.533,5.521-13.679,16.005-8.111,25.512c6.213,10.606,19.065,6.361,26.443-0.193
				c2.657-2.36-1.248-6.235-3.889-3.889c-4.94,4.389-13.183,8.246-17.805,1.306c-4.383-6.581,0.43-14.293,6.138-17.985
				C980.787,332.935,978.032,328.171,975.044,330.104L975.044,330.104z"/>
		</g>
	</g>
	<g>
		<g>
			<path d="M992.057,323.591c-5.086,9.282-2.562,33.899,12.489,30.629c8.83-1.92,12.052-12.258,9.533-19.929
				c-2.681-8.162-11.062-14.151-19.647-13.562c-3.519,0.242-3.542,5.743,0,5.5c6.413-0.44,11.976,3.642,14.343,9.523
				c2.168,5.388-0.639,13.301-7.289,13.331c-4.121,0.019-5.458-7.189-5.955-10.087c-0.674-3.931-0.69-9.045,1.275-12.631
				C998.511,323.255,993.762,320.48,992.057,323.591L992.057,323.591z"/>
		</g>
	</g>
	<g>
		<g>
			<path d="M1024.181,344.478c-1.507-11.482-4.331-22.88-4.5-34.498c-1.565,0.648-3.13,1.296-4.694,1.944
				c4.1,3.45,9.534,3.747,14.055,6.431c2.214,1.313,4.47-0.829,4.04-3.106c-0.934-4.949,1.381-9.035,3-13.537
				c-1.532,0.405-3.064,0.809-4.596,1.213c12.527,10.046,9.725,31.848,9.693,46.053c-0.008,3.547,5.492,3.547,5.5,0
				c0.035-15.708,2.56-38.824-11.305-49.941c-1.664-1.334-3.851-0.859-4.596,1.213c-2.037,5.664-4.157,10.33-3,16.461
				c1.347-1.035,2.693-2.071,4.04-3.106c-3.965-2.353-9.447-2.627-12.943-5.569c-1.748-1.471-4.731-0.622-4.694,1.944
				c0.169,11.634,2.992,23.007,4.5,34.498C1019.135,347.943,1024.641,347.987,1024.181,344.478L1024.181,344.478z"/>
		</g>
	</g>
	<g>
		<g>
			<path d="M1051.285,323.935c0.76,4.33,1.348,8.683,1.894,13.044c0.435,3.471,5.94,3.514,5.5,0
				c-0.607-4.849-1.246-9.692-2.09-14.507C1055.976,318.984,1050.676,320.467,1051.285,323.935L1051.285,323.935z"/>
		</g>
	</g>
	<g>
		<g>
			<path d="M1045.777,304.711c1.501,3.561,2.721,7.209,3.713,10.944c0.91,3.425,6.215,1.97,5.304-1.463
				c-0.992-3.734-2.211-7.382-3.713-10.943c-0.582-1.38-1.795-2.358-3.383-1.921
				C1046.394,301.687,1045.193,303.327,1045.777,304.711L1045.777,304.711z"/>
		</g>
	</g>
	<g>
		<g>
			<path d="M1049.581,306.211c2.7-7.491,9.055-11.323,16.847-11.48c3.542-0.071,3.549-5.571,0-5.5
				c-10.38,0.209-18.604,5.677-22.151,15.518C1043.071,308.094,1048.388,309.521,1049.581,306.211L1049.581,306.211z"/>
		</g>
	</g>
	<g>
		<g>
			<path d="M1055.193,322.698c3.947-0.76,7.735-2.164,11.123-4.343c2.971-1.912,0.216-6.675-2.776-4.75
				c-3.027,1.947-6.284,3.111-9.809,3.79C1050.25,318.065,1051.728,323.366,1055.193,322.698L1055.193,322.698z"/>
		</g>
	</g>
	<g>
		<g>
			<path d="M1059.373,340.423c2.967-2.968,5.585-6.066,7.929-9.557c1.984-2.953-2.783-5.703-4.749-2.775
				c-2.086,3.106-4.428,5.802-7.069,8.443C1052.975,339.044,1056.864,342.934,1059.373,340.423L1059.373,340.423z"/>
		</g>
	</g>
	<g>
		<g>
			<path d="M865.327,336.354c19.624-14.808,40.115-28.589,62.65-38.589c20.501-9.098,42.471-14.151,64.55-17.618
				c22.552-3.541,45.94-4.342,67.418-12.782c14.634-5.75,25.807-15.672,34.915-28.32c7.102-9.861,12.958-20.617,18.941-31.171
				c1.751-3.09-3-5.861-4.749-2.776c-8.825,15.57-17.372,32.339-30.669,44.651c-13.284,12.3-31.411,16.862-48.781,19.835
				c-24.192,4.14-48.507,5.877-72.334,12.18c-21.025,5.562-40.875,14.429-59.491,25.618c-12.22,7.345-23.852,15.642-35.226,24.223
				C859.757,333.712,862.493,338.492,865.327,336.354L865.327,336.354z"/>
		</g>
	</g>
	<g>
		<g>
			<path d="M870.812,447.861c17.031-38.87,60.541-44.971,98.22-48.072c18.835-1.551,37.861-2.314,56.422-6.109
				c20.557-4.203,41.204-12.793,57.726-25.83c15.512-12.24,26.852-28.218,33.897-46.638c1.269-3.318-4.05-4.74-5.304-1.463
				c-8.666,22.656-24.548,40.72-45.485,52.839c-17.898,10.361-38.275,15.931-58.692,18.393
				c-37.18,4.482-78.665,1.489-112.191,20.922c-13.164,7.63-23.255,19.289-29.343,33.184
				C864.654,448.3,869.392,451.103,870.812,447.861L870.812,447.861z"/>
		</g>
	</g>
	<g>
		<g>
			<path d="M1049.545,313.777c1.024,2.995,2.26,5.914,3,9c0.254,1.061,1.738,0.582,1.591-0.439c-0.398-2.772-1.254-5.421-2.333-8
				c-0.323-0.771-1.746-0.79-1.621,0.22c0.356,2.868,0.697,5.735,1.363,8.553c0.214,0.908,1.645,0.709,1.621-0.22
				c-0.085-3.159-0.991-6.16-1.696-9.22c-0.239-1.038-1.817-0.597-1.591,0.439c0.421,1.928,1.044,3.796,1.666,5.667
				c0.502-0.212,1.005-0.424,1.508-0.636c-0.616-1.24-1.197-2.471-1.583-3.804c-0.295-1.021-1.846-0.595-1.591,0.439
				c0.688,2.789,1.292,5.591,1.636,8.446c0.126,1.043,1.778,1.055,1.65,0c-0.363-3.004-0.971-5.949-1.696-8.886
				c-0.53,0.146-1.061,0.293-1.591,0.439c0.426,1.472,1.068,2.827,1.749,4.196c0.417,0.839,1.802,0.249,1.508-0.636
				c-0.622-1.87-1.245-3.738-1.666-5.667c-0.53,0.146-1.061,0.293-1.591,0.439c0.67,2.912,1.556,5.771,1.636,8.78
				c0.541-0.073,1.081-0.146,1.621-0.22c-0.631-2.674-0.966-5.39-1.303-8.113c-0.541,0.073-1.081,0.146-1.621,0.22
				c1.079,2.578,1.934,5.227,2.333,8c0.53-0.146,1.061-0.293,1.591-0.439c-0.74-3.085-1.976-6.004-3-9
				C1050.794,312.337,1049.2,312.767,1049.545,313.777L1049.545,313.777z"/>
		</g>
	</g>
	<g>
		<g>
			<path d="M1050.962,314.306c0.667,1.334,1.333,2.667,2,4c0.257,0.516,1.183,0.564,1.425,0c0.429-1.002,0.429-1.83,0-2.832
				c-0.417-0.976-1.838-0.135-1.425,0.832c0.171,0.401,0.171,0.767,0,1.168c0.475,0,0.95,0,1.425,0c-0.667-1.334-1.333-2.667-2-4
				C1051.912,312.522,1050.488,313.358,1050.962,314.306L1050.962,314.306z"/>
		</g>
	</g>
	<g>
		<g>
			<path d="M1051.628,314.306c0.585,1.213,0.924,2.503,1.251,3.804c0.502-0.212,1.005-0.424,1.508-0.636
				c-0.414-0.686-0.284-1.425-0.584-2.137c-0.404,0.311-0.808,0.621-1.212,0.932c0.67,0.336,1.285,0.686,1.833,1.204
				c0.772,0.731,1.941-0.434,1.167-1.166c-0.649-0.615-1.371-1.063-2.167-1.462c-0.565-0.284-1.521,0.199-1.212,0.932
				c0.141,0.333,0.157,0.658,0.204,1.013c0.074,0.556,0.256,1.037,0.546,1.517c0.488,0.808,1.736,0.274,1.508-0.636
				c-0.362-1.443-0.768-2.852-1.417-4.196C1052.591,312.516,1051.168,313.353,1051.628,314.306L1051.628,314.306z"/>
		</g>
	</g>
	<path d="M633.841,249.158c-1,0-1,1.65,0,1.65S634.841,249.158,633.841,249.158z"/>
</g>
<g>
	<g>
		<path d="M1111.114,828.281c7.327,1.675,14.852,1.676,22.328,1.679c6.449,0.002,6.449-9.998,0-10
			c-6.564-0.002-13.235,0.149-19.67-1.321C1107.494,817.203,1104.828,826.844,1111.114,828.281L1111.114,828.281z"/>
	</g>
</g>
<g>
	<g>
		<path d="M-3,774.462c131.554,11.524,263.412-0.223,394.993-4.731c37.311-1.279,74.65-1.912,111.981-1.269
			c6.452,0.111,6.441-9.889,0-10c-131.537-2.267-262.7,11.606-394.216,10.945C72.125,769.218,34.493,767.747-3,764.462
			C-9.427,763.9-9.373,773.904-3,774.462L-3,774.462z"/>
	</g>
</g>
<g>
	<g>
		<path d="M1141.442,762.462c63.356,6.461,126.997-0.377,190.464-0.554c32.635-0.091,65.267,1.848,97.909,2.117
			c33.227,0.273,66.455-0.138,99.675-0.794c56.146-1.108,112.272-2.997,168.425-3.77c6.443-0.089,6.452-10.089,0-10
			c-66.109,0.909-132.188,3.34-198.297,4.282c-33.247,0.474-66.502,0.531-99.747-0.142c-32.192-0.651-64.243-2.094-96.453-1.255
			c-53.963,1.406-108.104,5.607-161.976,0.114C1135.028,751.808,1135.092,761.815,1141.442,762.462L1141.442,762.462z"/>
	</g>
</g>
</svg>
